<?xml version="1.0" encoding="UTF-8" standalone="no"?>
<svg
   version="1.1"
   width="1000"
   height="291.26913"
   viewBox="0 0 1000 291.26913"
   id="svg1274"
   xmlns="http://www.w3.org/2000/svg"
   xmlns:svg="http://www.w3.org/2000/svg">
  <defs
     id="defs827" />
  <path
     d="m 119.50922,125.06067 c 0,-6.01037 -4.47371,-9.59962 -11.96511,-9.59962 H 95.42047 v 19.20063 h 12.12364 c 3.5976,0 11.96511,-0.9359 11.96511,-9.60101 z m 0,39.12857 c 0,-6.01037 -4.47371,-9.59962 -11.96511,-9.59962 H 95.42047 v 19.20202 h 12.12364 c 3.5976,0 11.96511,-0.9373 11.96511,-9.6024 z m 26.40834,1.45183 c 0,17.34273 -13.24172,29.45246 -32.20455,29.45246 H 73.146515 V 95.950305 h 37.814405 c 19.18395,0 32.07383,11.255875 32.07383,28.010365 0,7.86131 -3.6866,15.14412 -9.48281,19.55524 6.71126,3.95222 12.36562,11.50481 12.36562,22.12516 z m 127.49986,-20.00581 c 0,-70.571046 -57.21112,-127.782165 -127.78216,-127.782165 -70.571046,0 -127.782165,57.211119 -127.782165,127.782165 0,70.57104 57.211119,127.78216 127.782165,127.78216 70.57104,0 127.78216,-57.21112 127.78216,-127.78216 z m 17.85309,0 c 0,80.4321 -65.20315,145.63386 -145.63525,145.63386 C 65.203153,291.26912 0,226.06736 0,145.63526 0,65.201763 65.203153,0 145.63526,0 226.06736,0 291.27051,65.201763 291.27051,145.63526 Z M 153.48962,95.950305 h 69.55726 v 23.017945 h -23.19456 v 76.12528 h -24.08736 v -76.12528 h -22.27534 z"
     id="Fill-1" />
  <path
     d="m 348.50944,197.30605 c -4.68508,0 -9.43969,-0.41442 -14.26384,-1.23768 -4.82275,-0.82882 -9.62465,-2.111 -14.39873,-3.85904 v -21.08634 c 10.28799,3.77004 19.15335,5.65158 26.59608,5.65158 4.50012,0 7.85436,-0.64387 10.05853,-1.93161 2.20417,-1.28356 3.30695,-3.48912 3.30695,-6.61529 0,-1.37674 -0.27396,-2.61441 -0.82604,-3.71859 -0.5507,-1.10278 -1.44766,-2.17775 -2.68812,-3.23742 -1.24045,-1.05828 -2.89254,-2.13881 -4.95904,-3.23603 -2.06928,-1.10417 -4.61833,-2.3474 -7.64993,-3.72414 -3.85904,-1.83704 -7.30367,-3.69634 -10.33666,-5.57927 -3.02883,-1.88154 -5.58066,-3.97585 -7.64716,-6.27181 -2.0665,-2.29595 -3.62958,-4.91175 -4.68508,-7.85158 -1.05828,-2.94121 -1.58394,-6.38444 -1.58394,-10.33944 0,-4.68786 0.94007,-8.84311 2.82439,-12.4713 1.88294,-3.62958 4.47788,-6.6598 7.78483,-9.0962 3.30696,-2.43085 7.14374,-4.290144 11.50898,-5.57788 4.36106,-1.287737 9.02528,-1.931606 13.9871,-1.931606 4.96043,0 9.4397,0.369912 13.43641,1.102781 3.99532,0.739823 7.78483,1.837042 11.36852,3.309735 v 21.49519 c -4.13578,-1.65208 -7.97257,-2.91201 -11.50619,-3.79228 -3.5392,-0.86777 -7.3287,-1.30443 -11.36852,-1.30443 -8.26878,0 -12.40594,2.34046 -12.40594,7.02832 0,1.00822 0.14045,1.92743 0.41441,2.75626 0.27813,0.82326 0.84968,1.67433 1.72301,2.54766 0.87332,0.87332 2.11378,1.81479 3.72136,2.82301 1.60759,1.01378 3.78812,2.16106 6.54716,3.45018 4.95903,2.29596 9.20745,4.52516 12.74664,6.68066 3.53363,2.16245 6.42895,4.43616 8.68041,6.82111 2.25145,2.39191 3.92857,5.00771 5.02996,7.85297 1.10278,2.85082 1.65487,6.11467 1.65487,9.78319 0,10.66346 -3.30696,18.58318 -9.92225,23.77446 -6.61669,5.19127 -15.66422,7.78483 -27.14817,7.78483"
     id="Fill-4" />
  <path
     d="m 421.56279,116.27736 v 26.87142 h 3.99532 c 4.59191,0 8.08381,-1.08053 10.47294,-3.23742 2.38913,-2.1555 3.58369,-5.76283 3.58369,-10.81921 0,-4.96182 -1.30998,-8.33414 -3.92857,-10.12668 -2.61719,-1.79115 -5.90189,-2.68811 -9.85411,-2.68811 z m 41.89177,12.40038 c 0,10.75246 -3.10113,19.18116 -9.30341,25.29165 -6.19949,6.11049 -15.59469,9.16296 -28.17863,9.16296 h -4.40973 v 32.52161 H 396.89553 V 96.295185 h 30.5914 c 5.78925,0 10.90822,0.756511 15.36523,2.273704 4.45563,1.518581 8.19924,3.674081 11.23224,6.480401 3.033,2.79937 5.3512,6.1995 6.95879,10.19204 1.60758,3.99949 2.41137,8.48015 2.41137,13.43641 z"
     id="Fill-5" />
  <path
     d="m 525.37997,146.04411 c 0,-3.30974 -0.13768,-6.73072 -0.41441,-10.26574 -0.27535,-3.53919 -0.87472,-6.75436 -1.79255,-9.64969 -0.91782,-2.88976 -2.3182,-5.25802 -4.19974,-7.09506 -1.88572,-1.83705 -4.39166,-2.75626 -7.51366,-2.75626 -3.03021,0 -5.46662,0.87471 -7.30366,2.6158 -1.83704,1.74804 -3.2847,4.02174 -4.3402,6.82111 -1.05828,2.80632 -1.7689,5.99924 -2.13603,9.58293 -0.36713,3.57813 -0.55209,7.16321 -0.55209,10.74691 0,3.30417 0.14046,6.75436 0.41441,10.33388 0.27535,3.58369 0.91922,6.84892 1.93022,9.78318 1.011,2.94121 2.43224,5.37623 4.27206,7.30367 1.83426,1.9316 4.36106,2.89532 7.57762,2.89532 3.033,0 5.46662,-0.89558 7.30367,-2.68812 1.83704,-1.79254 3.26245,-4.13299 4.27345,-7.02832 1.011,-2.88976 1.67433,-6.14943 1.99835,-9.78457 0.31985,-3.62402 0.48256,-7.22996 0.48256,-10.81504 z m 25.07888,-0.27396 c 0,5.69608 -0.61883,11.57572 -1.85929,17.63615 -1.24045,6.0646 -3.35563,11.59798 -6.33995,16.60569 -2.98571,5.00632 -7.00607,9.11707 -12.05828,12.33224 -5.05082,3.21934 -11.34627,4.82692 -18.87939,4.82692 -7.90164,0 -14.37926,-1.45044 -19.43009,-4.3402 -5.05221,-2.89532 -9.05031,-6.73211 -11.98874,-11.50897 -2.93983,-4.77687 -4.98407,-10.22124 -6.13275,-16.33034 -1.15006,-6.11049 -1.72161,-12.37813 -1.72161,-18.81264 0,-3.66852 0.2517,-7.51087 0.75651,-11.50341 0.50341,-3.9995 1.35449,-7.8794 2.55044,-11.64387 1.19317,-3.76865 2.77851,-7.32453 4.75461,-10.68015 1.97472,-3.35424 4.4306,-6.31631 7.3732,-8.88761 2.93843,-2.57687 6.38167,-4.597473 10.33388,-6.065993 3.95082,-1.467131 8.49823,-2.205563 13.64222,-2.205563 7.53313,0 13.82718,1.450442 18.88218,4.340206 5.04804,2.89532 9.04753,6.70986 11.98735,11.44222 2.94122,4.73236 5.02997,10.12528 6.27042,16.18988 1.24046,6.06043 1.85929,12.26549 1.85929,18.60544 z"
     id="Fill-6" />
  <path
     d="m 586.98691,116.27736 v 24.66586 h 3.99533 c 4.59329,0 8.0852,-1.03186 10.47294,-3.09836 2.38913,-2.06649 3.58508,-5.12452 3.58508,-9.16712 0,-4.5933 -1.30999,-7.80708 -3.92857,-9.64412 -2.61858,-1.83705 -5.90329,-2.75626 -9.85411,-2.75626 z m 41.89178,11.71062 c 0,6.33994 -1.37813,11.80657 -4.13299,16.40404 -2.75626,4.5933 -6.89204,8.12693 -12.40316,10.60784 l 24.25423,40.6541 h -26.4598 l -19.01706,-35.27787 h -4.133 v 35.27787 H 562.31966 V 96.295185 h 30.59279 c 11.57573,0 20.46334,2.778508 26.66422,8.339695 6.20227,5.55563 9.30202,13.34602 9.30202,23.3531 z"
     id="Fill-7" />
  <path
     id="Fill-8"
     d="m 637.36162,96.295185 h 70.2804 V 116.0034 h -22.73843 v 79.65056 H 660.10005 V 116.0034 H 637.36162 V 96.295185" />
  <path
     id="Fill-9"
     d="M 914.71595,195.7527 H 902.71052 V 150.34954 H 863.37753 V 195.7527 H 851.37209 V 96.250685 h 12.00544 v 43.333875 h 39.33299 V 96.250685 h 12.00543 V 195.7527" />
  <path
     d="m 987.58017,146.07053 c 0,-4.69204 -0.39216,-9.36043 -1.17231,-14.00797 -0.78294,-4.64475 -2.16385,-8.83198 -4.13995,-12.55891 -1.98028,-3.72553 -4.64754,-6.73767 -8.00455,-9.03919 -3.3598,-2.29734 -7.56928,-3.45019 -12.62706,-3.45019 h -15.73375 v 78.25018 h 14.76586 c 5.52086,0 10.02794,-1.24184 13.52541,-3.72692 3.49608,-2.48369 6.23148,-5.65714 8.21176,-9.52175 1.9775,-3.8646 3.33338,-8.09494 4.07042,-12.69658 0.73565,-4.60025 1.10417,-9.01694 1.10417,-13.24867 z m 12.41983,0 c 0,7.08533 -0.80656,13.66308 -2.41414,19.73464 -1.61037,6.07294 -4.09406,11.31706 -7.45247,15.73236 -3.3584,4.41668 -7.68331,7.89051 -12.97193,10.4201 -5.29279,2.53236 -11.61745,3.79507 -18.97674,3.79507 h -24.289 V 96.250685 h 22.90948 c 7.63464,0 14.1665,1.151453 19.59697,3.450185 5.42768,2.30013 9.88887,5.61265 13.38634,9.93616 3.49469,4.32629 6.07295,9.57042 7.72781,15.73236 1.65626,6.16473 2.48368,13.06511 2.48368,20.70114 z"
     id="Fill-10" />
  <path
     d="M 759.84543,195.55383 V 183.9642 l 24.56295,-30.49683 c 4.60026,-5.70304 8.11859,-10.73995 10.55639,-15.10936 2.43641,-4.3694 3.65739,-8.94601 3.65739,-13.72983 0,-4.78243 -1.30999,-8.37168 -3.93274,-10.76498 -2.62276,-2.39052 -6.41643,-3.58647 -11.38521,-3.58647 -3.67964,0 -7.24387,0.50619 -10.69406,1.51719 -3.45018,1.01378 -6.82945,2.34602 -10.14197,4.00227 v -15.73097 c 3.40152,-1.471299 6.96852,-2.690894 10.69406,-3.657392 3.72554,-0.966498 8.11719,-1.449052 13.17914,-1.449052 4.32212,0 8.34804,0.621618 12.07358,1.863464 3.72553,1.241845 6.94488,3.03578 9.65941,5.38179 2.71315,2.34602 4.85057,5.24413 6.41644,8.69292 1.56308,3.45019 2.34741,7.43022 2.34741,11.93591 0,3.58925 -0.39356,6.99216 -1.17371,10.2115 -0.78432,3.22212 -1.93299,6.41782 -3.45019,9.59128 -1.51719,3.17345 -3.45019,6.41504 -5.7962,9.72755 -2.34463,3.31252 -5.03692,6.85449 -8.07131,10.62592 l -14.21377,17.38584 h 35.0498 v 15.17888 h -59.33741"
     id="Fill-11" />
</svg>
