<?xml version="1.0" encoding="utf-8"?>
<!-- Generator: Adobe Illustrator 23.1.0, SVG Export Plug-In . SVG Version: 6.00 Build 0)  -->
<svg version="1.1" id="Layer_2" xmlns="http://www.w3.org/2000/svg" xmlns:xlink="http://www.w3.org/1999/xlink" x="0px" y="0px"
	 width="1000px" height="291.7225037px" viewBox="0 0 1000 291.7225037" enable-background="new 0 0 1000 291.7225037"
	 xml:space="preserve">
<polygon points="914.5518188,195.9139709 902.4942017,195.9139709 902.4942017,150.3153534 862.9942017,150.3153534 
	862.9942017,195.9139709 850.9356079,195.9139709 850.9356079,95.9853058 862.9942017,95.9853058 862.9942017,139.5048218 
	902.4942017,139.5048218 902.4942017,95.9853058 914.5518188,95.9853058 "/>
<path d="M999.9990234,146.0214081c0,7.1142578-0.8310547,13.7207031-2.4951172,19.8193359
	c-1.5703125,6.0986176-4.0654297,11.3652191-7.4833984,15.7997894c-3.3261719,4.4355469-7.6689453,7.9462891-13.0283203,10.5332031
	c-5.2666016,2.4951172-11.5957031,3.7421875-18.9873047,3.7421875h-24.3934937V95.9877472h23.0077515
	c7.6689453,0,14.2285156,1.1547852,19.6806641,3.4648438c5.4511719,2.3095627,9.9326172,5.6362228,13.4433594,9.9789963
	c3.5117188,4.3427734,6.0986328,9.6093674,7.7617188,15.8002853C999.1679688,131.4223022,1000,138.3519897,1000,146.0209198
	L999.9990234,146.0214081z M987.5253906,146.0214081c0-4.7124023-0.4160156-9.3784027-1.2470703-13.9980316
	c-0.7392578-4.7124023-2.125-8.9165039-4.1582031-12.6123047c-1.9404297-3.7885666-4.6201172-6.8373947-8.0390625-9.1474533
	c-3.3261719-2.3100586-7.5302734-3.4648438-12.6123047-3.4648438h-15.7998047v78.5849228h14.8300781
	c5.5439453,0,10.0712891-1.2480469,13.5820313-3.7421875c3.5117188-2.4951172,6.2373047-5.6826172,8.1777344-9.5634766
	c2.0322266-3.8808441,3.4189453-8.1308441,4.1582031-12.7499847c0.7382813-4.6201172,1.1083984-9.0556641,1.1083984-13.3056641
	V146.0214081z"/>
<path d="M145.856369,0C65.3002625,0,0,65.3007507,0,145.8568573s65.3002625,145.8656464,145.856369,145.8656464
	c80.5566101,0,145.8656464-65.3095245,145.8656464-145.8656464S226.4129791,0,145.856369,0z M145.7894745,17.9848537
	c70.7118835,0,128.0326691,57.3207703,128.0326691,128.0326538S216.501358,274.0506592,145.7894745,274.0506592
	S17.7568264,216.7293854,17.7568264,146.0175018S75.0775986,17.9848537,145.7894745,17.9848537z"/>
<path d="M73.1640244,95.9994659v99.30513h40.4076996c18.3652267,0,32.4775162-11.4658203,32.4775162-29.6259613
	c0-16.0175781-12.5029144-22.1269531-12.5029144-22.1269531s9.5951996-6.1279144,9.5951996-19.7543793
	c0-15.8281174-12.4965668-27.7993011-30.9277115-27.7993011L73.1640244,95.9994659z M95.5106964,115.4091263h11.9384689
	c8.4853516,0,12.1874924,4.3618088,12.1874924,9.7480392c0,5.8476563-4.1918869,9.5375977-11.6230392,9.5375977H95.5106964
	V115.4091263z M95.5106964,154.5926971h11.9384689c8.4853516,0,12.1874924,4.3613281,12.1874924,9.7480469
	c0,5.8476563-4.1918869,9.5370941-11.6230392,9.5370941H95.5106964V154.5926971z"/>
<polygon points="176.01651,194.9940491 176.01651,118.7728882 153.6698456,118.7728882 153.6698456,95.8139191 
	223.1580963,95.8139191 223.1580963,118.7728882 199.8929749,118.7728882 199.8929749,194.9940491 "/>
<path d="M320.2889099,171.1747284v21.3974457c0,0,13.09375,5.2480469,28.757782,5.2480469
	c22.6425781,0,37.2832031-10.0908203,37.2832031-31.7167816c0-29.6850433-40.65625-29.0419769-40.65625-42.7006683
	c0-4.8061523,3.9746094-7.119133,12.4477539-7.119133c11.1142578,0,23.0146484,5.0776291,23.0146484,5.0776291V99.629837
	c0,0-9.762207-4.371582-24.8520508-4.371582c-18.1347351,0-36.3153992,8.6591721-36.3153992,29.6030121
	c0,31.5234222,40.4208679,28.1161957,40.4208679,43.7197113c0,6.1679535-4.2524414,8.4775238-13.3432617,8.4775238
	c-13.1288757,0-26.757782-5.8827972-26.757782-5.8827972L320.2889099,171.1747284z"/>
<path d="M397.520813,96.4530792v99.4618683h24.7402039v-32.4296722h4.7880859
	c26.6459961,0,37.3574219-15.1513672,37.3574219-34.2026215c0-23.2856369-16.8115234-32.8295746-34.456543-32.8295746H397.520813z
	 M422.2610168,116.5126419h4.3461914c6.777832,0,13.7192383,2.0019455,13.7192383,12.9706955
	c0,10.2177734-5.4174805,13.9423676-13.7192383,13.9423676h-4.3461914V116.5126419z"/>
<path d="M512.4162598,95.2826691c-23.1298828,0-39.6103516,16.6821213-39.6103516,51.2997742
	c0,29.3530121,10.0761719,51.0141449,39.3417969,51.0141449c27.1708984,0,39.328125-23.5146484,39.328125-51.4770355
	c0-36.8085709-16.8447266-50.8368835-39.0605469-50.8368835H512.4162598z M512.404541,116.5443802
	c11.9091797,0,13.8457031,14.6259689,13.8457031,30.0146255c0,16.1704102-2.7617188,30.0356293-14.1835938,30.0356293
	c-12.7915039,0-13.9516602-17.8915863-13.9516602-30.4374847c0-14.2050629,2.1591797-29.6132584,14.2895508-29.6132584V116.5443802z
	"/>
<path d="M630.1281128,128.2689819c0-20.8876877-14.3378906-31.8168793-34.3720703-31.8168793h-32.4287109v99.4618683h24.7392578
	V160.809494h4.0078125l19.0605469,35.1044769h26.4121094l-24.1015625-40.6327972
	C622.6378784,151.2030487,630.1281128,142.8358612,630.1281128,128.2689819z M588.0675659,116.5121536h4.3457031
	c6.7783203,0,13.7197266,2.6308517,13.7197266,12.1645432c0,8.4023438-5.4179688,12.3930511-13.7197266,12.4496918h-4.3457031
	V116.5121536z"/>
<polygon points="661.2814331,195.9149475 661.2814331,116.346138 638.3800659,116.346138 638.3800659,96.4540558 
	708.9229736,96.4540558 708.9229736,116.346138 686.0216675,116.346138 686.0216675,195.9149475 "/>
<path d="M820.2481079,120.4452515c0,5.1616211-1.3818359,9.6782227-4.1474609,13.5493164
	c-2.6728516,3.7792969-6.2675171,6.9589691-10.7841187,9.5400238c4.8857422,2.1201172,8.8026733,5.1157227,11.7518921,8.9868164
	c3.0419922,3.8710938,4.5625,8.5263672,4.5625,13.9648438c0,9.9540863-3.1337891,17.6513519-9.4013062,23.0888519
	c-6.1757813,5.3466797-14.8398438,8.0195313-25.9931641,8.0195313c-4.5166016,0-8.8027344-0.4150391-12.8583984-1.2441406
	c-3.9628906-0.8300781-7.4199219-1.7978516-10.3691406-2.9033203v-16.1767578
	c4.0556641,1.4746094,8.0195313,2.6728516,11.890625,3.5947266c3.8710938,0.8300781,7.9267578,1.2441406,12.1669922,1.2441406
	c4.7929688,0,8.7099609-1.2441406,11.7519531-3.7324219c3.1337891-2.4892578,4.7011719-6.40625,4.7011719-11.7519379
	c0-4.8857422-1.5673828-8.5722656-4.7011719-11.0615234c-3.1337891-2.4882813-7.328125-3.7324219-12.5820313-3.7324219h-13.6875
	v-14.9321136h13.2734375c4.7929688,0,8.7099609-1.2446289,11.7519531-3.7333984
	c3.1337891-2.5805664,4.7011719-6.175293,4.7011719-10.7841797c0-3.8710938-1.2451172-6.7744064-3.7333984-8.7099533
	s-6.0371094-2.9033203-10.6464844-2.9033203c-3.2255859,0-6.7285156,0.4145508-10.5078125,1.2441406
	c-3.6865234,0.7373047-7.1894531,1.6591797-10.5078125,2.7651367V99.2924347
	c3.5029297-1.1982422,7.2822266-2.1665039,11.3378906-2.9038086s8.203125-1.105957,12.4433594-1.105957
	c10.1386719,0,17.6044922,2.3041992,22.3973999,6.9130783c4.7929688,4.6088867,7.1894531,10.6923828,7.1894531,18.2499924
	V120.4452515z"/>
</svg>
