<?xml version="1.0" encoding="utf-8"?>
<!-- Generator: Adobe Illustrator 23.0.4, SVG Export Plug-In . SVG Version: 6.00 Build 0)  -->
<svg version="1.1" id="Layer_1" xmlns="http://www.w3.org/2000/svg" xmlns:xlink="http://www.w3.org/1999/xlink" x="0px" y="0px"
	 viewBox="0 0 842.1 563.6" style="enable-background:new 0 0 842.1 563.6;" xml:space="preserve">
<style type="text/css">
	.st0{fill:#102B34;}
	.st1{fill:#E51B2E;}
</style>
<rect y="194.5" class="st0" width="43.6" height="174.7"/>
<polygon class="st0" points="265.1,369.3 211.4,194.5 256.2,194.5 288.9,317.8 289.6,317.8 323.3,194.5 364.7,194.5 309.6,369.3 "/>
<polygon class="st0" points="371.2,369.2 371.2,194.5 492.2,194.5 492.2,230 414.7,230 414.7,263.4 484.7,263.4 484.7,298.6 
	414.7,298.6 414.7,333.4 492.7,333.4 492.7,369.2 "/>
<polygon class="st0" points="586.4,177.7 586.4,2.9 707.4,2.9 707.4,38.5 630,38.5 630,71.8 699.9,71.8 699.9,107.1 630,107.1 
	630,141.9 707.9,141.9 707.9,177.7 "/>
<g>
	<path class="st0" d="M496.3,340.6l27.5-24.8c9,12.7,25.8,22.1,44,22.1c13.1,0,27.2-4.2,27.2-16.4c0-10.8-8.8-14.7-19.5-17.6
		l-29.9-7.8c-23.6-6.4-41.1-20.1-41.1-48.3c0-32.6,27.7-56.1,66.2-56.1c30.7,0,48.9,7.6,64.2,26.5l-27.5,24
		c-8.5-11-23.1-16.2-36.7-16.2c-12.7,0-23.6,4.4-23.6,16.4c0,10.1,10.5,13.5,23.6,16.9l27.3,7.4c24.8,6.4,41.6,21.3,41.6,48.5
		c0,38-34.1,57.1-69.8,57.1C539.4,372.2,512.8,363.8,496.3,340.6"/>
</g>
<g>
	<polygon class="st0" points="690.7,229.5 637.9,229.5 637.9,194.5 787.1,194.5 787.1,229.5 734.3,229.5 734.3,369.2 690.7,369.2 	
		"/>
</g>
<g>
	<rect x="798.6" y="194.5" class="st0" width="43.6" height="174.7"/>
</g>
<g>
	<polygon class="st0" points="161.4,194.5 161.4,289 99.5,194.6 57.4,194.6 57.4,369.3 101,369.3 101,271.1 164.6,369.3 205,369.3 
		205,194.6 205,194.5 	"/>
</g>
<g>
	<polygon class="st1" points="842.1,84.9 776.5,84.9 776.5,19.6 765.6,19.6 765.6,84.9 699.9,84.9 699.9,95.7 765.6,95.7 765.6,161 
		776.5,161 776.5,95.7 842.1,95.7 	"/>
</g>
<g>
	<polygon class="st0" points="341,420.8 288.2,420.8 288.2,385.8 437.4,385.8 437.4,420.8 384.6,420.8 384.6,560.5 341,560.5 	"/>
</g>
<g>
	<path class="st0" d="M0,500.6v-53.4C0,404.3,34.6,383,73,383c33.6,0,71,15.9,71,56.6v6.4h-40.9v-3.4c0-18.1-15.6-24.8-29-24.8
		c-15.1,0-30.7,8.1-30.7,27.9v53.9c0,17.9,12.9,28.9,30.7,28.9c16.1,0,28.2-7.3,28.2-25.7v-4.4h-35V466H144v40.2
		c0,40.2-36.5,57.4-70.1,57.4C35.5,563.6,0,544.2,0,500.6"/>
</g>
<g>
	<rect x="459.2" y="385.9" class="st0" width="43.6" height="174.7"/>
</g>
<g>
	<path class="st0" d="M522.9,499.6v-50.5c0-44.4,36-66.2,73.2-66.2c38.7,0,74.5,20.8,74.5,65.9v48.5c0,45.6-37.2,66.2-73.5,66.2
		C558.1,563.6,522.9,544.7,522.9,499.6 M627,498.9v-51.7c0-18.4-14.4-28.4-30.7-28.4c-15.6,0-29.9,8.3-29.9,28.7v51.2
		c0,18.6,12.9,28.9,30.7,28.9C612.4,527.6,627,518.7,627,498.9"/>
</g>
<g>
	<polygon class="st0" points="798.6,385.9 798.6,480.4 732.8,386 690.7,386 690.7,560.7 734.3,560.7 734.3,462.4 801.7,560.7 
		842.1,560.7 842.1,386 842.1,385.9 	"/>
</g>
<g>
	<path class="st0" d="M204.2,385.7h46.5l60.8,175H267l-10.5-32.6h-62l-10.7,32.6h-41.1L204.2,385.7z M245.8,493.7l-20-63.2h-0.7
		L205,493.7H245.8z"/>
</g>
<g>
	<path class="st0" d="M0,117.6V64.2C0,21.3,34.6,0,73,0c33.6,0,70.3,17.2,70.3,57.6v8.1h-40.9v-3.9c0-18.4-15.3-26-28.7-26
		c-15.3,0-30.2,8.1-30.2,27.9v52.9c0,17.9,12.9,28.2,30.7,28.2c13.4,0,28.2-7.8,28.2-26v-4.2h40.9v8.6c0,40.2-35.8,57.3-69.3,57.3
		C35.8,180.6,0,161.3,0,117.6"/>
</g>
<g>
	<path class="st0" d="M161.4,2.9h75.9c39.4,0,62,22.8,62,55.1c0,21.3-10.2,42.2-32.6,51.5l39.7,68.1H259l-34.3-61.8H205v61.8h-43.6
		V2.9z M231.7,83.6c15.8,0,25.3-9.1,25.3-23.3c0-14.9-9.7-23-25.3-23H205v46.3H231.7z"/>
</g>
<g>
	<rect x="321.3" y="2.9" class="st0" width="43.6" height="174.7"/>
</g>
<g>
	<polygon class="st0" points="386.8,2.9 440.8,2.9 476.1,93.1 476.6,93.1 511.1,2.9 564.4,2.9 564.4,177.7 524.3,177.7 524.3,66.4 
		523.8,66.4 490.7,154.2 460.8,154.2 427.4,66.7 427,66.7 427,177.7 386.8,177.7 	"/>
</g>
</svg>
