<?xml version="1.0" encoding="UTF-8" standalone="no"?>
<!-- Generator: Adobe Illustrator 16.0.0, SVG Export Plug-In . SVG Version: 6.00 Build 0)  -->

<svg
   xmlns:dc="http://purl.org/dc/elements/1.1/"
   xmlns:cc="http://creativecommons.org/ns#"
   xmlns:rdf="http://www.w3.org/1999/02/22-rdf-syntax-ns#"
   xmlns:svg="http://www.w3.org/2000/svg"
   xmlns="http://www.w3.org/2000/svg"
   xmlns:sodipodi="http://sodipodi.sourceforge.net/DTD/sodipodi-0.dtd"
   xmlns:inkscape="http://www.inkscape.org/namespaces/inkscape"
   version="1.1"
   id="Layer_1"
   x="0px"
   y="0px"
   width="1000"
   height="285.70499"
   viewBox="0 0 1000 285.70499"
   enable-background="new 0 0 1998.57 571"
   xml:space="preserve"
   inkscape:version="0.91 r13725"
   sodipodi:docname="Cartoon_Network_extended_logo_2010.svg"><metadata
   id="metadata65"><rdf:RDF><cc:Work
       rdf:about=""><dc:format>image/svg+xml</dc:format><dc:type
         rdf:resource="http://purl.org/dc/dcmitype/StillImage" /><dc:title></dc:title></cc:Work></rdf:RDF></metadata><defs
   id="defs63" /><sodipodi:namedview
   pagecolor="#ffffff"
   bordercolor="#666666"
   borderopacity="1"
   objecttolerance="10"
   gridtolerance="10"
   guidetolerance="10"
   inkscape:pageopacity="0"
   inkscape:pageshadow="2"
   inkscape:window-width="1366"
   inkscape:window-height="705"
   id="namedview61"
   showgrid="false"
   inkscape:zoom="256"
   inkscape:cx="999.46727"
   inkscape:cy="285.71232"
   inkscape:window-x="-8"
   inkscape:window-y="-8"
   inkscape:window-maximized="1"
   inkscape:current-layer="Layer_1" />
<g
   id="g3"
   transform="matrix(0.50035749,0,0,0.50035749,0,3.8342773e-4)">
	<rect
   x="1713.05"
   width="285.521"
   height="285.552"
   id="rect5"
   y="0" />
	<rect
   y="0.0099999998"
   width="285.55399"
   height="285.54199"
   id="rect7"
   x="0" />
	<rect
   x="1142.0341"
   width="285.52301"
   height="285.552"
   id="rect9"
   y="0" />
	<rect
   x="1427.558"
   width="285.48901"
   height="285.552"
   id="rect11"
   y="0"
   style="fill:#ffffff" />
	<rect
   x="285.55399"
   width="285.505"
   height="285.552"
   id="rect13"
   y="0"
   style="fill:#ffffff" />
	<rect
   x="856.56403"
   width="285.47601"
   height="285.552"
   id="rect15"
   y="0"
   style="fill:#ffffff" />
	<rect
   x="571.05298"
   width="285.51199"
   height="285.552"
   id="rect17"
   y="0" />
	<rect
   x="856.56403"
   y="285.552"
   width="285.47601"
   height="285.44901"
   id="rect19" />
	<rect
   x="571.05298"
   y="285.552"
   width="285.51199"
   height="285.44901"
   id="rect21"
   style="fill:#ffffff" />
	<rect
   x="285.55399"
   y="285.552"
   width="285.505"
   height="285.44901"
   id="rect23" />
	<rect
   y="285.552"
   width="285.55399"
   height="285.44901"
   id="rect25"
   x="0"
   style="fill:#ffffff" />
	<rect
   x="1142.0341"
   y="285.552"
   width="285.52301"
   height="285.44901"
   id="rect27"
   style="fill:#ffffff" />
	<rect
   x="1713.05"
   y="285.552"
   width="285.521"
   height="285.44901"
   id="rect29"
   style="fill:#ffffff" />
	<rect
   x="1427.558"
   y="285.552"
   width="285.48901"
   height="285.44901"
   id="rect31" />
	<polygon
   points="1878.369,550.62 1983.253,550.62 1898.252,423.656 1983.253,305.9 1878.369,305.9 1825.23,386.029 1825.23,305.9 1735.992,305.9 1735.992,550.62 1825.23,550.62 1825.23,459.386 "
   id="polygon33" />
	<path
   d="m 1539.704,377.279 51.021,0 c 11.188,0 20.382,9.185 20.382,20.388 0,11.278 -9.193,20.441 -20.382,20.441 l -51.021,0 0,-40.829 z m 152.906,15.304 c 0,-44.442 -35.085,-86.683 -91.739,-86.683 l -142.759,0 0,244.709 81.592,0 0,-71.338 25.938,0 35.896,71.338 91.072,0 -48.452,-81.354 c 28.363,-14.506 48.452,-43.353 48.452,-76.672"
   id="path35"
   inkscape:connector-curvature="0"
   style="fill:#ffffff" />
	<path
   d="m 1284.799,474.185 c -25.351,0 -45.901,-20.554 -45.901,-45.899 0,-25.335 20.551,-45.871 45.901,-45.871 25.315,0 45.905,20.536 45.905,45.871 0,25.345 -20.59,45.899 -45.905,45.899 m 0,-173.361 c -70.395,0 -127.444,57.035 -127.444,127.461 0,70.377 57.05,127.44 127.444,127.44 70.377,0 127.497,-57.063 127.497,-127.44 0,-70.426 -57.12,-127.461 -127.497,-127.461"
   id="path37"
   inkscape:connector-curvature="0" />
	<polygon
   points="948.278,305.9 871.853,305.9 897.586,550.603 970.369,550.603 999.307,484.763 1028.222,550.603 1100.962,550.603 1126.778,305.9 1050.299,305.9 1040.085,403.196 999.307,314.42 958.479,403.196 "
   id="polygon39"
   style="fill:#ffffff" />
	<polygon
   points="836.156,305.9 591.422,305.9 591.422,377.279 667.903,377.279 667.903,550.62 759.675,550.62 759.675,377.279 836.156,377.279 "
   id="polygon41" />
	<polygon
   points="514.94,459.863 514.94,398.598 402.79,398.598 402.79,377.279 535.376,377.279 535.376,305.9 321.218,305.9 321.218,550.609 535.376,550.609 535.376,484.342 402.79,484.342 402.79,459.863 "
   id="polygon43"
   style="fill:#ffffff" />
	<polygon
   points="101.937,448.688 183.546,550.603 265.149,550.603 265.149,305.9 183.546,305.9 183.546,407.858 101.937,305.9 20.406,305.9 20.406,550.603 101.937,550.603 "
   id="polygon45" />
	<polygon
   points="1818.685,162.776 1898.656,262.689 1972.869,262.689 1972.869,22.863 1892.873,22.863 1892.873,122.794 1812.965,22.863 1738.712,22.863 1738.712,262.689 1818.685,262.689 "
   id="polygon47"
   style="fill:#ffffff" />
	<path
   d="m 1570.293,188.633 c -25.354,0 -45.898,-20.536 -45.898,-45.853 0,-25.354 20.545,-45.9 45.898,-45.9 25.345,0 45.895,20.547 45.895,45.9 0,25.318 -20.55,45.853 -45.895,45.853 m 0,-173.314 c -70.406,0 -127.504,57.062 -127.504,127.461 0,70.404 57.098,127.452 127.504,127.452 70.399,0 127.5,-57.048 127.5,-127.452 0,-70.398 -57.101,-127.461 -127.5,-127.461"
   id="path49"
   inkscape:connector-curvature="0" />
	<path
   d="m 1284.799,188.633 c -25.351,0 -45.901,-20.536 -45.901,-45.853 0,-25.354 20.551,-45.9 45.901,-45.9 25.315,0 45.905,20.547 45.905,45.9 0,25.318 -20.59,45.853 -45.905,45.853 m 0,-173.314 c -70.395,0 -127.444,57.062 -127.444,127.461 0,70.404 57.05,127.452 127.444,127.452 70.377,0 127.497,-57.048 127.497,-127.452 0,-70.398 -57.12,-127.461 -127.497,-127.461"
   id="path51"
   inkscape:connector-curvature="0"
   style="fill:#ffffff" />
	<polygon
   points="1121.662,20.391 876.911,20.391 876.911,91.804 953.404,91.804 953.404,265.145 1045.185,265.145 1045.185,91.804 1121.662,91.804 "
   id="polygon53" />
	<path
   d="m 683.217,91.816 50.91,0 c 11.303,0 20.432,9.066 20.432,20.407 0,11.231 -9.129,20.351 -20.432,20.351 l -50.91,0 0,-40.758 z m 152.939,15.28 c 0,-44.388 -35.174,-86.717 -91.783,-86.717 l -61.156,0 -50.995,0 -30.599,0 0,244.762 81.594,0 0,-71.375 25.88,0 35.896,71.375 91.163,0 -48.576,-81.364 c 28.433,-14.485 48.576,-43.401 48.576,-76.681"
   id="path55"
   inkscape:connector-curvature="0"
   style="fill:#ffffff" />
	<path
   d="m 411.159,163.167 17.109,-75.185 17.31,75.185 -34.419,0 z m 57.882,101.974 86.689,0 -61.212,-244.762 -66.25,0 -66.259,0 -61.229,244.762 87.161,0 9.3,-40.792 62.463,0 9.337,40.792 z"
   id="path57"
   inkscape:connector-curvature="0" />
	<path
   d="m 187.701,165.527 c -7.931,13.772 -22.783,23.12 -39.792,23.12 -25.407,0 -45.97,-20.55 -45.97,-45.871 0,-25.353 20.563,-45.896 45.97,-45.896 17.009,0 31.861,9.329 39.792,23.148 L 258.49,79.522 C 236.571,41.195 195.24,15.305 147.909,15.305 c -70.47,0 -127.5,57.08 -127.5,127.471 0,70.393 57.029,127.441 127.5,127.441 47.331,0 88.662,-25.824 110.581,-64.202 l -70.789,-40.488 z"
   id="path59"
   inkscape:connector-curvature="0"
   style="fill:#ffffff" />
</g>
</svg>