<?xml version="1.0" encoding="UTF-8" standalone="no"?>
<!-- Created with Inkscape (http://www.inkscape.org/) -->

<svg
   xmlns:dc="http://purl.org/dc/elements/1.1/"
   xmlns:cc="http://creativecommons.org/ns#"
   xmlns:rdf="http://www.w3.org/1999/02/22-rdf-syntax-ns#"
   xmlns:svg="http://www.w3.org/2000/svg"
   xmlns="http://www.w3.org/2000/svg"
   xmlns:sodipodi="http://sodipodi.sourceforge.net/DTD/sodipodi-0.dtd"
   xmlns:inkscape="http://www.inkscape.org/namespaces/inkscape"
   width="999"
   height="1044.2061"
   id="svg8366"
   version="1.1"
   inkscape:version="0.91 r13725"
   sodipodi:docname="Cbbc-logo.svg">
  <defs
     id="defs8368">
    <clipPath
       clipPathUnits="userSpaceOnUse"
       id="clipPath7955">
      <path
         inkscape:connector-curvature="0"
         d="m 334.168,500.048 22.896,0 0,22.896 -22.896,0 0,-22.896 z"
         id="path7957" />
    </clipPath>
    <clipPath
       clipPathUnits="userSpaceOnUse"
       id="clipPath7955-1">
      <path
         inkscape:connector-curvature="0"
         d="m 334.168,500.048 22.896,0 0,22.896 -22.896,0 0,-22.896 z"
         id="path7957-0" />
    </clipPath>
  </defs>
  <sodipodi:namedview
     id="base"
     pagecolor="#ffffff"
     bordercolor="#666666"
     borderopacity="1.0"
     inkscape:pageopacity="0.0"
     inkscape:pageshadow="2"
     inkscape:zoom="0.28300781"
     inkscape:cx="628.34735"
     inkscape:cy="229.85382"
     inkscape:document-units="px"
     inkscape:current-layer="layer1"
     showgrid="false"
     fit-margin-left="0.5"
     fit-margin-bottom="0.5"
     fit-margin-top="0.5"
     fit-margin-right="0.5"
     inkscape:window-width="1680"
     inkscape:window-height="931"
     inkscape:window-x="0"
     inkscape:window-y="1"
     inkscape:window-maximized="1" />
  <metadata
     id="metadata8371">
    <rdf:RDF>
      <cc:Work
         rdf:about="">
        <dc:format>image/svg+xml</dc:format>
        <dc:type
           rdf:resource="http://purl.org/dc/dcmitype/StillImage" />
        <dc:title></dc:title>
      </cc:Work>
    </rdf:RDF>
  </metadata>
  <g
     inkscape:label="Layer 1"
     inkscape:groupmode="layer"
     id="layer1"
     transform="translate(-143.85176,1071.9926)">
    <g
       id="g7951"
       transform="matrix(63.296352,0,0,-63.296352,-21206.761,31740.203)">
      <g
         id="g7953"
         clip-path="url(#clipPath7955-1)">
        <g
           id="g7981"
           transform="translate(353.0948,513.473)">
          <path
             d="M 0,0 C -0.648,1.465 -1.711,2.706 -3.039,3.573 L -3.029,-1.6 C -1.771,-1.599 -0.661,-0.965 0,0"
             style="fill:#f3611f;fill-opacity:1;fill-rule:nonzero;stroke:none"
             id="path7983"
             inkscape:connector-curvature="0" />
        </g>
        <g
           id="g7985"
           transform="translate(350.0662,508.4067)">
          <path
             d="m 0,0 0,-5.163 c 1.323,0.867 2.381,2.104 3.028,3.564 C 2.366,-0.634 1.258,-0.001 0,0"
             style="fill:#ef3623;fill-opacity:1;fill-rule:nonzero;stroke:none"
             id="path7987"
             inkscape:connector-curvature="0" />
        </g>
        <g
           id="g7989"
           transform="translate(346.0718,506.2724)">
          <path
             d="m 0,0 c 0,0 0,-0.001 0.001,-0.001 1.842,-0.047 3.35,1.422 3.35,3.266 l 0,7.883 C 2.341,11.686 1.206,12.02 0,12.095 L 0,0 Z"
             style="fill:#378baa;fill-opacity:1;fill-rule:nonzero;stroke:none"
             id="path7991"
             inkscape:connector-curvature="0" />
        </g>
        <g
           id="g7993"
           transform="translate(346.0724,506.2456)">
          <path
             d="m 0,0 0,0 c 0,0 -0.001,0 -0.001,-0.001 l 0,-4.329 c 1.206,0.075 2.341,0.409 3.351,0.947 l 10e-4,0.118 C 3.351,-1.422 1.843,0.048 0,0"
             style="fill:#53c49b;fill-opacity:1;fill-rule:nonzero;stroke:none"
             id="path7995"
             inkscape:connector-curvature="0" />
        </g>
        <g
           id="g7997"
           transform="translate(342.0775,513.0681)">
          <path
             d="m 0,0 0.001,0 c 1.851,0.001 3.351,1.501 3.351,3.352 l 0,1.962 C 2.156,5.296 1.021,5.024 0,4.548 L 0,0 Z"
             style="fill:#ef249c;fill-opacity:1;fill-rule:nonzero;stroke:none"
             id="path7999"
             inkscape:connector-curvature="0" />
        </g>
        <g
           id="g8001"
           transform="translate(342.0775,502.6668)">
          <path
             d="m 0,0 c 1.021,-0.476 2.156,-0.748 3.352,-0.766 l 0,7.815 c 0,1.851 -1.5,3.352 -3.351,3.352 L 0,10.401 0,0 Z"
             style="fill:#d51378;fill-opacity:1;fill-rule:nonzero;stroke:none"
             id="path8003"
             inkscape:connector-curvature="0" />
        </g>
        <g
           id="g8005"
           transform="translate(337.3119,510.1414)">
          <path
             d="m 0,0 c 0,-3.051 1.659,-5.714 4.124,-7.139 l 0,4.335 C 3.578,-2.005 3.258,-1.04 3.258,0 c 0,1.04 0.32,2.005 0.866,2.804 l 0,4.335 C 1.659,5.714 0,3.051 0,0"
             style="fill:#89cf25;fill-opacity:1;fill-rule:nonzero;stroke:none"
             id="path8007"
             inkscape:connector-curvature="0" />
        </g>
      </g>
    </g>
  </g>
</svg>
