<svg xmlns="http://www.w3.org/2000/svg" width="1000" height="205.33115" viewBox="0 0 1000 205.33115"><defs><style>.a{fill:#f3a91d;}</style></defs><title>CBS Reality (2017)</title><path class="a" d="M76.21146,78.27543a24.69615,24.69615,0,0,0-5.45508-6.15674A25.53669,25.53669,0,0,0,54.70364,66.5098a28.57586,28.57586,0,0,0-14.02735,3.19336,26.4985,26.4985,0,0,0-9.35059,8.57227A37.50773,37.50773,0,0,0,26.105,90.51127a60.84366,60.84366,0,0,0-1.63574,14.18116A56.57618,56.57618,0,0,0,26.105,118.32818,36.73961,36.73961,0,0,0,31.3257,130.251a26.72144,26.72144,0,0,0,9.35059,8.4961,28.55446,28.55446,0,0,0,14.02735,3.19434q11.2207,0,17.53224-6.85743,6.31421-6.85694,7.7168-18.08009h23.68751a56.59014,56.59014,0,0,1-4.83106,18.85841A45.16368,45.16368,0,0,1,88.523,150.20125a43.70032,43.70032,0,0,1-14.96143,9.03906,54.84267,54.84267,0,0,1-18.85792,3.11719,57.07433,57.07433,0,0,1-22.98976-4.44141,49.23293,49.23293,0,0,1-17.21876-12.2334A54.106,54.106,0,0,1,3.74121,127.36823,67.20114,67.20114,0,0,1,0,104.69243,69.532,69.532,0,0,1,3.74121,81.54887,55.57069,55.57069,0,0,1,14.49512,62.92435,49.12841,49.12841,0,0,1,31.71388,50.45706a56.20706,56.20706,0,0,1,22.98976-4.52149,56.06555,56.06555,0,0,1,17.37647,2.6499,47.0323,47.0323,0,0,1,14.64942,7.71632A41.71993,41.71993,0,0,1,97.40874,68.8472a44.92714,44.92714,0,0,1,5.29736,17.14259H79.01664a20.02416,20.02416,0,0,0-2.80518-7.71436"/><path class="a" d="M163.94588,140.84968a32.57632,32.57632,0,0,0,6.85645-.70215,16.84994,16.84994,0,0,0,5.76709-2.335,11.76337,11.76337,0,0,0,3.97315-4.44336,15.283,15.283,0,0,0,1.48193-7.169q0-8.56935-4.833-12.23341-4.82959-3.6621-12.77784-3.66309H137.76081v30.54592ZM162.544,93.627a17.58083,17.58083,0,0,0,10.752-3.11768q4.20851-3.11572,4.20752-10.12793a12.92987,12.92987,0,0,0-1.40185-6.39063,10.36421,10.36421,0,0,0-3.74121-3.89746,15.7655,15.7655,0,0,0-5.375-1.94727,35.64395,35.64395,0,0,0-6.313-.5459H137.76081V93.627Zm3.11573-45.04153a69.12615,69.12615,0,0,1,14.49317,1.40381,31.30941,31.30941,0,0,1,11.22169,4.59717,21.40637,21.40637,0,0,1,7.24853,8.49268,29.87783,29.87783,0,0,1,2.57129,13.09327q0,8.41626-3.81885,14.0254a27.72952,27.72952,0,0,1-11.29981,9.1958q10.28761,2.96046,15.35255,10.36427,5.06323,7.40478,5.06348,17.84473a30.63181,30.63181,0,0,1-3.27149,14.57325,28.40923,28.40923,0,0,1-8.80615,10.05176,38.99906,38.99906,0,0,1-12.62354,5.76661,56.941,56.941,0,0,1-14.57325,1.87012H113.29351V48.58547Z"/><path class="a" d="M240.55822,132.43366a17.66208,17.66208,0,0,0,5.377,6.31445,23.31625,23.31625,0,0,0,7.87061,3.583,37.22162,37.22162,0,0,0,9.3501,1.168,48.35254,48.35254,0,0,0,7.0127-.5459,24.28383,24.28383,0,0,0,7.01465-2.10351,15.29528,15.29528,0,0,0,5.45508-4.28516A10.75814,10.75814,0,0,0,284.82,129.63a9.77294,9.77294,0,0,0-2.8833-7.32813,22.86874,22.86874,0,0,0-7.5586-4.67383,75.539,75.539,0,0,0-10.59815-3.27247q-5.92383-1.40478-11.99951-3.11621A105.62941,105.62941,0,0,1,239.62268,107.42a41.63471,41.63471,0,0,1-10.59815-5.84424,27.48741,27.48741,0,0,1-7.5586-8.9624,27.18437,27.18437,0,0,1-2.8833-13.01173,29.14532,29.14532,0,0,1,3.66162-14.88477,33.1557,33.1557,0,0,1,9.58594-10.52,41.80017,41.80017,0,0,1,13.40333-6.23486,57.1401,57.1401,0,0,1,14.96094-2.02539,70.86445,70.86445,0,0,1,16.75489,1.94726,41.88919,41.88919,0,0,1,14.26124,6.313,31.94131,31.94131,0,0,1,9.896,11.14356q3.65991,6.77931,3.66358,16.44093H281.0807a19.73974,19.73974,0,0,0-2.10547-8.2583,13.79889,13.79889,0,0,0-4.75146-5.14307,20.13628,20.13628,0,0,0-6.78223-2.64942,41.68258,41.68258,0,0,0-8.33692-.77978,28.73375,28.73375,0,0,0-5.92286.624,15.86076,15.86076,0,0,0-5.37646,2.18115,13.51652,13.51652,0,0,0-3.97559,3.89747,10.45154,10.45154,0,0,0-1.55762,5.9209,9.97722,9.97722,0,0,0,1.24756,5.29883q1.24512,2.02734,4.90723,3.73926A62.32487,62.32487,0,0,0,258.55872,90.042q6.46436,1.71825,16.90919,4.36474,3.11939.624,8.65039,2.25977a41.49306,41.49306,0,0,1,10.9878,5.22071,33.23493,33.23493,0,0,1,9.42823,9.58643q3.97411,5.99853,3.9751,15.35059A34.033,34.033,0,0,1,305.55,141.00593a30.84464,30.84464,0,0,1-8.80811,11.29981,42.322,42.322,0,0,1-14.49366,7.40235,68.54908,68.54908,0,0,1-20.02784,2.64941,70.30611,70.30611,0,0,1-17.84278-2.25977,44.81778,44.81778,0,0,1-15.27491-7.08984,35.01963,35.01963,0,0,1-10.52-12.31349,36.75541,36.75541,0,0,1-3.74122-17.76661h23.68947a20.387,20.387,0,0,0,2.02734,9.50587"/><path class="a" d="M371.80682,138.07331c-22.99708-.11133-41.70119-15.20411-51.61233-33.30959,10.03907-18.00733,28.80812-32.63429,51.61233-32.63429,23.23244,0,41.8345,14.52491,51.64358,32.63429-9.80908,18.10548-28.2256,33.41311-51.64358,33.30959m0-88.96684a56.0225,56.0225,0,1,0,56.04739,56.02737,56.031,56.031,0,0,0-56.04739-56.02737"/><path class="a" d="M371.80682,134.85163a29.70754,29.70754,0,1,0-29.70363-29.71779,29.72227,29.72227,0,0,0,29.70363,29.71779"/><path class="a" d="M537.43923,89.46586h41.502c-3.91895-10.55518-9.6211-15.563-19.94435-15.563-11.19922,0-17.45411,5.36963-21.55762,15.563m21.92188-43.46877c31.51174,0,53.7803,20.93214,53.7803,60.10452,0,2.68067.1836,4.11622,0,6.627H536.197c2.84766,13.05762,13.18067,19.31056,25.64259,19.31056,10.86329,0,17.99708-7.68458,23.69337-15.21,0,0,19.76368,11.45411,25.82619,15.21-9.61231,17.1836-28.13967,28.63185-51.1055,28.63185-33.69337,0-56.835-20.57911-56.835-57.4307,0-33.2754,23.69923-57.24319,55.94241-57.24319"/><path class="a" d="M651.84456,103.0606c0,15.21485,9.61035,27.73341,24.93849,27.73341,14.7793,0,27.06934-10.90821,27.06934-26.833,0-16.103-11.3877-27.19679-26.01466-27.19679-15.84278,0-25.99317,11.80664-25.99317,26.2964M671.245,45.99709c13.36231,0,21.73829,4.46534,31.53419,13.41261V48.14358h32.78322V157.98836H702.26646V147.255a46.18907,46.18907,0,0,1-32.77443,13.4131c-30.47951,0-51.31644-21.83107-51.31644-57.06546,0-30.59279,22.62209-57.6055,53.06937-57.6055"/><rect class="a" x="745.35241" y="20.9463" width="33.13673" height="137.04792"/><rect class="a" x="790.06728" y="48.14407" width="33.12697" height="109.85796"/><path class="a" d="M806.82217,0a19.97946,19.97946,0,0,1,20.125,19.85938,20.37969,20.37969,0,0,1-20.4961,20.39552,19.67361,19.67361,0,0,1-19.60646-20.0337A20.1442,20.1442,0,0,1,806.82217,0"/><polygon class="a" points="840.148 157.989 840.148 78.384 829.275 78.384 829.275 48.133 840.148 48.133 840.148 20.947 873.449 20.947 873.449 48.133 891.073 48.133 891.073 78.557 873.449 78.557 873.449 157.989 840.148 157.989"/><path class="a" d="M967.583,47.77541v63.87406c0,11.09278-6.5918,18.07618-18.51856,18.07618-11.22364,0-18.71192-6.9834-18.71192-18.96388V47.77541h-33.127v63.87406c0,30.41017,20.12794,48.6553,51.47854,48.6553A69.34968,69.34968,0,0,0,968.71,157.56062l-.00977,1.06055c0,12-10.08692,17.3545-21.02442,17.3545-7.75587,0-12.14454-1.43164-16.51173-8.94532H895.9853c3.36621,24.68263,25.58693,38.3008,51.01077,38.3008,28.94142,0,53.00393-17.72168,53.00393-51.71975V47.77541Z"/><path class="a" d="M471.2307,107.35747V157.9991H437.593V48.13332h32.38624V65.48978c2.68262-8.23633,12.88526-19.50831,26.12355-19.50831H503.613v34.354s-4.10938-2.14063-11.62842-2.14063c-12.87989,0-20.75392,7.86866-20.75392,29.16261"/></svg>