<?xml version="1.0" encoding="UTF-8" standalone="no"?>
<svg
   version="1.1"
   id="svg39632"
   width="832"
   height="104"
   viewBox="0 0 832 104"
   xmlns="http://www.w3.org/2000/svg"
   xmlns:svg="http://www.w3.org/2000/svg">
  <defs
     id="defs5" />
  <g
     id="g52648">
    <path
       style="fill:#000000"
       d="M 8,0 V 8 H 0 v 88 h 8 v 8 H 112 V 64 H 40 V 40 h 72 V 0 Z"
       id="path38998" />
    <path
       style="fill:#5465ea"
       d="m 8,0 h 8 V 8 H 8 Z"
       id="path39000" />
    <path
       style="fill:#5465ea"
       d="M 0,8 V 96 H 8 V 8 Z"
       id="path39002" />
    <path
       style="fill:#0ed2e9"
       d="m 8,8 h 8 v 8 H 8 Z"
       id="path39004" />
    <path
       style="fill:#ed68df"
       d="m 32,32 v 32 h 8 V 32 Z"
       id="path39006" />
    <path
       style="fill:#0ed2e9"
       d="m 16,0 v 8 h 88 V 0 Z"
       id="path39008" />
    <path
       style="fill:#f4e207"
       d="m 40,32 v 8 h 72 v -8 z"
       id="path39010" />
    <path
       style="fill:#ed68df"
       d="m 104,0 v 32 h 8 V 0 Z"
       id="path39012" />
    <path
       style="fill:#ed68df"
       d="m 104,64 v 32 h 8 V 64 Z"
       id="path39014" />
    <path
       style="fill:#0ed2e9"
       d="m 32,64 v 8 h 72 v -8 z"
       id="path39016" />
    <path
       style="fill:#f4e207"
       d="m 16,96 v 8 h 96 v -8 z"
       id="path39018" />
    <path
       style="fill:#5465ea"
       d="m 8,96 h 8 v 8 H 8 Z"
       id="path39020" />
    <path
       style="fill:#f4e207"
       d="m 8,88 h 8 v 8 H 8 Z"
       id="path39022" />
  </g>
  <g
     id="g52668">
    <path
       style="fill:#000000"
       d="m 112,0 v 96 h 8 v 8 h 80 V 64 H 152 V 0 Z"
       id="path39460" />
    <path
       style="fill:#0ed2e9"
       d="m 120,0 v 8 h 24 V 0 Z"
       id="path39462" />
    <path
       style="fill:#0ed2e9"
       d="m 144,64 v 8 h 48 v -8 z"
       id="path39464" />
    <path
       style="fill:#f4e207"
       d="m 128,96 v 8 h 72 v -8 z"
       id="path39466" />
    <path
       style="fill:#f4e207"
       d="m 120,88 h 8 v 8 h -8 z"
       id="path39468" />
    <path
       style="fill:#5465ea"
       d="m 112,0 v 96 h 8 V 0 Z"
       id="path39470" />
    <path
       style="fill:#5465ea"
       d="m 120,96 h 8 v 8 h -8 z"
       id="path39472" />
    <path
       style="fill:#ed68df"
       d="m 144,0 v 64 h 8 V 0 Z"
       id="path39474" />
    <path
       style="fill:#ed68df"
       d="m 192,64 v 32 h 8 V 64 Z"
       id="path39476" />
  </g>
  <g
     id="g52696">
    <path
       style="fill:#000000"
       d="m 200,0 v 96 h 8 v 8 h 88 v -8 h 8 V 0 H 264 V 64 H 240 V 0 Z"
       id="path39480" />
    <path
       style="fill:#0ed2e9"
       d="m 208,0 v 8 h 24 V 0 Z"
       id="path39482" />
    <path
       style="fill:#0ed2e9"
       d="m 232,64 v 8 h 40 v -8 z"
       id="path39484" />
    <path
       style="fill:#f4e207"
       d="m 216,96 v 8 h 80 v -8 z"
       id="path39486" />
    <path
       style="fill:#f4e207"
       d="m 208,88 h 8 v 8 h -8 z"
       id="path39488" />
    <path
       style="fill:#5465ea"
       d="m 200,0 v 96 h 8 V 0 Z"
       id="path39490" />
    <path
       style="fill:#5465ea"
       d="m 208,96 h 8 v 8 h -8 z"
       id="path39492" />
    <path
       style="fill:#ed68df"
       d="m 232,0 v 64 h 8 V 0 Z"
       id="path39494" />
    <path
       style="fill:#0ed2e9"
       d="m 272,0 v 8 h 24 V 0 Z"
       id="path39496" />
    <path
       style="fill:#5465ea"
       d="m 264,0 v 64 h 8 V 0 Z"
       id="path39498" />
    <path
       style="fill:#ed68df"
       d="m 296,0 v 88 h 8 V 0 Z"
       id="path39500" />
    <path
       style="fill:#ed68df"
       d="m 288,88 h 8 v 8 h -8 z"
       id="path39502" />
    <path
       style="fill:#f4e207"
       d="m 296,88 h 8 v 8 h -8 z"
       id="path39504" />
  </g>
  <g
     id="g52720">
    <path
       style="fill:#000000"
       d="m 304,0 v 104 h 104 v -8 h 8 V 8 h -8 V 0 Z"
       id="path39508" />
    <path
       style="fill:#5465ea"
       d="m 304,0 v 104 h 8 V 0 Z"
       id="path39510" />
    <path
       style="fill:#0ed2e9"
       d="m 336,32 v 8 h 48 v -8 z"
       id="path39512" />
    <path
       style="fill:#0ed2e9"
       d="m 400,8 v 8 h 8 V 8 Z"
       id="path39514" />
    <path
       style="fill:#ed68df"
       d="m 400,0 v 8 h 8 V 0 Z"
       id="path39516" />
    <path
       style="fill:#0ed2e9"
       d="m 336,64 v 8 h 48 v -8 z"
       id="path39518" />
    <path
       style="fill:#f4e207"
       d="m 312,96 v 8 h 96 v -8 z"
       id="path39520" />
    <path
       style="fill:#ed68df"
       d="m 408,8 v 80 h 8 V 8 Z"
       id="path39522" />
    <path
       style="fill:#ed68df"
       d="m 400,88 h 8 v 8 h -8 z"
       id="path39524" />
    <path
       style="fill:#0ed2e9"
       d="m 312,0 h 88 v 8 h -88 z"
       id="path39526" />
    <path
       style="fill:#f4e207"
       d="m 408,88 h 8 v 8 h -8 z"
       id="path39528" />
  </g>
  <g
     id="g52740">
    <path
       style="fill:#000000"
       d="m 416,0 v 96 h 8 v 8 h 80 V 64 H 456 V 0 Z"
       id="path39532" />
    <path
       style="fill:#ed68df"
       d="m 496,64 v 32 h 8 V 64 Z"
       id="path39534" />
    <path
       style="fill:#0ed2e9"
       d="m 424,0 v 8 h 24 V 0 Z"
       id="path39536" />
    <path
       style="fill:#0ed2e9"
       d="m 448,64 v 8 h 48 v -8 z"
       id="path39538" />
    <path
       style="fill:#f4e207"
       d="m 432,96 v 8 h 72 v -8 z"
       id="path39540" />
    <path
       style="fill:#f4e207"
       d="m 424,88 h 8 v 8 h -8 z"
       id="path39542" />
    <path
       style="fill:#5465ea"
       d="m 416,0 v 96 h 8 V 0 Z"
       id="path39544" />
    <path
       style="fill:#5465ea"
       d="m 424,96 h 8 v 8 h -8 z"
       id="path39546" />
    <path
       style="fill:#ed68df"
       d="m 448,0 v 64 h 8 V 0 Z"
       id="path39548" />
  </g>
  <g
     id="g52768">
    <path
       style="fill:#000000"
       d="m 504,0 v 96 h 8 v 8 H 616 V 8 h -8 V 0 Z"
       id="path39552" />
    <path
       style="fill:#5465ea"
       d="m 504,0 v 96 h 8 V 0 Z"
       id="path39554" />
    <path
       style="fill:#f4e207"
       d="m 512,88 h 8 v 8 h -8 z"
       id="path39556" />
    <path
       style="fill:#0ed2e9"
       d="m 520,32 v 8 h 64 v -8 z"
       id="path39558" />
    <path
       style="fill:#0ed2e9"
       d="m 600,8 v 8 h 8 V 8 Z"
       id="path39560" />
    <path
       style="fill:#ed68df"
       d="m 600,0 v 8 h 8 V 0 Z"
       id="path39562" />
    <path
       style="fill:#0ed2e9"
       d="m 536,64 v 8 h 48 v -8 z"
       id="path39564" />
    <path
       style="fill:#5465ea"
       d="m 512,96 h 8 v 8 h -8 z"
       id="path39566" />
    <path
       style="fill:#f4e207"
       d="m 520,96 v 8 h 96 v -8 z"
       id="path39568" />
    <path
       style="fill:#0ed2e9"
       d="m 512,0 h 88 v 8 h -88 z"
       id="path39570" />
    <path
       style="fill:#ed68df"
       d="m 608,8 v 88 h 8 V 8 Z"
       id="path39572" />
    <path
       style="fill:#f4e207"
       d="m 512,32 h 8 v 8 h -8 z"
       id="path39574" />
    <path
       style="fill:#0ed2e9"
       d="m 512,40 h 8 v 8 h -8 z"
       id="path39576" />
  </g>
  <g
     id="g52792">
    <path
       style="fill:#000000"
       d="m 616,0 v 104 h 40 V 40 h 24 v 64 h 40 V 8 h -8 V 0 Z"
       id="path39580" />
    <path
       style="fill:#ed68df"
       d="m 704,0 h 8 v 8 h -8 z"
       id="path39582" />
    <path
       style="fill:#0ed2e9"
       d="m 704,8 h 8 v 8 h -8 z"
       id="path39584" />
    <path
       style="fill:#f4e207"
       d="m 624,96 v 8 h 32 v -8 z"
       id="path39586" />
    <path
       style="fill:#0ed2e9"
       d="m 624,0 v 8 h 80 V 0 Z"
       id="path39588" />
    <path
       style="fill:#f4e207"
       d="m 688,96 v 8 h 32 v -8 z"
       id="path39590" />
    <path
       style="fill:#f4e207"
       d="m 656,32 v 8 h 32 v -8 z"
       id="path39592" />
    <path
       style="fill:#5465ea"
       d="m 616,0 v 104 h 8 V 0 Z"
       id="path39594" />
    <path
       style="fill:#5465ea"
       d="m 680,40 v 64 h 8 V 40 Z"
       id="path39596" />
    <path
       style="fill:#ed68df"
       d="m 648,32 v 64 h 8 V 32 Z"
       id="path39598" />
    <path
       style="fill:#ed68df"
       d="m 712,8 v 88 h 8 V 8 Z"
       id="path39600" />
  </g>
  <g
     id="g52820">
    <path
       d="m 720,0 v 104 h 104 v -8 h 8 V 8 h -8 V 0 Z m 40,40 h 32 v 24 h -32 z"
       style="fill:#000000"
       id="path39604" />
    <path
       style="fill:#ed68df"
       d="m 816,0 h 8 v 8 h -8 z"
       id="path39606" />
    <path
       style="fill:#0ed2e9"
       d="m 816,8 h 8 v 8 h -8 z"
       id="path39608" />
    <path
       style="fill:#f4e207"
       d="m 824,88 h 8 v 8 h -8 z"
       id="path39610" />
    <path
       style="fill:#ed68df"
       d="m 816,88 h 8 v 8 h -8 z"
       id="path39612" />
    <path
       style="fill:#f4e207"
       d="m 728,96 v 8 h 96 v -8 z"
       id="path39614" />
    <path
       style="fill:#0ed2e9"
       d="m 728,0 v 8 h 88 V 0 Z"
       id="path39616" />
    <path
       style="fill:#f4e207"
       d="m 760,32 v 8 h 40 v -8 z"
       id="path39618" />
    <path
       style="fill:#0ed2e9;fill-opacity:1"
       d="m 752,64 v 8 h 48 v -8 z"
       id="path39620" />
    <path
       style="fill:#5465ea"
       d="m 720,0 v 104 h 8 V 0 Z"
       id="path39622" />
    <path
       style="fill:#5465ea"
       d="m 792,40 v 24 h 8 V 40 Z"
       id="path39624" />
    <path
       style="fill:#ed68df"
       d="m 752,32 v 32 h 8 V 32 Z"
       id="path39626" />
    <path
       style="fill:#ed68df"
       d="m 824,8 v 80 h 8 V 8 Z"
       id="path39628" />
  </g>
</svg>
