<?xml version="1.0" encoding="utf-8"?><svg xmlns="http://www.w3.org/2000/svg" width="1000" height="412.83567"><path d="M180.00913,0A206.41409,206.41409,0,0,0,0,105.29669l43.2541,24.32154a156.842,156.842,0,1,1,.09778,153.79366L.09482,307.73343A206.46456,206.46456,0,0,0,180.00913,412.83567c113.98424,0,206.41552-92.38312,206.41552-206.41774C386.42465,92.432,293.99337,0,180.00913,0" fill="#fdc600"/><path d="M228.31813,233.72971a55.48024,55.48024,0,1,1,.14519-54.42l43.15632-24.32136a105.019,105.019,0,1,0-.09778,103.06313Z" fill="#fdc600"/><polygon points="428.467 288.281 428.467 125.652 513.662 125.652 513.662 155.993 460.992 155.993 460.992 190.509 506.528 190.509 506.528 220.85 460.992 220.85 460.992 257.94 513.662 257.94 513.662 288.281 428.467 288.281" fill="#fdc600"/><polygon points="527.772 288.281 566.123 206.772 527.772 125.652 562.046 125.652 584.132 177.693 605.397 125.652 639.671 125.652 601.513 207.403 639.671 288.281 604.959 288.281 583.501 238.181 562.481 288.281 527.772 288.281" fill="#fdc600"/><polygon points="683.867 288.281 683.867 155.993 649.203 155.993 649.203 125.652 751.101 125.652 751.101 155.993 716.392 155.993 716.392 288.281 683.867 288.281" fill="#fdc600"/><path d="M802.26315,206.33033h15.5825a20.3727,20.3727,0,0,0,15.09657-6.06825c3.98229-4.02915,5.92306-10.48593,5.92306-19.32127V180.504c0-8.10718-1.94077-14.17544-5.92306-18.30181a20.08663,20.08663,0,0,0-15.09657-6.16529h-15.5825Zm0,30.34128v51.60463h-32.528V125.64705H821.582a48.33783,48.33783,0,0,1,35.63323,15.38916,54.01868,54.01868,0,0,1,10.4387,17.03938,58.97719,58.97719,0,0,1,3.73637,21.36038v3.68951a57.12531,57.12531,0,0,1-6.69938,27.86531,50.0351,50.0351,0,0,1-17.76624,18.98163l23.83449,58.30382H838.04157l-21.07-51.60463Z" fill="#fdc600"/><path d="M938.636,187.25666l-11.455,45.73026H952.7162l-11.458-45.73026-1.36-5.00027Zm28.20791,101.02421-6.50679-26.02065H919.75265l-6.50382,26.02065H880.08972l46.60527-162.629h26.2138L1000,288.28087Z" fill="#fdc600"/></svg>