<?xml version="1.0" encoding="utf-8"?><svg xmlns="http://www.w3.org/2000/svg" width="1000" height="316.534"><path d="M376.039 307.84h64.285v-52.188h-64.285v52.187zm-86.067-179.694h62.552V76.162h-62.552v51.984zm120.184-85.793h-27.99V31.525h24.307v-10.09h-24.306v-10.46h27.62V.885H370.97v51.558h39.186v-10.09zm-71.005-5.158L325.672.885h-12.52l20.844 51.927h10.016L364.858.884H352.63l-13.479 36.311zm-133.16 175.073v-72.532h-62.543v81.244a114.148 114.148 0 002.316 23.258l70.695.013c-6.275-6.46-10.468-16.67-10.468-31.983zm23.75 101.37c26.062 0 45.18-7.536 60.231-25.478v19.68h62.552v-52.188H148.83c12.735 37.892 46.28 57.987 80.91 57.987zm60.231-104.247c0 15.3-5.88 27.26-16.675 34.838l79.227.022V139.736h-62.552v69.655zm388.433-69.664c11.605 9.722 18.261 25.836 18.261 47.65 0 28.79-7.648 46.718-19.4 56.86h74.105c5.114-15.634 7.899-34.114 7.899-55.702a159.957 159.957 0 00-7.134-48.83l-73.73.022zm159.996 52.274c0-26.438 7.032-42.828 17.784-52.265H784.17a138.929 138.929 0 00-8.315 48.211c0 21.584 3.433 40.317 9.418 56.323l71.793-.032c-11.358-9.93-18.664-26.93-18.664-52.237zm49.818 124.533c40.983 0 78.409-20.221 97.828-60.882h-195.86c20.257 41.153 59.138 60.882 98.032 60.882zm-512.18-72.305h64.285V179.27c0-16.987 6.084-28.989 20.42-38.702.14-.103.683-.438 1.33-.832l-86.035.01v104.483zm615.79-104.533l-72.045.054c11.234 9.73 17.664 25.827 17.664 47.627 0 28.79-7.407 46.718-18.808 56.86l72.137.033c5.892-16.232 9.223-35.192 9.223-56.893a138.594 138.594 0 00-8.172-47.681zm-552.08-40.354v-23.18h-63.71v51.984h134.945v-55.45c-26.642-3.483-52.122 2.896-71.235 26.646zm94.216 208.497h61.39V288.73c14.476 17.372 35.331 24.909 55.024 24.909 43.003 0 78.752-17.594 96.6-57.987H533.966v52.187zM152.73.884h-11.344v51.56h11.344V.883zm116.967 25.633a16.875 16.875 0 011.14-6.225 16.347 16.347 0 013.167-5.119 14.312 14.312 0 014.9-3.46 15.497 15.497 0 016.26-1.254 15.042 15.042 0 016.298 1.29 15.54 15.54 0 018.174 8.654 17.15 17.15 0 011.142 6.26v.148a16.864 16.864 0 01-1.142 6.225 16.312 16.312 0 01-3.167 5.118 14.4 14.4 0 01-4.86 3.461 15.39 15.39 0 01-6.298 1.253 15.115 15.115 0 01-6.26-1.289 15.462 15.462 0 01-8.214-8.654 17.154 17.154 0 01-1.14-6.261v-.147zm-4.162 19.039a27.233 27.233 0 008.654 5.673 28.13 28.13 0 0010.975 2.099 28.412 28.412 0 0011.011-2.1 26.383 26.383 0 0014.4-14.216 26.048 26.048 0 002.063-10.348v-.147a26.46 26.46 0 00-2.027-10.349 25.39 25.39 0 00-5.67-8.398 27.35 27.35 0 00-8.655-5.67 29.836 29.836 0 00-21.986 0 26.36 26.36 0 00-14.4 14.215 26.042 26.042 0 00-2.062 10.349v.147a26.45 26.45 0 002.024 10.348 25.339 25.339 0 005.673 8.397zm217.025 6.887h11.345v-20.55L513.717.884h-12.892l-12.522 20.697-12.3-20.697h-13.257l19.813 31.231v20.328zm405.66 13.305c-43.138 0-80.211 23.967-99.075 62.398h197.788c-18.567-38.177-55.2-62.398-98.713-62.398zM594.53 192.001c0-26.438 7.245-42.828 18.335-52.265l-78.9.01v104.483l79.762-.023c-11.683-9.925-19.197-26.926-19.197-52.205zM429.821 11.122h11.27a10.374 10.374 0 016.554 1.85 6.627 6.627 0 012.357 5.553v.147a6.789 6.789 0 01-2.245 5.332q-2.247 1.998-6.445 1.997h-11.49V11.122zm0 24.823h8.912l11.05 16.498h13.257L450.446 34.03a17.692 17.692 0 007.991-5.782 16.178 16.178 0 003.056-10.201V17.9q0-7.366-4.42-11.785Q451.844.886 442.05.884h-23.572v51.56h11.344v-16.5zm225.77 31.54c-22.005 0-44.018 7.537-60.236 24.32V.732h-61.39v127.415h213.848c-16.542-38.268-49.822-60.66-92.223-60.66zM61.967 232.49v-92.753H0V244.23l66.266-.005a16.416 16.416 0 01-4.298-11.735zM214.305 45.63a25.907 25.907 0 008.4 5.635 26.705 26.705 0 0010.53 2.063 33.618 33.618 0 006.777-.627 24.223 24.223 0 005.56-1.841 24.569 24.569 0 004.678-2.909 37.177 37.177 0 004.126-3.832l-7.22-7.29a31.625 31.625 0 01-6.076 4.381 15.494 15.494 0 01-7.476 1.658 14.175 14.175 0 01-10.792-4.788 16.432 16.432 0 01-3.055-5.155 17.661 17.661 0 01-1.104-6.261v-.147a17.374 17.374 0 011.104-6.225 16.122 16.122 0 013.094-5.119 14.215 14.215 0 014.75-3.46 14.365 14.365 0 016.003-1.254 15.67 15.67 0 017.035 1.547 27.446 27.446 0 016.15 4.271l7.218-8.322a30.657 30.657 0 00-3.83-3.241 23.484 23.484 0 00-4.494-2.504 27.663 27.663 0 00-5.376-1.62 33.88 33.88 0 00-6.63-.59 27.558 27.558 0 00-10.9 2.1 25.598 25.598 0 00-8.472 5.744 26.617 26.617 0 00-5.523 8.471 26.896 26.896 0 00-1.989 10.349v.147a27.162 27.162 0 001.989 10.384 25.657 25.657 0 005.523 8.435zm-70.857 82.516h62.543V76.162h-62.543v51.984zM120.763 26.81a16.987 16.987 0 01-1.106 6.225 13.822 13.822 0 01-8.102 8.064 17.485 17.485 0 01-6.334 1.106h-8.765V11.122h8.765a16.976 16.976 0 016.334 1.142 14.458 14.458 0 014.935 3.203 14.025 14.025 0 013.167 4.9 17.198 17.198 0 011.106 6.297v.147zm4.234-18.562a26.247 26.247 0 00-8.654-5.413A30.405 30.405 0 00105.22.884H85.112v51.56h20.11a29.899 29.899 0 0011.12-1.99 26.709 26.709 0 008.655-5.45 23.991 23.991 0 005.635-8.175 25.844 25.844 0 001.99-10.165v-.147a25.587 25.587 0 00-1.99-10.13 24.11 24.11 0 00-5.635-8.138zM0 255.652v.063c0 36.48 22.004 58.508 59.656 58.508a229.703 229.703 0 0069.505-11.02l-12.675-47.551zm120.467-179.49H61.969V.73L0 20.428v107.718h120.467V76.162zM187.9 41.945a9.912 9.912 0 01-5.488 1.292 19.407 19.407 0 01-8.138-1.694 33.663 33.663 0 01-7.257-4.567l-6.702 8.016a30.619 30.619 0 0010.312 6.178 34.39 34.39 0 0011.563 2.01 25.776 25.776 0 007.65-1.07 17.48 17.48 0 005.938-3.098 14.011 14.011 0 003.88-5.017 16.037 16.037 0 001.388-6.827v-.147a14.429 14.429 0 00-1.07-5.827 11.838 11.838 0 00-3.176-4.243 19.464 19.464 0 00-5.17-3.099 52.697 52.697 0 00-6.978-2.325q-3.326-.882-5.504-1.55a16.303 16.303 0 01-3.433-1.4 4.358 4.358 0 01-1.736-1.66 4.648 4.648 0 01-.479-2.178v-.147a3.929 3.929 0 011.656-3.21 8.005 8.005 0 014.972-1.291 17.305 17.305 0 016.63 1.364 37.528 37.528 0 016.776 3.718l5.892-8.518a30.282 30.282 0 00-8.728-4.827A31.075 31.075 0 00180.275.147a22.743 22.743 0 00-7.28 1.108 16.57 16.57 0 00-5.679 3.172 14.528 14.528 0 00-3.696 4.906 15.014 15.014 0 00-1.317 6.383v.147a15.012 15.012 0 001.22 6.42 11.77 11.77 0 003.433 4.315 19.217 19.217 0 005.39 2.877q3.18 1.144 7.092 2.179 3.25.81 5.28 1.547a16.203 16.203 0 013.175 1.477 4.095 4.095 0 011.551 1.585 4.482 4.482 0 01.408 1.957v.147a4.069 4.069 0 01-1.952 3.578z"/></svg>