<?xml version="1.0" encoding="utf-8"?>
<svg version="1.1" id="Livello_1" xmlns="http://www.w3.org/2000/svg" xmlns:xlink="http://www.w3.org/1999/xlink" x="0px" y="0px"
	 viewBox="0 0 573.5 210.2" style="enable-background:new 0 0 573.5 210.2;" xml:space="preserve">
	<path style="fill:#003c46" d="M 0 0 L 0 210.19922 L 573.5 210.19922 L 573.5 0 L 0 0 z M 50.199219 47.800781 L 99.199219 47.800781 C 134.09922 47.800781 155.09961 69.000781 155.09961 104.30078 C 155.09961 141.50078 133.89922 161.69922 99.199219 161.69922 L 50.199219 161.69922 L 50.199219 47.800781 z M 162.80078 47.800781 L 206.5 47.800781 L 226 110 L 246 47.800781 L 289.80078 47.800781 L 289.80078 161.69922 L 162.80078 161.69922 L 162.80078 47.800781 z M 335.90039 47.800781 L 366 47.800781 L 408.59961 161.69922 L 293.30078 161.69922 L 335.90039 47.800781 z M 414.80078 47.800781 L 449.69922 47.800781 L 489 47.800781 L 522.90039 47.800781 L 486 101.80078 L 526.30078 161.69922 L 490.19922 161.69922 L 445.5 161.69922 L 411.40039 161.69922 L 451.90039 101.80078 L 414.80078 47.800781 z "/>
</svg>
