<?xml version="1.0" encoding="UTF-8" standalone="no"?>
<svg
   version="0.0"
   width="880.71216"
   height="137.01678"
   viewBox="0 0 880.71216 137.01678"
   id="svg50760"
   xmlns="http://www.w3.org/2000/svg"
   xmlns:svg="http://www.w3.org/2000/svg">
  <defs
     id="defs5" />
  <path
     d="m 368.86547,80.208811 c 0,29.889739 25.0606,56.807979 57.77858,56.807979 34.80638,0 58.30071,-24.64592 58.30071,-57.332362 0,-32.336849 -25.23464,-55.759213 -57.60458,-55.759213 -32.89202,0 -58.47471,24.121541 -58.47471,56.283596 z m 58.30067,-25.694685 c 15.14079,0 25.5827,10.837213 25.5827,24.645921 0,16.780203 -9.74578,27.093043 -25.75674,27.093043 -14.7927,0 -25.7567,-11.186808 -25.7567,-25.519899 0,-14.682678 10.26787,-26.219065 25.93074,-26.219065 z"
     id="path32778"
     style="fill:#aa140f" />
  <path
     d="m 108.91526,80.208811 c 0,29.889739 25.06059,56.807979 57.77859,56.807979 34.80638,0 58.30069,-24.64592 58.30069,-57.332362 0,-32.336849 -25.23463,-55.759213 -57.60456,-55.759213 -32.89203,0 -58.47472,24.121541 -58.47472,56.283596 z m 58.30069,-25.694685 c 15.14077,0 25.58269,10.837213 25.58269,24.645921 0,16.780203 -9.74579,27.093043 -25.75673,27.093043 -14.79271,0 -25.75672,-11.186808 -25.75672,-25.519899 0,-14.682678 10.26789,-26.219065 25.93076,-26.219065 z"
     id="path32756"
     style="fill:#aa140f" />
  <path
     d="m 543.84248,55.458015 c 7.38514,0 11.42938,2.113997 11.42938,2.113997 V 23.748077 h -7.38514 c -13.01193,0 -23.03463,11.098478 -25.67218,19.202129 V 25.862073 H 490.38811 V 133.89684 h 33.0573 V 84.173129 c 0,-20.963796 7.73682,-28.715114 20.39707,-28.715114 z"
     id="path32223"
     style="fill:#aa140f" />
  <path
     d="m 283.84015,56.069623 c 7.38514,0 11.42938,2.113997 11.42938,2.113997 V 24.359684 h -7.38514 c -13.01194,0 -23.03463,11.098479 -25.67218,19.202129 V 26.47368 h -31.82643 v 107.97684 h 33.0573 V 84.784737 c 0,-20.963796 7.73682,-28.715114 20.39707,-28.715114 z"
     id="path32454"
     style="fill:#aa140f" />
  <path
     d="m 354.9257,56.069623 c 7.38513,0 11.42938,2.113997 11.42938,2.113997 V 24.359684 h -7.38514 c -13.01194,0 -23.03463,11.098479 -25.67219,19.202129 V 26.47368 h -31.82642 v 107.97684 h 33.05729 V 84.784737 c 0,-20.963796 7.73683,-28.715114 20.39708,-28.715114 z"
     id="path32734"
     style="fill:#aa140f" />
  <path
     id="path34214"
     d="M 0,0 C 0.17170676,45.040374 0.26505013,90.080751 0.26935067,135.12113 H 32.92769 33.06481 V 73.783291 c 0,-10.310268 8.684453,-18.873056 19.105681,-18.873056 8.010883,0 12.285397,2.653951 14.492126,6.56206 1.22e-4,2.13e-4 5.46e-4,2.73e-4 5.46e-4,5.47e-4 0.01011,0.01806 0.01718,0.03791 0.02721,0.05602 0.227688,0.408 0.434506,0.828905 0.619443,1.262365 1.176644,2.778049 1.519001,6.041778 1.519001,9.379173 v 62.95074 h 0.01601 33.347573 0.0976 V 61.328772 c 0,-20.284093 -17.253071,-35.672228 -38.514949,-35.672228 -20.164385,0 -30.347088,14.900297 -31.057604,15.971477 L 32.421257,0 Z"
     style="fill:#aa140f" />
  <path
     d="m 765.80957,81.057264 c 0,34.507396 20.40002,55.877466 50.21539,55.877466 20.40005,0 32.08209,-13.13734 32.08209,-13.13734 v 10.50987 h 32.60511 V 26.756283 H 848.63012 V 37.791642 C 839.04038,29.033421 830.8455,24.65431 817.76858,24.65431 c -29.8154,0 -51.95901,26.449835 -51.95901,56.402954 z m 58.41027,-26.274668 c 14.29747,0 25.45641,10.860196 25.45641,26.624995 0,15.589637 -12.03078,26.274669 -26.50253,26.274669 -14.99491,0 -24.41028,-12.261512 -24.41028,-27.150491 0,-14.18832 9.93847,-25.749173 25.4564,-25.749173 z"
     id="path37074" />
  <path
     d="M 702.83687,134.30726 V 56.534241 h 17.26614 V 26.756283 H 702.83687 V 0.13128617 H 670.22302 V 26.756283 h -10.6387 v 29.602793 h 10.6387 v 77.948184 z"
     id="path37076" />
  <path
     d="m 769.22056,56.183911 c 7.35873,0 11.38846,2.101975 11.38846,2.101975 0,-9.809208 0,-22.421051 0,-33.631576 -2.9785,0 -5.25621,0 -7.35867,0 -12.96535,0 -22.9521,11.03536 -25.58023,19.092926 0,-6.831416 0,-16.990953 0,-16.990953 H 715.95764 V 134.30726 h 32.93893 c 0,0 0,-29.25246 0,-49.571542 0,-20.844571 7.70912,-28.551807 20.32399,-28.551807 z"
     id="path37078" />
  <path
     id="path1495"
     d="m 557.31619,26.846881 34.02999,50.326018 -37.8923,57.134571 h 44.86677 l 11.78921,-21.39672 c 1.05694,-1.94107 2.55383,-4.83924 3.213,-7.89912 h 0.4359 0.29131 0.45511 c 0.43935,2.94565 1.88417,5.86286 2.99107,7.89912 l 11.60192,21.39672 h 44.79957 l -38.58007,-57.148979 33.93716,-50.31161 h -44.43624 l -8.15735,16.611364 c -0.82381,1.590575 -2.34731,5.126206 -2.71413,7.5107 h -0.95878 c -0.24766,-1.609894 -2.20097,-6.957093 -2.50179,-7.537911 l -8.73413,-16.584153 z" />
</svg>