<?xml version="1.0" encoding="utf-8"?>
<!-- Generator: Adobe Illustrator 24.3.0, SVG Export Plug-In . SVG Version: 6.00 Build 0)  -->
<svg version="1.1" id="Layer_1" xmlns="http://www.w3.org/2000/svg" xmlns:xlink="http://www.w3.org/1999/xlink" x="0px" y="0px"
	 viewBox="0 0 512 299.1" style="enable-background:new 0 0 512 299.1;" xml:space="preserve">
<style type="text/css">
	.st0{fill:#E79300;}
</style>
<g>
	<path class="st0" d="M509.2,193.1l-45.5-41.7c-3.5-3.1-9-3.2-12.8-0.4l-0.2,0.1l-0.6,0.4l-4.6,2.2c-0.9,0.4-1.7,0.9-2.7,1.3
		l-0.2,0.1l0,0c-5.4,2-11.3,3.2-17.6,3.2c-25.5,0-46.1-18.5-46.1-41.3c0-22.8,20.7-41.3,46.1-41.3c8.9,0,17.2,2.4,24.3,6.3l0.2,0
		L450,82l0.6,0.4c3.7,2.5,9,2.4,12.4-0.7L508.6,42c3.7-3.4,3.7-8.8,0-12.2l-2.6-2.3C486.6,13.9,467.5,0,419.7,0
		C377.4,0,334,23.6,311.9,56.9l0,0c-0.3,0.3-0.6,0.4-1.1,0.4c-0.5,0-0.9-0.2-1.2-0.5l0,0c-2.7-3.4-9.4-9.4-13.2-12.8
		c-4.7-4.3-26.9-17.8-48.9-3.2c-10.1,6.7-11.8,14.2-11.8,21.8c0,5.9,2.9,13.1,6.1,17c2,2.4,49.2,62.7,67.8,85.5
		c0.3,0.3,0.7,0.4,1.1,0.4c0.9,0,1.2-0.4,1.5-1c2.3-7.8,3-14.4,3-17.3V139c0-1.7,1.4-3.2,3.2-3.2h31.3c1.8,0,3.2,1.4,3.2,3.2v8.4
		c0,3.6-2.2,27-14.4,47.7c-0.2,0.3-0.3,0.5-0.3,0.9c0,0.5,0.2,0.9,0.6,1.2v0c3.1,2.9,6.3,5.8,9.7,8.5c12.6,9.8,40.9,27.8,78.6,27.8
		c0,0,44.4,1.8,78.4-24.9l3.7-3.4C512.9,201.9,512.9,196.4,509.2,193.1 M287.9,197.7c-6.7,4.1-15,6.8-25.4,6.8
		c-10.5,0-20.9-4.5-29.7-12c-8.4-7.8-12.6-16.5-12.6-25.9c0-9.5,7.6-17.8,7.6-17.8s0.7-1.1,0.1-2c0,0-19.6-24.9-19.9-25.3
		c-0.4-0.5-1.3-0.8-2.2,0c-14.8,13-22.4,28.3-22.4,46c0,19,6.6,33.3,21.3,48c4.9,4.9,10.6,7.9,16.7,10.8l0,0c2,1.1,2.6,4-3.5,4
		h-60.2c-5.2,0-9.4-3.8-9.4-8.4l0-59.9c0-2.2-1.8-4-4-4H86.1c-2.2,0-4,1.8-4,4v60.1c0,4.7-4.2,8.5-9.4,8.5H9.4
		c-5.2,0-9.4-4.8-9.4-9.5L0,11.6C0,7,4.2,3.2,9.4,3.2h63.3c5.2,0,9.4,3.8,9.4,8.4l0,59.9c0,2.2,1.8,4,4,4h58.1c2.2,0,4-1.8,4-4V11.6
		c0-4.7,4.2-8.4,9.4-8.4h32.7h40.9c5.2,0,5.5,3,2.7,4.2c0,0-9.7,4.1-15.8,9.8c-23.5,21.6-25.7,48.4-17,68.4c1,2.4,4.9,8.7,9.4,14.2
		c17.2,21.6,66.9,84.2,77.2,96.1C287.8,195.8,289,196.8,287.9,197.7"/>
	<polygon points="14.8,283.8 14.8,298.1 6.1,298.1 6.1,263.4 14.8,263.4 14.8,276.5 30.5,276.5 30.5,263.4 39.3,263.4 39.3,298.1 
		30.5,298.1 30.5,283.8 	"/>
	<path d="M72.2,280.7c0-6.7-3.8-10.2-9.2-10.2c-5.4,0-9.1,3.4-9.1,10.2c0,6.8,3.7,10.3,9.2,10.3C68.6,291,72.2,287.4,72.2,280.7
		 M44.8,280.8c0-10.4,8.3-18,18.3-18c10,0,18.2,6.9,18.2,17.7c0,10.4-7.4,18.4-18.5,18.4C51.9,298.9,44.8,291.1,44.8,280.8"/>
	<path d="M105.2,278.4c3.5,0,4.8-1.5,4.8-4c0-2.5-1.3-3.6-4.7-3.6h-9.6v7.6H105.2L105.2,278.4z M95.6,298.1h-8.8v-34.6h19
		c8.9,0,12.8,3.6,12.8,10.3c0,5.3-2.8,7.6-6.1,8.6c2,0.5,3.7,1.8,4.3,3.4c0.9,2.6,0.9,6.2,1.3,9.3c0.2,1.5,0.4,2.5,0.8,2.8v0.3H110
		c-0.3-1.1-0.5-2.6-0.7-7c-0.1-4.1-1.8-5.5-6-5.5h-7.6V298.1L95.6,298.1z"/>
	<path d="M124.1,292.2l5.8-5.3c2.4,2.8,6.2,4.8,11.4,4.8c4.8,0,6.7-1,6.7-3.3c0-2.5-1.8-2.9-7.9-3.8c-6.7-1-14.8-2.4-14.8-11.1
		c0-7.4,5.8-10.9,14.6-10.9c7.6,0,12.2,2.1,15.7,6l-5.4,5.3c-1.5-2-4.7-4.3-10-4.3c-4.7,0-6.5,0.9-6.5,3.1c0,2.3,1.8,2.9,8.3,3.6
		c7,0.9,14.6,2.8,14.6,11.1c0,7.5-4.8,11.3-15.2,11.3C133,298.9,127.8,296.3,124.1,292.2"/>
	<polygon points="161.9,263.4 191.1,263.4 191.1,270.3 170.6,270.3 170.6,276.9 185.9,276.9 185.9,283.7 170.6,283.7 170.6,291.1 
		191.9,291.1 191.9,298.1 161.9,298.1 	"/>
	<path d="M247.4,280.8c0-10.4,7.2-18,17.7-18c8.2,0,12.6,3.6,15.3,9l-7.2,4.5c-1.5-3.8-4-5.7-7.9-5.7c-5.2,0-8.7,3.4-8.7,10.1
		c0,6.8,3.6,10.4,8.8,10.4c4.1,0,6.7-2.5,8.2-6l7.5,4.5c-2.8,5.2-7.2,9.3-15.6,9.3C253.7,298.9,247.4,291.1,247.4,280.8"/>
	<path d="M310.7,280.7c0-6.7-3.8-10.2-9.2-10.2c-5.4,0-9.1,3.4-9.1,10.2c0,6.8,3.7,10.3,9.2,10.3C307.1,291,310.7,287.4,310.7,280.7
		 M283.3,280.8c0-10.4,8.3-18,18.2-18c10,0,18.2,6.9,18.2,17.7c0,10.4-7.4,18.4-18.5,18.4C290.4,298.9,283.3,291.1,283.3,280.8"/>
	<path d="M325.1,283.8v-20.4h8.8v19.9c0,5.5,1.6,7.6,7.4,7.6c5.8,0,7.4-2.1,7.4-7.6v-19.9h8.8v20.4c0,10.5-6.3,15.1-16.2,15.1
		C330.7,298.9,325.1,293.8,325.1,283.8"/>
	<polygon points="364.7,263.4 375.8,263.4 389.4,286.6 389.1,263.4 397.3,263.4 397.3,298.1 387.1,298.1 372.6,273.6 372.9,298.1 
		364.7,298.1 	"/>
	<polygon points="402.8,270.6 402.8,263.4 433,263.4 433,270.6 422.5,270.6 422.5,298.1 413.8,298.1 413.8,270.6 	"/>
	<path d="M456.8,278.4c3.5,0,4.8-1.5,4.8-4c0-2.5-1.3-3.6-4.7-3.6h-9.6v7.6L456.8,278.4L456.8,278.4z M447.2,298.1h-8.8v-34.6h19
		c8.9,0,12.8,3.6,12.8,10.3c0,5.3-2.8,7.6-6.1,8.6c2,0.5,3.7,1.8,4.2,3.4c0.9,2.6,0.9,6.2,1.3,9.3c0.2,1.5,0.5,2.5,0.8,2.8v0.3h-8.9
		c-0.3-1.1-0.5-2.6-0.7-7c-0.1-4.1-1.8-5.5-6-5.5h-7.6L447.2,298.1L447.2,298.1z"/>
	<polygon points="471.2,263.4 481.2,263.4 489.3,276.2 496.9,263.4 506.1,263.4 493.3,283.6 493.3,298.1 484.5,298.1 484.5,283.5 	
		"/>
	<path d="M218.7,293.2c-1.4,0-3.1-0.2-4.4-1.3c-1.3-1.2-1.8-2.1-1.8-3.3c0-0.5,0.2-1.1,0.5-1.6c0.4-0.6,1.1-1.3,2.3-2.2
		c3,3.7,6.1,7.4,6.5,7.8C220.9,293,220.1,293.2,218.7,293.2 M230.4,293.7L230.4,293.7l0.6-1c1.7-3,2.1-6.5,2.1-7.2v-5.2l-6.3,0
		c0,7.4-1,8-1,8c-0.8-1-11.3-13.6-11.3-13.6c-0.2-0.3-0.5-1-0.5-1.9c0-1.5,0.5-2.5,1.6-3.2c3.2-2,6.4-0.2,7.1,0.4l2.5,2.8l3.9-4.2
		l-0.2-0.3l-2.2-2.6l-2.4-1.5l-0.7-0.3c-1.5-0.6-3-0.9-4.6-0.9c-3.9,0-7.2,2.1-7.6,2.5c-2.5,2.2-3.6,4.8-3.6,7.3
		c0,1.7,0.5,3.3,1.3,4.7c0,0,0.9,1,2.1,2.6c-0.5,0.4-1.8,1.3-1.8,1.3c-2.5,2.1-3.7,4.6-3.7,7.4c0,3,1.3,5.6,3.8,7.6l1.5,1l0.8,0.4
		c2,0.9,4.4,1.3,7.1,1.3c1.9,0,3.7-0.3,5.2-0.8l1.2-0.5l0.5-0.2l0.9,1h7.7C234.6,298.6,230.8,294.1,230.4,293.7"/>
</g>
</svg>
