<svg xmlns="http://www.w3.org/2000/svg" viewBox="0 40 400 160"><linearGradient id="SVGID_1_" gradientUnits="userSpaceOnUse" x1="0" y1="200" x2="400" y2="0"><stop offset="0" stop-color="#00e4b0"/><stop offset="1" stop-color="#40e1f2"/></linearGradient><path fill="url(#SVGID_1_)" d="M17.207 89.136C6.568 89.136 0 81.584 0 72.067S6.568 55 17.207 55c10.639 0 17.208 7.55 17.208 17.068-.001 9.516-6.57 17.068-17.208 17.068zm71.949-25.233c-6.458 0-11.762 1.167-14.381 3.556-1.778 1.62-2.597 3.788-2.597 6.955v64.535c0 10.729-1.724 16.544-5.515 20.622-3.334 3.582-8.573 5.523-14.336 5.523-5.626 0-10.614-1.875-13.584-5.014-3.101-3.278-4.551-7.824-4.551-14.545v-42.031c0-1.837-.688-2.656-2.72-2.656H2.903c-2.011 0-2.675.79-2.675 2.667v37.995c0 15.168 3.911 23.829 10.738 30.656 8.871 8.872 24.033 12.833 38.441 12.833 14.388 0 29.389-5.1 38.255-13.292 8.701 7.934 24.512 13.285 41.96 13.285 23.056 0 40.004-9.532 49.896-25.741 4.393 6.804 7.637 11.862 10.754 16.471 4.592 6.784 8.771 9.277 18.121 9.277 8.857 0 14.174-2.126 18.964-9.454 12.563-19.21 23.27-41.927 30.987-62.829.966-2.616 1.654-4.522 1.654-5.718 0-1.224-.796-2.186-2.698-2.788-1.842-.584-6.797-2.104-9.281-2.86-4.128-1.257-5.628-1.628-6.521-1.628-1.67 0-2.579.935-3.16 2.864-5.789 19.259-14.593 40.901-22.45 54.344-2.574-4.91-7.332-13.45-11.747-21.152-6.827-11.916-13.571-23.938-16.958-29.464-3.422-5.584-5.714-7.072-10.217-7.072-9.284 0-23.036 8.332-23.036 16.1 0 2.636.733 4.613 3.468 9.282 3.111 5.312 4.674 9.621 4.674 14.921 0 13.207-9.864 25.17-28.914 25.17-9.041 0-16.021-2.566-20.567-7.233-4.338-4.453-6.45-10.441-6.45-20.443V120.26c3.177 1.359 7.079 2.05 11.78 2.05h15.083c2.034 0 2.745-.818 2.745-2.656v-16.155c0-1.838-.711-2.657-2.745-2.657h-26.862V74.413c0-3.167-.825-5.334-2.602-6.955-2.62-2.388-8.019-3.555-14.384-3.555M398.406 86.902c0 28.039-13.308 44.182-58.424 75.428-1.781 1.235-1.316 2.861.087 2.861h52.848c3.748 0 5.699 1.437 6.196 5.043.6 4.366.887 7.888.887 12.436 0 4.648-.453 8.54-1.202 12.079-.792 3.761-2.449 5.25-6.068 5.25H289.409c-4.565 0-6.495-1.481-8.184-5.4l-3.514-9.054c-1.216-3.514-2.084-6.336-2.084-9.483 0-5.212 2.805-7.822 6.43-10.409 54.483-38.863 73.412-52.913 73.412-73.791 0-10.809-8.06-18.413-22.011-18.413-13.848 0-26.36 5.613-39.666 16.104-3.541 2.79-6.638 2.399-8.527-1.124-2.631-4.913-6.298-13.356-8.544-21.337-1.324-4.707-.424-8.285 2.566-10.374 3.666-2.562 12.111-6.772 16.439-8.485 12.024-4.759 27.093-8.234 44.245-8.234 32.767 0 58.435 17.515 58.435 46.903z"/></svg>