<svg xmlns="http://www.w3.org/2000/svg" viewBox="0 40 400 160"><path fill="#434597" d="M17.207 89.136C6.568 89.136 0 81.584 0 72.067S6.568 55 17.207 55c10.639 0 17.208 7.55 17.208 17.068-.001 9.516-6.57 17.068-17.208 17.068zm71.949-25.233c-6.458 0-11.762 1.167-14.381 3.556-1.778 1.62-2.597 3.788-2.597 6.955v64.535c0 10.729-1.724 16.544-5.515 20.622-3.334 3.582-8.573 5.523-14.336 5.523-5.626 0-10.614-1.875-13.584-5.014-3.101-3.278-4.551-7.824-4.551-14.545v-42.031c0-1.837-.688-2.656-2.72-2.656H2.903c-2.011 0-2.675.79-2.675 2.667v37.995c0 15.168 3.911 23.829 10.738 30.656 8.871 8.872 24.033 12.833 38.441 12.833 14.388 0 29.389-5.1 38.255-13.292 8.701 7.934 24.512 13.285 41.96 13.285 23.056 0 40.004-9.532 49.896-25.741 4.393 6.804 7.637 11.862 10.754 16.471 4.592 6.784 8.771 9.277 18.121 9.277 8.857 0 14.174-2.126 18.964-9.454 12.563-19.21 23.27-41.927 30.987-62.829.966-2.616 1.654-4.522 1.654-5.718 0-1.224-.796-2.186-2.698-2.788-1.842-.584-6.797-2.104-9.281-2.86-4.128-1.257-5.628-1.628-6.521-1.628-1.67 0-2.579.935-3.16 2.864-5.789 19.259-14.593 40.901-22.45 54.344-2.574-4.91-7.332-13.45-11.747-21.152-6.827-11.916-13.571-23.938-16.958-29.464-3.422-5.584-5.714-7.072-10.217-7.072-9.284 0-23.036 8.332-23.036 16.1 0 2.636.733 4.613 3.468 9.282 3.111 5.312 4.674 9.621 4.674 14.921 0 13.207-9.864 25.17-28.914 25.17-9.041 0-16.021-2.566-20.567-7.233-4.338-4.453-6.45-10.441-6.45-20.443V120.26c3.177 1.359 7.079 2.05 11.78 2.05h15.083c2.034 0 2.745-.818 2.745-2.656v-16.155c0-1.838-.711-2.657-2.745-2.657h-26.862V74.413c0-3.167-.825-5.334-2.602-6.955-2.62-2.388-8.019-3.555-14.384-3.555M332.22 72.803c-13.21 0-27.552 5.816-38.524 13.502-3.748 2.625-7.173 1.625-8.776-1.727-2.126-4.441-5.518-14.727-7.446-20.995-1.437-4.679.6-8.64 3.798-10.424 13.521-7.545 34.947-13.16 58.27-13.16l.04.006c35.418 0 54.793 13.656 54.793 39.096h.042c0 15.965-11.27 31.861-29.251 37.854C388.02 119.663 400 132.769 400 151.569c0 28.906-21.915 48.43-67.713 48.43-23.167 0-39.213-3.875-50.849-9.078-3.962-1.774-5.811-4.112-5.811-7.054 0-5.764 2.998-16.862 5.396-25.363 1.042-3.696 4.017-4.659 7.635-2.48 10.948 6.587 26.355 11.156 40.271 11.156 19.492 0 27.154-6.565 27.154-17.831 0-10.545-5.849-15.222-19.083-15.222h-24.022c-2.119 0-3.37-1.637-3.56-3.2-.773-6.357-.773-16.567-.126-24.341.159-1.924 1.607-3.309 3.935-3.309h14.13c19.129 0 23.663-6.497 23.663-16.104l-.009.013c0-8.545-5.884-14.383-18.791-14.383z"/></svg>