<?xml version="1.0" encoding="UTF-8" standalone="no"?>
<svg xmlns:dc="http://purl.org/dc/elements/1.1/" xmlns:cc="http://creativecommons.org/ns#" xmlns:rdf="http://www.w3.org/1999/02/22-rdf-syntax-ns#" xmlns:svg="http://www.w3.org/2000/svg" xmlns="http://www.w3.org/2000/svg" xmlns:sodipodi="http://sodipodi.sourceforge.net/DTD/sodipodi-0.dtd" xmlns:inkscape="http://www.inkscape.org/namespaces/inkscape" width="1000" height="284.26471" viewBox="0 0 999.99997 284.26471" id="svg2985" version="1.1" inkscape:version="0.48.5 r10040" sodipodi:docname="ITVBe_logo_2014-.svg">
  <metadata id="metadata2997">
    <rdf:RDF>
      <cc:Work rdf:about="">
        <dc:format>image/svg+xml</dc:format>
        <dc:type rdf:resource="http://purl.org/dc/dcmitype/StillImage" />
      </cc:Work>
    </rdf:RDF>
  </metadata>
  <defs id="defs2995" />
  <sodipodi:namedview pagecolor="#ffffff" bordercolor="#666666" borderopacity="1" objecttolerance="10" gridtolerance="10" guidetolerance="10" inkscape:pageopacity="0" inkscape:pageshadow="2" inkscape:window-width="1366" inkscape:window-height="706" id="namedview2993" showgrid="false" fit-margin-top="0" fit-margin-left="0" fit-margin-right="0" fit-margin-bottom="0" inkscape:zoom="0.3158879" inkscape:cx="149.78116" inkscape:cy="114.75914" inkscape:window-x="-8" inkscape:window-y="-8" inkscape:window-maximized="1" inkscape:current-layer="svg2985" />
  <g id="g2999" transform="matrix(5.6814308,0,0,5.6814308,-3.2606073e-5,-94.164034)">
    <path id="path2987" d="m 91.77,37.562 c 0,0.422 -0.242,1.094 -0.584,2.016 -2.727,7.373 -6.506,15.384 -10.938,22.156 -1.689,2.586 -3.567,3.336 -6.692,3.336 -3.302,0 -4.776,-0.879 -6.397,-3.274 -1.102,-1.623 -2.242,-3.405 -3.795,-5.807 -3.493,5.718 -9.472,9.077 -17.611,9.077 -6.158,0 -11.742,-1.89 -14.81,-4.686 -3.131,2.889 -8.424,4.689 -13.503,4.689 C 12.354,65.069 7.005,63.67 3.874,60.545 1.462,58.135 0.081,55.082 0.081,49.733 v -13.4 c 0,-0.662 0.235,-0.94 0.946,-0.94 h 10.082 c 0.716,0 0.961,0.288 0.961,0.94 v 14.818 c 0,2.369 0.511,3.976 1.603,5.132 1.052,1.104 2.813,1.766 4.798,1.766 2.035,0 3.884,-0.684 5.061,-1.948 1.337,-1.437 1.944,-3.485 1.944,-7.271 V 26.072 c 0,-1.119 0.291,-1.882 0.919,-2.454 0.925,-0.841 2.794,-1.252 5.072,-1.252 2.25,0 4.153,0.412 5.081,1.252 0.625,0.572 0.916,1.335 0.916,2.454 v 9.318 h 9.481 c 0.717,0 0.971,0.29 0.971,0.939 v 5.694 c 0,0.647 -0.253,0.938 -0.971,0.938 h -5.322 c -1.66,0 -3.039,-0.243 -4.16,-0.726 v 5.918 c 0,3.529 0.746,5.64 2.276,7.211 1.606,1.645 4.071,2.551 7.259,2.551 6.726,0 10.203,-4.216 10.203,-8.879 0,-1.865 -0.548,-3.389 -1.648,-5.26 -0.962,-1.646 -1.224,-2.346 -1.224,-3.273 0,-2.738 4.853,-5.677 8.132,-5.677 1.587,0 2.398,0.524 3.604,2.495 1.197,1.949 3.577,6.187 5.986,10.392 1.558,2.716 3.24,5.728 4.146,7.458 2.772,-4.74 5.881,-12.371 7.923,-19.164 0.206,-0.68 0.527,-1.011 1.118,-1.011 0.312,0 0.843,0.131 2.302,0.573 0.877,0.27 2.626,0.803 3.273,1.012 0.673,0.21 0.957,0.549 0.957,0.981 M 6.073,31.263 c 3.758,0 6.073,-2.665 6.073,-6.02 0,-3.355 -2.314,-6.019 -6.073,-6.019 -3.752,0 -6.073,2.664 -6.073,6.019 0,3.356 2.321,6.02 6.073,6.02" inkscape:connector-curvature="0" style="fill:#bb7bae" />
    <path id="path2989" d="m 160.456,56.591 c -0.728,-0.604 -1.058,-0.776 -1.478,-0.776 -0.324,0 -0.613,0.131 -1.195,0.535 -3.035,2.109 -5.809,2.99 -8.943,2.99 -0.555,0 -1.23,-0.057 -1.855,-0.16 -0.727,-0.119 -1.53,-0.359 -2.051,-0.607 -1.818,-0.873 -3.121,-1.906 -3.531,-3.312 l -0.086,-0.296 0.311,-0.011 c 13.294,-0.479 18.042,-5.497 18.042,-10.939 0,-3.923 -1.953,-6.316 -3.597,-7.634 -2.071,-1.665 -4.92,-2.621 -7.812,-2.621 -7.489,0 -13.674,4.718 -15.821,11.409 -1.347,-2.831 -3.808,-5.001 -7.188,-6.227 l -0.455,-0.166 0.409,-0.26 c 3.222,-2.031 5.07,-5.426 5.07,-9.309 0,-7.792 -6.019,-12.633 -15.709,-12.633 -4.135,0 -8.895,0.959 -12.116,2.447 -3.115,1.436 -4.015,2.749 -4.015,5.861 v 25.144 c 0,5.271 1.295,9.16 3.961,11.883 3.012,3.074 7.705,4.699 13.573,4.699 8.118,0 14.319,-4.012 16.646,-10.254 0.723,2.049 1.823,3.896 3.271,5.428 2.893,3.061 6.877,4.677 11.529,4.677 3.662,0 7.828,-1.323 10.357,-3.29 2.271,-1.764 3.521,-3.646 3.521,-5.206 10e-4,-0.52 -0.194,-0.84 -0.838,-1.372 l 0,0 z M 108.318,26.984 c 0,-1.095 0.391,-1.439 1.267,-1.798 1.333,-0.548 3.362,-0.93 4.931,-0.93 3.947,0 6.305,2.025 6.305,5.414 0,4.626 -3.316,6.684 -12.239,7.587 l -0.261,0.027 v -10.3 h -0.003 z m 7.727,31.364 c -2.43,0 -4.424,-0.818 -5.764,-2.367 -1.357,-1.564 -1.963,-3.547 -1.963,-6.418 V 45.25 l 0.184,-0.044 c 2.678,-0.64 5.127,-0.963 7.279,-0.963 5.008,0 7.996,2.579 7.996,6.896 0,3.472 -2.42,7.209 -7.732,7.209 l 0,0 z m 24.508,-8.827 -0.002,-0.176 c -0.06,-3.063 0.635,-5.647 2.068,-7.109 1.408,-1.438 3.223,-1.736 4.494,-1.736 h 0.064 c 2.479,0 4.278,1.492 4.278,3.689 0,2.438 -1.917,4.914 -10.674,5.324 l -0.228,0.008 0,0 z" inkscape:connector-curvature="0" style="fill:#848481" />
    <path id="path2991" d="m 176.012,59.741 c 0,2.926 -2.375,5.301 -5.306,5.301 -2.933,0 -5.306,-2.375 -5.306,-5.301 0,-2.931 2.375,-5.304 5.306,-5.304 2.931,0 5.306,2.375 5.306,5.304" inkscape:connector-curvature="0" style="fill:#bb7bae" />
  </g>
</svg>
