<?xml version="1.0" encoding="UTF-8" standalone="no"?>
<!-- Created with Inkscape (http://www.inkscape.org/) -->

<svg
   xmlns:dc="http://purl.org/dc/elements/1.1/"
   xmlns:cc="http://creativecommons.org/ns#"
   xmlns:rdf="http://www.w3.org/1999/02/22-rdf-syntax-ns#"
   xmlns:svg="http://www.w3.org/2000/svg"
   xmlns="http://www.w3.org/2000/svg"
   xmlns:sodipodi="http://sodipodi.sourceforge.net/DTD/sodipodi-0.dtd"
   xmlns:inkscape="http://www.inkscape.org/namespaces/inkscape"
   version="1.1"
   id="svg815"
   width="769.11975"
   height="183.81508"
   viewBox="0 0 769.11975 183.81508"
   sodipodi:docname="JimJam 2018.svg"
   inkscape:version="0.92.3 (2405546, 2018-03-11)">
  <metadata
     id="metadata821">
    <rdf:RDF>
      <cc:Work
         rdf:about="">
        <dc:format>image/svg+xml</dc:format>
        <dc:type
           rdf:resource="http://purl.org/dc/dcmitype/StillImage" />
        <dc:title></dc:title>
      </cc:Work>
    </rdf:RDF>
  </metadata>
  <defs
     id="defs819" />
  <sodipodi:namedview
     pagecolor="#ffffff"
     bordercolor="#666666"
     borderopacity="1"
     objecttolerance="10"
     gridtolerance="10"
     guidetolerance="10"
     inkscape:pageopacity="0"
     inkscape:pageshadow="2"
     inkscape:window-width="1366"
     inkscape:window-height="715"
     id="namedview817"
     showgrid="false"
     inkscape:zoom="0.53"
     inkscape:cx="393.28627"
     inkscape:cy="-278.74176"
     inkscape:window-x="-8"
     inkscape:window-y="712"
     inkscape:window-maximized="1"
     inkscape:current-layer="svg815" />
  <path
     style="fill:#77356e;fill-opacity:1"
     d="M 113.63783,0.15517 C 110.32736,0.12287 106.76041,0.18257 102.91908,0.329 43.627012,2.58961 7.8016422,13.24331 1.1788437,30.58486 -3.5714784,43.0234 6.6663022,62.53616 20.569469,67.53993 c 7.120587,2.56273 24.404938,3.02663 38.060547,1.02344 6.250881,-0.91697 11.485281,-1.53101 11.632812,-1.36523 1.106005,1.24285 7.952016,21.52139 9.644532,28.56836 5.644916,23.50319 0.309985,40.35348 -15.238282,48.12304 -5.342917,2.66989 -7.310091,3.11133 -13.90625,3.11133 -9.714812,0 -15.095849,-2.54186 -19.65625,-9.2832 -5.299023,-7.83321 -5.547833,-15.9428 -0.667968,-21.74219 3.421984,-4.06678 5.588166,-4.02777 4.158203,0.0742 -3.501529,10.0445 6.770908,20.98569 18.408203,19.60742 20.927303,-2.47852 23.875097,-32.30439 4.087891,-41.36328 -4.88602,-2.23689 -6.484178,-2.47705 -13.679688,-2.05273 -10.763618,0.63473 -18.170492,3.55574 -25.121094,9.9082 -13.7016582,12.52255 -16.8415902,32.36988 -7.992187,50.52148 5.620981,11.52957 15.683085,19.14033 30.189453,22.83399 8.165313,2.07908 29.11943,1.30529 39.775391,-1.46875 20.882868,-5.43639 34.748668,-16.23969 42.988288,-33.49609 5.22893,-10.95106 6.59889,-17.43283 7.21289,-34.11133 0.63521,-17.25484 -0.8791,-28.91082 -5.57422,-42.88282 l -2.82031,-8.39062 4.59765,-1.72266 c 12.74821,-4.77819 21.89588,-11.64415 25.22461,-18.93164 2.22595,-4.87322 2.39582,-13.00062 0.37305,-17.84179 C 147.45537,5.14381 136.81111,0.38107 113.63783,0.15515 Z m 116.89258,57.91992 c -1.01948,0.0218 -2.05358,0.076 -3.10156,0.16016 -9.19442,0.73804 -14.88999,3.58732 -18.0918,9.05078 -4.16446,7.10612 -5.45947,15.98557 -6.66797,45.71484 -2.0689,50.89518 0.0345,59.97523 14.58594,62.9961 9.90528,2.05633 20.70366,-1.60273 24.09766,-8.16602 1.77528,-3.433 3.27032,-17.89675 3.36132,-32.50976 0.10273,-16.50292 6.74433,-15.15229 18.05079,3.66992 2.47487,4.11999 6.1875,9.18249 8.25,11.25 3.2368,3.24466 4.3716,3.75976 8.29687,3.75976 4.09858,0 5.01194,-0.46902 9.25,-4.75 2.58631,-2.6125 6.00706,-7.225 7.59961,-10.25 3.77143,-7.16372 5.43135,-9 8.13672,-9 3.83706,0 4.80851,2.33151 4.06836,9.76563 -3.09577,31.09397 -1.12497,40.87664 8.67969,43.07422 5.71623,1.28121 5.39507,1.27876 12.58984,0.11132 11.16642,-1.81188 18.31835,-7.11792 19.72851,-14.63476 1.52899,-8.15021 -3.69877,-53.32608 -8.10546,-70.03906 -4.58005,-17.37045 -9.58001,-23.72506 -21.12305,-26.84961 -13.58864,-3.67827 -26.52666,-0.032 -33.75781,9.51562 -4.26252,5.62798 -6.25999,7.05664 -9.87305,7.05664 -2.76783,0 -5.08646,-2.32651 -9.96875,-10 -8.63469,-13.57111 -20.71368,-20.25281 -36.00586,-19.92578 z m -55.76562,3.42969 c -12.43456,0.007 -17.07688,2.30567 -21.21485,10.49805 -2.82957,5.602 -17.55622,55.4404 -20.2832,68.64257 -2.06046,9.97529 -1.90228,18.87631 0.42773,24.00782 2.89736,6.38099 11.37123,10.65339 24.24414,12.22265 13.16641,1.60504 24.35705,-1.09296 27.12891,-6.53906 5.43232,-10.67332 10.15439,-46.08267 10.17969,-76.33594 0.0207,-24.80046 -0.56796,-27.33137 -7.10938,-30.57812 -3.00488,-1.49143 -6.00248,-1.92197 -13.37304,-1.91797 z"
     id="path897"
     inkscape:connector-curvature="0" />
  <path
     style="fill:#83c240;fill-opacity:1"
     d="m 464.14369,0.49111 c -18.10554,-0.0221 -43.65752,1.90677 -62.42773,5.11718 -29.51924,5.04889 -48.41485,15.33903 -50.4668,27.48438 -2.25472,13.34557 7.51756,29.89711 20.32031,34.41406 7.13254,2.51643 23.72387,3.02082 36.47657,1.10938 5.92915,-0.88869 11.23226,-1.61524 11.78515,-1.61524 1.92607,0 8.90696,18.98698 11.48242,31.23047 1.89317,8.99965 1.8657,22.1988 -0.0586,27.83985 -2.60646,7.64085 -8.26239,14.01821 -15.87305,17.90039 -5.92593,3.0228 -7.7317,3.46805 -13.96093,3.43945 -10.66729,-0.0491 -18.42995,-4.83465 -22.10352,-13.62891 -3.03485,-7.26521 -1.32307,-17.22821 3.39258,-19.75195 3.10277,-1.66053 4.27839,-1.31652 3.08984,0.9043 -2.82473,5.27807 0.64488,14.46768 6.92774,18.35156 2.60373,1.60955 5.02452,2.16743 9.16992,2.11133 13.63852,-0.18444 21.8512,-12.68861 17.9082,-27.26563 -1.64515,-6.08199 -8.98473,-13.29599 -15.33594,-15.07422 -6.17112,-1.72781 -16.38126,-0.89961 -23.99023,1.94727 -7.44702,2.78628 -16.39428,10.96227 -19.95508,18.23437 -12.7394,26.01726 2.43806,55.92531 31.60156,62.26758 11.82143,2.57084 32.10077,1.02893 44.91407,-3.41406 21.93461,-7.60579 35.69539,-22.58739 41.875,-45.5918 1.75544,-6.53486 2.16129,-10.93027 2.21679,-24 0.0728,-17.15207 -1.23296,-25.87387 -5.94922,-39.74023 -1.33708,-3.9312 -2.08978,-7.43076 -1.67382,-7.77539 0.41597,-0.34463 3.78164,-1.8783 7.48046,-3.40821 9.49856,-3.9288 16.68441,-9.25912 20.24024,-15.01562 2.5162,-4.07345 3.03233,-5.95219 3.01953,-10.99219 C 504.21845,13.47777 496.54551,4.93984 482.88196,1.79384 479.06485,0.91496 472.37348,0.50117 464.14368,0.49111 Z m 185.54688,58.41406 c -15.0734,0.024 -20.86511,4.19556 -24.43555,17.5957 -3.26994,12.27238 -4.43197,78.01376 -1.54883,87.63282 2.54177,8.4801 8.16547,12.20863 18.5586,12.30273 5.45532,0.0494 8.07437,-0.46504 11.87109,-2.33398 7.67911,-3.78008 8.88983,-7.473 9.57422,-29.20118 0.58766,-18.65728 1.17774,-20.90039 5.49023,-20.90039 2.92177,0 6.03427,3.51479 13.80078,15.58399 7.30752,11.35594 10.78034,14.41601 16.36133,14.41601 3.26624,0 4.48679,-0.72726 8.84571,-5.26953 2.78113,-2.89812 6.63843,-8.18562 8.57226,-11.75 3.06384,-5.64717 3.92348,-6.52033 6.68359,-6.78906 5.08266,-0.49488 5.75151,1.91111 4.25586,15.33008 -1.44166,12.93451 -0.87977,25.32947 1.39649,30.77734 1.04038,2.48997 2.6871,4.26919 4.86133,5.25391 5.37893,2.43613 18.19965,1.45694 25.09375,-1.91602 8.1133,-3.96947 10.23994,-7.81117 10.03515,-18.13672 -0.24357,-12.2807 -4.12652,-43.66949 -6.98828,-56.5 -4.56111,-20.44943 -8.87132,-28.0924 -18.18555,-32.23828 -6.34121,-2.82255 -17.39768,-3.41281 -24.71679,-1.31836 -5.2212,1.49411 -6.80891,2.61264 -12.95117,9.13281 C 696.20199,91.25897 693.74777,90.9552 685.5558,78.00087 681.81516,72.08563 674.76096,65.0831 670.13002,62.69033 664.99393,60.03656 658.8075,58.89067 649.69057,58.90517 Z m -61.11524,6.15039 c -3.62628,-0.0131 -6.99847,0.33768 -9.31054,1.10937 -3.55849,1.18771 -4.17457,1.88827 -5.57618,6.33594 -1.42712,4.52862 -1.8833,5.02983 -4.84765,5.32032 -2.21747,0.21728 -5.58281,-0.82099 -10.43946,-3.22071 -15.50663,-7.66197 -35.20481,-6.28376 -49.97265,3.49805 -8.95504,5.93157 -14.50999,15.75176 -17.76563,31.40234 -4.3943,21.12443 -0.0713,40.37992 11.71094,52.16211 7.0043,7.0043 13.85644,9.68265 25.9707,10.15625 11.1648,0.43648 19.71349,-1.34354 32.44141,-6.75976 l 6.75195,-2.875 0.61719,3.85742 c 0.76759,4.80025 4.03891,8.55549 8.60938,9.88476 4.26645,1.24084 21.07319,0.66089 26.30273,-0.9082 2.09182,-0.62764 5.24182,-2.42956 7,-4.00391 l 3.19727,-2.86328 -0.16211,-46.61914 c -0.18378,-52.52913 0.25102,-49.61644 -8.02149,-53.62109 -3.71346,-1.79766 -10.46206,-2.83358 -16.50586,-2.85547 z m -38.54687,31.9707 c 3.60566,0.009 7.31519,0.9171 10.85742,2.76758 9.72771,5.08182 13.75225,15.25302 10.48437,26.49414 -1.96555,6.76126 -5.65864,11.37651 -11.06445,13.83203 -6.71447,3.04996 -16.09558,2.02228 -23.0332,-2.52343 -4.70345,-3.08182 -7.89095,-9.24751 -8.32813,-16.11329 -0.48251,-7.57774 0.98182,-12.4588 5.16797,-17.22656 4.18445,-4.76582 9.90659,-7.24577 15.91602,-7.23047 z"
     id="path895"
     inkscape:connector-curvature="0" />
  <path
     style="fill:#f9e80c;fill-opacity:1"
     d="m 195.70308,57.25 c -2.432,-2.0625 -6.309,-5.62165 -8.61554,-7.90923 -4.01511,-3.98207 -4.35619,-4.11845 -8.00818,-3.20189 -2.09795,0.52653 -6.93282,1.64607 -10.74414,2.48787 -13.55029,2.99282 -15.07452,-1.89758 -4.67905,-15.01243 l 3.87263,-4.88569 -3.85189,-5.08923 c -3.78967,-5.00702 -5.76328,-10.12836 -4.41669,-11.46091 0.37711,-0.37317 5.34301,-0.67849 11.03535,-0.67849 10.24257,0 10.38395,-0.0326 13.65951,-3.15059 C 188.17875,4.32893 194.64101,0 196.41915,0 c 2.15752,0 4.83886,5.29581 6.23329,12.31114 1.25868,6.33242 1.33412,6.43864 5.44441,7.66652 8.54009,2.55119 14.66801,5.20184 14.66683,6.34419 -0.002,1.64935 -3.77295,5.74512 -8.49797,9.22924 -6.96091,5.13282 -7.21664,5.55058 -7.92669,12.94891 -0.81695,8.51208 -2.25752,12.5 -4.51544,12.5 -0.93428,0 -3.6885,-1.6875 -6.1205,-3.75 z"
     id="path881"
     inkscape:connector-curvature="0" />
</svg>
