<?xml version="1.0" encoding="utf-8"?>
<!-- Generator: Adobe Illustrator 16.0.0, SVG Export Plug-In . SVG Version: 6.00 Build 0)  -->
<!DOCTYPE svg PUBLIC "-//W3C//DTD SVG 1.1//EN" "http://www.w3.org/Graphics/SVG/1.1/DTD/svg11.dtd">
<svg version="1.1" id="Layer_1" xmlns="http://www.w3.org/2000/svg" xmlns:xlink="http://www.w3.org/1999/xlink" x="0px" y="0px"
	 width="794.549px" height="451.335px" viewBox="0 0 794.549 451.335" enable-background="new 0 0 794.549 451.335"
	 xml:space="preserve">
<path fill="#A23087" d="M484.981,223.201l44.001-55.104c1.531-2.042,2.301-4.314,2.301-6.79c0-3.077-1.065-5.6-3.167-7.574
	c-2.116-1.966-4.695-2.954-7.744-2.954c-3.353,0-6.05,1.313-8.089,3.924l-61.338,76.849V161.47c0-2.906-1.04-5.417-3.135-7.531
	c-2.094-2.104-4.568-3.16-7.455-3.16c-2.871,0-5.372,1.056-7.455,3.16c-2.084,2.115-3.127,4.625-3.127,7.531v155.872
	c0,2.907,1.043,5.423,3.127,7.532c2.083,2.104,4.584,3.167,7.455,3.167c2.887,0,5.361-1.063,7.455-3.167
	c2.095-2.105,3.135-4.618,3.135-7.532v-51.505l19.41-24.306l43.9,80.819c2.027,3.792,5.242,5.69,9.616,5.69
	c2.897,0,5.368-1.075,7.411-3.179c2.027-2.118,3.061-4.638,3.061-7.556c0-1.753-0.408-3.431-1.229-5.041L484.981,223.201z"/>
<path fill="#A23087" d="M554.967,150.779c-2.883,0-5.372,1.058-7.455,3.16c-2.084,2.111-3.127,4.627-3.127,7.533v155.867
	c0,2.906,1.043,5.422,3.127,7.536c2.083,2.103,4.572,3.168,7.455,3.168s5.373-1.065,7.459-3.168c2.08-2.114,3.131-4.63,3.131-7.536
	V161.472c0-2.906-1.051-5.422-3.131-7.533C560.34,151.837,557.85,150.779,554.967,150.779"/>
<path fill="#A23087" d="M665.764,242.344c-6.131-5.395-15.596-10.791-28.391-16.182c-11.654-4.945-19.21-8.669-22.707-11.143
	c-8.283-5.831-12.436-12.606-12.436-20.328c0-15.011,8.857-22.52,26.621-22.52c16.151,0,25.697,6.02,28.609,18.058
	c1.306,5.134,4.658,7.694,10.03,7.694c0.881,0,1.824-0.133,2.842-0.428c5.535-1.012,8.3-4.297,8.3-9.829
	c0-4.652-2.113-10.036-6.324-16.156c-9.616-13.821-24.102-20.731-43.457-20.731c-13.822,0-25.174,3.861-34.055,11.566
	c-9.457,8.147-14.186,18.987-14.186,32.531c0,13.09,5.103,24.011,15.281,32.743c6.689,5.672,17.612,11.796,32.738,18.331
	c11.362,4.955,19.221,9.459,23.591,13.541c5.665,5.383,8.506,12.367,8.506,20.951c0,8.146-3.419,14.629-10.264,19.43
	c-5.96,4.228-13.242,6.328-21.833,6.328c-18.186,0-28.299-6.833-30.337-20.518c-0.437-3.058-1.851-5.414-4.255-7.089
	c-2.395-1.682-5.129-2.307-8.185-1.868c-2.904,0.443-5.276,1.831-7.082,4.156c-1.847,2.332-2.526,4.945-2.087,7.863
	c1.884,12.514,7.934,22.338,18.111,29.465c9.31,6.551,20.595,9.829,33.834,9.829c14.988,0,27.445-4.153,37.34-12.466
	c10.619-8.737,15.943-20.476,15.943-35.194C681.914,264.35,676.52,251.676,665.764,242.344"/>
<path fill="#A23087" d="M778.385,242.344c-6.121-5.395-15.566-10.791-28.372-16.182c-11.659-4.945-19.21-8.669-22.707-11.143
	c-8.292-5.831-12.433-12.606-12.433-20.328c0-15.011,8.858-22.52,26.633-22.52c16.137,0,25.675,6.02,28.594,18.058
	c1.303,5.134,4.647,7.694,10.031,7.694c0.877,0,1.82-0.133,2.842-0.428c5.531-1.012,8.283-4.297,8.283-9.829
	c0-4.652-2.104-10.036-6.312-16.156c-9.608-13.821-24.103-20.731-43.438-20.731c-13.842,0-25.186,3.861-34.065,11.566
	c-9.465,8.147-14.183,18.987-14.183,32.531c0,13.09,5.088,24.011,15.277,32.743c6.683,5.672,17.619,11.796,32.738,18.331
	c11.355,4.955,19.221,9.459,23.58,13.541c5.672,5.383,8.51,12.367,8.51,20.951c0,8.146-3.419,14.629-10.249,19.43
	c-5.979,4.228-13.261,6.328-21.841,6.328c-18.189,0-28.298-6.833-30.336-20.518c-0.434-3.058-1.854-5.414-4.256-7.089
	c-2.401-1.682-5.132-2.307-8.181-1.868c-2.915,0.443-5.287,1.831-7.107,4.156c-1.817,2.332-2.497,4.945-2.072,7.863
	c1.898,12.514,7.929,22.338,18.119,29.465c9.306,6.551,20.591,9.829,33.833,9.829c15,0,27.446-4.153,37.329-12.466
	c10.63-8.737,15.946-20.476,15.946-35.194C794.549,264.35,789.151,251.676,778.385,242.344"/>
<polygon fill="#A23087" points="501.31,26.36 147.347,0 0,363.993 479.709,451.335 293.118,202.386 "/>
</svg>
