<?xml version="1.0" encoding="UTF-8" standalone="no"?>
<svg
   version="1.1"
   viewBox="0 0 1024 973.153"
   id="svg26"
   xmlns="http://www.w3.org/2000/svg"
   xmlns:svg="http://www.w3.org/2000/svg">
  <defs
     id="defs2" />
  <g
     id="g1955">
    <path
       d="M 0,973.153 H 1024 V 0 H 0 Z"
       id="path4"
       style="fill:#fff742" />
    <path
       d="m 861.46082,507.83286 c -4.49326,16.61183 -6.18937,29.27016 -6.57345,45.75396 -0.66369,28.20599 -40.82029,39.40789 -63.07761,7.38155 -18.3192,-26.3583 -39.33619,-120.40628 -41.79637,-131.56823 -10.04248,-45.60954 -13.92325,-62.22546 -15.18714,-79.08924 -1.62031,-21.61309 7.08556,-33.88734 26.28149,-38.85584 19.8883,-5.14977 36.05971,4.76058 37.66774,26.557 3.03271,40.977 5.51747,72.93983 9.46994,91.58781 1.32431,6.24159 5.00536,8.49385 8.94963,8.49385 5.14568,0 8.14665,-3.58477 9.97078,-7.50958 7.52187,-16.19906 26.7895,-85.33391 90.17131,-165.68397 V 99.865546 H 611.45179 L 506.7089,204.60741 401.96602,99.865546 H 96.076573 V 636.96037 H 405.33058 V 451.81315 l 101.37013,101.3691 101.3732,-101.3691 v 185.14722 h 41.54953 c 0.41583,-14.55109 0.71183,-33.92728 0.44349,-42.1487 -0.37999,-8.57784 -0.79992,-29.20256 -0.79992,-40.34914 0,-61.99707 5.42939,-77.1883 5.42939,-166.5392 0,-26.7178 -5.98144,-33.20726 -14.60333,-33.20726 -9.62562,0 -33.98362,18.30383 -51.92693,31.07893 -28.77034,20.45163 -44.27395,36.75106 -62.89735,36.75106 -10.99909,0 -17.27244,-4.84866 -24.24943,-13.77883 -1.30793,-1.64797 -5.01356,-9.03772 -5.01356,-14.91879 0,-6.60519 2.64454,-15.74328 12.78329,-21.85685 10.97043,-6.6011 23.0808,-5.34131 49.08677,-21.03646 30.83415,-18.61212 67.70607,-40.20063 73.63937,-43.95747 10.60273,-5.56971 8.06573,-14.15062 8.07803,-22.08833 0,-17.3001 15.50669,-23.28154 28.81028,-23.28154 12.75871,0 20.67593,4.71755 22.58815,5.58507 4.77389,-2.64864 17.18436,-9.59797 40.41265,-23.92476 28.57471,-17.62375 28.08206,-31.56339 45.89017,-35.37963 19.75209,-4.2372 32.26293,15.03145 32.26293,28.4897 0,20.1925 -25.79293,31.92699 -38.79233,39.2645 -36.37517,20.54483 -49.23425,29.20256 -62.19678,37.58478 0.69135,8.09748 0.68008,26.89704 0.69544,43.14527 0,27.04965 8.11387,77.54062 8.11387,105.52231 0,33.20726 -1.38372,74.38398 -1.38372,84.62618 0,16.51555 1.87228,35.27926 3.40861,48.27046 0.99963,10.63038 2.3598,28.04622 3.1126,42.1487 H 917.32485 V 378.11642 c -0.34004,0.67292 -0.68008,1.33661 -1.02013,2.0085 -16.85968,33.58724 -38.40825,70.86783 -54.85619,127.70794"
       id="path6" />
    <g
       id="g1864">
      <path
         d="m 441.69806,870.69413 c 17.7158,0 29.2223,-9.44203 35.2075,-18.64398 v 14.03499 h 31.3026 V 750.09223 h -31.3026 v 65.13393 c 0,17.02766 -6.6734,28.53416 -23.477,28.53416 -13.8109,0 -20.7085,-7.60166 -20.7085,-25.31739 v -68.3507 h -31.3027 v 74.33594 c 0,28.53415 13.5869,46.26596 40.2807,46.26596 z"
         id="path16" />
      <path
         id="path12"
         d="M 214.11777,703.70575 V 865.96551 H 246.3502 V 764.0827 l 38.83593,71.76563 h 26.50781 l 38.84766,-71.78711 v 101.90429 h 32.23047 v -161.46484 -0.79492 h -30.39258 l -1.83789,3.27344 -51.98242,92.57617 -54.22852,-95.84961 z" />
      <path
         d="m 647.27836,750.00653 v 115.95898 h 31.3028 V 750.00653 Z"
         id="path1666" />
      <path
         d="m 662.69636,702.466 c -10.1301,0 -18.6445,8.52406 -18.6445,18.88867 0,10.14112 8.5144,18.66211 18.6445,18.66211 10.3543,0 18.8672,-8.52099 18.8672,-18.66211 0,-10.36461 -8.5129,-18.88867 -18.8672,-18.88867 z"
         id="path2942-4" />
      <path
         id="Fill-18-0"
         d="m 753.49743,744.95824 c -36.1137,0.56627 -57.8754,24.13856 -57.6879,62.3041 0,35.95808 20.5802,62.92076 58.6353,62.92076 30.5002,0 48.2291,-15.35449 54.5633,-40.68512 L 779.164,821.80713 c -3.5945,12.96281 -12.70057,19.70244 -24.87537,19.87936 -17.118,-0.125 -26.7412,-13.01902 -26.7412,-34.83191 0,-21.78485 10.3277,-33.31479 26.708,-33.36237 13.9363,0.49665 21.20017,7.82201 24.45157,19.38192 l 29.63083,-8.04741 c -5.1313,-24.41765 -23.6276,-40.10762 -54.8404,-39.86848 z" />
      <path
         d="m 630.57903,833.00363 c 0,11.35706 -4.372,20.48093 -13.116,27.38426 -8.7509,6.90333 -21.4859,10.35442 -38.2038,10.35442 -16.4162,0 -29.1892,-3.30029 -38.3131,-9.89282 -9.133,-6.59598 -15.3054,-15.41709 -18.5286,-26.46335 l 29.6866,-6.44403 c 1.5298,5.67508 4.5665,10.08966 9.0939,13.2311 4.5182,3.14489 10.5444,4.71734 18.0612,4.71734 6.5926,0 11.3905,-1.07171 14.38,-3.22202 2.9906,-2.14801 4.4894,-4.9821 4.4894,-8.51492 0,-5.82702 -3.7205,-9.43467 -11.1591,-10.81372 -7.4478,-1.38251 -15.5771,-3.02748 -24.3982,-4.94986 -8.8211,-1.91318 -16.9516,-5.29175 -24.3902,-10.12535 -7.4386,-4.83015 -11.159,-13.535 -11.159,-26.11916 0,-10.12535 4.1394,-18.75193 12.4253,-25.88779 8.2847,-7.13241 20.3289,-10.70091 36.1305,-10.70091 7.8197,0 14.685,0.95889 20.5926,2.87667 5.9099,1.92239 10.8955,4.5274 14.9636,7.82424 4.0623,3.29914 7.2452,7.09672 9.5428,11.39159 2.3069,4.29717 3.8368,8.82457 4.6057,13.57759 l -27.8458,5.52428 c -1.0718,-5.21462 -3.4477,-9.32186 -7.1279,-12.31135 -3.6893,-2.99409 -8.6749,-4.48826 -14.9635,-4.48826 -6.2898,0 -10.778,1.11315 -13.4579,3.33483 -2.6867,2.22514 -4.0301,4.87159 -4.0301,7.9405 0,5.67508 3.7976,9.2056 11.3928,10.58695 7.5928,1.37791 15.9097,2.98949 24.9645,4.83015 9.0537,1.84066 17.3787,5.21808 24.9727,10.12535 7.594,4.91187 11.3916,13.65471 11.3916,26.23427"
         id="path30194" />
    </g>
  </g>
</svg>
