<?xml version="1.0" encoding="UTF-8" standalone="no"?>
<!-- Created with Inkscape (http://www.inkscape.org/) -->

<svg
   xmlns:dc="http://purl.org/dc/elements/1.1/"
   xmlns:cc="http://creativecommons.org/ns#"
   xmlns:rdf="http://www.w3.org/1999/02/22-rdf-syntax-ns#"
   xmlns:svg="http://www.w3.org/2000/svg"
   xmlns="http://www.w3.org/2000/svg"
   xmlns:sodipodi="http://sodipodi.sourceforge.net/DTD/sodipodi-0.dtd"
   xmlns:inkscape="http://www.inkscape.org/namespaces/inkscape"
   width="1000"
   height="546.25092"
   id="svg2"
   version="1.1"
   inkscape:version="0.48.5 r10040"
   sodipodi:docname="New document 1">
  <defs
     id="defs4">
	
	
	
</defs>
  <sodipodi:namedview
     id="base"
     pagecolor="#ffffff"
     bordercolor="#666666"
     borderopacity="1.0"
     inkscape:pageopacity="0.0"
     inkscape:pageshadow="2"
     inkscape:zoom="0.19117433"
     inkscape:cx="911.80561"
     inkscape:cy="50.962037"
     inkscape:document-units="px"
     inkscape:current-layer="layer1"
     showgrid="false"
     fit-margin-top="0"
     fit-margin-left="0"
     fit-margin-right="0"
     fit-margin-bottom="0"
     inkscape:window-width="1002"
     inkscape:window-height="988"
     inkscape:window-x="913"
     inkscape:window-y="32"
     inkscape:window-maximized="0">
    <inkscape:grid
       type="xygrid"
       id="grid4385"
       empspacing="5"
       visible="true"
       enabled="true"
       snapvisiblegridlinesonly="true"
       originx="788px"
       originy="1711px" />
  </sodipodi:namedview>
  <metadata
     id="metadata7">
    <rdf:RDF>
      <cc:Work
         rdf:about="">
        <dc:format>image/svg+xml</dc:format>
        <dc:type
           rdf:resource="http://purl.org/dc/dcmitype/StillImage" />
        <dc:title></dc:title>
      </cc:Work>
    </rdf:RDF>
  </metadata>
  <g
     inkscape:label="Layer 1"
     inkscape:groupmode="layer"
     id="layer1"
     transform="translate(788,-2217.1113)">
    <path
       style="fill:#fcd800;fill-opacity:1"
       inkscape:connector-curvature="0"
       d="m -788,2426.5259 v -209.4146 h 146.13 v 209.4146 H -788 z M -663.01571,2405.43 V 2238.2057 H -766.95762 V 2405.43 h 103.94191 z"
       id="path4315" />
    <g
       id="g4317"
       transform="matrix(0.71267283,0,0,0.71267283,-636.06693,2041.9547)">
		<path
   inkscape:connector-curvature="0"
   d="M 147.288,380.877 H 134.602 C 117.976,357.369 101.419,334.005 84.936,307.56 l 0,0 v 73.317 H 70.604 V 278.605 h 12.684 c 16.628,23.364 33.183,46.585 49.523,72.888 l 0,0 v -72.888 h 14.334 v 102.272 h 0.143 z"
   id="path4319" />

		<path
   inkscape:connector-curvature="0"
   d="m 180.543,340.456 c 4.085,-13.402 8.17,-25.873 11.825,-41.639 l 0,0 c 4.085,15.767 7.741,28.237 11.539,41.639 h -23.364 z m 6.736,-61.779 -35.405,102.2 h 15.195 l 8.886,-27.879 h 30.818 l 8.026,27.879 h 19.566 L 202.042,278.605 H 187.71 l -0.431,0.072 z"
   id="path4321" />

		<path
   inkscape:connector-curvature="0"
   d="m 250.993,380.877 v -88.511 h -26.877 v -13.689 h 71.097 v 13.689 h -26.875 v 88.511 h -17.559 0.214 z"
   id="path4323" />

		<path
   inkscape:connector-curvature="0"
   d="M 301.162,380.877 V 278.605 h 17.415 v 102.272 h -17.415 l 0,0 z"
   id="path4325" />

		<path
   inkscape:connector-curvature="0"
   d="m 372.544,367.833 c -18.275,0 -24.726,-20.139 -24.726,-39.705 0,-19.566 7.167,-36.838 24.726,-36.838 17.56,0 24.655,17.99 24.655,36.838 0,18.85 -6.379,39.705 -24.655,39.705 z m 0,14.334 c 26.732,0 43.359,-23.793 43.359,-54.325 0,-28.667 -18.419,-51.458 -43.359,-51.458 -24.94,0 -43.36,22.791 -43.36,51.458 0,30.96 16.629,54.827 43.36,54.827 v -0.502 z"
   id="path4327" />

		<path
   inkscape:connector-curvature="0"
   d="M 503.054,380.877 H 490.368 C 473.742,357.369 457.185,334.005 440.702,307.56 l 0,0 v 73.317 H 426.369 V 278.605 h 12.685 c 16.627,23.364 33.183,46.585 49.522,72.888 l 0,0 v -72.888 h 14.334 v 102.272 h 0.144 z"
   id="path4329" />

		<path
   inkscape:connector-curvature="0"
   d="m 536.523,340.456 c 4.086,-13.402 8.171,-25.873 11.825,-41.639 l 0,0 c 4.085,15.767 7.739,28.237 11.54,41.639 h -23.652 0.287 z m 6.737,-61.779 -35.333,102.272 h 15.194 l 8.887,-27.88 h 30.818 l 8.026,27.88 h 19.566 l -32.61,-102.272 h -14.334 -0.214 z"
   id="path4331" />

		<path
   inkscape:connector-curvature="0"
   d="m 595.506,278.605 h 17.417 v 88.511 h 34.616 v 13.761 H 595.506 V 278.605 z"
   id="path4333" />

	</g>
    <g
       id="g4335"
       transform="matrix(0.71267283,0,0,0.71267283,-636.06693,2041.9547)">
		<path
   inkscape:connector-curvature="0"
   d="m 136.465,466.451 v 42.212 c -9.222,3.894 -19.089,6.032 -29.096,6.307 -30.102,0 -49.096,-23.364 -49.096,-53.464 0,-27.881 18.994,-52.318 49.668,-52.318 8.875,0.049 17.523,2.799 24.798,7.883 l -5.662,12.112 c -5.663,-3.386 -12.109,-5.237 -18.704,-5.374 -18.707,0 -31.393,14.764 -31.393,37.984 0,23.22 14.333,38.558 29.672,38.558 4.229,0.183 8.438,-0.68 12.254,-2.509 v -31.391 h 17.559 l 0,0 z"
   id="path4337" />

		<path
   inkscape:connector-curvature="0"
   d="m 199.177,424.666 h -29.241 v 28.024 h 28.667 v 13.761 h -28.667 v 33.039 h 34.473 v 13.76 H 152.378 V 410.836 h 46.729 v 13.76 l 0.07,0.07 z"
   id="path4339" />

		<path
   inkscape:connector-curvature="0"
   d="m 253.215,500.35 c -18.275,0 -24.654,-20.14 -24.654,-39.704 0,-19.566 7.167,-36.839 24.654,-36.839 17.488,0 24.727,17.989 24.727,36.839 -0.001,18.848 -6.451,39.704 -24.727,39.704 z m 0,14.334 c 26.732,0 43.36,-23.795 43.36,-54.325 0,-28.667 -18.419,-51.458 -43.36,-51.458 -24.939,0 -43.358,22.791 -43.358,51.458 0,30.817 16.626,54.611 43.358,54.611 v -0.286 z"
   id="path4341" />

		<path
   inkscape:connector-curvature="0"
   d="m 380.786,466.451 v 42.212 c -9.222,3.894 -19.091,6.032 -29.098,6.307 -30.101,0 -49.094,-23.364 -49.094,-53.464 0,-27.881 18.993,-52.318 49.668,-52.318 8.874,0.049 17.522,2.799 24.797,7.883 l -5.661,12.112 c -5.664,-3.386 -12.111,-5.237 -18.707,-5.374 -18.705,0 -31.391,14.764 -31.391,37.984 0,23.22 14.334,38.558 29.671,38.558 4.229,0.183 8.438,-0.68 12.256,-2.509 v -31.391 h 17.559 l 0,0 z"
   id="path4343" />

		<path
   inkscape:connector-curvature="0"
   d="m 414.398,424.666 h 7.741 c 8.153,-0.807 15.417,5.148 16.225,13.303 0.105,1.059 0.096,2.126 -0.027,3.182 1.29,9.852 -5.652,18.883 -15.503,20.172 -0.373,0.048 -0.748,0.086 -1.125,0.111 l -7.167,0.43 v -37.269 l -0.144,0.071 z m 44.436,88.514 -20.283,-42.357 c 11.024,-6.12 17.817,-17.779 17.703,-30.388 0,-19.853 -12.113,-29.527 -31.678,-29.527 H 397.27 V 513.18 h 17.559 v -38.56 h 7.884 l 16.482,38.56 h 19.998 -0.359 z"
   id="path4345" />

		<path
   inkscape:connector-curvature="0"
   d="m 487.717,472.758 c 4.085,-13.402 8.17,-25.873 11.826,-41.641 l 0,0 c 4.085,15.768 7.739,28.166 11.537,41.641 h -23.649 0.286 z m 6.736,-61.922 -35.332,102.271 h 15.266 l 8.887,-27.881 h 30.816 l 8.027,27.881 h 19.566 L 509.074,410.836 h -14.333 -0.288 z"
   id="path4347" />

		<path
   inkscape:connector-curvature="0"
   d="m 574.723,410.836 h -27.306 v 102.271 h 17.559 V 474.62 h 7.885 c 18.444,0.124 33.497,-14.728 33.62,-33.173 0.004,-0.338 0,-0.676 -0.008,-1.013 -0.287,-19.853 -12.4,-29.598 -31.75,-29.598 z m -2.509,50.525 -7.167,0.43 v -37.195 h 7.884 c 8.161,-0.727 15.367,5.299 16.095,13.459 0.09,1.008 0.075,2.021 -0.041,3.024 1.32,9.888 -5.625,18.972 -15.513,20.291 -0.488,0.065 -0.979,0.11 -1.472,0.136 l 0.214,-0.145 z"
   id="path4349" />

		<path
   inkscape:connector-curvature="0"
   d="M 687.458,513.18 H 669.899 V 463.943 H 633.491 V 513.18 H 616.076 V 410.836 h 17.415 v 39.273 h 36.408 v -38.988 h 17.559 v 101.986 0.073 z"
   id="path4351" />

		<path
   inkscape:connector-curvature="0"
   d="M 704.23,513.18 V 410.836 h 17.415 V 513.107 H 704.23 v 0.073 z"
   id="path4353" />

		<path
   inkscape:connector-curvature="0"
   d="m 800.481,429.47 c -5.403,-3.417 -11.604,-5.368 -17.989,-5.661 -17.847,0 -30.818,14.762 -30.818,37.982 0,23.22 14.335,38.559 31.249,38.559 6.214,-0.016 12.299,-1.778 17.559,-5.088 l 4.802,12.686 c -6.887,4.468 -14.871,6.947 -23.077,7.166 -30.102,0 -49.093,-23.364 -49.093,-53.466 0,-27.878 18.848,-52.317 49.379,-52.317 8.439,0.262 16.615,3.004 23.508,7.884 l -5.52,12.255 z"
   id="path4355" />

	</g>
    <path
       style="fill:#000000;fill-opacity:1;fill-rule:evenodd;stroke:none"
       d="m -775.81185,2490.7907 62.6028,0 59.83276,146.8119 66.72988,-154.3536 66.88703,154.3536 60.1895,-146.8119 58.8208,0 -114.99963,272.5715 -72.43587,-162.8781 -72.01589,162.8781 z"
       id="path4408"
       inkscape:connector-curvature="0"
       sodipodi:nodetypes="ccccccccccc" />
    <path
       style="fill:#000000;fill-opacity:1;fill-rule:evenodd;stroke:none"
       d="m -353.47736,2752.2821 0,-261.4914 57.06273,0 0,261.4914 z"
       id="path4410"
       inkscape:connector-curvature="0" />
    <path
       style="fill:#000000;fill-opacity:1;fill-rule:evenodd;stroke:none"
       d="m -222.91281,2752.2821 0,-261.4914 57.06272,0 0,214.4008 110.620288,0 -18.655118,47.0906 z"
       id="path4412"
       inkscape:connector-curvature="0"
       sodipodi:nodetypes="ccccccc" />
    <path
       style="fill:#000000;fill-opacity:1;stroke:none"
       d="m -7.9580816,2490.7978 0,261.4914 85.3170846,0 C 154.701,2752.2892 212,2694.6177 212,2621.5608 c 0,-78.0916 -64.24901,-130.763 -131.316955,-130.763 l -88.6411266,0 z m 56.8376606,47.333 22.385347,0 c 49.843054,0 83.291494,35.8607 83.291494,83.4127 0,54.6592 -42.19723,83.43 -80.227143,83.43 l -25.449698,0 0,-166.8427 z"
       id="path4414"
       inkscape:connector-curvature="0" />
  </g>
</svg>
