<?xml version="1.0" encoding="utf-8"?>
<!-- Generator: Adobe Illustrator 24.3.0, SVG Export Plug-In . SVG Version: 6.00 Build 0)  -->
<svg version="1.1"
	 id="Слой_1" xmlns:cc="http://creativecommons.org/ns#" xmlns:dc="http://purl.org/dc/elements/1.1/" xmlns:rdf="http://www.w3.org/1999/02/22-rdf-syntax-ns#"
	 xmlns="http://www.w3.org/2000/svg" xmlns:xlink="http://www.w3.org/1999/xlink" x="0px" y="0px" viewBox="0 0 512 107.5"
	 style="enable-background:new 0 0 512 107.5;" xml:space="preserve">
<style type="text/css">
	.st0{display:none;}
	.st1{display:inline;fill:#FFFFFF;}
	.st2{display:none;fill:#4AC3CB;}
	.st3{fill:#F57C14;}
	.st4{fill:#4AC3CB;}
</style>
<g transform="translate(180.68266,399.04442)" class="st0">
	<path class="st1" d="M389.7,6.7c-1.3-0.1-1.4-3.5,0-3.7C390.3,4.2,390.4,5.4,389.7,6.7z"/>
	<path class="st1" d="M391.3,4"/>
</g>
<path class="st2" d="M488.4,430.3h0.2l3.6,4l3.5-4h0.2v7.5h-1.3v-4.6l-2.3,2.7h-0.2l-2.3-2.7v4.6h-1.3L488.4,430.3L488.4,430.3z
	 M483.3,431.6h-2.2v-1.1h5.8v1.1h-2.2v6.2h-1.3V431.6z"/>
<g>
	<path class="st3" d="M36.2,35c-10,0-19.1,4.1-25.6,10.6C4.1,52.1,0,61.2,0,71.2v33.1h27.5V89.8v-18c0-4,1-7.3,2.6-10
		c1.6-2.6,3.7-4.1,6.2-4.1c2.4,0,4.6,1.5,6.2,4.1c1.6,2.6,2.5,6,2.6,10v32.5h27.5V71.2c0-10-4.1-19.1-10.6-25.6
		C55.3,39.1,46.2,35,36.2,35"/>
	<path class="st3" d="M102,26.1c2.8-2.8,4.5-6.6,4.5-10.8c0-4.2-1.7-8-4.5-10.8C99.2,1.7,95.4,0,91.2,0c-4.2,0-8,1.7-10.8,4.5
		c-2.8,2.8-4.5,6.6-4.5,10.8c0,4.2,1.7,8,4.5,10.8l3.4,3.4c5.6,5.6,6,7.1,0.7,12.5L81.4,45c-2.5,2.5-4.1,6-4.1,9.8v49.4h27.8V54.8
		c0-3.8-1.6-7.3-4.1-9.8L98,41.9c-5.4-5.4-5-6.9,0.7-12.5L102,26.1L102,26.1z"/>
	<path class="st3" d="M151.3,82.8c-1.6,3-3.7,4.8-6.2,4.8s-4.5-1.8-6.2-4.8c-1.6-3-2.5-6.9-2.6-11.5c0-4.6,1-8.5,2.6-11.5
		c1.6-3,3.7-4.8,6.2-4.8c2.4,0,4.5,1.8,6.2,4.8c1.2,2.3,2,5,2.4,8.1h27.5c-0.8-8.6-4.7-16.4-10.4-22.2C164.2,39.1,155,35,145.1,35
		c-10,0-19.1,4.1-25.6,10.6c-6.5,6.5-10.6,15.7-10.6,25.6c0,10,4.1,19.1,10.6,25.6c5,5,13.8,10.6,25.6,10.6c8.9,0,17.2-3.3,23.5-8.6
		c4.6-3.9,11.4-11.7,12.6-24.2h-27.5C153.3,77.8,152.5,80.5,151.3,82.8"/>
	<path class="st3" d="M253.9,99.5c0-0.9-0.3-1.8-0.7-2.5l-15.1-22.8l10.4-18.9c3.9-6.5,1.7-15-4.9-18.8c-6.5-3.9-15-1.7-18.8,4.9
		l-12.4,22.2V48.7c0-7.6-6.2-13.8-13.8-13.8c-7.6,0-13.7,6.2-13.7,13.8v55.5h27.5V82.5l14.5,21.7l22.2,0
		C251.7,104.3,253.9,102.1,253.9,99.5"/>
	<path class="st4" d="M311.6,79.3c0,16.8-8.2,27.6-27.8,27.6h-0.8c-6.8,0-14-1.8-18.5-4.7c-7.8-5-12.9-13.2-7.7-21.9
		c4.7-8.1,21.4-9.6,23.8,4.5c0.9,4.9,3.5,4.3,3.5-0.3l0-33.4c0-10,6.2-16.1,13.7-16.1c7.6,0,13.7,6.1,13.7,13.7L311.6,79.3
		L311.6,79.3z M297.9,30.7c7.5,0,13.6-6.1,13.6-13.6c0-7.5-6.1-13.6-13.6-13.6c-7.5,0-13.6,6.1-13.6,13.6
		C284.3,24.6,290.4,30.7,297.9,30.7"/>
	<path class="st4" d="M345.9,104.3v-37c0-2.7,1.7-7.2,4.8-8.4c3.2-1.2,6,0.2,9.5,1.5c11.4,4.3,20.3-1.4,21.6-8.9
		c1.4-7.5-3.5-14.6-11-16c-9.2-1.7-15.6,1.2-23.1,6.9c0,0,0,0,0,0c-0.5,0.4-1.9,1.6-2.4,2c-1.8-5.6-7-9.6-13.1-9.6
		c-7.6,0-13.7,6.1-13.7,13.7v55.6L345.9,104.3L345.9,104.3z"/>
	<path class="st4" d="M369.3,105c7.5,0,13.6-6.1,13.6-13.6c0-7.5-6.1-13.6-13.6-13.6c-7.5,0-13.6,6.1-13.6,13.6
		C355.7,99,361.8,105,369.3,105"/>
	<g transform="matrix(1.6962814,0,0,1.6962814,-316.76272,-22.08368)">
		<path d="M448.4,67.8V55.7H437v12.2h-7V38.7h7v11h11.4v-11h7v29.1H448.4z"/>
		<path d="M481.3,53.2c0-1.7-0.3-3-0.8-4.1c-0.5-1.1-1.2-1.9-2.2-2.6c-0.9-0.6-1.9-1.1-3-1.4c-1.1-0.3-2.3-0.4-3.5-0.4h-3.5v17h3.3
			c1.2,0,2.5-0.1,3.6-0.4c1.2-0.3,2.2-0.7,3.1-1.4c0.9-0.7,1.6-1.5,2.2-2.6C481,56.2,481.3,54.8,481.3,53.2 M488.6,53.2
			c0,2.6-0.5,4.7-1.4,6.6c-1,1.9-2.2,3.4-3.7,4.6c-1.5,1.2-3.3,2.1-5.2,2.7c-1.9,0.5-3.9,0.8-5.9,0.8h-10.9V38.7h10.5
			c2.1,0,4.1,0.2,6.1,0.7c2,0.5,3.8,1.3,5.3,2.4c1.6,1.1,2.8,2.6,3.8,4.4C488.1,48.2,488.6,50.5,488.6,53.2"/>
		<path d="M429.5,30.6v6h57.8v-6H429.5L429.5,30.6z"/>
		<path d="M429.5,70.3v6h57.8v-6H429.5L429.5,70.3z"/>
	</g>
</g>
</svg>
