<?xml version="1.0" encoding="UTF-8" standalone="no"?>
<!-- Created with Inkscape (http://www.inkscape.org/) -->

<svg
   xmlns:dc="http://purl.org/dc/elements/1.1/"
   xmlns:cc="http://creativecommons.org/ns#"
   xmlns:rdf="http://www.w3.org/1999/02/22-rdf-syntax-ns#"
   xmlns:svg="http://www.w3.org/2000/svg"
   xmlns="http://www.w3.org/2000/svg"
   xmlns:xlink="http://www.w3.org/1999/xlink"
   xmlns:sodipodi="http://sodipodi.sourceforge.net/DTD/sodipodi-0.dtd"
   xmlns:inkscape="http://www.inkscape.org/namespaces/inkscape"
   width="1000"
   height="409.35468"
   id="svg2"
   version="1.1"
   inkscape:version="0.48.5 r10040"
   sodipodi:docname="A.svg">
  <defs
     id="defs4">
    <linearGradient
       inkscape:collect="always"
       xlink:href="#linearGradient10303"
       id="linearGradient10309"
       x1="186.89923"
       y1="203.7476"
       x2="198.06914"
       y2="303.08032"
       gradientUnits="userSpaceOnUse" />
    <linearGradient
       inkscape:collect="always"
       id="linearGradient10303">
      <stop
         style="stop-color:#552f70;stop-opacity:1"
         offset="0"
         id="stop10305" />
      <stop
         style="stop-color:#69397d;stop-opacity:1"
         offset="1"
         id="stop10307" />
    </linearGradient>
    <linearGradient
       gradientTransform="matrix(4.059282,0,0,-4.059282,26.336485,1128.7929)"
       y2="303.08032"
       x2="198.06914"
       y1="203.7476"
       x1="186.89923"
       gradientUnits="userSpaceOnUse"
       id="linearGradient10326"
       xlink:href="#linearGradient10303"
       inkscape:collect="always" />
  </defs>
  <sodipodi:namedview
     id="base"
     pagecolor="#ffffff"
     bordercolor="#666666"
     borderopacity="1.0"
     inkscape:pageopacity="0.0"
     inkscape:pageshadow="2"
     inkscape:zoom="0.22558594"
     inkscape:cx="334.23921"
     inkscape:cy="-683.59748"
     inkscape:document-units="px"
     inkscape:current-layer="layer1"
     showgrid="false"
     fit-margin-top="0"
     fit-margin-left="0"
     fit-margin-right="0"
     fit-margin-bottom="0"
     inkscape:window-width="904"
     inkscape:window-height="857"
     inkscape:window-x="1008"
     inkscape:window-y="14"
     inkscape:window-maximized="0" />
  <metadata
     id="metadata7">
    <rdf:RDF>
      <cc:Work
         rdf:about="">
        <dc:format>image/svg+xml</dc:format>
        <dc:type
           rdf:resource="http://purl.org/dc/dcmitype/StillImage" />
        <dc:title></dc:title>
      </cc:Work>
    </rdf:RDF>
  </metadata>
  <g
     inkscape:label="Layer 1"
     inkscape:groupmode="layer"
     id="layer1"
     transform="translate(-521.28731,103.07643)">
    <path
       inkscape:connector-curvature="0"
       id="path5075"
       style="fill:url(#linearGradient10326);fill-opacity:1;fill-rule:nonzero;stroke:none"
       d="m 1519.9978,289.76461 -127.859,-143.63698 c -0.8173,-0.92389 -0.8173,-2.34535 0,-3.26931 L 1501.8743,19.086036 c 1.3859,-1.56357 1.7057,-3.660173 0.8529,-5.543615 -0.8529,-1.883409 -2.6652,-3.056087 -4.6908,-3.056087 l -67.9095,0 c -1.4925,0 -2.8784,0.639645 -3.8734,1.741269 l -99.8921,112.223007 c -0.6041,0.71073 -1.3503,0.85287 -1.8123,0.85287 -1.2437,0 -2.5231,-0.92392 -2.5231,-2.48752 l 0,-216.343825 c 0,-2.842926 -2.3098,-5.188282 -5.1527,-5.188282 l -59.7007,0 c -2.8784,0 -5.1883,2.345356 -5.1883,5.188282 l 0,386.703965 c 0,2.84289 2.3099,5.15269 5.1883,5.15269 l 59.7007,0 c 2.8429,0 5.1527,-2.3098 5.1527,-5.15269 l 0,-70.85899 c 0,-0.60418 0.2131,-1.17271 0.6041,-1.63466 l 24.8042,-27.54054 c 0.462,-0.53303 1.1372,-0.85284 1.848,-0.85284 0.7107,0 1.3503,0.28448 1.8478,0.81732 l 92.0741,103.55225 c 0.9595,1.06606 2.3454,1.67015 3.8024,1.67015 l 69.1177,0 c 2.0611,0 3.8379,-1.13712 4.6907,-3.0205 0.8529,-1.88344 0.5331,-4.0156 -0.8173,-5.54368 m -339.6932,-75.73815 c -0.9595,-1.0305 -2.2744,-1.59909 -3.6958,-1.59909 -1.3859,0 -2.6652,0.53306 -3.6246,1.49251 -18.7987,18.54988 -41.9327,27.96696 -68.798,27.96696 -24.3778,0 -45.2019,-8.42207 -61.8328,-25.05298 -16.24,-16.80861 -24.5199,-38.02365 -24.5199,-62.97001 0,-24.98187 8.2799,-46.19691 24.5554,-63.005518 16.5954,-16.630878 37.4195,-25.052979 61.7973,-25.052979 26.8653,0 49.9993,9.417112 68.798,27.966959 0.9594,0.959452 2.2387,1.492517 3.6246,1.492517 1.4214,0 2.7363,-0.568592 3.6958,-1.599097 l 36.6377,-38.094739 c 1.919,-2.025581 1.919,-5.152755 0,-7.142777 -15.1384,-15.600373 -32.2668,-27.469422 -50.8877,-35.251812 -18.7275,-7.7824233 -39.5162,-11.7269089 -61.8684,-11.7269089 -43.5317,0 -80.9512,14.7829959 -111.22801,43.9226329 -15.03175,14.463222 -26.47438,30.916402 -33.93696,48.89769 -7.42706,17.945732 -11.19391,37.988062 -11.19391,59.594032 0,43.5318 15.17395,80.20504 45.13087,109.02481 29.88591,28.78427 67.34091,43.3896 111.22801,43.3896 22.3522,0 43.1409,-3.98004 61.8684,-11.76247 18.6209,-7.78236 35.7493,-19.65144 50.8877,-35.21628 1.919,-2.02555 1.919,-5.15269 0,-7.17828 l -36.6377,-38.09477 z M 906.02609,10.642632 l -60.2337,0 c -2.84289,0 -5.18828,2.309862 -5.18828,5.152756 l 0,277.537042 c 0,2.84286 2.34535,5.15272 5.18828,5.15272 l 60.2337,0 c 2.87846,0 5.18829,-2.30986 5.18829,-5.15272 l 0,-277.537042 c 0,-2.842894 -2.30983,-5.152756 -5.18829,-5.152756 m -30.1062,-113.719062 c -23.63151,0 -42.11027,18.230038 -42.11027,41.506156 0,23.27615 18.47876,41.541718 42.11027,41.541718 11.0873,0 21.46383,-4.264324 29.31734,-12.011188 7.85344,-7.782391 12.18882,-18.265568 12.18882,-29.53053 0,-11.229403 -4.33538,-21.712515 -12.18882,-29.530498 -7.85351,-7.711336 -18.23004,-11.975658 -29.31734,-11.975658 m -112.52508,40.368972 c -26.15457,-23.880236 -56.53797,-35.99807 -90.29727,-35.99807 l -146.65751,0 c -2.87842,0 -5.15272,2.309861 -5.15272,5.152723 l 0,386.739525 c 0,2.84289 2.2743,5.15272 5.15272,5.15272 l 63.0766,0 c 2.8429,0 5.15276,-2.30983 5.15276,-5.15272 l 0,-130.41752 c 0,-1.38594 1.13712,-2.48753 2.48753,-2.48753 l 75.94062,0 c 34.54111,0 64.92448,-12.2955 90.3328,-36.56666 26.1546,-24.484392 39.44508,-55.649547 39.44508,-92.642661 0,-38.3079314 -13.29048,-69.864011 -39.48061,-93.779807 m -93.67316,156.358901 -72.56473,0 c -1.35041,0 -2.48753,-1.101624 -2.48753,-2.451969 l 0,-120.787282 c 0,-1.385871 1.13712,-2.487528 2.48753,-2.487528 l 72.56473,0 c 29.99244,0 60.30476,21.677053 60.30476,63.147685 0,41.07974 -30.31232,62.579094 -60.30476,62.579094" />
  </g>
</svg>
