<?xml version="1.0" encoding="UTF-8" standalone="no"?>
<svg
   version="0.0"
   width="874.31287"
   height="199.90329"
   viewBox="0 0 874.31287 199.90329"
   id="svg94256"
   xmlns="http://www.w3.org/2000/svg"
   xmlns:svg="http://www.w3.org/2000/svg">
  <defs
     id="defs5" />
  <path
     d="m 175.66337,100.82998 c 0,34.32754 20.30916,55.58622 49.99179,55.58622 20.30917,0 31.9392,-13.06885 31.9392,-13.06885 v 10.45509 h 32.45995 V 46.812013 h -31.9392 v 10.977846 c -9.54705,-8.712576 -17.70543,-13.068864 -30.72412,-13.068864 -29.68264,0 -51.72762,26.311978 -51.72762,56.108985 z m 58.15017,-26.137725 c 14.23377,0 25.34306,10.803593 25.34306,26.486225 0,15.50839 -11.97719,26.13772 -26.38456,26.13772 -14.9281,0 -24.30155,-12.19759 -24.30155,-27.00897 0,-14.114375 9.8942,-25.614975 25.34305,-25.614975 z"
     id="path80461"
     style="fill:#f4aa00" />
  <path
     d="m 52.99535,76.073625 c 7.32172,0 11.33124,2.091393 11.33124,2.091393 0,-9.759838 0,-22.308199 0,-33.462299 -2.96356,0 -5.2298,0 -7.32172,0 -12.90019,0 -22.83683,10.979816 -25.45172,18.996825 0,-6.797029 0,-16.905432 0,-16.905432 H 0 V 153.80376 h 32.77345 c 0,0 0,-29.10523 0,-49.32204 0,-20.739653 7.67037,-28.408095 20.2219,-28.408095 z"
     id="path80463"
     style="fill:#f4aa00" />
  <path
     d="m 64.01272,100.48148 c 0,35.8958 22.56459,55.93472 55.37,55.93472 22.39099,0 40.44265,-11.15209 49.81562,-27.88023 -5.9015,-3.65929 -25.16818,-14.81138 -25.16818,-14.81138 -5.55435,7.31856 -12.49729,14.81138 -23.08529,14.81138 -12.15014,0 -22.21742,-6.0988 -24.9946,-18.81916 2.43004,0 74.98381,0 74.98381,0 0.17357,-2.43952 0,-3.83354 0,-6.44731 0,-38.161079 -21.69671,-58.548505 -52.41924,-58.548505 -31.41682,0 -54.50212,23.349702 -54.50212,55.760485 z m 54.15499,-28.57725 c 10.06725,0 15.62161,4.879042 19.44024,15.159882 -3.64506,0 -40.44268,0 -40.44268,0 3.99221,-9.932336 10.06729,-15.159882 21.00244,-15.159882 z"
     id="path80465"
     style="fill:#f4aa00" />
  <path
     d="m 515.64756,46.410844 v 62.183206 c 0,10.80954 -6.31959,17.59479 -17.93578,17.59479 -10.93137,0 -18.20041,-6.78525 -18.20422,-18.45982 V 46.410844 h -32.28483 v 62.232906 c 0,29.63367 19.60381,47.41292 50.13806,47.41292 6.59061,0.0646 13.11499,-0.81682 19.44479,-2.65456 l -0.01,1.03347 c 0,11.6936 -9.78406,16.79172 -20.43676,16.79172 -7.55391,0 -11.97175,-1.64934 -16.05222,-8.71692 h -34.312 c 3.27855,24.05238 24.94041,37.39291 49.70221,37.39291 26.54216,0 48.87111,-15.31165 51.38782,-44.75909 0.15604,-1.82578 0.0562,-3.70587 0.0562,-5.64003 V 46.410844 Z"
     id="path80473"
     style="fill:#f4aa00" />
  <path
     d="M 424.16152,153.81595 V 76.448281 h 17.16011 V 46.825525 H 424.16152 V 20.298152 H 391.70157 V 46.825525 H 381.11304 V 76.27403 h 10.58853 v 77.54192 z"
     id="path80467"
     style="fill:#f4aa00" />
  <path
     id="path81837"
     d="m 359.28894,0 c -10.77477,0 -19.46485,8.896601 -19.46485,19.712891 0,10.990746 8.51621,19.539062 19.11719,19.539062 11.12234,0 19.98437,-8.895972 19.98437,-19.886718 C 378.92565,8.548945 370.0637,0 359.28894,0 Z m -16.29493,46.8125 v 106.99023 h 32.28711 V 46.8125 Z"
     style="fill:#f4aa00" />
  <path
     d="M 331.81414,153.81595 V 20.298152 H 299.45233 V 153.81595 Z"
     id="path80471"
     style="fill:#f4aa00" />
  <path
     d="m 759.41025,100.89082 c 0,34.50739 20.40002,55.87746 50.21539,55.87746 20.40005,0 32.08209,-13.13734 32.08209,-13.13734 v 10.50987 h 32.60511 V 46.589841 H 842.2308 V 57.6252 c -9.58974,-8.758221 -17.78462,-13.137332 -30.86154,-13.137332 -29.8154,0 -51.95901,26.449835 -51.95901,56.402952 z m 58.41027,-26.274666 c 14.29747,0 25.45641,10.860196 25.45641,26.624996 0,15.58964 -12.03078,26.27466 -26.50253,26.27466 -14.99491,0 -24.41028,-12.2615 -24.41028,-27.15048 0,-14.188323 9.93847,-25.749176 25.4564,-25.749176 z"
     id="path37074"
     style="fill:#0a9b90" />
  <path
     d="M 696.43755,154.14081 V 76.367799 h 17.26614 V 46.589841 H 696.43755 V 19.964844 H 663.8237 V 46.589841 H 653.185 v 29.602793 h 10.6387 v 77.948176 z"
     id="path37076"
     style="fill:#0a9b90" />
  <path
     d="m 762.82124,76.017469 c 7.35873,0 11.38846,2.101975 11.38846,2.101975 0,-9.809208 0,-22.421051 0,-33.631576 -2.9785,0 -5.25621,0 -7.35867,0 -12.96535,0 -22.9521,11.03536 -25.58023,19.092926 0,-6.831416 0,-16.990953 0,-16.990953 H 709.55832 V 154.14081 h 32.93893 c 0,0 0,-29.25246 0,-49.57153 0,-20.844575 7.70912,-28.551811 20.32399,-28.551811 z"
     id="path37078"
     style="fill:#0a9b90" />
  <path
     id="path1495"
     d="m 550.91687,46.680439 34.02999,50.326018 -37.8923,57.134563 h 44.86677 l 11.78921,-21.39672 c 1.05694,-1.94107 2.55383,-4.83924 3.213,-7.89912 h 0.4359 0.29131 0.45511 c 0.43935,2.94565 1.88417,5.86286 2.99107,7.89912 l 11.60192,21.39672 h 44.79957 l -38.58007,-57.148971 33.93716,-50.31161 h -44.43624 l -8.15735,16.611364 c -0.82381,1.590575 -2.34731,5.126206 -2.71413,7.5107 h -0.95878 c -0.24766,-1.609894 -2.20097,-6.957093 -2.50179,-7.537911 l -8.73413,-16.584153 z"
     style="fill:#0a9b90" />
</svg>
