<?xml version="1.0" encoding="utf-8"?>
<!-- Generator: Adobe Illustrator 26.3.1, SVG Export Plug-In . SVG Version: 6.00 Build 0)  -->
<svg version="1.1" id="Слой_1" xmlns="http://www.w3.org/2000/svg" xmlns:xlink="http://www.w3.org/1999/xlink" x="0px" y="0px"
	 width="500px" height="425.3px" viewBox="0 0 500 425.3" style="enable-background:new 0 0 500 425.3;" xml:space="preserve">
<style type="text/css">
	.st0{filter:url(#Adobe_OpacityMaskFilter);}
	.st1{fill:#FFFFFF;}
	.st2{mask:url(#mask-6_00000140696589629829464380000001562679545198294162_);}
</style>
<g>
	<path id="Fill-12" d="M384.3,220.3H245.5l-40.9,41v159.4c1.8,1.8,2.9,2.8,4.7,4.7h81c1.8-1.8,2.9-2.9,4.7-4.7v-25.5h89.4
		c1.8-1.8,2.9-2.9,4.7-4.7V327c-1.8-1.8-2.8-2.9-4.7-4.7h-89.4v-20.1h89.4c1.8-1.8,2.9-2.9,4.7-4.7v-72.5
		C387.1,223.1,386.1,222.1,384.3,220.3"/>
	<path d="M499.9,224.9v195.7c-1.8,1.8-2.8,2.8-4.7,4.7h-80.9c-1.8-1.8-2.8-2.9-4.7-4.7V224.9c1.8-1.8,2.8-2.8,4.7-4.7h80.9
		C497,222.1,498,223.1,499.9,224.9z"/>
	<path d="M384.5,122.1L384.5,122.1l-87.5,0l0-40.2h87.5c1.8-1.8,2.8-2.9,4.7-4.7V4.7c-1.8-1.8-2.8-2.8-4.7-4.7H245.8l-40.9,40.9
		l0,123l40.9,40.9h138.7c1.8-1.8,2.8-2.8,4.7-4.7v-73.5C387.3,125,386.3,123.9,384.5,122.1z"/>
	<defs>
		<filter id="Adobe_OpacityMaskFilter" filterUnits="userSpaceOnUse" x="0" y="0" width="184.3" height="102">
			<feColorMatrix  type="matrix" values="1 0 0 0 0  0 1 0 0 0  0 0 1 0 0  0 0 0 1 0"/>
		</filter>
	</defs>
	
		<mask maskUnits="userSpaceOnUse" x="0" y="0" width="184.3" height="102" id="mask-6_00000140696589629829464380000001562679545198294162_">
		<g class="st0">
			<polygon id="path-5_00000048500458917786109390000012061142217791243926_" class="st1" points="0,0 184.3,0 184.3,102 0,102 			
				"/>
		</g>
	</mask>
	<path id="Fill-7" class="st2" d="M179.6,0H40.9L0,40.9v56.4c1.8,1.8,2.9,2.8,4.7,4.7h87.5V81.9h87.5c1.8-1.8,2.8-2.9,4.7-4.7V4.7
		C182.4,2.9,181.4,1.8,179.6,0"/>
	<path id="Fill-10" d="M4.7,122.1c-1.8,1.8-2.9,2.9-4.7,4.7v73.5c1.8,1.8,2.8,2.8,4.7,4.7h138.7l40.9-40.9v-57.3
		c-1.8-1.8-2.9-2.9-4.7-4.7H92.1v20.1L4.7,122.1L4.7,122.1z"/>
	<path d="M500,4.7v195.6c-1.8,1.8-2.8,2.8-4.7,4.7h-80.9c-1.8-1.8-2.8-2.9-4.7-4.7V4.7c1.8-1.8,2.8-2.8,4.7-4.7h80.9
		C497.2,1.8,498.2,2.8,500,4.7z"/>
</g>
</svg>
