<svg id="Livello_1" data-name="Livello 1" xmlns="http://www.w3.org/2000/svg" xmlns:xlink="http://www.w3.org/1999/xlink" viewBox="0 0 4364.02 499.97"><defs><linearGradient id="Sfumatura_senza_nome_11" x1="1424.94" y1="-2234.12" x2="1496.53" y2="-2234.12" gradientTransform="matrix(23.2, 0, 0, -23.2, -32255.05, -51573.68)" gradientUnits="userSpaceOnUse"><stop offset="0" stop-color="#ff0031"/><stop offset="0.64" stop-color="#cc0029"/><stop offset="1" stop-color="#b40026"/></linearGradient><linearGradient id="Sfumatura_senza_nome_18" x1="1424.94" y1="-2229.25" x2="1496.53" y2="-2229.25" gradientTransform="matrix(23.2, 0, 0, -23.2, -32255.05, -51573.68)" gradientUnits="userSpaceOnUse"><stop offset="0" stop-color="#ff0031"/><stop offset="0.57" stop-color="#d6002a"/><stop offset="1" stop-color="#bc0026"/></linearGradient><linearGradient id="Sfumatura_senza_nome_5" x1="1311.68" y1="-1636.98" x2="1316.12" y2="-1636.98" gradientTransform="matrix(-1.96, -56.03, -56.03, 1.96, -87515.46, 76918.14)" gradientUnits="userSpaceOnUse"><stop offset="0" stop-color="#fff"/><stop offset="0.5" stop-color="#fff" stop-opacity="0.4"/><stop offset="1" stop-color="#fff" stop-opacity="0.25"/></linearGradient><linearGradient id="Sfumatura_senza_nome_5-2" x1="1269.65" y1="-1608.45" x2="1274.09" y2="-1608.45" gradientTransform="matrix(-1.32, -37.68, -37.68, 1.32, -58565.81, 50216.45)" xlink:href="#Sfumatura_senza_nome_5"/></defs><title>Sky Cinema Drama HD</title><path d="M4330.75,0H2413.92a33.28,33.28,0,0,0-33.27,33.33V466.64a33.26,33.26,0,0,0,33.27,33.27H4330.75A33.26,33.26,0,0,0,4364,466.64V33.33A33.28,33.28,0,0,0,4330.75,0m0,10a23.37,23.37,0,0,1,23.32,23.33V466.64a23.31,23.31,0,0,1-23.32,23.26H2413.92a23.31,23.31,0,0,1-23.32-23.26V33.33A23.37,23.37,0,0,1,2413.92,10H4330.75" fill="#b40026"/><path d="M4330.75,10a23.37,23.37,0,0,1,23.32,23.33V466.64a23.31,23.31,0,0,1-23.32,23.26H2413.92a23.31,23.31,0,0,1-23.32-23.26V33.33A23.37,23.37,0,0,1,2413.92,10H4330.75" fill="#fff"/><path d="M4034.15,153.75V338.47c0,8.11-4.08,12.6-16.69,12.6a76.11,76.11,0,0,1-15-1.65v-85H3897v74.07c0,8.11-4.09,12.6-16.7,12.6a63.26,63.26,0,0,1-15-1.65V164.76c0-7.75,4.08-12.67,17.11-12.67a65,65,0,0,1,14.62,1.66v82.17h105V164.76c0-7.75,4.5-12.67,17.52-12.67a65,65,0,0,1,14.62,1.66" fill="#b40026"/><path d="M4250.31,251.39c0,55.35-38.67,97.21-99.29,97.21h-56.54c-12.19,0-16.69-4.85-16.69-12.61V167.2c0-7.76,4.5-12.61,16.69-12.61H4151c60.62,0,99.29,41.44,99.29,96.8m-32.15,0c0-41.5-26.05-68.32-67.14-68.32h-41.5V320.12H4151c41.09,0,67.14-26.82,67.14-68.73" fill="#b40026"/><path d="M3751.53,436.56a6.68,6.68,0,0,1-6.69-6.69V70a6.69,6.69,0,1,1,13.38,0V429.87a6.68,6.68,0,0,1-6.69,6.69" fill="#b40026"/><path d="M2750.19,86.25V349.47c-2.85,1.18-9.36,2.43-15.1,2.43-13.38,0-17.88-5.33-17.88-15.46V320.16c-14.62,19.95-38.25,33.75-67.55,33.75-49.61,0-94-37.83-94-101.71,0-63.47,44.35-101.3,94-101.3,29.3,0,52.93,13.86,67.55,33.75V97.21c0-7.76,4.85-12.61,18.29-12.61a62.79,62.79,0,0,1,14.69,1.65m-33,201.35V217.21c-11-22-35-37-61.45-37-38.25,0-66.31,29.3-66.31,72,0,43.16,28.06,72.4,66.31,72.4,26.46,0,50.44-15,61.45-37" fill="#b40026"/><path d="M2922.12,169.22c0,13.44-5.69,16.28-19.54,16.28-28.06,0-51.68,13-66.31,43.51V339.25c0,8.17-4.5,12.61-17.88,12.61a73.62,73.62,0,0,1-15.45-1.6V154.6a73.07,73.07,0,0,1,15.45-1.66c13.38,0,17.88,4.91,17.88,12.61v27.29c19.13-28.89,48-43.57,84.19-38.66.41,2.84,1.66,8.94,1.66,15" fill="#b40026"/><path d="M3106.64,225V350.26a69.71,69.71,0,0,1-15.09,1.66c-12.2,0-17.88-4.51-17.88-12.68v-17c-17.53,19.95-40.26,31.73-69.15,31.73-43.58,0-67.55-28.48-67.55-59.38,0-47.19,50.44-68,136.28-62.28v-6.93c0-32.09-9.77-45.53-46.77-45.53-15.45,0-36.23,4.44-47.18,7.28-6.52,1.66-11.43,3.26-15.52,3.26-9.35,0-15.45-8.11-12.19-25.22,19.95-7.28,48.84-14.21,76.49-14.21,57.37,0,78.56,25.63,78.56,74.06m-33.39,68.32v-37c-56.12-4.08-102.95,3.26-102.95,37,0,17.11,14.27,32.57,39.9,32.57,26.05,0,48.78-13,63.05-32.57" fill="#b40026"/><path d="M3430,221.7V339.28c0,8.11-4.5,12.61-17.88,12.61a73.7,73.7,0,0,1-15.51-1.66V225.78c0-28.47-13.38-45.17-39-45.17-21.55,0-39.49,15-46.77,30.49V339.28c0,8.11-4.5,12.61-17.94,12.61a73.46,73.46,0,0,1-15.45-1.66V225.78c0-28.47-13.44-45.17-39.08-45.17-21.55,0-39.43,15-46.77,30.49V339.28c0,8.11-4.44,12.61-17.88,12.61a73.54,73.54,0,0,1-15.45-1.66V154.56a76.08,76.08,0,0,1,15.87-1.59c12.61,0,17.05,4.85,17.05,13.37v13.44c12.61-16.69,32.14-28.89,55.77-28.89,26.05,0,46.35,13,56.54,35.41,13.44-20.31,33.74-35.41,62.63-35.41,41.92,0,63.88,31.32,63.88,70.81" fill="#b40026"/><path d="M3637.7,225V350.26a69.89,69.89,0,0,1-15.1,1.66c-12.2,0-17.88-4.51-17.88-12.68v-17c-17.52,19.95-40.26,31.73-69.15,31.73-43.57,0-67.55-28.48-67.55-59.38,0-47.19,50.44-68,136.28-62.28v-6.93c0-32.09-9.76-45.53-46.77-45.53-15.45,0-36.23,4.44-47.18,7.28-6.51,1.66-11.43,3.26-15.51,3.26-9.36,0-15.45-8.11-12.2-25.22,20-7.28,48.84-14.21,76.49-14.21,57.37,0,78.57,25.63,78.57,74.06m-33.4,68.32v-37c-56.12-4.08-103,3.26-103,37,0,17.11,14.27,32.57,39.9,32.57,26.05,0,48.79-13,63.05-32.57" fill="#b40026"/><path d="M2425.63,0H831.86A33.29,33.29,0,0,0,798.5,33.33V466.69A33.33,33.33,0,0,0,831.86,500H2425.63A33.37,33.37,0,0,0,2459,466.69V33.33A33.32,33.32,0,0,0,2425.63,0Z" fill="url(#Sfumatura_senza_nome_11)"/><path d="M2425.63,0H831.86A33.29,33.29,0,0,0,798.5,33.33V273.7c0-3.51,1.36-23.48,24-25.62l3.15-.22,1608.44-56.19c12.53-.43,24.84-9.74,24.84-25.27L2459,33.33A33.32,33.32,0,0,0,2425.63,0Z" fill="url(#Sfumatura_senza_nome_18)"/><path id="path15555" d="M831.9,0a33.47,33.47,0,0,0-33.4,33.4h0v240.4c0-3.6,1.4-23.4,24-25.6h0a22.82,22.82,0,0,1,3.2-.2h0c98.6-3.4,1608.47-56.31,1608.47-56.31h0c12.6-.4,24.8-9.8,24.8-25.4h0l.16-132.83A33.47,33.47,0,0,0,2425.73.1h0Z" opacity="0.3" fill="url(#Sfumatura_senza_nome_5)" style="isolation:isolate"/><path d="M499.5,464c5.94,3,18,6.66,33.21,7.09,26.13.57,40.38-9.38,51-32.78l140-311.81c-5.72-3.08-18.61-6.59-29-6.73-18-.43-42.3,3.22-57.62,40.08L591.7,266.67,502.79,122.08a131.26,131.26,0,0,0-30-4.23c-31.5,0-49,11.53-67.22,31.29l-86.47,94.34,69.58,109.31c12.81,19.9,29.78,30.06,57.27,30.06,18,0,33-4.22,39.94-7.44l-83.75-126,59.34-62.92,97.35,152.69Zm-183.75-118c0,23-9,36.22-54,36.22a101.7,101.7,0,0,1-16.11-1.15V76.27c0-23.27,7.87-47.39,53.19-47.39a81.17,81.17,0,0,1,16.89,1.72Zm-92.7-46c0,43-28.06,74.23-85.11,80.39-41.3,4.36-101.07-.79-129.49-4.08a81.28,81.28,0,0,1-1.72-15c0-37.37,20.19-46,39.23-46,19.75,0,50.89,3.51,73.94,3.51,25.56,0,33.21-8.66,33.21-16.9,0-10.73-10.16-15.17-30-19L69,272.61C24.05,264,0,232.89,0,200c0-40.09,28.42-73.66,84.32-79.81,42.31-4.59,93.78.57,122.05,4a74.45,74.45,0,0,1,1.51,14.39c0,37.44-19.76,45.46-38.8,45.46-14.6,0-37.3-2.65-63.21-2.65-26.34,0-37.29,7.3-37.29,16.1,0,9.38,10.38,13.25,26.91,16.11l51.68,9.59c53.05,9.74,75.88,39.87,75.88,76.88" fill="#ff0031"/><path id="path15297-4" d="M245.8,76.28v209a17.62,17.62,0,0,1,17.2-17.6h0c7.6-.2,28.8-1,35.2-1.2h0c7-.2,17.6-5,17.8-17.8h0v-218a78.92,78.92,0,0,0-17-1.8h0c-45.4.2-53.2,24.2-53.2,47.4m160,72.8-86.4,94.4,7,10.8c3,4,8.8,10.8,20.4,10.4h0c4.2-.2,45.8-1.6,49.2-1.8h0c10.8-.4,17.6,4.2,21.8,9.8h0l-15.4-23.2,59.4-63,39.8,62.6h0c7.2,9.4,18,9.6,20.4,9.6h0c2,0,54.4-1.8,56.6-2h0c3.6-.2,7.8,1.8,11,6.4h0L503,122.28c-5.8-1.8-19.8-4.2-30-4.2h0c-31.6-.2-49,11.2-67.2,31m-321.4-29c-56,6.2-84.4,39.6-84.4,79.8H0c0,20.6,9.4,40.4,27.4,54.6h0c13.6,9,27.6,12.4,41.4,14.8h0c11.4,2,38,3.8,57.8,3h0c6.2-.2,51.8-1.8,61.6-2.2h0c23.2-.8,35.6,19,34.4,38.8h0v-.8h0v-.2h0c.2-2.6.4-5.2.4-7.8h0c0-37-22.8-67.2-75.8-77h0l-51.6-9.6c-16.6-2.8-26.8-6.8-26.8-16.2h0c0-8.8,11-16.2,37.2-16.2h0c26,0,48.6,2.6,63.2,2.6h0c19,0,38.8-8,38.8-45.4h0a69.06,69.06,0,0,0-1.6-14.4h0c-20.2-2.4-52.6-5.8-84.8-5.8h0c-12.6.2-25.2.8-37.2,2M637,159.88l-44.2,104.2h0c0-.2,2.8-8.2,11.4-8.6h0s43.6-1.6,46.8-1.6h0c14.2-.6,19.8-10.2,21.4-13.4h0l51.2-114.2c-5.8-3-18.6-6.6-29-6.8h-2.2c-17.8.2-40.6,5-55.4,40.4" opacity="0.3" fill="url(#Sfumatura_senza_nome_5-2)" style="isolation:isolate"/><path d="M892.45,252.73c0-70.15,51.54-122.19,119.75-122.19a196.19,196.19,0,0,1,82,18.61c3.43,22.12-3.44,30.92-13.24,30.92-17.19,0-31.93-14.24-67.22-14.24-44.24,0-80.53,32.92-80.53,86.9,0,53.47,36.29,86.9,80.53,86.9,35.29,0,50-14.75,65.71-14.75,10.31,0,17.68,9.31,14.75,31.43a188.7,188.7,0,0,1-82,19.11c-68.21,0-119.75-53-119.75-122.69" fill="#fff"/><path d="M1134.68,81.46a25.32,25.32,0,0,1,25.48-25.55c14.75,0,26.06,10.81,26.06,25.55,0,13.24-11.31,25.48-26.06,25.48-13.74,0-25.48-12.24-25.48-25.48M1140.05,371V148.18c0-9.31,5.37-15.18,21.62-15.18a83.32,83.32,0,0,1,18.11,1.93V357.77c0,9.8-4.87,15.17-21,15.17a89.82,89.82,0,0,1-18.68-1.93" fill="#fff"/><path d="M1449.78,230.65V357.78c0,9.3-5.37,15.17-21.62,15.17a89.08,89.08,0,0,1-18.61-1.93V236c0-47.11-23-69.65-57.91-69.65-27,0-56.48,18.61-68.22,40.73V357.78c0,9.3-5.44,15.17-21.62,15.17a88.53,88.53,0,0,1-18.61-1.93V134.94A88.53,88.53,0,0,1,1261.8,133c16.18,0,21.62,5.87,21.62,15.17V168.3c17.18-21.12,43.17-37.8,78-37.8,48.1,0,88.33,30.42,88.33,100.15" fill="#fff"/><path d="M1721.64,267.47H1539.11c5.36,45.59,36.79,71.15,83.39,71.15,20.18,0,35.86-3.94,50.61-8.8,10.3-3.44,14.67-4.94,18.61-4.94,11.31,0,18.68,9.3,16.68,30.92-21.12,9.31-53.48,19.61-87.33,19.61-73.59,0-123.2-49.53-123.2-123.19,0-70.65,52.55-121.69,116.83-121.69,72.58,0,108.44,56.41,108.44,113.39a205.44,205.44,0,0,1-1.5,23.55M1539.11,236h144.8c-1.5-40.23-27.48-71.65-69.21-71.65-36.37,0-69.22,25.05-75.59,71.65" fill="#fff"/><path d="M2101.35,215.92v141.8c0,9.88-5.37,15.25-21.62,15.25a94,94,0,0,1-18.61-1.93V220.86c0-34.36-16.18-54.47-47.1-54.47-26.06,0-47.6,18.11-56.48,36.79V357.72c0,9.88-5.37,15.25-21.62,15.25a94.1,94.1,0,0,1-18.61-1.93V220.86c0-34.36-16.18-54.47-47.1-54.47-26.06,0-47.6,18.11-56.48,36.79V357.72c0,9.88-5.37,15.25-21.54,15.25A94.92,94.92,0,0,1,1773.5,371V135a90.34,90.34,0,0,1,19.11-2c15.25,0,20.62,5.94,20.62,16.25v16.17c15.25-20.11,38.8-34.86,67.29-34.86,31.42,0,55.9,15.68,68.21,42.67,16.18-24.48,40.73-42.67,75.59-42.67,50.54,0,77,37.8,77,85.4" fill="#fff"/><path d="M2351.83,219.84V371a84.38,84.38,0,0,1-18.11,1.93c-14.75,0-21.62-5.37-21.62-15.17V337.16c-21.12,24-48.61,38.3-83.47,38.3-52.47,0-81.46-34.36-81.46-71.66,0-57,60.85-82,164.43-75.09v-8.37c0-38.8-11.81-55-56.41-55-18.68,0-43.74,5.44-57,8.88-7.87,1.93-13.74,3.86-18.61,3.86-11.31,0-18.68-9.8-14.75-30.42,24.06-8.8,58.92-17.18,92.27-17.18,69.22,0,94.71,30.93,94.71,89.34M2311.6,302.3V257.63c-67.72-4.87-124.2,3.94-124.2,44.67,0,20.61,17.18,39.3,48.11,39.3,31.42,0,58.91-15.75,76.09-39.3" fill="#fff"/></svg>