<?xml version="1.0" encoding="utf-8"?>
<!-- Generator: Adobe Illustrator 23.0.1, SVG Export Plug-In . SVG Version: 6.00 Build 0)  -->
<!DOCTYPE svg PUBLIC "-//W3C//DTD SVG 1.1//EN" "http://www.w3.org/Graphics/SVG/1.1/DTD/svg11.dtd" [
	<!ENTITY ns_extend "http://ns.adobe.com/Extensibility/1.0/">
	<!ENTITY ns_ai "http://ns.adobe.com/AdobeIllustrator/10.0/">
	<!ENTITY ns_graphs "http://ns.adobe.com/Graphs/1.0/">
	<!ENTITY ns_vars "http://ns.adobe.com/Variables/1.0/">
	<!ENTITY ns_imrep "http://ns.adobe.com/ImageReplacement/1.0/">
	<!ENTITY ns_sfw "http://ns.adobe.com/SaveForWeb/1.0/">
	<!ENTITY ns_custom "http://ns.adobe.com/GenericCustomNamespace/1.0/">
	<!ENTITY ns_adobe_xpath "http://ns.adobe.com/XPath/1.0/">
]>
<svg version="1.1"
	 id="svg4708" xmlns:x="&ns_extend;" xmlns:i="&ns_ai;" xmlns:graph="&ns_graphs;" xmlns:cc="http://creativecommons.org/ns#" xmlns:dc="http://purl.org/dc/elements/1.1/" xmlns:inkscape="http://www.inkscape.org/namespaces/inkscape" xmlns:rdf="http://www.w3.org/1999/02/22-rdf-syntax-ns#" xmlns:sodipodi="http://sodipodi.sourceforge.net/DTD/sodipodi-0.dtd" xmlns:svg="http://www.w3.org/2000/svg"
	 xmlns="http://www.w3.org/2000/svg" xmlns:xlink="http://www.w3.org/1999/xlink" x="0px" y="0px" viewBox="0 0 1758.6 500"
	 enable-background="new 0 0 1758.6 500" xml:space="preserve">
<metadata>
	<sfw  xmlns="&ns_sfw;">
		<slices></slices>
		<sliceSourceBounds  bottomLeftOrigin="true" height="500" width="1758.6" x="0" y="0"></sliceSourceBounds>
	</sfw>
</metadata>
<g>
	
		<linearGradient id="SVGID_1_" gradientUnits="userSpaceOnUse" x1="1580.952" y1="1335.839" x2="1605.4047" y2="1335.839" gradientTransform="matrix(39.2514 0 0 -39.2514 -61255.7812 52683.5508)">
		<stop  offset="0" style="stop-color:#0186E0"/>
		<stop  offset="1" style="stop-color:#54DCF7"/>
	</linearGradient>
	<path fill="url(#SVGID_1_)" d="M832.3,500h892.8c18.5,0,33.5-15,33.5-33.5v-433c0-18.5-15-33.5-33.5-33.5H832.3
		c-18.5,0-33.5,15-33.5,33.5v433C798.8,485,813.8,500,832.3,500z"/>
	<g>
		<path fill="#FFFFFF" d="M892.8,252.9c0-70.2,51.5-122.2,120.8-122.2c69.7,0,121.2,52.1,121.2,122.2c0,69.7-51.6,122.8-121.2,122.8
			C944.4,375.6,892.8,322.5,892.8,252.9 M1094.2,252.9c0-54-36.3-86.9-80.5-86.9c-43.7,0-80,32.9-80,86.9c0,53.5,36.3,87.4,80,87.4
			C1057.8,340.2,1094.2,306.4,1094.2,252.9"/>
		<path fill="#FFFFFF" d="M1392.5,230.8V358c0,9.3-5.4,15.2-21.6,15.2c-6.8,0-14.7-1-18.7-2V236.1c0-47.1-23.1-69.8-57.9-69.8
			c-27,0-56.4,18.6-68.2,40.8v150.8c0,9.3-5.4,15.2-21.6,15.2c-6.8,0-14.7-1-18.7-2V135c3.9-1,11.8-1.9,18.7-1.9
			c16.2,0,21.6,5.9,21.6,15.2v20.1c17.2-21.1,43.2-37.8,78.1-37.8C1352.2,130.6,1392.5,161,1392.5,230.8"/>
		<path fill="#FFFFFF" d="M1664.5,267.5h-182.7c5.4,45.7,36.8,71.2,83.5,71.2c20.2,0,35.8-4,50.6-8.9c10.3-3.4,14.7-4.9,18.7-4.9
			c11.3,0,18.7,9.3,16.7,31c-21.2,9.3-53.6,19.6-87.4,19.6c-73.7,0-123.2-49.6-123.2-123.2c0-70.7,52.6-121.8,116.9-121.8
			c72.7,0,108.5,56.4,108.5,113.4C1665.9,250.9,1665.4,259.2,1664.5,267.5 M1481.8,236.1h144.8c-1.5-40.2-27.5-71.7-69.2-71.7
			C1521.1,164.4,1488.2,189.5,1481.8,236.1"/>
	</g>
	
		<linearGradient id="p40_1_" gradientUnits="userSpaceOnUse" x1="1281.7263" y1="437.9368" x2="1273.0293" y2="188.8831" gradientTransform="matrix(1 0 0 1 0 -198)">
		<stop  offset="0" style="stop-color:#FFFFFF"/>
		<stop  offset="0.1203" style="stop-color:#FFFFFF;stop-opacity:0.8347"/>
		<stop  offset="0.2693" style="stop-color:#FFFFFF;stop-opacity:0.6576"/>
		<stop  offset="0.4195" style="stop-color:#FFFFFF;stop-opacity:0.5107"/>
		<stop  offset="0.5684" style="stop-color:#FFFFFF;stop-opacity:0.3965"/>
		<stop  offset="0.7156" style="stop-color:#FFFFFF;stop-opacity:0.3152"/>
		<stop  offset="0.8603" style="stop-color:#FFFFFF;stop-opacity:0.2664"/>
		<stop  offset="1" style="stop-color:#FFFFFF;stop-opacity:0.25"/>
	</linearGradient>
	<path id="p40" opacity="0.3" fill="url(#p40_1_)" enable-background="new    " d="M822.8,248c0,0,1.1-0.1,3.2-0.2
		c98.6-3.5,907.7-31.4,907.7-31.4c13.9-0.1,25-11.5,24.9-25.3V33.5c0-18.5-15-33.5-33.5-33.5h-893c-18.4,0-33.3,14.9-33.3,33.3V274
		C798.4,260.3,809.1,248.7,822.8,248z"/>
	<g>
		<defs>
			<path id="SVGID_2_" d="M84.4,120.2C28.5,126.3,0,159.9,0,200c0,33,24,64.1,69,72.7l54.2,10.4c19.8,3.8,30,8.2,30,19
				c0,8.2-7.7,16.9-33.2,16.9c-23.1,0-54.2-3.5-74-3.5c-19,0-39.2,8.6-39.2,46c0,4.6,0.8,10.4,1.8,15c28.5,3.3,88.2,8.5,129.6,4
				c57.1-6.1,85.2-37.5,85.2-80.4c0-37-22.9-67.1-75.9-76.9l-51.7-9.6c-16.6-2.9-26.9-6.7-26.9-16.1c0-8.9,10.9-16.1,37.3-16.1
				c25.9,0,48.7,2.7,63.2,2.7c19,0,38.8-8.1,38.8-45.5c0-5-0.6-9.6-1.6-14.4c-20.3-2.5-52.6-5.8-84.8-5.8
				C109,118.3,96.3,118.9,84.4,120.2 M405.8,149.1l-86.5,94.4l69.5,109.4c12.9,20,29.8,30.1,57.3,30.1c18,0,33-4.2,40-7.5l-83.8-126
				l59.4-62.9l97.4,152.7l-59.4,125c6,3,18,6.7,33.2,7c26.2,0.6,40.3-9.4,51-32.8l140.1-312c-5.8-3.1-18.7-6.6-29-6.7
				c-18-0.4-42.3,3.2-57.7,40.1L592,266.8l-89-144.6c-5.8-1.8-19.8-4.2-30-4.2C441.5,117.9,424,129.4,405.8,149.1 M245.8,76.3v305
				c5,0.8,10.2,1.1,16.1,1.1c45,0,54-13.2,54-36.2V30.6c-5.4-1.1-11.1-1.8-16.9-1.8C253.6,28.9,245.8,53,245.8,76.3"/>
		</defs>
		<clipPath id="SVGID_3_">
			<use xlink:href="#SVGID_2_"  overflow="visible"/>
		</clipPath>
		
			<linearGradient id="SVGID_4_" gradientUnits="userSpaceOnUse" x1="1661.5624" y1="1250.0157" x2="1686.0148" y2="1250.0157" gradientTransform="matrix(0 18.0948 18.0948 0 -22256.7871 -30036.7402)">
			<stop  offset="0" style="stop-color:#0398F0"/>
			<stop  offset="0.4" style="stop-color:#0398F0"/>
			<stop  offset="1" style="stop-color:#0186E0"/>
		</linearGradient>
		<rect y="28.9" clip-path="url(#SVGID_3_)" fill="url(#SVGID_4_)" width="724" height="443"/>
	</g>
	<linearGradient id="SVGID_5_" gradientUnits="userSpaceOnUse" x1="365.4375" y1="263.0479" x2="359.5898" y2="95.5996">
		<stop  offset="0" style="stop-color:#FFFFFF"/>
		<stop  offset="0.1203" style="stop-color:#FFFFFF;stop-opacity:0.8347"/>
		<stop  offset="0.2693" style="stop-color:#FFFFFF;stop-opacity:0.6576"/>
		<stop  offset="0.4195" style="stop-color:#FFFFFF;stop-opacity:0.5107"/>
		<stop  offset="0.5684" style="stop-color:#FFFFFF;stop-opacity:0.3965"/>
		<stop  offset="0.7156" style="stop-color:#FFFFFF;stop-opacity:0.3152"/>
		<stop  offset="0.8603" style="stop-color:#FFFFFF;stop-opacity:0.2664"/>
		<stop  offset="1" style="stop-color:#FFFFFF;stop-opacity:0.25"/>
	</linearGradient>
	<path opacity="0.35" fill="url(#SVGID_5_)" d="M0,200c0-40.1,28.5-73.7,84.4-79.8c11.9-1.3,24.6-1.9,37.2-1.6
		c32.2,0,64.5,3.3,84.8,5.8c1,4.8,1.6,9.4,1.6,14.4c0,37.4-19.8,45.5-38.8,45.5c-14.5,0-37.3-2.7-63.2-2.7
		c-26.4,0-37.3,7.2-37.3,16.1c0,9.4,10.3,13.2,26.9,16.1l51.7,9.6c53,9.8,75.9,39.9,75.9,76.9c0,2.7-0.1,5.3-0.3,7.8
		c0,0.1,0,0.1,0,0.2c0,0.2,0,0.3,0,0.5h-0.1c1.1-19.7-11.4-39.3-34.4-38.5c-9.9,0.3-55.6,1.9-61.7,2.1c-19.7,0.8-46.3-1-57.8-3
		C55,267,41,263.5,27.4,254.6C9.4,240.4,0,220.6,0,200z M263.1,267.8c7.5-0.2,28.8-1,35.1-1.2c6.9-0.2,17.6-5,17.8-17.9v-218
		c-0.2,0-0.3-0.1-0.5-0.1h-35.3c-28.9,5.9-34.5,26.1-34.5,45.7v209.1C245.8,277,252.3,268.1,263.1,267.8z M501.7,249.1
		c7.2,9.4,18.1,9.6,20.4,9.5c2.1,0,54.3-1.9,56.7-2c3.7-0.1,7.8,1.9,11,6.4L503,122.1c-5.8-1.8-19.8-4.2-30-4.2
		c-31.5,0-49,11.5-67.2,31.2l-86.5,94.4l6.9,10.9c2.9,4,8.9,10.8,20.5,10.3c4.1-0.1,45.9-1.6,49.3-1.7c10.8-0.4,17.6,4.2,21.8,9.7
		l-15.4-23.2l59.4-62.9L501.7,249.1z M723.9,126.5c-5.8-3.1-18.7-6.6-28.9-6.7c-0.8-0.1-1.5-0.1-2.2-0.1
		c-17.8,0.1-40.7,4.9-55.5,40.2l-44.2,104.3c0.1-0.1,2.9-8.1,11.5-8.5c0,0,43.5-1.5,46.8-1.6c14.2-0.5,19.9-10.3,21.3-13.4
		l51.2-114.1V126.5z"/>
</g>
</svg>
