<?xml version="1.0" encoding="UTF-8" standalone="no"?>
<svg
   xmlns:dc="http://purl.org/dc/elements/1.1/"
   xmlns:cc="http://creativecommons.org/ns#"
   xmlns:rdf="http://www.w3.org/1999/02/22-rdf-syntax-ns#"
   xmlns:svg="http://www.w3.org/2000/svg"
   xmlns="http://www.w3.org/2000/svg"
   xmlns:sodipodi="http://sodipodi.sourceforge.net/DTD/sodipodi-0.dtd"
   xmlns:inkscape="http://www.inkscape.org/namespaces/inkscape"
   id="Layer_1"
   viewBox="0 0 1000 140.55395"
   version="1.1"
   inkscape:version="0.48.5 r10040"
   width="100%"
   height="100%"
   sodipodi:docname="Sky_Sports_Xtra_2017.svg">
  <metadata
     id="metadata7214">
    <rdf:RDF>
      <cc:Work
         rdf:about="">
        <dc:format>image/svg+xml</dc:format>
        <dc:type
           rdf:resource="http://purl.org/dc/dcmitype/StillImage" />
      </cc:Work>
    </rdf:RDF>
  </metadata>
  <defs
     id="defs7212">
    <linearGradient
       y2="-27.096001"
       x2="99.850998"
       y1="138.674"
       x1="99.850998"
       gradientUnits="userSpaceOnUse"
       id="b">
      <stop
         id="stop3502"
         stop-color="#00043b"
         offset="0" />
      <stop
         id="stop3504"
         stop-color="#002672"
         offset="1" />
    </linearGradient>
    <linearGradient
       gradientTransform="matrix(-1,0,0,-1,-8215.806,-4580.7)"
       y2="-4553.606"
       x2="-8599.1621"
       y1="-4719.377"
       x1="-8599.1621"
       gradientUnits="userSpaceOnUse"
       id="a">
      <stop
         id="stop3495"
         stop-color="#a80002"
         offset="0" />
      <stop
         id="stop3497"
         stop-color="#ea021a"
         offset="1" />
    </linearGradient>
  </defs>
  <sodipodi:namedview
     pagecolor="#ffffff"
     bordercolor="#666666"
     borderopacity="1"
     objecttolerance="10"
     gridtolerance="10"
     guidetolerance="10"
     inkscape:pageopacity="0"
     inkscape:pageshadow="2"
     inkscape:window-width="1044"
     inkscape:window-height="1025"
     id="namedview7210"
     showgrid="false"
     fit-margin-left="0.5"
     fit-margin-bottom="0.5"
     fit-margin-top="0.5"
     fit-margin-right="0.5"
     inkscape:zoom="0.35355339"
     inkscape:cx="447.21956"
     inkscape:cy="298.91904"
     inkscape:window-x="872"
     inkscape:window-y="-4"
     inkscape:window-maximized="0"
     inkscape:current-layer="Layer_1">
    <inkscape:grid
       type="xygrid"
       id="grid3289"
       empspacing="5"
       visible="true"
       enabled="true"
       snapvisiblegridlinesonly="true"
       originx="0px"
       originy="1.0913085e-006px" />
  </sodipodi:namedview>
  <style
     id="style7182">.st0{fill:url(#SVGID_1_)}.st1{fill:#fff}.st2{fill:#999}.st3{fill:url(#SVGID_2_)}.st4{opacity:.2;fill:#fff}.st5{fill:#121780}</style>
  <linearGradient
     id="SVGID_1_"
     gradientUnits="userSpaceOnUse"
     x1="103.71"
     y1="143.34"
     x2="103.71"
     y2="-28.007"
     gradientTransform="matrix(1.1245281,0,0,1.1245281,0.5,0.49999891)">
    <stop
       offset="0"
       stop-color="#00043b"
       id="stop7185" />
    <stop
       offset="1"
       stop-color="#002672"
       id="stop7187" />
  </linearGradient>
  <path
     class="st0"
     d="M 233.72714,139.94149 H 9.8335842 C 4.7732071,139.94149 0.5,135.78074 0.5,130.6079 V 9.7211293 C 0.5,4.7732063 4.5483015,0.49999891 9.7211317,0.49999891 H 233.72714 V 139.94149 z"
     id="path7189"
     style="fill:url(#SVGID_1_)"
     inkscape:connector-curvature="0" />
  <path
     class="st1"
     d="m 992.04658,137.13016 c 3.48606,0 6.4098,-2.92377 6.4098,-6.40981 l 0,-120.8867677 c 0,-3.486037 -2.92374,-6.40981 -6.4098,-6.40981 l -332.2357,0 0,133.7063877 z"
     id="path7191"
     inkscape:connector-curvature="0"
     style="fill:#ffffff"
     sodipodi:nodetypes="ssssccs" />
  <path
     class="st2"
     d="m 990.16637,0.49999891 -330.5804,0 0,2.92377339 330.5804,0 c 3.48606,0 6.40989,2.81132 6.40989,6.40981 l 0,120.8867677 c 0,3.48604 -2.81141,6.40981 -6.40989,6.40981 l -330.5804,0 0,2.92378 330.5804,0 c 5.17292,0 9.33363,-4.16075 9.33363,-9.33359 l 0,-120.8867677 c 0,-5.172829 -4.16071,-9.33358339 -9.33363,-9.33358339 z"
     id="path7193"
     inkscape:connector-curvature="0"
     style="fill:#999999"
     sodipodi:nodetypes="sccssssccssss" />
  <linearGradient
     id="SVGID_2_"
     gradientUnits="userSpaceOnUse"
     x1="-5439.916"
     y1="-2663.519"
     x2="-5439.916"
     y2="-2492.1709"
     gradientTransform="matrix(-1.1245281,0,0,-1.1245281,-5671.2379,-2833.5135)">
    <stop
       offset="0"
       stop-color="#a80002"
       id="stop7196" />
    <stop
       offset="1"
       stop-color="#ea021a"
       id="stop7198" />
  </linearGradient>
  <path
     class="st3"
     d="M 232.60262,0.49999891 H 659.58597 V 139.94149 H 232.60262 z"
     id="path7200"
     style="fill:url(#SVGID_2_)"
     inkscape:connector-curvature="0" />
  <path
     class="st1"
     d="m 157.37168,124.53545 c 1.46188,0.78718 4.61057,1.68679 8.43396,1.79925 6.63472,0.11245 10.23321,-2.36151 12.93207,-8.32151 l 35.5351,-79.279233 c -1.46189,-0.78717 -4.72302,-1.686793 -7.42188,-1.686793 -4.61058,-0.112453 -10.68302,0.899623 -14.61887,10.233207 L 180.76187,74.493953 158.2713,37.609428 c -1.46188,-0.449812 -5.06037,-1.124527 -7.64679,-1.124527 -7.98414,0 -12.36982,2.923773 -16.98037,7.984149 l -22.04075,24.064903 17.65509,27.775851 c 3.26113,5.060366 7.53433,7.646776 14.50641,7.646776 4.61056,0 8.32151,-1.01207 10.12075,-1.91169 l -21.25357,-32.04905 15.18112,-15.9683 24.73963,38.796224 -15.18114,31.711686 z M 110.81622,94.623004 c 0,5.847546 -2.24906,9.221136 -13.719246,9.221136 -1.461889,0 -2.811324,-0.11245 -4.048304,-0.33736 V 26.026788 c 0,-5.847546 2.024143,-12.032451 13.49434,-12.032451 1.46188,0 2.92376,0.112452 4.27321,0.449811 V 94.623004 z M 87.201123,82.927914 c 0,10.90793 -7.084528,18.779606 -21.478489,20.353966 -10.458111,1.12452 -25.639241,-0.22491 -32.836222,-1.01209 -0.224906,-1.12453 -0.449812,-2.586406 -0.449812,-3.823396 0,-9.558481 5.17283,-11.695084 10.008301,-11.695084 5.060377,0 12.932074,0.899623 18.779621,0.899623 6.409811,0 8.433961,-2.249057 8.433961,-4.273207 0,-2.698868 -2.586415,-3.823396 -7.646792,-4.835472 L 48.292448,75.955839 C 36.822261,73.819236 30.749808,65.835086 30.749808,57.513577 c 0,-10.233206 7.19698,-18.667168 21.366036,-20.241507 10.683017,-1.124528 23.727545,0.112452 30.924525,1.012076 0.224905,1.23698 0.449811,2.361508 0.449811,3.710942 0,9.446037 -5.060377,11.58264 -9.895849,11.58264 -3.710942,0 -9.446035,-0.674717 -16.080753,-0.674717 -6.747169,0 -9.446036,1.799245 -9.446036,4.160755 0,2.36151 2.698867,3.373585 6.859622,4.048301 l 13.044528,2.249057 c 13.494337,2.473962 19.229431,10.120753 19.229431,19.56679 m 173.964517,16.75547 c -0.67472,-5.39774 1.12452,-8.43396 3.93585,-8.43396 3.14867,0 10.68301,3.48603 21.47848,3.48603 11.35773,0 15.74339,-4.160748 15.74339,-9.446031 0,-3.710942 -1.57434,-6.747169 -12.03245,-9.670941 l -11.69509,-3.261133 c -12.48226,-3.373585 -17.54264,-9.670942 -17.54264,-17.542639 0,-9.446038 7.64679,-18.329809 25.07698,-18.329809 7.87169,0 17.65509,1.911697 23.50263,4.160753 0.67473,5.285283 -1.12452,8.096603 -3.71094,8.096603 -2.81131,0 -10.00829,-3.261131 -19.79169,-3.261131 -10.45811,0 -14.39396,3.823395 -14.39396,8.771319 0,3.261132 1.46188,6.184906 11.02038,8.996226 l 11.80753,3.261131 c 13.15699,3.710944 18.44227,9.895848 18.44227,18.217357 0,10.120755 -7.98415,19.229421 -26.76377,19.229421 -8.54642,0.22491 -18.89206,-1.79924 -25.07697,-4.273196 M 389.69921,70.220746 c 0,21.028678 -14.73133,33.735834 -31.37435,33.735834 -10.0083,0 -17.99244,-4.610546 -22.82791,-11.357726 v 28.563016 c 0,2.47396 -1.34944,4.0483 -5.51019,4.0483 -1.9117,0 -3.93585,-0.22491 -4.83547,-0.56226 V 38.05924 c 0.89962,-0.224906 3.03623,-0.674718 4.83547,-0.674718 4.16075,0 5.51019,1.57434 5.51019,4.048302 v 6.522264 c 4.72301,-6.74717 12.70717,-11.357734 22.82791,-11.357734 16.64302,0 31.37435,12.707167 31.37435,33.623392 m -10.68302,0 c 0,-14.39396 -9.67094,-24.289809 -22.49057,-24.289809 -8.99622,0 -17.20527,5.172829 -20.91622,12.594716 v 23.615091 c 3.71095,7.421887 11.92,12.59471 20.91622,12.59471 12.93207,0.11246 22.49057,-9.895842 22.49057,-24.514708 m 21.14113,0 c 0,-19.229432 14.28151,-33.623392 33.39849,-33.623392 19.11697,0 33.39847,14.39396 33.39847,33.623392 0,19.454337 -14.2815,33.735834 -33.39847,33.735834 -19.11698,0.11246 -33.39849,-14.281497 -33.39849,-33.735834 m 56.0015,0 c 0,-14.956225 -10.12075,-24.289809 -22.60301,-24.289809 -12.48227,0 -22.60302,9.333584 -22.60302,24.289809 0,15.068677 10.12075,24.514708 22.60302,24.514708 12.48226,0 22.60301,-9.446031 22.60301,-24.514708 M 519.1324,42.444899 c 0,3.935849 -1.79925,4.835472 -5.5102,4.835472 -7.42188,0 -17.99244,2.473962 -23.27772,14.39396 v 37.446793 c 0,2.586396 -1.34943,4.048296 -5.5102,4.048296 -1.91168,0 -3.93585,-0.22491 -4.83546,-0.56226 V 38.05924 c 0.89961,-0.224906 3.03622,-0.674718 4.83546,-0.674718 4.16077,0 5.5102,1.57434 5.5102,4.048302 v 7.871697 c 5.96,-8.546414 16.30565,-13.269432 28.45056,-11.245281 0,0.899622 0.33736,2.698867 0.33736,4.385659 m 60.49961,57.238485 c -0.67471,-5.39774 1.12453,-8.43396 3.93585,-8.43396 3.14868,0 10.68302,3.48603 21.47849,3.48603 11.35774,0 15.74339,-4.160748 15.74339,-9.446031 0,-3.710942 -1.57433,-6.747169 -12.03244,-9.670941 l -11.69509,-3.261133 c -12.48228,-3.373585 -17.54265,-9.670942 -17.54265,-17.542639 0,-9.446038 7.6468,-18.329809 25.07698,-18.329809 7.8717,0 17.65509,1.911697 23.50264,4.160753 0.67472,5.285283 -1.12453,8.096603 -3.71095,8.096603 -2.81131,0 -10.0083,-3.261131 -19.79169,-3.261131 -10.45811,0 -14.39396,3.823395 -14.39396,8.771319 0,3.261132 1.46188,6.184906 11.02037,8.996226 l 11.80755,3.261131 c 13.15698,3.710944 18.44226,9.895848 18.44226,18.217357 0,10.120755 -7.98415,19.229421 -26.76377,19.229421 -8.54642,0.22491 -18.77961,-1.79924 -25.07698,-4.273196 m -10.68302,0 c -5.51019,2.698856 -12.03245,4.385656 -18.66716,4.385656 -12.70717,0 -20.46641,-7.309436 -20.46641,-19.904145 V 26.026788 c 0,-2.473962 1.34943,-4.048302 5.51018,-4.048302 1.91171,0 3.93586,0.449812 4.83547,0.78717 V 38.05924 h 25.86416 c 0.11245,0.787169 0.4498,2.586414 0.4498,4.160754 0,3.823395 -1.57433,5.060377 -3.93584,5.060377 h -22.37812 v 35.984902 c 0,7.871701 3.8234,11.245271 11.13283,11.245271 6.63472,0 10.57057,-2.58641 13.71925,-2.58641 2.92377,0 4.49811,2.69887 3.93584,7.75925"
     id="path7202"
     inkscape:connector-curvature="0"
     style="fill:#ffffff" />
  <path
     class="st4"
     d="M 9.8335842,0.49999891 H 659.58597 V 54.364899 L 13.881885,80.116593 C 6.4599994,80.341499 0.5,86.526404 0.5,94.060744 V 9.8335823 c 0,-5.172829 4.1607542,-9.33358339 9.3335842,-9.33358339 z"
     id="path7204"
     inkscape:connector-curvature="0"
     style="opacity:0.2;fill:#ffffff" />
  <path
     class="st5"
     d="m 785.51028,71.120368 20.57889,-28.450563 -1.46192,-0.562264 c -0.67465,-0.224905 -1.57434,-0.449811 -2.58636,-0.674717 -1.01212,-0.224906 -1.91172,-0.224906 -2.69889,-0.224906 -2.69889,0 -4.72303,0.899623 -5.73515,2.698868 l -13.94414,19.11698 -13.60677,-19.229432 c -1.12455,-1.686793 -3.14869,-2.586416 -5.84748,-2.586416 -0.89969,0 -1.91172,0.112453 -2.92384,0.337359 -1.01202,0.224905 -1.91171,0.449811 -2.58636,0.674717 l -1.46192,0.562264 20.24152,28.675469 -21.70344,29.912443 1.46192,0.56226 c 0.67475,0.22491 1.46192,0.44981 2.36152,0.67473 0.89959,0.2249 1.79919,0.33735 2.69888,0.33735 2.81132,0 4.72303,-0.89962 5.84748,-2.58641 L 778.76311,78.654707 793.8318,100.3581 c 1.12454,1.68679 3.14868,2.58641 5.96,2.58641 0.8996,0 1.91171,-0.11245 2.92374,-0.33735 1.01212,-0.22492 1.91171,-0.44982 2.58646,-0.67473 l 1.46192,-0.56226 -21.25364,-30.249802 z m 179.13738,-6.859622 v 38.233964 c -1.01212,0.2249 -2.81131,0.4498 -4.38566,0.4498 -3.48606,0 -5.0604,-1.23699 -5.0604,-3.598476 v -4.49812 h -0.11242 c -4.49818,4.61056 -11.58263,8.883776 -21.02869,8.883776 -13.38192,0 -20.69132,-8.771326 -20.69132,-18.554719 0,-14.169055 15.40597,-20.916225 41.60749,-19.11698 v -1.461887 c 0,-9.446035 -3.03617,-14.618866 -14.6188,-14.618866 -6.18495,0 -11.35777,1.236982 -14.84383,2.249058 -1.7992,0.44981 -3.14869,0.899621 -4.16071,0.899621 -2.58646,0 -4.27323,-2.698867 -3.59849,-7.646791 5.62263,-2.249057 14.50637,-4.273208 22.94031,-4.273208 17.54272,0 23.95252,8.883774 23.95252,23.052828 z m -9.55848,20.803771 V 73.706783 c -17.09283,-0.78717 -31.93667,1.124529 -31.93667,11.807546 0,5.285285 4.49818,9.895855 12.25738,9.895855 7.75928,0.11245 15.06868,-4.16076 19.67929,-10.345667 z m -98.17132,14.731327 c -5.28535,2.473946 -11.35778,4.160736 -17.54263,4.160736 -11.92,0 -19.22949,-7.084516 -19.22949,-18.779609 V 31.536977 c 0,-2.36151 1.34949,-3.935849 5.5102,-3.935849 1.79929,0 3.82343,0.337359 4.6106,0.78717 v 14.169055 h 24.06486 c 0.11252,0.899622 0.33737,2.586414 0.33737,4.160754 0,3.59849 -1.3494,4.947924 -3.82343,4.947924 H 830.37897 V 84.3898 c 0,7.084524 3.37354,10.345654 10.23323,10.345654 6.07243,0 9.67091,-2.47396 12.59465,-2.47396 2.92384,0 4.38566,2.47396 3.71101,7.53435 m 49.59172,-53.864907 c 0,3.710942 -1.68687,4.610566 -5.17293,4.610566 -6.97202,0 -16.98031,2.249055 -21.92828,13.494338 v 35.197733 c 0,2.473946 -1.23697,3.823396 -5.17283,3.823396 -1.7992,0 -3.71091,-0.22491 -4.61051,-0.56226 V 41.882636 c 0.8996,-0.224906 2.81131,-0.674718 4.61051,-0.674718 3.93586,0 5.17283,1.57434 5.17283,3.823396 V 52.4532 C 885.031,44.46905 894.702,39.970938 906.1722,41.882636 c 0.11243,0.787169 0.33738,2.586414 0.33738,4.048301"
     id="path7206"
     inkscape:connector-curvature="0"
     style="fill:#121780" />
  <path
     style="fill:#121780"
     d="m 785.51028,71.120368 20.57889,-28.450563 -1.46192,-0.562264 c -0.67465,-0.224905 -1.57434,-0.449811 -2.58636,-0.674717 -1.01212,-0.224906 -1.91172,-0.224906 -2.69889,-0.224906 -2.69889,0 -4.72303,0.899623 -5.73515,2.698868 l -13.94414,19.11698 -13.60677,-19.229432 c -1.12455,-1.686793 -3.14869,-2.586416 -5.84748,-2.586416 -0.89969,0 -1.91172,0.112453 -2.92384,0.337359 -1.01202,0.224905 -1.91171,0.449811 -2.58636,0.674717 l -1.46192,0.562264 20.24152,28.675469 -21.70344,29.912443 1.46192,0.56226 c 0.67475,0.22491 1.46192,0.44981 2.36152,0.67473 0.89959,0.2249 1.79919,0.33735 2.69888,0.33735 2.81132,0 4.72303,-0.89962 5.84748,-2.58641 L 778.76311,78.654707 793.8318,100.3581 c 1.12454,1.68679 3.14868,2.58641 5.96,2.58641 0.8996,0 1.91171,-0.11245 2.92374,-0.33735 1.01212,-0.22492 1.91171,-0.44982 2.58646,-0.67473 l 1.46192,-0.56226 -21.25364,-30.249802 z"
     id="path3318"
     inkscape:connector-curvature="0" />
  <path
     style="fill:#121780"
     d="m 940.70123,41.200408 c -8.43394,0 -17.32105,2.029068 -22.94377,4.278146 -0.67475,4.947969 1.01783,7.647917 3.6042,7.647917 1.01212,0 2.3618,-0.458559 4.16099,-0.908372 3.48606,-1.012086 8.64201,-2.226981 14.82696,-2.226981 11.58272,0 14.62189,5.146457 14.62189,14.592579 l 0,1.465118 c -26.20171,-1.799261 -41.60936,4.965262 -41.60936,19.134447 0,9.783482 7.30546,18.548398 20.68747,18.548398 9.44615,0 16.54092,-4.268006 21.0391,-8.878616 l 0.1172,0 0,4.48326 c 0,2.361516 1.58326,3.604186 5.06931,3.604186 1.57444,0 3.35395,-0.21462 4.36606,-0.43953 l 0,-38.239589 c 0,-14.169183 -6.39714,-23.060963 -23.94005,-23.060963 z m 8.11673,32.349814 c 2.04177,0.0022 4.13418,0.04811 6.27075,0.146512 l 0,11.369318 c -4.61061,6.184962 -11.93182,10.456192 -19.6912,10.343742 -7.75929,0 -12.24837,-4.61888 -12.24837,-9.904206 0,-9.347727 11.37671,-11.970742 25.66882,-11.955366 z"
     id="path3316"
     inkscape:connector-curvature="0" />
  <path
     style="fill:#121780"
     d="m 856.91786,99.795844 c -5.28535,2.473946 -11.35778,4.160736 -17.54263,4.160736 -11.92,0 -19.22949,-7.084516 -19.22949,-18.779609 V 31.536977 c 0,-2.36151 1.34949,-3.935849 5.5102,-3.935849 1.79929,0 3.82343,0.337359 4.6106,0.78717 v 14.169055 h 24.06486 c 0.11252,0.899622 0.33737,2.586414 0.33737,4.160754 0,3.59849 -1.3494,4.947924 -3.82343,4.947924 H 830.37897 V 84.3898 c 0,7.084524 3.37354,10.345654 10.23323,10.345654 6.07243,0 9.67091,-2.47396 12.59465,-2.47396 2.92384,0 4.38566,2.47396 3.71101,7.53435"
     id="path3312"
     inkscape:connector-curvature="0" />
  <path
     style="fill:#121780"
     d="m 906.50958,45.930937 c 0,3.710942 -1.68687,4.610566 -5.17293,4.610566 -6.97202,0 -16.98031,2.249055 -21.92828,13.494338 v 35.197733 c 0,2.473946 -1.23697,3.823396 -5.17283,3.823396 -1.7992,0 -3.71091,-0.22491 -4.61051,-0.56226 V 41.882636 c 0.8996,-0.224906 2.81131,-0.674718 4.61051,-0.674718 3.93586,0 5.17283,1.57434 5.17283,3.823396 V 52.4532 C 885.031,44.46905 894.702,39.970938 906.1722,41.882636 c 0.11243,0.787169 0.33738,2.586414 0.33738,4.048301"
     id="path7208"
     inkscape:connector-curvature="0" />
  <path
     style="fill:#121780"
     id="path3490"
     d="m 744.9678,76.538687 -46.52132,0 c 1.62422,11.369301 9.51301,18.098067 21.46245,18.098067 4.98858,0 9.04905,-1.27614 12.87736,-2.55229 2.55233,-0.9281 3.94448,-1.27614 4.87259,-1.27614 2.66831,0 4.52452,2.55229 3.94448,7.8889 -5.22056,2.436276 -13.57348,4.988566 -22.15848,4.988566 -18.56216,0 -31.5556,-12.877466 -31.5556,-31.671621 0,-17.866043 12.87745,-30.85953 29.81538,-30.85953 18.56206,0 27.7272,14.501659 27.7272,29.003318 0,1.972226 -0.11609,4.176478 -0.46406,6.38073 m -46.52132,-8.352955 36.89214,0 c -0.34806,-10.209168 -6.84469,-18.098071 -17.51797,-18.098071 -9.62909,0 -17.86603,6.264716 -19.37417,18.098071"
     inkscape:connector-curvature="0"
     sodipodi:nodetypes="ccscscsssscccsc" />
</svg>
