<svg id="Livello_1" data-name="Livello 1" xmlns="http://www.w3.org/2000/svg" xmlns:xlink="http://www.w3.org/1999/xlink" viewBox="0 0 4048.66 499.98"><defs><linearGradient id="Sfumatura_senza_nome_11" x1="1943.41" y1="364.79" x2="2014.99" y2="364.79" gradientTransform="matrix(23.2, 0, 0, -23.2, -44281.55, 8711.84)" gradientUnits="userSpaceOnUse"><stop offset="0" stop-color="#ff0031"/><stop offset="0.64" stop-color="#cc0029"/><stop offset="1" stop-color="#b40026"/></linearGradient><linearGradient id="Sfumatura_senza_nome_18" x1="1943.41" y1="369.67" x2="2014.99" y2="369.67" gradientTransform="matrix(23.2, 0, 0, -23.2, -44281.55, 8711.84)" gradientUnits="userSpaceOnUse"><stop offset="0" stop-color="#ff0031"/><stop offset="0.57" stop-color="#d6002a"/><stop offset="1" stop-color="#bc0026"/></linearGradient><linearGradient id="Sfumatura_senza_nome_5" x1="1898.25" y1="862.63" x2="1902.69" y2="862.63" gradientTransform="matrix(-1.96, -56.03, -56.03, 1.96, 53675.12, 104891.11)" gradientUnits="userSpaceOnUse"><stop offset="0" stop-color="#fff"/><stop offset="0.5" stop-color="#fff" stop-opacity="0.4"/><stop offset="1" stop-color="#fff" stop-opacity="0.25"/></linearGradient><linearGradient id="Sfumatura_senza_nome_5-2" x1="1878.02" y1="895.11" x2="1882.46" y2="895.11" gradientTransform="matrix(-1.32, -37.68, -37.68, 1.32, 36561.43, 69844.08)" xlink:href="#Sfumatura_senza_nome_5"/></defs><title>Sky Cinema Comedy</title><path d="M4015.36,0H2413.93a33.32,33.32,0,0,0-33.31,33.3V466.68a33.28,33.28,0,0,0,33.31,33.3H4015.36a33.27,33.27,0,0,0,33.3-33.3V33.3A33.31,33.31,0,0,0,4015.36,0m0,10a23.31,23.31,0,0,1,23.28,23.28V466.68A23.32,23.32,0,0,1,4015.36,490H2413.93a23.32,23.32,0,0,1-23.29-23.33V33.3A23.31,23.31,0,0,1,2413.93,10H4015.36" fill="#b40026"/><path d="M4015.36,10a23.31,23.31,0,0,1,23.28,23.28V466.68A23.32,23.32,0,0,1,4015.36,490H2413.93a23.32,23.32,0,0,1-23.29-23.33V33.3A23.31,23.31,0,0,1,2413.93,10H4015.36" fill="#fff"/><path d="M2555.33,252.26c0-58.18,42.69-101.33,99.27-101.33a162.68,162.68,0,0,1,68,15.48c2.85,18.28-2.85,25.62-11,25.62-14.24,0-26.48-11.78-55.73-11.78-36.67,0-66.78,27.27-66.78,72,0,44.34,30.11,72,66.78,72,29.25,0,41.49-12.18,54.47-12.18,8.54,0,14.69,7.74,12.24,26a156.42,156.42,0,0,1-68,15.89c-56.58,0-99.27-43.95-99.27-101.73" fill="#b40026"/><path d="M2745.88,252.26c0-58.18,42.75-101.33,100.13-101.33,57.78,0,100.47,43.15,100.47,101.33C2946.48,310,2903.79,354,2846,354c-57.38,0-100.13-43.95-100.13-101.73m166.85,0c0-44.74-30.12-72-66.72-72-36.21,0-66.32,27.27-66.32,72,0,44.34,30.11,72.41,66.32,72.41,36.6,0,66.72-28.07,66.72-72.41" fill="#b40026"/><path d="M3260.41,221.75V339.36c0,8.14-4.5,12.58-17.93,12.58a75.8,75.8,0,0,1-15.43-1.6V225.85c0-28.52-13.43-45.2-39.05-45.2-21.57,0-39.5,15.08-46.79,30.51v128.2c0,8.14-4.5,12.58-17.93,12.58a75.64,75.64,0,0,1-15.43-1.6V225.85c0-28.52-13.43-45.2-39.11-45.2-21.52,0-39.45,15.08-46.79,30.51v128.2c0,8.14-4.44,12.58-17.88,12.58a76.35,76.35,0,0,1-15.48-1.6V154.63a73.59,73.59,0,0,1,15.88-1.65c12.64,0,17.08,4.9,17.08,13.44v13.43c12.64-16.68,32.16-28.92,55.79-28.92,26,0,46.34,13,56.53,35.41,13.43-20.32,33.75-35.41,62.67-35.41,41.9,0,63.87,31.37,63.87,70.82" fill="#b40026"/><path d="M3486.43,264.44H3335.07c4.49,37.86,30.5,59,69.16,59,16.68,0,29.72-3.24,41.9-7.34,8.53-2.85,12.23-4,15.48-4,9.33,0,15.48,7.74,13.83,25.61C3458,345.45,3431.1,354,3403,354c-61.08,0-102.12-41.1-102.12-102.13,0-58.58,43.49-100.93,96.83-100.93,60.23,0,89.89,46.79,89.89,94a175.47,175.47,0,0,1-1.2,19.52m-151.36-26h120c-1.25-33.35-22.83-59.42-57.38-59.42-30.12,0-57.38,20.77-62.67,59.42" fill="#b40026"/><path d="M3713,86.26V349.49c-2.84,1.25-9.33,2.44-15,2.44-13.43,0-17.92-5.29-17.92-15.42V320.22c-14.64,19.93-38.26,33.76-67.58,33.76-49.64,0-94-37.86-94-101.72,0-63.48,44.34-101.33,94-101.33,29.32,0,52.94,13.83,67.58,33.81V97.25c0-7.74,4.89-12.64,18.32-12.64A63.72,63.72,0,0,1,3713,86.26m-33,201.4V217.24c-11-22-35-37-61.43-37-38.25,0-66.32,29.32-66.32,72,0,43.15,28.07,72.4,66.32,72.4,26.41,0,50.44-15,61.43-37" fill="#b40026"/><path d="M3828.52,341.77l-86.24-183.53a49.67,49.67,0,0,1,21.57-5.29c9.74,0,14.23,3.3,18.28,12.24l64.32,138.73,61.82-138.73c4.05-8.94,7.75-12.24,17.88-12.24a50.93,50.93,0,0,1,21.18,5.29L3835,403.6c-4,8.59-8.14,11.83-17.87,11.83-6.95,0-15.88-2.84-21.18-5.29Z" fill="#b40026"/><path d="M2425.63,0H831.86A33.29,33.29,0,0,0,798.5,33.31V466.66A33.33,33.33,0,0,0,831.86,500H2425.63A33.37,33.37,0,0,0,2459,466.66V33.31A33.32,33.32,0,0,0,2425.63,0Z" fill="url(#Sfumatura_senza_nome_11)"/><path d="M2425.63,0H831.86A33.29,33.29,0,0,0,798.5,33.31V273.68c0-3.51,1.36-23.48,24-25.63l3.15-.21,1608.44-56.19c12.53-.43,24.84-9.74,24.84-25.27L2459,33.31A33.32,33.32,0,0,0,2425.63,0Z" fill="url(#Sfumatura_senza_nome_18)"/><path id="path15555" d="M831.9,0a33.46,33.46,0,0,0-33.4,33.4h0v240.4c0-3.6,1.4-23.4,24-25.6h0a21.41,21.41,0,0,1,3.2-.2h0c98.6-3.4,1608.47-56.32,1608.47-56.32h0c12.6-.4,24.8-9.8,24.8-25.4h0l.16-132.82a33.47,33.47,0,0,0-33.4-33.4h0Z" opacity="0.3" fill="url(#Sfumatura_senza_nome_5)" style="isolation:isolate"/><path d="M499.5,464c5.94,3,18,6.66,33.21,7.09,26.13.57,40.38-9.38,51-32.79l140-311.81c-5.72-3.08-18.61-6.58-29-6.73-18-.42-42.3,3.23-57.62,40.09L591.7,266.65,502.79,122.06a131.26,131.26,0,0,0-30-4.23c-31.5,0-49,11.53-67.22,31.28l-86.47,94.35,69.58,109.3c12.81,19.9,29.78,30.07,57.27,30.07,18,0,33-4.23,39.94-7.45l-83.75-126,59.34-62.92,97.35,152.68ZM315.75,346c0,23-9,36.23-54,36.23a101.7,101.7,0,0,1-16.11-1.15V76.24c0-23.26,7.87-47.38,53.19-47.38a81.86,81.86,0,0,1,16.89,1.71Zm-92.7-46c0,42.95-28.06,74.23-85.11,80.38-41.3,4.37-101.07-.78-129.49-4.08a81.19,81.19,0,0,1-1.72-15c0-37.36,20.19-46,39.23-46,19.75,0,50.89,3.5,73.94,3.5,25.56,0,33.21-8.66,33.21-16.89,0-10.74-10.16-15.18-30-19L69,272.59c-45-8.66-69-39.73-69-72.65,0-40.09,28.42-73.66,84.32-79.82,42.31-4.58,93.78.58,122.05,4a74.45,74.45,0,0,1,1.51,14.39c0,37.44-19.76,45.45-38.8,45.45-14.6,0-37.3-2.64-63.21-2.64-26.34,0-37.29,7.3-37.29,16.1,0,9.38,10.38,13.24,26.91,16.11l51.68,9.59c53.05,9.73,75.88,39.87,75.88,76.88" fill="#ff0031"/><path id="path15297-4" d="M245.8,76.26v209a17.61,17.61,0,0,1,17.2-17.6h0c7.6-.2,28.8-1,35.2-1.2h0c7-.2,17.6-5,17.8-17.8h0v-218a78.3,78.3,0,0,0-17-1.8h0c-45.4.2-53.2,24.2-53.2,47.4m160,72.8-86.4,94.4,7,10.8c3,4,8.8,10.8,20.4,10.4h0c4.2-.2,45.8-1.6,49.2-1.8h0c10.8-.4,17.6,4.2,21.8,9.8h0l-15.4-23.2,59.4-63,39.8,62.6h0c7.2,9.4,18,9.6,20.4,9.6h0c2,0,54.4-1.8,56.6-2h0c3.6-.2,7.8,1.8,11,6.4h0L503,122.26c-5.8-1.8-19.8-4.2-30-4.2h0c-31.6-.2-49,11.2-67.2,31m-321.4-29c-56,6.2-84.4,39.6-84.4,79.8H0c0,20.6,9.4,40.4,27.4,54.6h0c13.6,9,27.6,12.4,41.4,14.8h0c11.4,2,38,3.8,57.8,3h0c6.2-.2,51.8-1.8,61.6-2.2h0c23.2-.8,35.6,19,34.4,38.8h0v-.8h0v-.2h0c.2-2.6.4-5.2.4-7.8h0c0-37-22.8-67.2-75.8-77h0l-51.6-9.6c-16.6-2.8-26.8-6.8-26.8-16.2h0c0-8.8,11-16.2,37.2-16.2h0c26,0,48.6,2.6,63.2,2.6h0c19,0,38.8-8,38.8-45.4h0a69,69,0,0,0-1.6-14.4h0c-20.2-2.4-52.6-5.8-84.8-5.8h0c-12.6.2-25.2.8-37.2,2M637,159.86l-44.2,104.2h0c0-.2,2.8-8.2,11.4-8.6h0s43.6-1.6,46.8-1.6h0c14.2-.6,19.8-10.2,21.4-13.4h0l51.2-114.2c-5.8-3-18.6-6.6-29-6.8h-2.2c-17.8.2-40.6,5-55.4,40.4" opacity="0.3" fill="url(#Sfumatura_senza_nome_5-2)" style="isolation:isolate"/><path d="M892.45,252.71c0-70.15,51.54-122.19,119.75-122.19a196.19,196.19,0,0,1,82,18.61c3.43,22.12-3.44,30.92-13.24,30.92-17.19,0-31.93-14.24-67.22-14.24-44.24,0-80.53,32.92-80.53,86.9,0,53.47,36.29,86.9,80.53,86.9,35.29,0,50-14.75,65.71-14.75,10.31,0,17.68,9.31,14.75,31.42a188.56,188.56,0,0,1-82,19.12c-68.21,0-119.75-53-119.75-122.69" fill="#fff"/><path d="M1134.68,81.44a25.33,25.33,0,0,1,25.48-25.56c14.75,0,26.06,10.81,26.06,25.56,0,13.24-11.31,25.48-26.06,25.48-13.74,0-25.48-12.24-25.48-25.48M1140.05,371V148.15c0-9.3,5.37-15.17,21.62-15.17a83.32,83.32,0,0,1,18.11,1.93V357.74c0,9.81-4.87,15.18-21,15.18a89.82,89.82,0,0,1-18.68-1.93" fill="#fff"/><path d="M1449.78,230.62V357.75c0,9.31-5.37,15.18-21.62,15.18a89.08,89.08,0,0,1-18.61-1.93V236c0-47.1-23-69.65-57.91-69.65-27,0-56.48,18.61-68.22,40.73V357.75c0,9.31-5.44,15.18-21.62,15.18a88.53,88.53,0,0,1-18.61-1.93V134.92A88.53,88.53,0,0,1,1261.8,133c16.18,0,21.62,5.87,21.62,15.17v20.12c17.18-21.12,43.17-37.8,78-37.8,48.1,0,88.33,30.42,88.33,100.14" fill="#fff"/><path d="M1721.64,267.45H1539.11c5.36,45.59,36.79,71.15,83.39,71.15,20.18,0,35.86-3.94,50.61-8.81,10.3-3.43,14.67-4.94,18.61-4.94,11.31,0,18.68,9.31,16.68,30.93-21.12,9.3-53.48,19.61-87.33,19.61-73.59,0-123.2-49.53-123.2-123.19,0-70.65,52.55-121.69,116.83-121.69,72.58,0,108.44,56.41,108.44,113.38a205.47,205.47,0,0,1-1.5,23.56M1539.11,236h144.8c-1.5-40.23-27.48-71.65-69.21-71.65-36.37,0-69.22,25-75.59,71.65" fill="#fff"/><path d="M2101.35,215.9V357.7c0,9.88-5.37,15.25-21.62,15.25a94,94,0,0,1-18.61-1.93V220.84c0-34.36-16.18-54.48-47.1-54.48-26.06,0-47.6,18.11-56.48,36.8V357.7c0,9.88-5.37,15.25-21.62,15.25a94.1,94.1,0,0,1-18.61-1.93V220.84c0-34.36-16.18-54.48-47.1-54.48-26.06,0-47.6,18.11-56.48,36.8V357.7c0,9.88-5.37,15.25-21.54,15.25A94.92,94.92,0,0,1,1773.5,371V134.94a90.34,90.34,0,0,1,19.11-2c15.25,0,20.62,5.94,20.62,16.24v16.18c15.25-20.11,38.8-34.86,67.29-34.86,31.42,0,55.9,15.68,68.21,42.66,16.18-24.48,40.73-42.66,75.59-42.66,50.54,0,77,37.8,77,85.4" fill="#fff"/><path d="M2351.83,219.81V371a84.38,84.38,0,0,1-18.11,1.93c-14.75,0-21.62-5.37-21.62-15.18V337.14c-21.12,24.05-48.61,38.29-83.47,38.29-52.47,0-81.46-34.36-81.46-71.65,0-57,60.85-82,164.43-75.09v-8.37c0-38.8-11.81-55-56.41-55-18.68,0-43.74,5.44-57,8.88-7.87,1.93-13.74,3.86-18.61,3.86-11.31,0-18.68-9.81-14.75-30.42,24.06-8.8,58.92-17.18,92.27-17.18,69.22,0,94.71,30.92,94.71,89.33m-40.23,82.47V257.61c-67.72-4.87-124.2,3.94-124.2,44.67,0,20.61,17.18,39.3,48.11,39.3,31.42,0,58.91-15.75,76.09-39.3" fill="#fff"/></svg>