<?xml version="1.0" encoding="UTF-8" standalone="no"?>
<!-- Generator: Adobe Illustrator 23.0.1, SVG Export Plug-In . SVG Version: 6.00 Build 0)  -->

<svg
   version="1.1"
   id="Livello_1"
   xml:space="preserve"
   viewBox="0 0 2334.9473 999.99451"
   xmlns="http://www.w3.org/2000/svg"
   xmlns:svg="http://www.w3.org/2000/svg"><defs
   id="defs909"><linearGradient
     id="Sky_Logo_2_-7"
     gradientUnits="userSpaceOnUse"
     x1="361.97241"
     y1="275.19421"
     x2="361.97241"
     y2="-167.3197"
     gradientTransform="matrix(1.0016877,0,0,-1,2.4637691e-6,304)"><stop
       offset="0"
       style="stop-color:#002A91"
       id="stop846-1" /><stop
       offset="0.8"
       style="stop-color:#002672"
       id="stop848-8" /></linearGradient><linearGradient
     id="s25_2_-4"
     gradientUnits="userSpaceOnUse"
     x1="365.5015"
     y1="40.698799"
     x2="359.65079"
     y2="208.2287"
     gradientTransform="matrix(1.0016877,0,0,-1,2.4637691e-6,304)"><stop
       offset="0"
       style="stop-color:#FFFFFF"
       id="stop852-9" /><stop
       offset="0.1203"
       style="stop-color:#FFFFFF;stop-opacity:0.8347"
       id="stop854-7" /><stop
       offset="0.2693"
       style="stop-color:#FFFFFF;stop-opacity:0.6576"
       id="stop856-3" /><stop
       offset="0.4195"
       style="stop-color:#FFFFFF;stop-opacity:0.5107"
       id="stop858-1" /><stop
       offset="0.5684"
       style="stop-color:#FFFFFF;stop-opacity:0.3965"
       id="stop860-0" /><stop
       offset="0.7156"
       style="stop-color:#FFFFFF;stop-opacity:0.3152"
       id="stop862-2" /><stop
       offset="0.8603"
       style="stop-color:#FFFFFF;stop-opacity:0.2664"
       id="stop864-3" /><stop
       offset="1"
       style="stop-color:#FFFFFF;stop-opacity:0.25"
       id="stop866-7" /></linearGradient><linearGradient
     id="Plinth_1_-1"
     gradientUnits="userSpaceOnUse"
     x1="1832.0896"
     y1="22.230801"
     x2="1832.0896"
     y2="41.461498"
     gradientTransform="matrix(79.787815,0,0,26,-144610.85,-578)"><stop
       offset="0.4"
       style="stop-color:#FF0000"
       id="stop870-8" /><stop
       offset="1"
       style="stop-color:#D42321"
       id="stop872-9" /></linearGradient><linearGradient
     id="p40_2_-3"
     gradientUnits="userSpaceOnUse"
     x1="1568.9945"
     y1="74.039398"
     x2="1560.2958"
     y2="323.14291"
     gradientTransform="matrix(0.99986865,0,0,-1,1.4533924,304)"><stop
       offset="0"
       style="stop-color:#FFFFFF"
       id="stop876-7" /><stop
       offset="0.1203"
       style="stop-color:#FFFFFF;stop-opacity:0.8347"
       id="stop878-4" /><stop
       offset="0.2693"
       style="stop-color:#FFFFFF;stop-opacity:0.6576"
       id="stop880-8" /><stop
       offset="0.4195"
       style="stop-color:#FFFFFF;stop-opacity:0.5107"
       id="stop882-0" /><stop
       offset="0.5684"
       style="stop-color:#FFFFFF;stop-opacity:0.3965"
       id="stop884-4" /><stop
       offset="0.7156"
       style="stop-color:#FFFFFF;stop-opacity:0.3152"
       id="stop886-0" /><stop
       offset="0.8603"
       style="stop-color:#FFFFFF;stop-opacity:0.2664"
       id="stop888-5" /><stop
       offset="1"
       style="stop-color:#FFFFFF;stop-opacity:0.25"
       id="stop890-7" /></linearGradient></defs>
<path
   id="path108261"
   style="fill:#002a91;fill-opacity:1;stroke-width:1.00018"
   d="M 33.318361,989.99023 C 20.46175,989.94223 10.051925,979.53553 10.003908,966.68359 V 554.88477 C 3.8613054,548.85789 0.27800217,540.69763 2.4637691e-6,532.09766 V 966.68555 C -0.00700005,985.08347 14.913761,1000.0001 33.318361,999.99414 H 2301.5293 c 18.4537,0.086 33.449,-14.86167 33.418,-33.30859 l -0.01,-435.60743 c -0.05,8.95988 -3.6813,17.5269 -10.084,23.79688 l 0.088,411.80859 c -0.012,12.86594 -10.4408,23.29464 -23.3125,23.30664 z" /><path
   id="Sky_Logo_1_"
   fill="url(#Sky_Logo_2_)"
   d="m 500.54334,464.2 c 10.51772,4.6 21.8368,7.1 33.25604,7.1 26.14404,0.6 40.46818,-9.4 50.9859,-32.8 l 140.33645,-312 c -9.11536,-4.1 -19.03207,-6.4 -29.04895,-6.7 -18.13054,-0.4 -42.37139,3.3 -57.69721,40.1 L 592.99912,266.8 503.84891,122.2 c -9.81654,-2.6 -19.93358,-4 -30.05063,-4.2 -31.55316,0 -49.0827,11.5 -67.31341,31.3 l -86.64599,94.4 69.6173,109.4 c 12.92177,19.9 29.85029,30.1 57.3967,30.1 13.72312,0.2 27.34608,-2.3 40.06751,-7.5 l -83.94143,-126 59.50025,-62.9 97.56438,152.7 z M 316.53331,346.3 c 0,23 -9.01519,36.2 -54.09113,36.2 -5.40912,0 -10.81823,-0.4 -16.12717,-1.1 V 76.2 c 0,-23.2 7.91333,-47.4 53.28978,-47.4 5.70962,0 11.41924,0.6 16.92852,1.7 z m -93.05678,-46.1 c 0,43 -28.14743,74.2 -85.24363,80.4 -41.369697,4.4 -101.270622,-0.8 -129.718552,-4 -1.0016878,-4.9 -1.6027004,-9.9 -1.7028691,-15 0,-37.4 20.2340911,-46 39.2661571,-46 19.833417,0 50.985904,3.5 74.124884,3.5 25.54304,0 33.25604,-8.6 33.25604,-16.9 0,-10.7 -10.21722,-15.2 -30.05064,-19 L 69.116453,272.8 C 24.040507,264.2 2.4637691e-6,233 2.4637691e-6,200 2.4637691e-6,159.9 28.447933,126.4 84.442275,120.2 c 42.371385,-4.6 93.958305,0.6 122.205895,4 1.00169,4.7 1.50253,9.5 1.50253,14.4 0,37.4 -19.83341,45.5 -38.86548,45.5 -14.62464,0 -37.36295,-2.7 -63.30666,-2.7 -26.344386,0 -37.362951,7.3 -37.362951,16.1 0,9.4 10.417553,13.2 26.9454,16.1 l 51.787251,9.6 c 53.18962,9.7 76.12827,40 76.12827,77 z"
   style="fill:url(#Sky_Logo_2_-7)" /><path
   id="s25_1_"
   opacity="0.25"
   fill="url(#s25_2_)"
   enable-background="new    "
   d="m 725.22189,126.5 -51.38657,114.2 c -4.00676,8.2 -12.32076,13.4 -21.43612,13.4 l -46.87899,1.6 c -5.1086,0.3 -9.6162,3.7 -11.41924,8.5 v -0.1 l 44.2746,-104.2 c 15.42599,-36.8 39.66683,-40.5 57.69721,-40.1 10.11705,0.3 19.93359,2.6 29.14911,6.7 z M 590.59507,263.1 503.84891,122.2 c -9.81654,-2.6 -19.93358,-4 -30.05063,-4.2 -31.55316,0 -49.0827,11.5 -67.31341,31.3 l -86.64599,94.4 6.91165,10.9 c 4.50759,6.8 12.32076,10.7 20.5346,10.3 4.10692,-0.1 45.97746,-1.6 49.3832,-1.7 8.51434,-0.7 16.72818,3 21.83679,9.8 v 0 l -15.52616,-23.3 59.50025,-62.9 39.96734,62.5 v 0 c 4.90827,6.2 12.5211,9.7 20.43443,9.5 2.10354,-0.1 54.39164,-1.9 56.79569,-2 4.40743,0.1 8.61452,2.5 10.9184,6.3 z M 299.60479,28.9 c -45.37645,0 -53.28978,24.2 -53.28978,47.4 v 209 c 0,-9.6 7.71299,-17.4 17.32919,-17.7 l 35.15924,-1.2 c 9.81654,0 17.83004,-8 17.83004,-17.8 v 0 -218 c -5.70962,-1.2 -11.31907,-1.8 -17.02869,-1.7 z M 147.44843,223.1 95.661177,213.5 c -16.527847,-2.9 -26.945399,-6.7 -26.945399,-16.1 0,-8.8 11.018565,-16.1 37.362952,-16.1 25.94371,0 48.68202,2.7 63.30666,2.7 19.03207,0 38.86548,-8.1 38.86548,-45.5 0,-4.8 -0.50084,-9.7 -1.50253,-14.4 -28.24759,-3.5 -79.83451,-8.6 -122.205896,-4 C 28.447933,126.3 2.4637691e-6,159.9 2.4637691e-6,199.9 0.10017123,221.3 10.217217,241.5 27.346076,254.4 c 12.621265,7.8 26.845231,12.9 41.57004,14.8 19.232404,2.6 38.564974,3.6 57.897544,3 6.1103,-0.2 51.78726,-1.8 61.80413,-2.2 23.13899,-0.8 35.76025,18.9 34.45806,38.7 0,-0.3 0,-0.5 0.10017,-0.8 v -0.2 c 0.20034,-2.6 0.30051,-5.2 0.30051,-7.8 0,-36.7 -22.93865,-67 -76.0281,-76.8 z"
   style="fill:url(#s25_2_-4)" /><path
   id="Plinth_2_"
   fill="url(#Plinth_1_)"
   d="M 2301.2509,0 H 833.64407 c -18.29761,0 -33.29562,15 -33.29562,33.3 v 433.4 c 0,18.3 14.99801,33.3 33.29562,33.3 H 2301.6516 c 18.2972,0 33.2953,-15 33.2953,-33.3 V 33.3 C 2334.547,15 2319.5489,0 2301.2509,0 Z"
   style="fill:url(#Plinth_1_-1)" /><path
   id="p40_1_"
   opacity="0.4"
   fill="url(#p40_2_)"
   enable-background="new    "
   d="m 824.34528,248 c 0,0 1.09988,-0.1 3.19957,-0.2 98.58707,-3.5 1482.40545,-51.7 1482.40545,-51.7 13.8979,-0.1 24.9966,-11.5 24.8964,-25.3 V 33.3 c 0,-18.4 -14.8979,-33.3 -33.2953,-33.3 H 833.64407 C 815.24649,0 800.34845,14.9 800.34845,33.3 V 274 c -0.39995,-13.6 10.29863,-25.3 23.99683,-26 z"
   style="fill:url(#p40_2_-3)" /><path
   fill="#ffffff"
   d="m 894.90126,359.31667 c -2.90421,-20.4 3.30482,-31.2 15.42245,-31.2 11.21632,0 38.85655,12.1 77.21239,12.1 40.4588,0 55.4807,-14.2 55.4807,-32.9 0,-13.3 -5.8085,-25 -42.1613,-35 l -41.76079,-11.2 c -46.26735,-12.1 -64.29358,-35.4 -64.29358,-63.8 0,-35.4 27.94065,-66.7 91.33292,-66.7 28.34125,0 63.89265,6.2 85.52445,14.6 3.8054,20 -2.5037,30.8 -14.6214,30.8 -10.8156,0 -35.4515,-10.4 -70.10189,-10.4 -37.55465,0 -51.27462,12.9 -51.27462,29.6 0,11.7 5.40788,22.5 38.85656,32.1 l 42.56195,11.7 c 47.5692,13.3 66.7971,35.4 66.7971,66.7 0,36.7 -28.3413,69.6 -97.24141,69.6 -30.84489,0.2 -68.80015,-7.3 -91.73353,-16 z"
   id="path894"
   style="stroke-width:1.00072" /><path
   fill="#ffffff"
   d="m 1366.8389,253.01667 c 0,77.1 -54.2391,122.5 -113.3818,122.5 -35.4255,0 -64.2463,-16.7 -81.7589,-40.4 v 99.1 c 0,9.2 -5.4039,15.4 -21.2153,15.4 -7.9057,0 -15.4112,-0.8 -19.2139,-2.1 v -312.5 c 3.8027,-0.8 11.2081,-2.1 19.2139,-2.1 15.8114,0 21.2153,5.8 21.2153,15.4 v 22.5 c 17.1124,-23.8 46.2332,-40.4 81.7589,-40.4 59.1427,0 113.3818,45.8 113.3818,122.6 z m -40.8295,0 c 0,-51.7 -34.2246,-87.1 -80.458,-87.1 -31.2225,0 -60.4436,18.3 -73.8532,44.6 v 85 c 13.3096,26.7 42.1303,44.6 73.8532,44.6 46.2334,0 80.458,-35.4 80.458,-87.1 z"
   id="path896"
   style="stroke-width:1.00035" /><path
   fill="#ffffff"
   d="m 1404.3249,252.81668 c 0,-70.11448 51.8003,-122.29968 121.0342,-122.29968 69.7351,0 121.4353,52.1852 121.4353,122.29968 0,69.71381 -51.8003,122.70032 -121.4353,122.70032 -69.2339,0 -121.0342,-52.98651 -121.0342,-122.70032 z m 201.6904,0 c 0,-54.28864 -36.2701,-87.24244 -80.5558,-87.24244 -43.8851,0 -80.1555,32.9538 -80.1555,87.24244 0,53.38716 36.2704,87.64308 80.1555,87.64308 44.1854,-0.40064 80.5558,-34.25592 80.5558,-87.64308 z"
   id="path898"
   style="stroke-width:1.00178" /><path
   fill="#ffffff"
   d="m 1841.6729,152.51667 c 0,16.2 -6.6991,19.6 -23.7968,19.6 -33.7957,0 -62.4918,15.8 -79.9896,52.5 v 132.9 c 0,10 -5.3993,15.4 -21.6972,15.4 -6.6991,0 -14.598,-0.8 -18.7974,-2.1 v -235.8 c 3.7995,-0.8 11.6984,-2.1 18.7974,-2.1 16.1979,0 21.6972,5.8 21.6972,15.4 v 32.9 c 22.897,-35 57.8924,-52.5 101.6866,-46.7 0.5,3.4 2.0998,10.9 2.0998,18 z"
   id="path900"
   style="stroke-width:0.999935" /><path
   fill="#ffffff"
   d="m 2018.1495,359.20594 c -20.3973,10.00684 -44.1942,16.21106 -67.8911,16.21106 -46.6939,0 -74.5902,-27.51876 -74.5902,-73.35002 V 99.328672 c 0,-10.407098 5.7993,-17.111672 21.6972,-17.111672 6.6991,0 14.5981,1.70116 18.7975,2.501706 v 51.234954 h 91.6879 c 0.4,3.30224 1.6998,10.4071 1.6998,16.21106 0,14.20968 -5.7992,19.2131 -14.5981,19.2131 h -78.2897 v 127.9873 c 0,27.51878 12.8983,40.82786 38.795,40.82786 23.7968,0 36.6951,-10.4071 47.8937,-10.4071 11.0985,0.20014 17.2977,9.80668 14.798,29.42006 z"
   id="path902"
   style="stroke-width:1.00027" /><path
   fill="#ffffff"
   d="m 2049.9522,359.31667 c -2.8996,-20.4 3.2996,-31.2 15.398,-31.2 11.2986,0 38.7949,12.1 77.0899,12.1 40.3947,0 55.3927,-14.2 55.3927,-32.9 0,-13.3 -5.7992,-25 -42.0945,-35 l -41.6945,-11.2 c -46.194,-12.1 -64.1916,-35.4 -64.1916,-63.8 0,-35.4 27.8964,-66.7 91.288,-66.7 28.2963,0 63.6916,6.2 85.3888,14.6 3.7995,20 -2.4996,30.8 -14.598,30.8 -10.7986,0 -35.3955,-10.4 -69.9908,-10.4 -37.4951,0 -51.1933,12.9 -51.1933,29.6 0,11.7 5.3992,22.5 38.7949,32.1 l 42.4944,11.7 c 47.4938,13.3 66.6912,35.4 66.6912,66.7 0,36.7 -28.2962,69.6 -97.0872,69.6 -30.7959,0.2 -68.7909,-7.3 -91.688,-16 z"
   id="path904"
   style="stroke-width:0.999935" /><g
   id="g7624"
   transform="matrix(1.0155262,0,0,1.0155262,-883.67566,-14.866282)"><path
     fill="#002a91"
     d="m 1345.067,721.61945 v 117.4113 c 0,8.2937 -4.6051,12.4906 -17.9197,12.4906 -5.8064,0 -12.1133,-0.7994 -15.417,-1.6988 v -124.0063 c 0,-28.2786 -13.3146,-44.966 -39.2432,-44.966 -21.7239,0 -39.6436,14.9887 -46.7514,30.377 v 128.2032 c 0,8.2937 -4.605,12.4906 -17.9198,12.4906 -5.8064,0 -12.1133,-0.7994 -15.4169,-1.6988 v -124.406 c 0,-28.2786 -13.3147,-44.966 -39.2432,-44.966 -21.7239,0 -39.6436,14.9887 -46.7514,30.377 v 128.2032 c 0,8.2937 -4.6051,12.4906 -17.9197,12.4906 -5.8064,0 -12.1133,-0.7994 -15.417,-1.6988 v -195.6522 c 3.3037,-0.7994 9.6106,-1.6987 15.8174,-1.6987 12.5137,0 17.1188,4.9962 17.1188,13.29 v 13.3898 c 12.5138,-16.6874 32.1354,-28.7782 55.8615,-28.7782 25.8284,0 46.2509,12.8903 56.7624,35.3733 13.3147,-20.3846 33.8373,-35.3733 62.5689,-35.3733 41.7459,0.1 63.8703,31.2764 63.8703,70.8465 z"
     id="path828"
     style="fill:#002a91" /><path
     id="Shape"
     fill="#002a91"
     d="m 1552.7956,725.01685 v 125.3054 c -3.3037,0.7994 -9.2101,1.6987 -15.0165,1.6987 -12.1134,0 -17.9198,-4.5965 -17.9198,-12.4906 v -17.0871 c -17.5192,19.9849 -40.4445,31.6761 -69.2762,31.6761 -43.3477,0 -67.5744,-28.2786 -67.5744,-59.555 0,-47.0645 50.4555,-67.8488 136.35,-62.0531 v -7.0947 c 0,-32.0758 -9.6106,-45.3657 -46.7513,-45.3657 -15.417,0 -36.24,4.5965 -47.152,7.4943 -6.7074,1.6987 -11.2123,3.2975 -15.417,3.2975 -9.2101,0 -15.4169,-8.2937 -12.1133,-25.3808 20.0221,-7.4943 48.8538,-14.1893 76.7845,-14.1893 56.7624,-0.3997 78.086,25.3808 78.086,73.7443 z m -33.4369,68.2485 v -37.072 c -56.2619,-4.1969 -103.0133,3.2975 -103.0133,37.072 0,17.0871 14.2156,32.4754 40.044,32.4754 25.9286,0 48.8538,-12.8902 62.9693,-32.4754 z"
     style="fill:#002a91" /><path
     fill="#002a91"
     d="m 1599.0464,610.50335 c 0,-12.0909 9.6106,-21.184 21.2234,-21.184 12.1134,0 21.7239,8.7934 21.7239,21.184 0,10.7919 -9.2102,21.184 -21.7239,21.184 -11.2123,-0.3997 -21.2234,-10.3921 -21.2234,-21.184 z m 4.6052,239.8189 v -184.8604 c 0,-7.894 4.605,-12.4906 17.9196,-12.4906 5.8064,0 11.7129,0.7994 15.0165,1.6987 v 184.4607 c 0,8.2938 -4.2045,12.4906 -17.5193,12.4906 -5.8064,0.2998 -12.1133,-0.4996 -15.4168,-1.299 z"
     id="path831"
     style="fill:#002a91" /><path
     fill="#002a91"
     d="m 1860.6342,733.71025 v 105.3205 c 0,7.894 -4.605,12.4906 -17.9197,12.4906 -5.8063,0 -12.1133,-0.7994 -15.4169,-1.6988 v -111.5157 c 0,-39.1704 -19.2211,-57.8563 -47.9527,-57.8563 -22.5249,0 -46.7515,15.3884 -56.7626,33.7745 v 124.9056 c 0,7.8941 -4.605,12.4906 -17.9197,12.4906 -5.8063,0 -12.1133,-0.7994 -15.4169,-1.6987 v -195.7522 c 3.3036,-0.7994 9.6106,-1.6987 15.4169,-1.6987 13.3147,0 17.9197,4.9962 17.9197,12.4906 v 16.6874 c 14.2157,-17.4868 35.8395,-31.1765 64.6712,-31.1765 39.944,0.3997 73.3807,25.7805 73.3807,83.2371 z"
     id="path833"
     style="fill:#002a91" /><path
     fill="#002a91"
     d="m 2164.3376,764.48705 h -151.774 c 4.6019,37.8714 30.415,59.1553 69.2344,59.1553 16.7077,0 29.6139,-3.2975 42.1204,-7.4943 8.8044,-2.8978 12.1055,-4.1968 15.4074,-4.1968 9.2039,0 15.4072,7.894 13.8069,25.7805 -17.5085,7.894 -44.2218,16.1878 -72.5355,16.1878 -60.8299,0 -102.1501,-41.169 -102.1501,-102.023 0,-58.7556 43.3213,-100.7239 96.747,-100.7239 60.4301,0 90.0439,46.6647 90.0439,94.1289 0.3005,5.0961 -0.1002,12.1908 -0.9004,19.1855 z m -151.774,-26.1802 h 120.0591 c -1.2007,-33.2749 -22.9115,-59.555 -57.5286,-59.555 -29.6139,0.3997 -57.1275,20.7843 -62.5305,59.555 z"
     id="path835"
     style="fill:#002a91" /><path
     fill="#002a91"
     d="m 2259.3842,849.02315 -83.3408,-190.656 c 5.0025,-2.8978 14.2073,-5.3959 22.1112,-5.3959 10.005,0 15.0072,2.8978 18.8093,11.6912 l 33.8162,82.8374 28.3137,69.1478 h 0.4005 l 28.3138,-69.1478 33.8159,-82.8374 c 3.8027,-8.7934 8.3045,-11.6912 18.3097,-11.6912 7.5033,0 16.2075,2.4981 21.7107,5.3959 l -78.8389,179.8642 c -5.0025,10.7919 -9.2049,13.7896 -22.9116,13.7896 -6.0022,-0.1 -13.5062,-1.299 -20.5097,-2.9978 z"
     id="path837"
     style="fill:#002a91" /><path
     fill="#002a91"
     d="m 2577.0394,764.48705 h -151.3736 c 4.6021,37.8714 30.4149,59.1553 69.2336,59.1553 16.7081,0 29.6146,-3.2975 42.1205,-7.4943 8.8043,-2.8978 12.1061,-4.1968 15.4072,-4.1968 9.2049,0 15.4082,7.894 13.8069,25.7805 -17.5084,7.894 -44.2217,16.1878 -72.5353,16.1878 -60.8299,0 -102.1499,-41.169 -102.1499,-102.023 0,-58.7556 43.321,-100.7239 96.7476,-100.7239 60.4292,0 90.0438,46.6647 90.0438,94.1289 -0.1002,5.0961 -0.5006,12.1908 -1.3008,19.1855 z m -151.3736,-26.1802 h 120.0583 c -1.2008,-33.2749 -22.9109,-59.555 -57.5279,-59.555 -30.0148,0.3997 -57.5279,20.7843 -62.5304,59.555 z"
     id="path839"
     style="fill:#002a91" /><path
     fill="#002a91"
     d="m 2791.4445,733.71025 v 105.3205 c 0,7.894 -4.6029,12.4906 -17.909,12.4906 -5.8027,0 -12.1064,-0.7994 -15.4073,-1.6988 v -111.5157 c 0,-39.1704 -19.2098,-57.8563 -47.9236,-57.8563 -22.511,0 -46.7231,15.3884 -56.728,33.7745 v 124.9056 c 0,7.8941 -4.6021,12.4906 -17.9082,12.4906 -5.8028,0 -12.1062,-0.7994 -15.4081,-1.6987 v -195.7522 c 3.3019,-0.7994 9.6053,-1.6987 15.4081,-1.6987 13.3061,0 17.9082,4.9962 17.9082,12.4906 v 16.6874 c 14.2072,-17.4868 35.8179,-31.1765 64.6318,-31.1765 40.0198,0.3997 73.3361,25.7805 73.3361,83.2371 z"
     id="path841"
     style="fill:#002a91" /><path
     fill="#002a91"
     d="m 2958.8262,840.32975 c -17.1088,8.2938 -36.7183,13.29 -56.2277,13.29 -38.8187,0 -61.7301,-22.8827 -61.7301,-60.7541 v -167.3736 c 0,-8.7934 5.0024,-14.1893 17.9089,-14.1893 5.8027,0 12.1055,1.1991 15.4073,2.0984 v 42.4679 h 76.2369 c 0.4007,2.8978 1.2009,8.7934 1.2009,13.29 0,11.6912 -5.0025,15.7881 -12.1062,15.7881 h -65.0313 v 106.1198 c 0,22.8827 10.4048,33.7745 32.1156,33.7745 19.6096,0 30.4149,-8.7933 40.0194,-8.7933 9.3049,0.1 14.3071,7.9939 12.2063,24.2816 z"
     id="path843"
     style="fill:#002a91" /></g></svg>
