<svg id="Livello_1" data-name="Livello 1" xmlns="http://www.w3.org/2000/svg" xmlns:xlink="http://www.w3.org/1999/xlink" viewBox="0 0 2529.53 499.96"><defs><linearGradient id="Sfumatura_senza_nome_9" x1="1010.69" y1="-279.55" x2="1083.01" y2="-279.55" gradientTransform="matrix(23.94, 0, 0, -23.94, -23393.3, -6441.37)" gradientUnits="userSpaceOnUse"><stop offset="0" stop-color="#00396e"/><stop offset="0.27" stop-color="#033d72"/><stop offset="0.56" stop-color="#0d4a7e"/><stop offset="0.85" stop-color="#1d6091"/><stop offset="1" stop-color="#276d9d"/></linearGradient><linearGradient id="Sfumatura_senza_nome_4" x1="1666.58" y1="424.49" x2="1657.89" y2="175.44" gradientTransform="translate(0 -198)" gradientUnits="userSpaceOnUse"><stop offset="0" stop-color="#fff"/><stop offset="0.12" stop-color="#fff" stop-opacity="0.83"/><stop offset="0.27" stop-color="#fff" stop-opacity="0.66"/><stop offset="0.42" stop-color="#fff" stop-opacity="0.51"/><stop offset="0.57" stop-color="#fff" stop-opacity="0.4"/><stop offset="0.72" stop-color="#fff" stop-opacity="0.32"/><stop offset="0.86" stop-color="#fff" stop-opacity="0.27"/><stop offset="1" stop-color="#fff" stop-opacity="0.25"/></linearGradient><linearGradient id="Sfumatura_senza_nome_4-2" x1="366.13" y1="461.74" x2="360.27" y2="293.86" xlink:href="#Sfumatura_senza_nome_4"/></defs><title>Sky Atlantic 2021</title><path d="M2529.53,466.79V33.32A33.41,33.41,0,0,0,2496.13,0H832a33.37,33.37,0,0,0-33.34,33.41V466.7A33.28,33.28,0,0,0,832,500H2496.13A33.33,33.33,0,0,0,2529.53,466.79Z" fill="url(#Sfumatura_senza_nome_9)"/><path d="M1093.34,219.89V371a84.4,84.4,0,0,1-18.22,2c-14.68,0-21.55-5.35-21.55-15.19V337.18c-21.11,24.08-48.59,38.26-83.44,38.26-52.5,0-81.5-34.35-81.5-71.66,0-56.91,60.89-81.93,164.44-75.06v-8.39c0-38.76-11.79-55-56.48-55-18.58,0-43.67,5.42-56.91,8.82-7.88,2-13.74,4-18.65,4-11.29,0-18.66-9.83-14.76-30.44,24.08-8.83,58.94-17.21,92.35-17.21,69.2,0,94.72,30.95,94.72,89.37m-40.27,82.44V257.64c-67.76-4.92-124.16,4-124.16,44.69,0,20.61,17.14,39.27,48.09,39.27,31.38,0,58.86-15.7,76.07-39.27" fill="#fff"/><path d="M1296.08,359.26c-20.61,9.83-44.18,16.2-67.76,16.2-46.64,0-74.55-27.48-74.55-73.11V99.59c0-10.27,5.86-17.14,21.55-17.14A84.08,84.08,0,0,1,1194,84.91V136h91.77a118.79,118.79,0,0,1,1.52,16.2c0,14.17-5.93,19.09-14.76,19.09H1194V299.39c0,27.47,12.8,40.71,38.76,40.71,23.58,0,36.81-10.27,48.16-10.27,11.72,0,17.65,9.76,15.19,29.43" fill="#fff"/><path d="M1332.69,371V65.74c0-9.33,5.42-15.19,21.62-15.19a88.31,88.31,0,0,1,18.66,2v305.3c0,9.83-5.43,15.18-21.62,15.18a88.44,88.44,0,0,1-18.66-1.95" fill="#fff"/><path d="M1624.32,219.89V371a84.58,84.58,0,0,1-18.23,2c-14.68,0-21.54-5.35-21.54-15.19V337.18c-21.12,24.08-48.6,38.26-83.45,38.26-52.5,0-81.5-34.35-81.5-71.66,0-56.91,60.89-81.93,164.44-75.06v-8.39c0-38.76-11.79-55-56.48-55-18.58,0-43.67,5.42-56.91,8.82-7.88,2-13.74,4-18.65,4-11.28,0-18.66-9.83-14.76-30.44,24.09-8.83,58.94-17.21,92.35-17.21,69.2,0,94.73,30.95,94.73,89.37M1584,302.33V257.64c-67.76-4.92-124.16,4-124.16,44.69,0,20.61,17.14,39.27,48.09,39.27,31.38,0,58.86-15.7,76.07-39.27" fill="#fff"/><path d="M1893.27,230.67V357.79c0,9.33-5.43,15.19-21.63,15.19a89,89,0,0,1-18.65-2V236.09c0-47.15-23.07-69.71-57.92-69.71-27,0-56.41,18.66-68.19,40.72V357.79c0,9.33-5.43,15.19-21.62,15.19a89.07,89.07,0,0,1-18.66-2V134.93a94.05,94.05,0,0,1,18.66-2c16.19,0,21.62,5.92,21.62,15.25v20.11c17.21-21.12,43.17-37.82,78-37.82,48.09,0,88.37,30.44,88.37,100.15" fill="#fff"/><path d="M2095.28,359.26c-20.61,9.83-44.18,16.2-67.75,16.2-46.65,0-74.56-27.48-74.56-73.11V99.59c0-10.27,5.86-17.14,21.55-17.14a84.27,84.27,0,0,1,18.66,2.46V136h91.76a117.2,117.2,0,0,1,1.52,16.2c0,14.17-5.93,19.09-14.75,19.09h-78.53V299.39c0,27.47,12.8,40.71,38.76,40.71,23.57,0,36.8-10.27,48.16-10.27,11.71,0,17.64,9.76,15.18,29.43" fill="#fff"/><path d="M2126.53,81.43a25.37,25.37,0,0,1,25.52-25.52c14.76,0,26,10.84,26,25.52,0,13.31-11.27,25.53-26,25.53-13.74,0-25.52-12.22-25.52-25.53M2132,371V148.18c0-9.33,5.42-15.19,21.62-15.19a87.75,87.75,0,0,1,18.15,1.95V357.81c0,9.83-4.91,15.18-21.11,15.18A88.52,88.52,0,0,1,2132,371" fill="#fff"/><path d="M2220.44,252.76c0-70.22,51.56-122.21,119.75-122.21a196,196,0,0,1,82,18.66c3.4,22-3.47,30.88-13.31,30.88-17.13,0-31.89-14.18-67.18-14.18-44.18,0-80.55,32.83-80.55,86.85,0,53.51,36.37,86.85,80.55,86.85,35.29,0,50.05-14.68,65.74-14.68,10.34,0,17.64,9.33,14.75,31.38a188.36,188.36,0,0,1-82,19.16c-68.19,0-119.75-53-119.75-122.71" fill="#fff"/><path id="p30" d="M822.63,248.05s1.1-.1,3.2-.2c98.62-3.5,1678.76-58.54,1678.76-58.54a25.12,25.12,0,0,0,24.9-25.3l-.06-130.7A33.29,33.29,0,0,0,2496.13,0H831.93a33.3,33.3,0,0,0-33.31,33.31V274A25.27,25.27,0,0,1,822.63,248.05Z" opacity="0.3" fill="url(#Sfumatura_senza_nome_4)" style="isolation:isolate"/><path d="M499.62,464.06c5.93,3,18,6.73,33.19,7.09,26.18.58,40.35-9.4,50.91-32.83L723.79,126.51c-5.79-3.11-18.66-6.51-29-6.72-18.08-.37-42.3,3.25-57.63,40.06L591.82,266.72,502.88,122.1a129.85,129.85,0,0,0-30-4.27c-31.46,0-49,11.5-67.25,31.31L319.2,243.51l69.5,109.26c12.94,20,29.79,30.16,57.27,30.16,18.07,0,33-4.27,40-7.52l-83.73-126,59.29-62.91L559,339.18ZM315.81,346.12c0,23-9,36.23-53.95,36.23a108.69,108.69,0,0,1-16.12-1.16V76.25c0-23.21,7.81-47.36,53.14-47.36a81.49,81.49,0,0,1,16.93,1.73ZM223.1,300.06c0,42.95-28,74.19-85.11,80.34-41.29,4.41-101.09-.73-129.51-4a81.94,81.94,0,0,1-1.73-15c0-37.38,20.17-46.06,39.19-46.06,19.81,0,50.91,3.47,74,3.47,25.6,0,33.27-8.61,33.27-16.85,0-10.77-10.2-15.18-30-19L69,272.65C24,264,0,233,0,200c0-40.13,28.49-73.69,84.39-79.83,42.23-4.56,93.71.58,122,4a73,73,0,0,1,1.52,14.39C207.92,176,188.1,184,169.09,184c-14.61,0-37.25-2.68-63.2-2.68-26.33,0-37.25,7.31-37.25,16.13,0,9.4,10.35,13.23,26.9,16.12l51.71,9.55c53,9.83,75.85,39.91,75.85,76.94" fill="#00396e"/><path id="s30" d="M725.29,126.7,673.88,241.19a23.85,23.85,0,0,1-21.44,13.43l-46.9,1.6a13.15,13.15,0,0,0-11.42,8.52v-.1l44.29-104.45c15.43-36.89,39.68-40.6,57.72-40.2A77,77,0,0,1,725.29,126.7ZM590.61,263.44,503.84,122.29a127.52,127.52,0,0,0-30.07-4.21c-31.56,0-49.1,11.53-67.33,31.38l-86.68,94.63L326.67,255a23.21,23.21,0,0,0,20.54,10.32c4.11-.1,46-1.6,49.4-1.7a24.74,24.74,0,0,1,21.85,9.82h0l-15.53-23.35,59.52-63.06,40,62.66h0a25.27,25.27,0,0,0,20.44,9.52c2.11-.1,54.42-1.91,56.82-2a12.91,12.91,0,0,1,10.92,6.22ZM299.52,28.86c-45.4,0-53.31,24.26-53.31,47.52V285.89a17.82,17.82,0,0,1,17.33-17.74l35.17-1.2a17.88,17.88,0,0,0,17.84-17.85h0V30.57A75.16,75.16,0,0,0,299.52,28.86Zm-152,194.68-51.8-9.62c-16.54-2.91-27-6.72-27-16.14,0-8.82,11-16.14,37.38-16.14,25.95,0,48.7,2.71,63.33,2.71,19,0,38.88-8.12,38.88-45.62a69.33,69.33,0,0,0-1.51-14.43c-28.25-3.51-79.86-8.62-122.25-4C28.46,126.5,0,160.19,0,200.28a68.89,68.89,0,0,0,27.36,54.64,104.71,104.71,0,0,0,41.58,14.84,350.89,350.89,0,0,0,57.92,3c6.11-.2,51.81-1.8,61.83-2.2,23.15-.8,35.77,18.94,34.47,38.79a2.2,2.2,0,0,1,.1-.8v-.2c.2-2.61.3-5.21.3-7.82C223.56,263.54,200.61,233.37,147.5,223.54Z" opacity="0.3" fill="url(#Sfumatura_senza_nome_4-2)" style="isolation:isolate"/></svg>