<svg id="Layer_1" data-name="Layer 1" xmlns="http://www.w3.org/2000/svg" xmlns:xlink="http://www.w3.org/1999/xlink" viewBox="0 0 4972.63017 500.02499"><defs><style>.cls-1{fill:none;}.cls-11,.cls-2{fill:#b40026;}.cls-3{fill:#fff;}.cls-4{clip-path:url(#clip-path);}.cls-5{fill:url(#Безымянный_градиент);}.cls-6{clip-path:url(#clip-path-2);}.cls-7{fill:url(#Безымянный_градиент_2);}.cls-10,.cls-8{opacity:0.3;isolation:isolate;}.cls-8{fill:url(#Безымянный_градиент_3);}.cls-9{fill:#ff0031;}.cls-10{fill:url(#Безымянный_градиент_4);}.cls-11{opacity:0.54;}</style><clipPath id="clip-path" transform="translate(0 0.02499)"><path class="cls-1" d="M831.86,0a33.29,33.29,0,0,0-33.35993,33.21994L798.5,33.29V466.65a33.33,33.33,0,0,0,33.36,33.28H2425.62988A33.36993,33.36993,0,0,0,2459,466.65V33.29A33.32,33.32,0,0,0,2425.65015,0l-.02027,0Z"/></clipPath><linearGradient id="Безымянный_градиент" x1="4462.70857" y1="3804.51625" x2="4534.28142" y2="3804.51625" gradientTransform="translate(-102726.85221 -88014.78992) scale(23.2)" gradientUnits="userSpaceOnUse"><stop offset="0" stop-color="#ff0031"/><stop offset="0.64" stop-color="#cc0029"/><stop offset="1" stop-color="#b40026"/></linearGradient><clipPath id="clip-path-2" transform="translate(0 0.02499)"><path class="cls-1" d="M831.86,0a33.29,33.29,0,0,0-33.35993,33.21994L798.5,33.29V273.66c0-3.51,1.36-23.48,24-25.62l3.15-.22,1608.44007-56.19c12.53-.43,24.83984-9.74,24.83984-25.27L2459,33.29A33.32,33.32,0,0,0,2425.65015,0l-.02027,0Z"/></clipPath><linearGradient id="Безымянный_градиент_2" x1="4462.70857" y1="3799.63974" x2="4534.28142" y2="3799.63974" gradientTransform="translate(-102726.85221 -88014.78992) scale(23.2)" gradientUnits="userSpaceOnUse"><stop offset="0" stop-color="#ff0031"/><stop offset="0.57" stop-color="#d6002a"/><stop offset="1" stop-color="#bc0026"/></linearGradient><linearGradient id="Безымянный_градиент_3" x1="4469.97358" y1="3106.33086" x2="4474.41352" y2="3106.33086" gradientTransform="matrix(-1.96, -56.03, 56.03, -1.96, -163655.84695, 256748.81166)" gradientUnits="userSpaceOnUse"><stop offset="0" stop-color="#fff"/><stop offset="0.5" stop-color="#fff" stop-opacity="0.4"/><stop offset="1" stop-color="#fff" stop-opacity="0.25"/></linearGradient><linearGradient id="Безымянный_градиент_4" x1="4419.99218" y1="3050.04303" x2="4424.43212" y2="3050.04303" gradientTransform="translate(-108726.56516 170816.8029) rotate(-92.00636) scale(37.70311)" xlink:href="#Безымянный_градиент_3"/></defs><path id="path34" class="cls-2" d="M4939.36013-.025,2413.87988,0a33.28978,33.28978,0,0,0-33.26977,33.33V466.68A33.27984,33.27984,0,0,0,2413.87988,500l2525.48025-.025a33.28,33.28,0,0,0,33.27-33.27V33.305a33.29,33.29,0,0,0-33.27-33.33m0,10A23.35984,23.35984,0,0,1,4962.68,33.295v433.36a23.35986,23.35986,0,0,1-23.31982,23.32L2413.87988,490a23.33979,23.33979,0,0,1-23.25976-23.32V33.33A23.33988,23.33988,0,0,1,2413.87988,10l2525.48025-.025" transform="translate(0 0.02499)"/><path id="path36" class="cls-3" d="M4939.36013,9.975A23.35984,23.35984,0,0,1,4962.68,33.295v433.36a23.35986,23.35986,0,0,1-23.31982,23.32L2413.87988,490a23.33979,23.33979,0,0,1-23.25976-23.32V33.33A23.33988,23.33988,0,0,1,2413.87988,10l2525.48025-.025" transform="translate(0 0.02499)"/><path id="path38" class="cls-2" d="M2721.72,225V350.3a68.72893,68.72893,0,0,1-15.07007,1.65c-12.23,0-17.91992-4.5-17.91992-12.63V322.23c-17.46,19.9-40.27,31.73-69.15991,31.73-43.52,0-67.52-28.49-67.52-59.43,0-47.15,50.45-67.91,136.28-62.23v-6.94c0-32.13-9.78-45.55-46.81006-45.55-15.40991,0-36.16992,4.49-47.1499,7.33-6.54,1.65-11.43018,3.25-15.47022,3.25-9.38989,0-15.47-8.14-12.23-25.2,20-7.34,48.86011-14.28,76.5-14.28,57.39014,0,78.55005,25.66,78.55005,74.06m-33.38989,68.36v-37c-56.14014-4-102.9502,3.24-102.9502,37,0,17.07,14.28,32.54,39.87012,32.54,26.05,0,48.86011-13,63.08008-32.54" transform="translate(0 0.02499)"/><path id="path40" class="cls-2" d="M2944.63989,233.96V339.35c0,7.74-4.49,12.57-17.91992,12.57a76.8398,76.8398,0,0,1-15.47-1.59V238.45c0-39.07-19.11011-57.78-48-57.78-22.3501,0-46.76,15.47-56.54,33.78v124.9c0,7.74-4.49,12.57-17.90991,12.57a76.86239,76.86239,0,0,1-15.48-1.59V154.62a76.29222,76.29222,0,0,1,15.48-1.65c13.41992,0,17.90991,4.89,17.90991,12.62v16.73c14.22-17.52,35.78-31.34,64.66992-31.34,39.87012,0,73.26,25.19,73.26,83" transform="translate(0 0.02499)"/><path id="path2275" class="cls-2" d="M2991.29,110.33a21.00013,21.00013,0,0,1,20.83887-21.16q.16039-.00122.321,0c12.19995,0,21.56006,8.91,21.56006,21.16A21.65,21.65,0,0,1,3012.45,131.49c-11.3999,0-21.15991-10.21-21.15991-21.16m4.48,240V165.64c0-7.71,4.48-12.59,17.92993-12.59a71.5912,71.5912,0,0,1,15,1.59V339.35c0,8.16-4.07983,12.65-17.47,12.65a76.26984,76.26984,0,0,1-15.49-1.65" transform="translate(0 0.02499)"/><path id="path2770" class="cls-2" d="M3353.05005,221.77V339.39c0,8.09-4.48,12.57-17.91016,12.57A74.86085,74.86085,0,0,1,3319.7,350.35V225.85c0-28.47-13.42993-45.17-39.08984-45.17-21.53,0-39.44019,15-46.79,30.53V339.39c0,8.09-4.47,12.57-17.90015,12.57a74.998,74.998,0,0,1-15.44995-1.61V225.85c0-28.47-13.42993-45.17-39.09009-45.17-21.51977,0-39.42993,15-46.77978,30.53V339.39c0,8.09-4.48,12.57-17.91016,12.57a75.35034,75.35034,0,0,1-15.43994-1.61V154.61a77.17011,77.17011,0,0,1,15.84009-1.61C3109.72,153,3114.2,157.88,3114.2,166.44v13.43c12.63013-16.71,32.14014-28.87,55.74-28.87,26.06006,0,46.38013,13,56.54,35.36,13.44995-20.32,33.83008-35.32,62.69995-35.32,41.90015,0,63.89014,31.28,63.89014,70.77" transform="translate(0 0.02499)"/><path id="path2772" class="cls-2" d="M3560.72,225.04v125.3a67.00062,67.00062,0,0,1-15,1.67c-12.23,0-17.90991-4.48-17.90991-12.63v-17.1c-17.51,20-40.29,31.74-69.17017,31.74-43.58984.02-67.58984-28.49-67.58984-59.43,0-47.19,50.46-68,136.32983-62.23v-6.94c0-32.15-9.75976-45.58-46.77978-45.58-15.5,0-36.22022,4.48-47.19019,7.35-6.53979,1.61-11.41992,3.27-15.5,3.27-9.34985,0-15.43994-8.15-12.16992-25.26,19.91992-7.34,48.8-14.23,76.46-14.23,57.41016,0,78.53,25.66,78.53,74m-33.3501,68.36v-37c-56.13989-4.08-102.91992,3.27-102.91992,37,0,17.11,14.23,32.55,39.83008,32.55,26.07007,0,48.84985-13,63.08984-32.55" transform="translate(0 0.02499)"/><path id="path42" class="cls-2" d="M3729.03,340.53c-17.06006,8.13-36.63013,13.42-56.14014,13.42-38.66992,0-61.81982-22.8-61.81982-60.63v-168c0-8.52,4.82983-14.27,17.85986-14.27a72.10764,72.10764,0,0,1,15.47,2V155.4H3720.5a103.22309,103.22309,0,0,1,1.18994,13.42c0,11.83-4.88989,15.87-12.16992,15.87H3644.3999V290.88c0,22.8,10.58008,33.78,32.13013,33.78,19.57007,0,30.55005-8.53,39.87988-8.53,9.78,0,14.67017,8.13,12.62012,24.4" transform="translate(0 0.02499)"/><path id="path44" class="cls-2" d="M3754.91992,110.22a21.00019,21.00019,0,0,1,21.16016-21.11c12.23,0,21.55981,8.93,21.55981,21.11a21.56967,21.56967,0,0,1-21.55981,21.15c-11.37012,0-21.16016-10.12-21.16016-21.15m4.5,240.07V165.56c0-7.74,4.49-12.57,17.91016-12.57a72.08027,72.08027,0,0,1,15,1.59V339.32c0,8.13-4,12.63-17.46,12.63a75.58259,75.58259,0,0,1-15.47022-1.66" transform="translate(0 0.02499)"/><path id="path46" class="cls-2" d="M3832.77,252.24c0-58.19,42.71-101.3,100.1001-101.3,57.78979,0,100.5,43.11,100.5,101.3,0,57.79-42.71021,101.7-100.5,101.7-57.39014,0-100.1001-43.91-100.1001-101.7m166.82007,0c0-44.76-30.09009-72-66.72-72-36.23023,0-66.32007,27.25-66.32007,72,0,44.36,30.08984,72.4,66.32007,72.4,36.62988,0,66.72-28,66.72-72.4" transform="translate(0 0.02499)"/><path id="path48" class="cls-2" d="M4246.75977,233.93V339.32c0,7.74-4.48975,12.57-17.91993,12.57a76.83549,76.83549,0,0,1-15.46972-1.59V238.42c0-39.07-19.11035-57.78-48-57.78-22.3501,0-46.76026,15.47-56.54,33.78v124.9c0,7.74-4.49024,12.57-17.91016,12.57a76.86239,76.86239,0,0,1-15.48-1.59V154.59a76.29157,76.29157,0,0,1,15.48-1.65c13.41992,0,17.91016,4.89,17.91016,12.62v16.73c14.21972-17.52,35.77978-31.34,64.66992-31.34,39.87012,0,73.25977,25.19,73.25977,83" transform="translate(0 0.02499)"/><g class="cls-4"><g id="g52"><rect id="rect50" class="cls-5" x="798.5" y="0.02499" width="1660.48999" height="499.92999"/></g></g><g class="cls-6"><g id="g56"><rect id="rect54" class="cls-7" x="798.5" y="0.02499" width="1660.48999" height="273.66"/></g></g><path id="path15555" class="cls-8" d="M831.9,0a33.47,33.47,0,0,0-33.4,33.4h0V273.8c0-3.6,1.4-23.4,24-25.6h0a22.82048,22.82048,0,0,1,3.2-.2h0c98.6-3.4,1608.46991-56.31,1608.46991-56.31h0c12.6001-.4,24.80005-9.8,24.80005-25.4h0l.15991-132.83A33.47,33.47,0,0,0,2425.73.06h0Z" transform="translate(0 0.02499)"/><path id="path59" class="cls-9" d="M499.5,464c5.94,3,18,6.66,33.21,7.09,26.13.57,40.38-9.38,51-32.78l140-311.81c-5.72-3.08-18.61-6.59-29-6.73-18-.43-42.3,3.22-57.62,40.08L591.7,266.63,502.79,122a131.26027,131.26027,0,0,0-30-4.23c-31.5,0-49,11.53-67.22,31.29L319.1,243.4l69.58,109.31c12.81,19.9,29.78,30.06,57.27,30.06,18,0,33-4.22,39.94-7.44l-83.75-126,59.34-62.92L558.83,339.1ZM315.75,346c0,23-9,36.22-54,36.22a101.69865,101.69865,0,0,1-16.11-1.15V76.23c0-23.27,7.87-47.39,53.19-47.39a81.1706,81.1706,0,0,1,16.89,1.72Zm-92.7-46c0,42.95-28.06,74.23-85.11,80.39-41.3,4.36-101.07-.79-129.49-4.08a81.27933,81.27933,0,0,1-1.72-15c0-37.37,20.19-46,39.23-46,19.75,0,50.89,3.51,73.94,3.51,25.56,0,33.21-8.66,33.21-16.9,0-10.73-10.16-15.17-30-19L69,272.57c-45-8.66-69-39.72-69-72.65,0-40.09,28.42-73.66,84.32-79.81,42.31-4.59,93.78.57,122.05,4a74.44851,74.44851,0,0,1,1.51,14.39c0,37.44-19.76,45.46-38.8,45.46-14.6,0-37.3-2.65-63.21-2.65-26.34,0-37.29,7.3-37.29,16.1,0,9.38,10.38,13.25,26.91,16.11l51.68,9.59c53.05,9.74,75.88,39.87,75.88,76.88" transform="translate(0 0.02499)"/><path id="path15297-4" class="cls-10" d="M245.8,76.24v209a17.62,17.62,0,0,1,17.2-17.6h0c7.6-.2,28.8-1,35.2-1.2h0c7-.2,17.6-5,17.8-17.8h0v-218a78.92067,78.92067,0,0,0-17-1.8h0c-45.4.2-53.2,24.2-53.2,47.4m160,72.8-86.4,94.4,7,10.8c3,4,8.8,10.8,20.4,10.4h0c4.2-.2,45.8-1.6,49.2-1.8h0c10.8-.4,17.6,4.2,21.8,9.8h0l-15.4-23.2,59.4-63L501.6,249h0c7.2,9.4,18,9.6,20.4,9.6h0c2,0,54.4-1.8,56.6-2h0c3.6-.2,7.8,1.8,11,6.4h0L503,122.24c-5.8-1.8-19.8-4.2-30-4.2h0c-31.6-.2-49,11.2-67.2,31M84.4,120C28.4,126.2,0,159.6,0,199.8H0c0,20.6,9.4,40.4,27.4,54.6h0c13.6,9,27.6,12.4,41.4,14.8h0c11.4,2,38,3.8,57.8,3h0c6.2-.2,51.8-1.8,61.6-2.2h0c23.2-.8,35.6,19,34.4,38.8h0V308h0v-.2h0c.2-2.6.4-5.2.4-7.8h0c0-37-22.8-67.2-75.8-77h0l-51.6-9.6c-16.6-2.8-26.8-6.8-26.8-16.2h0c0-8.8,11-16.2,37.2-16.2h0c26,0,48.6,2.6,63.2,2.6h0c19,0,38.8-8,38.8-45.4h0a69.05883,69.05883,0,0,0-1.6-14.4h0c-20.2-2.4-52.6-5.8-84.8-5.8h0c-12.6.2-25.2.8-37.2,2M637,159.84,592.8,264h0c0-.2,2.8-8.2,11.4-8.6h0s43.6-1.6,46.8-1.6h0c14.2-.6,19.8-10.2,21.4-13.4h0l51.2-114.2c-5.8-3-18.6-6.6-29-6.8h-2.2c-17.8.2-40.6,5-55.4,40.4" transform="translate(0 0.02499)"/><path id="path62" class="cls-3" d="M892.45,252.69c0-70.15,51.54-122.19,119.75-122.19A196.18985,196.18985,0,0,1,1094.2,149.11c3.43005,22.12-3.43994,30.92-13.24,30.92-17.18994,0-31.92993-14.24-67.22-14.24-44.24,0-80.53,32.93-80.53,86.9,0,53.47,36.29,86.9,80.53,86.9,35.29,0,50-14.75,65.71-14.75,10.31006,0,17.68005,9.31,14.75,31.43A188.69989,188.69989,0,0,1,1012.2,375.38c-68.21,0-119.75-53-119.75-122.69" transform="translate(0 0.02499)"/><path id="path64" class="cls-3" d="M1134.68005,81.42a25.32,25.32,0,0,1,25.08838-25.54946q.19593-.00178.3916-.00054c14.75,0,26.05994,10.81,26.05994,25.55,0,13.24-11.30994,25.48-26.05994,25.48-13.74,0-25.48-12.24-25.48-25.48m5.37,289.58V148.14c0-9.31,5.37-15.18,21.62-15.18a83.321,83.321,0,0,1,18.11,1.93V357.73c0,9.8-4.87,15.17-21,15.17a89.819,89.819,0,0,1-18.68-1.93" transform="translate(0 0.02499)"/><path id="path66" class="cls-3" d="M1449.78,230.61V357.74c0,9.3-5.37,15.17-21.62,15.17a89.08,89.08,0,0,1-18.61-1.93V236c0-47.11-23-69.65-57.91-69.65-27,0-56.48,18.61-68.22,40.73V357.74c0,9.3-5.44006,15.17-21.62,15.17a88.528,88.528,0,0,1-18.61011-1.93V134.9a88.5312,88.5312,0,0,1,18.61011-1.9c16.17993,0,21.62,5.87,21.62,15.17v20.12c17.17994-21.12,43.16993-37.8,78-37.8,48.1,0,88.33,30.42,88.33,100.15" transform="translate(0 0.02499)"/><path id="path68" class="cls-3" d="M1721.64,267.43H1539.11c5.36,45.59,36.79,71.15,83.39,71.15,20.18,0,35.86-3.94,50.61-8.8,10.3-3.44,14.67-4.94,18.61-4.94,11.31006,0,18.68,9.3,16.68,30.92-21.12,9.31-53.48,19.61-87.33007,19.61-73.59,0-123.2-49.53-123.2-123.19,0-70.65,52.55-121.69,116.83-121.69C1687.28,130.49,1723.14,186.9,1723.14,243.88a205.43052,205.43052,0,0,1-1.5,23.55M1539.11,236h144.8c-1.5-40.23-27.48-71.65-69.21008-71.65-36.37,0-69.22,25.05-75.59,71.65" transform="translate(0 0.02499)"/><path id="path70" class="cls-3" d="M2101.3501,215.88v141.8c0,9.88-5.37012,15.25-21.62012,15.25a94.00218,94.00218,0,0,1-18.60986-1.93V220.82c0-34.36-16.18018-54.47-47.1001-54.47-26.06006,0-47.6,18.11-56.48,36.79V357.68c0,9.88-5.37,15.25-21.62,15.25a94.09824,94.09824,0,0,1-18.61-1.93V220.82c0-34.36-16.18006-54.47-47.1001-54.47-26.05994,0-47.6,18.11-56.48,36.79V357.68c0,9.88-5.37,15.25-21.54,15.25A94.91862,94.91862,0,0,1,1773.5,371V134.92a90.34,90.34,0,0,1,19.11-2c15.25,0,20.62,5.94,20.62,16.25v16.17c15.25-20.11,38.8-34.86,67.29-34.86,31.41992,0,55.9,15.68,68.21,42.67,16.18-24.48,40.73-42.67,75.59-42.67,50.54016,0,77.00012,37.8,77.00012,85.4" transform="translate(0 0.02499)"/><path id="path72" class="cls-3" d="M2351.83008,219.8V371a84.38223,84.38223,0,0,1-18.11011,1.93c-14.75,0-21.61987-5.37-21.61987-15.17V337.12c-21.12012,24.05-48.61011,38.3-83.47022,38.3-52.47,0-81.46-34.36-81.46-71.66,0-57,60.8501-82,164.43018-75.09V220.3c0-38.8-11.81006-55-56.41016-55-18.67993,0-43.74,5.44-57,8.88-7.86987,1.93-13.74,3.86-18.60986,3.86-11.31006,0-18.68018-9.8-14.75-30.42,24.05981-8.8,58.91992-17.18,92.27-17.18,69.22,0,94.71,30.93,94.71,89.34m-40.23,82.46V257.59c-67.72-4.87-124.2002,3.94-124.2002,44.67,0,20.61,17.18018,39.3,48.11011,39.3,31.41992,0,58.90991-15.75,76.09009-39.3" transform="translate(0 0.02499)"/><path class="cls-2" d="M4642.90017,153.735v184.69c0,8.17-4.06006,12.63-16.68995,12.63a78,78,0,0,1-15.06005-1.62v-85H4505.74025v74c0,8.17-4.05,12.63-16.67993,12.63a64.35075,64.35075,0,0,1-15-1.62v-184.7c0-7.76,4.05005-12.62,17.08008-12.62a66.91946,66.91946,0,0,1,14.6001,1.61v82.24h105v-71.2c0-7.76,4.46-12.62,17.49-12.62a67.15159,67.15159,0,0,1,14.65991,1.61" transform="translate(0 0.02499)"/><path class="cls-2" d="M4859.03005,251.385c0,55.33-38.64014,97.21-99.29981,97.21h-56.54c-12.22,0-16.67993-4.86-16.67993-12.57V167.155c0-7.7,4.46-12.57,16.67993-12.57h56.54c60.66016,0,99.29981,41.48,99.29981,96.8m-32.1499,0c0-41.47-26-68.36-67.14991-68.36h-41.47v137.13h41.47c41.14014,0,67.14991-26.88,67.14991-68.77" transform="translate(0 0.02499)"/><path class="cls-2" d="M4360.24025,436.565a6.67014,6.67014,0,0,1-6.66992-6.66V70.035a6.67,6.67,0,1,1,13.33008-.5144q.00988.2571,0,.5144v359.87a6.66,6.66,0,0,1-6.65991,6.66" transform="translate(0 0.02499)"/><path class="cls-11" d="M4246.36013,233.905v105.38c0,7.7-4.46,12.57-17.89991,12.57a75.34089,75.34089,0,0,1-15.47-1.62V238.365c0-39-19.12011-57.76-48-57.76-22.3601,0-46.74,15.47-56.54,33.78v124.9c0,7.7-4.46,12.57-17.8999,12.57a75.79993,75.79993,0,0,1-15.46-1.62V154.595a75.2505,75.2505,0,0,1,15.46-1.68c13.43994,0,17.8999,4.92,17.8999,12.63v16.68c14.26-17.49,35.81006-31.34,64.71-31.34,39.8601,0,73.23,25.26,73.23,83" transform="translate(0 0.02499)"/></svg>