<?xml version="1.0" encoding="utf-8"?>
<!-- Generator: Adobe Illustrator 23.0.1, SVG Export Plug-In . SVG Version: 6.00 Build 0)  -->
<!DOCTYPE svg PUBLIC "-//W3C//DTD SVG 1.1//EN" "http://www.w3.org/Graphics/SVG/1.1/DTD/svg11.dtd" [
	<!ENTITY ns_extend "http://ns.adobe.com/Extensibility/1.0/">
	<!ENTITY ns_ai "http://ns.adobe.com/AdobeIllustrator/10.0/">
	<!ENTITY ns_graphs "http://ns.adobe.com/Graphs/1.0/">
	<!ENTITY ns_vars "http://ns.adobe.com/Variables/1.0/">
	<!ENTITY ns_imrep "http://ns.adobe.com/ImageReplacement/1.0/">
	<!ENTITY ns_sfw "http://ns.adobe.com/SaveForWeb/1.0/">
	<!ENTITY ns_custom "http://ns.adobe.com/GenericCustomNamespace/1.0/">
	<!ENTITY ns_adobe_xpath "http://ns.adobe.com/XPath/1.0/">
]>
<svg version="1.1"
	 id="svg1628510" xmlns:x="&ns_extend;" xmlns:i="&ns_ai;" xmlns:graph="&ns_graphs;" xmlns:cc="http://creativecommons.org/ns#" xmlns:dc="http://purl.org/dc/elements/1.1/" xmlns:inkscape="http://www.inkscape.org/namespaces/inkscape" xmlns:rdf="http://www.w3.org/1999/02/22-rdf-syntax-ns#" xmlns:sodipodi="http://sodipodi.sourceforge.net/DTD/sodipodi-0.dtd" xmlns:svg="http://www.w3.org/2000/svg"
	 xmlns="http://www.w3.org/2000/svg" xmlns:xlink="http://www.w3.org/1999/xlink" x="0px" y="0px" viewBox="0 0 2065.5 250"
	 style="enable-background:new 0 0 2065.5 250;" xml:space="preserve">
<style type="text/css">
	.st0{fill:#E90000;}
	.st1{opacity:0.3;fill:url(#path15297_1_);enable-background:new    ;}
	.st2{fill:#E90100;}
	.st3{fill:#D5D5D5;}
	.st4{opacity:0.3;fill:url(#path15221_1_);enable-background:new    ;}
</style>
<metadata  id="metadata1628507">
	<rdf:RDF>
		<cc:Work  rdf:about="">
			<dc:format>image/svg+xml</dc:format>
			<dc:type  rdf:resource="http://purl.org/dc/dcmitype/StillImage"></dc:type>
			<dc:title></dc:title>
		</cc:Work>
	</rdf:RDF>
	<sfw  xmlns="&ns_sfw;">
		<slices></slices>
		<sliceSourceBounds  bottomLeftOrigin="true" height="250" width="2065.5" x="1.4" y="0"></sliceSourceBounds>
	</sfw>
</metadata>
<g>
	<g>
		<path id="path15241" class="st0" d="M111.3,150.1c0,21.4-14,37-42.5,40.2c-20.6,2.1-50.5-0.3-64.7-2.1c-0.5-2.4-0.8-5.3-0.8-7.4
			c0-18.8,10-23,19.6-23c9.8,0,25.4,1.8,37,1.8c12.7,0,16.6-4.2,16.6-8.5c0-5.3-5-7.7-15.1-9.5l-27-5.3C11.9,132.1,0,116.5,0,100.2
			c0-20.1,14.3-36.7,42-39.9c21.1-2.4,46.8,0.3,61,2.1c0.5,2.4,0.8,4.8,0.8,7.1c0,18.8-9.8,22.7-19.3,22.7c-7.4,0-18.5-1.3-31.4-1.3
			c-13.2,0-18.5,3.7-18.5,7.9c0,4.8,5.3,6.6,13.5,7.9l25.9,4.8C99.9,116.5,111.3,131.6,111.3,150.1 M157.5,173.1
			c0,11.4-4.5,18.2-27,18.2c-2.9,0-5.5-0.3-7.9-0.5V38.6c0-11.6,4-23.8,26.7-23.8c2.9,0,5.8,0.3,8.5,0.8L157.5,173.1z M249.2,232
			c2.9,1.6,9,3.4,16.6,3.4c12.9,0.3,20.1-4.8,25.4-16.4l70-155.7c-2.9-1.6-9.2-3.2-14.5-3.4c-9-0.3-21.1,1.6-28.8,20.1l-22.7,53.4
			l-44.4-72.1c-2.9-0.8-9.8-2.1-15.1-2.1c-15.9,0-24.6,5.8-33.6,15.6l-43.1,47l34.6,54.7c6.3,10,14.8,15.1,28.5,15.1
			c9,0,16.4-2.1,19.8-3.7L200.3,125l29.6-31.4l48.6,76.1L249.2,232z"/>
		
			<linearGradient id="path15297_1_" gradientUnits="userSpaceOnUse" x1="101.9386" y1="103.3488" x2="104.1581" y2="103.3488" gradientTransform="matrix(-3.4812 -99.6908 99.6908 -3.4812 -9765.7002 10653.6699)">
			<stop  offset="0" style="stop-color:#FFFFFF"/>
			<stop  offset="0.4" style="stop-color:#FFFFFF;stop-opacity:0"/>
			<stop  offset="1" style="stop-color:#FFFFFF;stop-opacity:0"/>
		</linearGradient>
		<path id="path15297" class="st1" d="M122.4,38.3v104.4c0-4.2,3.2-8.7,8.7-8.7l0,0c3.7-0.3,14.3-0.5,17.4-0.5l0,0
			c3.4,0,8.7-2.4,9-9l0,0V15.3c-2.6-0.5-5.5-0.8-8.5-0.8l0,0C126.3,14.5,122.4,26.7,122.4,38.3 M202.4,74.5l-43.1,47l3.4,5.5
			c1.6,2.1,4.5,5.3,10.3,5l0,0c2.1,0,23-0.8,24.6-0.8l0,0c5.3-0.3,8.7,2.1,10.8,4.8l0,0l0,0l-7.7-11.6L230.4,93l19.8,31.2l0,0
			c3.7,4.8,9,4.8,10.3,4.8l0,0c1.1,0,27.2-1.1,28.3-1.1l0,0c1.8,0,4,1.1,5.5,3.2l0,0l-43.3-70.3c-2.9-0.8-9.8-2.1-15.1-2.1l0,0
			C220.1,58.9,211.4,64.7,202.4,74.5 M42,60.3C14,63.4,0,80.1,0,100.2l0,0c0,10.3,4.8,20.1,13.7,27.2l0,0c6.9,4.5,13.7,6.1,20.6,7.4
			l0,0c5.8,1.1,19,1.8,28.8,1.6l0,0c3.2,0,25.9-0.8,30.7-1.1l0,0c11.6-0.3,17.7,9.5,17.2,19.3l0,0c0-0.3,0-0.3,0-0.3l0,0l0,0l0,0
			c0-1.3,0.3-2.6,0.3-4l0,0c0-18.5-11.4-33.6-37.8-38.3l0,0l-25.9-4.8c-8.2-1.3-13.5-3.4-13.5-7.9l0,0c0-4.5,5.5-7.9,18.5-7.9l0,0
			c12.9,0,24.3,1.3,31.4,1.3l0,0c9.5,0,19.3-4,19.3-22.7l0,0c0-2.4-0.3-4.8-0.8-7.1l0,0c-10-1.3-26.2-2.9-42.3-2.9l0,0
			C54.2,59.2,47.8,59.5,42,60.3 M317.9,80.1l-22.2,52.1l0,0c0,0,1.3-4,5.8-4.2l0,0c0,0,21.7-0.8,23.5-0.8l0,0c7.1-0.3,10-5,10.6-6.6
			l0,0l25.6-57.1c-2.9-1.6-9.2-3.2-14.5-3.4l0,0c-0.3,0-0.8,0-1.1,0l0,0C336.7,60,325.3,62.4,317.9,80.1"/>
	</g>
	<g>
		<path id="path15113" class="st2" d="M2048.9,0.3H415.2c-9.2,0-16.6,7.4-16.6,16.6v216.4c0,9.2,7.4,16.6,16.6,16.6h1633.7
			c9.2,0,16.6-7.4,16.6-16.6V16.9C2065.5,7.7,2058.1,0.3,2048.9,0.3"/>
		<g>
			<path id="path15117" class="st3" d="M543.1,147.7v-42.3c-6.6-13.2-21.1-22.2-37-22.2c-23,0-39.9,17.7-39.9,43.3
				c0,25.9,16.9,43.6,39.9,43.6C521.9,169.9,536.5,160.9,543.1,147.7 M562.9,26.4V185c-1.6,0.8-5.5,1.6-9,1.6
				c-8.2,0-10.8-3.2-10.8-9.2v-9.8c-8.7,11.9-23,20.3-40.7,20.3c-29.9,0-56.6-22.7-56.6-61.3c0-38.3,26.7-61,56.6-61
				c17.7,0,32,8.5,40.7,20.3V33.3c0-4.8,2.9-7.7,11.1-7.7C557.6,25.4,561.3,25.9,562.9,26.4"/>
			<path id="path15121" class="st3" d="M688.4,126.3c0-27-18.2-43.3-40.2-43.3c-21.9,0-39.9,16.4-39.9,43.3
				c0,26.7,18.2,43.6,39.9,43.6C670.2,169.9,688.4,153,688.4,126.3 M587.7,126.3c0-35.1,25.6-61,60.3-61c34.9,0,60.5,25.9,60.5,61
				c0,34.9-25.6,61.3-60.5,61.3C613.6,187.6,587.7,161.2,587.7,126.3"/>
			<path id="path15125" class="st3" d="M726.7,126.3c0-35.1,25.6-61,59.7-61c15.9,0,30.7,4.5,41,9.2c1.6,11.1-1.6,15.3-6.6,15.3
				c-8.5,0-15.9-7.1-33.6-7.1c-21.9,0-40.2,16.4-40.2,43.3c0,26.7,18.2,43.3,40.2,43.3c17.7,0,25.1-7.4,32.8-7.4
				c5,0,8.7,4.8,7.4,15.6c-10.3,5-25.1,9.5-41,9.5C752.4,187.6,726.7,161.2,726.7,126.3"/>
			<path id="path15129" class="st3" d="M951.6,67.7v117.9c-1.8,0.5-5.8,1.1-9.2,1.1c-8.2,0-10.8-2.9-10.8-7.7v-10
				c-8.5,10.6-21.7,18.8-38.8,18.8c-24,0-44.1-15.3-44.1-49.9V74.3c0-4.8,2.6-7.7,10.8-7.7c3.4,0,7.4,0.5,9.2,1.1V135
				c0,23.5,11.6,34.9,28.8,34.9c13.5,0,28.3-9.2,34.1-20.3V74.3c0-4.8,2.6-7.7,10.8-7.7C945.6,66.6,949.5,67.1,951.6,67.7"/>
			<path id="path15133" class="st3" d="M1146.9,108.1v70.8c0,5-2.6,7.7-10.8,7.7c-3.4,0-7.4-0.5-9.2-1.1v-75.1
				c0-17.2-8.2-27.2-23.5-27.2c-12.9,0-23.8,9-28.3,18.5v77.2c0,5-2.6,7.7-10.8,7.7c-3.4,0-7.4-0.5-9.2-1.1v-75.1
				c0-17.2-8.2-27.2-23.5-27.2c-12.9,0-23.8,9-28.3,18.5v77.2c0,5-2.6,7.7-10.8,7.7c-3.4,0-7.4-0.5-9.2-1.1V67.7
				c1.8-0.5,5.8-1.1,9.5-1.1c7.7,0,10.3,2.9,10.3,8.2V83c7.7-10,19.3-17.4,33.6-17.4c15.6,0,28,7.9,34.1,21.4
				c8.2-12.2,20.3-21.4,37.8-21.4C1133.7,65.3,1146.9,84.3,1146.9,108.1"/>
			<path id="path15137" class="st3" d="M1191.9,118.1h72.4c-0.8-20.1-13.7-35.7-34.6-35.7C1211.7,82.2,1195,94.9,1191.9,118.1
				 M1283,133.7h-91.2c2.6,22.7,18.5,35.4,41.8,35.4c10,0,18-1.8,25.4-4.5c5-1.6,7.4-2.4,9.2-2.4c5.5,0,9.2,4.8,8.5,15.3
				c-10.6,4.8-26.7,9.8-43.6,9.8c-36.7,0-61.6-24.8-61.6-61.6c0-35.4,26.2-60.8,58.4-60.8c36.2,0,54.2,28.3,54.2,56.6
				C1283.8,125.5,1283.6,129.5,1283,133.7"/>
			<path id="path15141" class="st3" d="M1412.3,115.5v63.4c0,4.8-2.6,7.7-10.8,7.7c-3.4,0-7.4-0.5-9.2-1.1v-67.4
				c0-23.5-11.6-34.9-28.8-34.9c-13.5,0-28.3,9.2-34.1,20.3v75.3c0,4.8-2.6,7.7-10.8,7.7c-3.4,0-7.4-0.5-9.2-1.1V67.7
				c1.8-0.5,5.8-1.1,9.2-1.1c8.2,0,10.8,2.9,10.8,7.7v10c8.5-10.6,21.7-18.8,38.8-18.8C1392.2,65.3,1412.3,80.6,1412.3,115.5"/>
			<path id="path15145" class="st3" d="M1513.2,179.7c-10.3,5-21.9,8.2-33.8,8.2c-23.3,0-37.3-13.7-37.3-36.5V50.2
				c0-5,2.9-8.5,10.8-8.5c3.4,0,7.4,0.8,9.2,1.3v25.4h45.7c0.3,1.6,0.8,5,0.8,8.2c0,7.1-2.9,9.5-7.4,9.5h-39.1v64
				c0,13.7,6.3,20.3,19.3,20.3c11.9,0,18.5-5,24-5C1511.4,164.9,1514.3,169.7,1513.2,179.7"/>
			<path id="path15149" class="st3" d="M1607.8,151.2V129c-33.8-2.4-62.1,1.8-62.1,22.2c0,10.3,8.5,19.6,24,19.6
				C1585.4,170.7,1599.1,162.8,1607.8,151.2 M1627.9,109.9v75.6c-1.8,0.5-5.5,1.1-9,1.1c-7.4,0-10.8-2.6-10.8-7.7v-10.3
				c-10.6,11.9-24.3,19-41.8,19c-26.2,0-40.7-17.2-40.7-35.7c0-28.5,30.4-41,82.2-37.5v-4.2c0-19.3-5.8-27.5-28.3-27.5
				c-9.2,0-21.9,2.6-28.5,4.5c-4,1.1-6.9,1.8-9.2,1.8c-5.5,0-9.2-5-7.4-15.1c11.9-4.5,29.3-8.5,46-8.5
				C1615.2,65.3,1627.9,80.9,1627.9,109.9"/>
			<path id="path15153" class="st3" d="M1730.7,76.4c0,8.2-3.4,9.8-11.9,9.8c-16.9,0-31.2,7.9-39.9,26.2v66.3c0,5-2.6,7.7-10.8,7.7
				c-3.4,0-7.4-0.5-9.2-1.1V67.4c1.8-0.5,5.8-1.1,9.2-1.1c8.2,0,10.8,2.9,10.8,7.7v16.4c11.6-17.4,28.8-26.2,50.7-23.3
				C1730.2,69,1730.7,72.7,1730.7,76.4"/>
			<path id="path15157" class="st3" d="M1748.2,185.5V74.3c0-4.8,2.6-7.7,10.8-7.7c3.4,0,7.1,0.5,9,1.1v111.3c0,5-2.4,7.7-10.6,7.7
				C1754.2,186.6,1750.3,186,1748.2,185.5 M1745.5,41c0-7.4,5.8-12.7,12.7-12.7c7.4,0,12.9,5.3,12.9,12.7c0,6.6-5.5,12.7-12.9,12.7
				C1751.3,53.6,1745.5,47.6,1745.5,41"/>
			<path id="path15161" class="st3" d="M1813.2,118.1h72.4c-0.8-20.1-13.7-35.7-34.6-35.7C1832.7,82.2,1816.3,94.9,1813.2,118.1
				 M1904.3,133.7h-91.2c2.6,22.7,18.5,35.4,41.8,35.4c10,0,18-1.8,25.4-4.5c5-1.6,7.4-2.4,9.2-2.4c5.5,0,9.2,4.8,8.5,15.3
				c-10.6,4.8-26.7,9.8-43.6,9.8c-36.7,0-61.6-24.8-61.6-61.6c0-35.4,26.2-60.8,58.4-60.8c36.2,0,54.2,28.3,54.2,56.6
				C1905.1,125.5,1904.9,129.5,1904.3,133.7"/>
			<path id="path15165" class="st3" d="M1923.4,179.7c-1.6-10.3,1.6-15.6,7.7-15.6c5.5,0,19.3,6.1,38.6,6.1
				c20.1,0,27.7-7.1,27.7-16.4c0-6.6-2.9-12.4-21.1-17.4l-20.9-5.5c-23-6.1-32.2-17.7-32.2-32c0-17.7,14-33.3,45.7-33.3
				c14.3,0,32,3.2,42.5,7.4c1.8,10-1.3,15.3-7.4,15.3c-5.3,0-17.7-5-35.1-5c-18.5,0-25.4,6.3-25.4,14.8c0,5.8,2.6,11.4,19.3,15.9
				l21.4,5.8c23.8,6.6,33.3,17.7,33.3,33.3c0,18.5-14.3,34.9-48.6,34.9C1953.8,187.6,1935,183.9,1923.4,179.7"/>
		</g>
		
			<linearGradient id="path15221_1_" gradientUnits="userSpaceOnUse" x1="104.8713" y1="107.5" x2="107.091" y2="107.5" gradientTransform="matrix(-5.1764 -148.2323 148.2323 -5.1764 -14159.3809 16201.1533)">
			<stop  offset="0" style="stop-color:#FFFFFF"/>
			<stop  offset="0.4" style="stop-color:#FFFFFF;stop-opacity:0"/>
			<stop  offset="1" style="stop-color:#FFFFFF;stop-opacity:0"/>
		</linearGradient>
		<path id="path15221" class="st4" d="M415.2,0.3c-9.2,0-16.6,7.4-16.6,16.6l0,0v120l0,0l0,0c0-1.6,0.5-11.6,11.9-12.9l0,0
			c0,0,0.5,0,1.6,0l0,0c49.2-1.8,1640.9-57.3,1640.9-57.3l0,0c6.3-0.3,12.4-4.8,12.4-12.7l0,0V16.6c0-9.2-7.4-16.6-16.6-16.6l0,0
			L415.2,0.3z"/>
	</g>
</g>
</svg>
