<?xml version="1.0" encoding="utf-8"?>
<!-- Generator: Adobe Illustrator 23.0.1, SVG Export Plug-In . SVG Version: 6.00 Build 0)  -->
<!DOCTYPE svg PUBLIC "-//W3C//DTD SVG 1.1//EN" "http://www.w3.org/Graphics/SVG/1.1/DTD/svg11.dtd" [
	<!ENTITY ns_extend "http://ns.adobe.com/Extensibility/1.0/">
	<!ENTITY ns_ai "http://ns.adobe.com/AdobeIllustrator/10.0/">
	<!ENTITY ns_graphs "http://ns.adobe.com/Graphs/1.0/">
	<!ENTITY ns_vars "http://ns.adobe.com/Variables/1.0/">
	<!ENTITY ns_imrep "http://ns.adobe.com/ImageReplacement/1.0/">
	<!ENTITY ns_sfw "http://ns.adobe.com/SaveForWeb/1.0/">
	<!ENTITY ns_custom "http://ns.adobe.com/GenericCustomNamespace/1.0/">
	<!ENTITY ns_adobe_xpath "http://ns.adobe.com/XPath/1.0/">
]>
<svg version="1.1" id="Livello_1" xmlns:x="&ns_extend;" xmlns:i="&ns_ai;" xmlns:graph="&ns_graphs;"
	 xmlns="http://www.w3.org/2000/svg" xmlns:xlink="http://www.w3.org/1999/xlink" x="0px" y="0px" viewBox="0 0 3421.2 500"
	 enable-background="new 0 0 3421.2 500" xml:space="preserve">
<metadata>
	<sfw  xmlns="&ns_sfw;">
		<slices></slices>
		<sliceSourceBounds  bottomLeftOrigin="true" height="500" width="3421.7" x="-1622.1" y="-237"></sliceSourceBounds>
	</sfw>
</metadata>
<g id="Sky_Sports_News_PRIMARY_RGB">
	<g>
		<path id="Path_4_" fill="#FFFFFF" d="M3387.9,500H2296.2c-18.3,0-33.3-15-33.3-33.3V33.3c0-18.3,15-33.3,33.3-33.3h1091.7
			c18.3,0,33.3,15,33.3,33.3v433.3C3421.2,485,3406.2,500,3387.9,500z"/>
		<path id="Path_1_" fill="#002A91" d="M3387.9,10c12.8,0,23.3,10.5,23.3,23.3v433.3c0,12.8-10.5,23.3-23.3,23.3H2296.2
			c-12.8,0-23.3-10.5-23.3-23.3V33.3c0-12.8,10.5-23.3,23.3-23.3H3387.9 M3387.9,0H2296.2c-18.3,0-33.3,15-33.3,33.3v433.3
			c0,18.3,15,33.3,33.3,33.3h1091.7c18.3,0,33.3-15,33.3-33.3V33.3C3421.2,15,3406.2,0,3387.9,0L3387.9,0z"/>
	</g>
	<g id="Group" transform="translate(126.750000, 7.800000)">
		<path fill="#002A91" d="M2484.9,225.9v105.4c0,7.9-4.6,12.5-17.9,12.5c-5.8,0-12.1-0.8-15.4-1.7V230.5c0-39.2-19.2-57.9-47.9-57.9
			c-22.5,0-46.7,15.4-56.7,33.8v125c0,7.9-4.6,12.5-17.9,12.5c-5.8,0-12.1-0.8-15.4-1.7V146.4c3.3-0.8,9.6-1.7,15.4-1.7
			c13.3,0,17.9,5,17.9,12.5v16.7c14.2-17.5,35.8-31.2,64.6-31.2C2451.6,143,2484.9,168.4,2484.9,225.9z"/>
		<path id="Shape" fill="#002A91" d="M2710.3,256.8h-151.2c4.6,37.9,30.4,59.2,69.2,59.2c16.7,0,29.6-3.3,42.1-7.5
			c8.8-2.9,12.1-4.2,15.4-4.2c9.2,0,15.4,7.9,13.8,25.8c-17.5,7.9-44.2,16.2-72.5,16.2c-60.8,0-102.1-41.2-102.1-102.1
			c0-58.8,43.3-100.8,96.7-100.8c60.4,0,90,46.7,90,94.2C2711.2,242.6,2711.2,249.7,2710.3,256.8z M2558.7,230.5h120
			c-1.2-33.3-22.9-59.6-57.5-59.6C2591.2,171.4,2564.1,191.8,2558.7,230.5z"/>
		<path fill="#002A91" d="M3018.2,150.1l-51.7,179.6c-3.3,11.2-11.7,14.2-24.2,14.2c-7.1,0-13.8-1.2-19.6-2.9l-49.2-158.3
			l-46.2,147.1c-3.8,11.2-12.5,14.2-23.8,14.2c-7.1,0-14.6-1.2-20.4-2.9l-55.4-191.3c5-2.5,13.8-5,21.2-5c9.2,0,14.2,2.9,16.7,11.7
			l39.2,150h0.4l48.3-157.1c5.8-3.3,12.9-5,20.8-5c12.5,0,19.6,2.9,23.3,14.6l44.6,147.5h0.4l37.9-150c2.5-8.8,7.5-11.7,16.7-11.7
			C3004.9,145.1,3013.2,147.6,3018.2,150.1z"/>
		<path fill="#002A91" d="M3040.3,332.6c-2.5-17.1,2.9-25.8,12.5-25.8c9.2,0,32.1,10,63.8,10c33.3,0,45.8-11.7,45.8-27.1
			c0-10.8-5-20.8-35-28.8l-34.6-9.2c-38.3-10-53.3-29.2-53.3-52.9c0-29.2,23.3-55.4,75.8-55.4c23.8,0,52.9,5.4,70.8,12.1
			c3.3,16.7-2.1,25.8-12.1,25.8c-8.8,0-29.2-8.8-58.3-8.8c-30.8,0-42.5,10.4-42.5,24.6c0,9.6,4.6,18.8,32.1,26.2l35.4,9.6
			c39.6,10.8,55.4,29.2,55.4,55.4c0,30.4-23.8,57.9-80.4,57.9C3090.8,346.4,3059.1,340.1,3040.3,332.6z"/>
	</g>
	<g>
		
			<linearGradient id="Sky_Logo_2_" gradientUnits="userSpaceOnUse" x1="361.5388" y1="275.1942" x2="361.5388" y2="-167.3197" gradientTransform="matrix(1 0 0 -1 0 304)">
			<stop  offset="0" style="stop-color:#002A91"/>
			<stop  offset="0.8" style="stop-color:#002672"/>
		</linearGradient>
		<path id="Sky_Logo_1_" fill="url(#Sky_Logo_2_)" d="M499.3,464.2c10.5,4.6,21.8,7.1,33.2,7.1c26.1,0.6,40.4-9.4,50.9-32.8
			l140.1-312c-9.1-4.1-19-6.4-29-6.7c-18.1-0.4-42.3,3.3-57.6,40.1l-45.3,106.8l-89-144.6c-9.8-2.6-19.9-4-30-4.2
			c-31.5,0-49,11.5-67.2,31.3l-86.5,94.4l69.5,109.4c12.9,19.9,29.8,30.1,57.3,30.1c13.7,0.2,27.3-2.3,40-7.5l-83.8-126l59.4-62.9
			l97.4,152.7L499.3,464.2z M315.5,346.3c0,23-9,36.2-54,36.2c-5.4,0-10.8-0.4-16.1-1.1V76.2c0-23.2,7.9-47.4,53.2-47.4
			c5.7,0,11.4,0.6,16.9,1.7V346.3z M222.7,300.2c0,43-28.1,74.2-85.1,80.4c-41.3,4.4-101.1-0.8-129.5-4c-1-4.9-1.6-9.9-1.7-15
			c0-37.4,20.2-46,39.2-46c19.8,0,50.9,3.5,74,3.5c25.5,0,33.2-8.6,33.2-16.9c0-10.7-10.2-15.2-30-19l-54.2-10.4
			c-45-8.6-69-39.7-69-72.7c0-40.1,28.4-73.6,84.3-79.8c42.3-4.6,93.8,0.6,122,4c1,4.7,1.5,9.5,1.5,14.4c0,37.4-19.8,45.5-38.8,45.5
			c-14.6,0-37.3-2.7-63.2-2.7c-26.3,0-37.3,7.3-37.3,16.1c0,9.4,10.4,13.2,26.9,16.1l51.7,9.6C199.8,232.9,222.7,263.2,222.7,300.2z
			"/>
		
			<linearGradient id="s25_2_" gradientUnits="userSpaceOnUse" x1="365.0679" y1="40.6988" x2="359.2172" y2="208.2287" gradientTransform="matrix(1 0 0 -1 0 304)">
			<stop  offset="0" style="stop-color:#FFFFFF"/>
			<stop  offset="0.1203" style="stop-color:#FFFFFF;stop-opacity:0.8347"/>
			<stop  offset="0.2693" style="stop-color:#FFFFFF;stop-opacity:0.6576"/>
			<stop  offset="0.4195" style="stop-color:#FFFFFF;stop-opacity:0.5107"/>
			<stop  offset="0.5684" style="stop-color:#FFFFFF;stop-opacity:0.3965"/>
			<stop  offset="0.7156" style="stop-color:#FFFFFF;stop-opacity:0.3152"/>
			<stop  offset="0.8603" style="stop-color:#FFFFFF;stop-opacity:0.2664"/>
			<stop  offset="1" style="stop-color:#FFFFFF;stop-opacity:0.25"/>
		</linearGradient>
		<path id="s25_1_" opacity="0.25" fill="url(#s25_2_)" enable-background="new    " d="M723.6,126.5l-51.3,114.2
			c-4,8.2-12.3,13.4-21.4,13.4l-46.8,1.6c-5.1,0.3-9.6,3.7-11.4,8.5v-0.1l44.2-104.2c15.4-36.8,39.6-40.5,57.6-40.1
			C704.6,120.1,714.4,122.4,723.6,126.5z M589.2,263.1l-86.6-140.8c-9.8-2.6-19.9-4-30-4.2c-31.5,0-49,11.5-67.2,31.3l-86.5,94.4
			l6.9,10.9c4.5,6.8,12.3,10.7,20.5,10.3c4.1-0.1,45.9-1.6,49.3-1.7c8.5-0.7,16.7,3,21.8,9.8l0,0l-15.5-23.3l59.4-62.9l39.9,62.5
			l0,0c4.9,6.2,12.5,9.7,20.4,9.5c2.1-0.1,54.3-1.9,56.7-2C582.7,256.9,586.9,259.3,589.2,263.1L589.2,263.1z M298.6,28.9
			c-45.3,0-53.2,24.2-53.2,47.4v209c0-9.6,7.7-17.4,17.3-17.7l35.1-1.2c9.8,0,17.8-8,17.8-17.8l0,0v-218
			C309.9,29.4,304.3,28.8,298.6,28.9z M146.8,223.1l-51.7-9.6c-16.5-2.9-26.9-6.7-26.9-16.1c0-8.8,11-16.1,37.3-16.1
			c25.9,0,48.6,2.7,63.2,2.7c19,0,38.8-8.1,38.8-45.5c0-4.8-0.5-9.7-1.5-14.4c-28.2-3.5-79.7-8.6-122-4c-56,6.2-84.4,39.8-84.4,79.8
			c0.1,21.4,10.2,41.6,27.3,54.5c12.6,7.8,26.8,12.9,41.5,14.8c19.2,2.6,38.5,3.6,57.8,3c6.1-0.2,51.7-1.8,61.7-2.2
			c23.1-0.8,35.7,18.9,34.4,38.7c0-0.3,0-0.5,0.1-0.8v-0.2c0.2-2.6,0.3-5.2,0.3-7.8C222.7,263.2,199.8,232.9,146.8,223.1z"/>
		
			<linearGradient id="Plinth_1_" gradientUnits="userSpaceOnUse" x1="1349.2456" y1="22.2308" x2="1349.2456" y2="41.4615" gradientTransform="matrix(79.7983 0 0 26 -106101.5781 -578)">
			<stop  offset="0.4" style="stop-color:#FF0000"/>
			<stop  offset="1" style="stop-color:#D42321"/>
		</linearGradient>
		<path id="Plinth_2_" fill="url(#Plinth_1_)" d="M2299.6,0H831.8c-18.3,0-33.3,15-33.3,33.3v433.4c0,18.3,15,33.3,33.3,33.3H2300
			c18.3,0,33.3-15,33.3-33.3V33.3C2332.9,15,2317.9,0,2299.6,0z"/>
		
			<linearGradient id="p40_2_" gradientUnits="userSpaceOnUse" x1="1568.561" y1="74.0394" x2="1559.8622" y2="323.1429" gradientTransform="matrix(1 0 0 -1 0 304)">
			<stop  offset="0" style="stop-color:#FFFFFF"/>
			<stop  offset="0.1203" style="stop-color:#FFFFFF;stop-opacity:0.8347"/>
			<stop  offset="0.2693" style="stop-color:#FFFFFF;stop-opacity:0.6576"/>
			<stop  offset="0.4195" style="stop-color:#FFFFFF;stop-opacity:0.5107"/>
			<stop  offset="0.5684" style="stop-color:#FFFFFF;stop-opacity:0.3965"/>
			<stop  offset="0.7156" style="stop-color:#FFFFFF;stop-opacity:0.3152"/>
			<stop  offset="0.8603" style="stop-color:#FFFFFF;stop-opacity:0.2664"/>
			<stop  offset="1" style="stop-color:#FFFFFF;stop-opacity:0.25"/>
		</linearGradient>
		<path id="p40_1_" opacity="0.4" fill="url(#p40_2_)" enable-background="new    " d="M822.5,248c0,0,1.1-0.1,3.2-0.2
			c98.6-3.5,1482.6-51.7,1482.6-51.7c13.9-0.1,25-11.5,24.9-25.3V33.3c0-18.4-14.9-33.3-33.3-33.3L831.8,0
			c-18.4,0-33.3,14.9-33.3,33.3V274C798.1,260.4,808.8,248.7,822.5,248z"/>
		<g transform="translate(46.366667, 4.116667)">
			<path fill="#FFFFFF" d="M847.9,355.2c-2.9-20.4,3.3-31.2,15.4-31.2c11.2,0,38.8,12.1,77.1,12.1c40.4,0,55.4-14.2,55.4-32.9
				c0-13.3-5.8-25-42.1-35L912.1,257c-46.2-12.1-64.2-35.4-64.2-63.8c0-35.4,27.9-66.7,91.2-66.7c28.3,0,63.8,6.2,85.4,14.6
				c3.8,20-2.5,30.8-14.6,30.8c-10.8,0-35.4-10.4-70-10.4c-37.5,0-51.2,12.9-51.2,29.6c0,11.7,5.4,22.5,38.8,32.1l42.5,11.7
				c47.5,13.3,66.7,35.4,66.7,66.7c0,36.7-28.3,69.6-97.1,69.6C908.8,371.4,870.8,363.9,847.9,355.2z"/>
			<path fill="#FFFFFF" d="M1320.1,248.9c0,77.1-54.2,122.5-113.3,122.5c-35.4,0-64.2-16.7-81.7-40.4v99.1c0,9.2-5.4,15.4-21.2,15.4
				c-7.9,0-15.4-0.8-19.2-2.1V130.9c3.8-0.8,11.2-2.1,19.2-2.1c15.8,0,21.2,5.8,21.2,15.4v22.5c17.1-23.8,46.2-40.4,81.7-40.4
				C1265.9,126.3,1320.1,172.1,1320.1,248.9z M1279.3,248.9c0-51.7-34.2-87.1-80.4-87.1c-31.2,0-60.4,18.3-73.8,44.6v85
				c13.3,26.7,42.1,44.6,73.8,44.6C1245.1,336,1279.3,300.6,1279.3,248.9z"/>
			<path fill="#FFFFFF" d="M1358.8,248.9c0-70,51.7-122.1,120.8-122.1c69.6,0,121.2,52.1,121.2,122.1c0,69.6-51.7,122.5-121.2,122.5
				C1410.6,371.4,1358.8,318.5,1358.8,248.9z M1560.2,248.9c0-54.2-36.2-87.1-80.4-87.1c-43.8,0-80,32.9-80,87.1
				c0,53.3,36.2,87.5,80,87.5C1523.9,336,1560.2,302.2,1560.2,248.9z"/>
			<path fill="#FFFFFF" d="M1796.4,148.4c0,16.2-6.7,19.6-23.8,19.6c-33.8,0-62.5,15.8-80,52.5v132.9c0,10-5.4,15.4-21.7,15.4
				c-6.7,0-14.6-0.8-18.8-2.1V130.9c3.8-0.8,11.7-2.1,18.8-2.1c16.2,0,21.7,5.8,21.7,15.4v32.9c22.9-35,57.9-52.5,101.7-46.7
				C1794.8,133.8,1796.4,141.3,1796.4,148.4z"/>
			<path fill="#FFFFFF" d="M1973.2,355.2c-20.4,10-44.2,16.2-67.9,16.2c-46.7,0-74.6-27.5-74.6-73.3V95.5c0-10.4,5.8-17.1,21.7-17.1
				c6.7,0,14.6,1.7,18.8,2.5v51.2h91.7c0.4,3.3,1.7,10.4,1.7,16.2c0,14.2-5.8,19.2-14.6,19.2h-78.3v127.9
				c0,27.5,12.9,40.8,38.8,40.8c23.8,0,36.7-10.4,47.9-10.4C1969.5,326,1975.7,335.6,1973.2,355.2z"/>
			<path fill="#FFFFFF" d="M2001.1,355.2c-2.9-20.4,3.3-31.2,15.4-31.2c11.3,0,38.8,12.1,77.1,12.1c40.4,0,55.4-14.2,55.4-32.9
				c0-13.3-5.8-25-42.1-35l-41.7-11.2c-46.2-12.1-64.2-35.4-64.2-63.8c0-35.4,27.9-66.7,91.3-66.7c28.3,0,63.7,6.2,85.4,14.6
				c3.8,20-2.5,30.8-14.6,30.8c-10.8,0-35.4-10.4-70-10.4c-37.5,0-51.2,12.9-51.2,29.6c0,11.7,5.4,22.5,38.8,32.1l42.5,11.7
				c47.5,13.3,66.7,35.4,66.7,66.7c0,36.7-28.3,69.6-97.1,69.6C2062,371.4,2024,363.9,2001.1,355.2z"/>
		</g>
	</g>
</g>
</svg>
