<?xml version="1.0" encoding="utf-8"?>
<!-- Generator: Adobe Illustrator 24.0.1, SVG Export Plug-In . SVG Version: 6.00 Build 0)  -->
<svg version="1.1" id="svg1628510" xmlns="http://www.w3.org/2000/svg" xmlns:xlink="http://www.w3.org/1999/xlink" x="0px" y="0px"
	 viewBox="0 0 1531.8 250.2" style="enable-background:new 0 0 1531.8 250.2;" xml:space="preserve">
<style type="text/css">
	.st0{fill:#9B001F;}
	.st1{fill:#FFFFFF;}
	.st2{fill:#FF0031;}
	.st3{fill:url(#path15335_1_);}
	.st4{opacity:0.3;fill:url(#path15297-4_1_);enable-background:new    ;}
	.st5{opacity:0.3;fill:url(#path15555_1_);enable-background:new    ;}
</style>
<title>Sky_Cinema HD_2020</title>
<path class="st0" d="M1515.2,0h-304.2c-9.2,0-16.7,7.5-16.7,16.7v216.9c0,9.2,7.4,16.6,16.6,16.7c0,0,0.1,0,0.1,0h304.2
	c9.2,0,16.7-7.5,16.7-16.7V16.7c0-9.2-7.4-16.7-16.6-16.7c0,0,0,0,0,0C1515.2,0,1515.2,0,1515.2,0 M1515.2,5
	c6.4,0,11.7,5.2,11.7,11.7v216.8c0,6.4-5.2,11.6-11.7,11.7h-304.2c-6.4,0-11.7-5.2-11.7-11.7V16.7c0-6.4,5.2-11.7,11.7-11.7
	L1515.2,5"/>
<path class="st1" d="M1515.2,5c6.4,0,11.7,5.2,11.7,11.7v216.8c0,6.4-5.2,11.6-11.7,11.7h-304.2c-6.4,0-11.7-5.2-11.7-11.7V16.7
	c0-6.4,5.2-11.7,11.7-11.7L1515.2,5"/>
<path class="st0" d="M1367.5,77v92.4c0,4.1-2.1,6.3-8.4,6.3c-2.5,0-5.1-0.3-7.6-0.8v-42.5h-52.7v37.1c0,4.1-2.1,6.3-8.4,6.3
	c-2.5,0-5.1-0.2-7.6-0.8V82.5c0-3.9,2.1-6.3,8.6-6.3c2.5,0,4.9,0.3,7.3,0.8v41.1h52.5V82.5c0-3.9,2.3-6.3,8.8-6.3
	C1362.6,76.2,1365.1,76.4,1367.5,77"/>
<path class="st0" d="M1475.7,125.8c0,27.7-19.4,48.7-49.7,48.7h-28.3c-6.1,0-8.4-2.5-8.4-6.3V83.7c0-3.9,2.3-6.3,8.4-6.3h28.3
	C1456.3,77.4,1475.7,98.1,1475.7,125.8 M1459.6,125.8c0-20.8-13-34.2-33.6-34.2h-20.8v68.6h20.8
	C1446.6,160.2,1459.6,146.8,1459.6,125.8"/>
<g id="layer1">
	<path id="path15585" class="st2" d="M111.6,150.1c0,21.5-14,37.1-42.6,40.2c-20.6,2.2-50.5-0.4-64.7-2c-0.5-2.5-0.8-5-0.9-7.5
		c0-18.7,10.1-23,19.6-23c9.9,0,25.5,1.7,37,1.7c12.8,0,16.6-4.3,16.6-8.4c0-5.4-5.1-7.6-15-9.5l-27.1-5.2C12,132.1,0,116.6,0,100.1
		c0-20,14.2-36.8,42.2-39.9c21.1-2.3,46.9,0.3,61,2c0.5,2.4,0.8,4.8,0.8,7.2c0,18.7-9.9,22.7-19.4,22.7c-7.3,0-18.6-1.3-31.6-1.3
		c-13.2,0-18.6,3.6-18.6,8c0,4.7,5.2,6.6,13.4,8.1l25.8,4.8C100.2,116.5,111.6,131.6,111.6,150.1 M157.9,173.1
		c0,11.5-4.5,18.1-27,18.1c-2.7,0-5.4-0.2-8.1-0.6V38.2c0-11.6,3.9-23.7,26.6-23.7c2.9,0,5.7,0.3,8.5,0.9V173.1z M249.8,232.1
		c5.2,2.3,10.9,3.5,16.6,3.5c13.1,0.3,20.2-4.7,25.5-16.4l70-155.8c-4.6-2.1-9.5-3.2-14.5-3.4c-9-0.2-21.1,1.6-28.8,20l-22.8,53.3
		L251.3,61c-4.9-1.3-9.9-2-15-2.1c-15.8,0-24.5,5.8-33.6,15.6l-43.2,47.2l34.8,54.7c6.4,10,14.9,15.1,28.6,15.1c9,0,16.5-2.1,20-3.7
		l-41.9-63l29.7-31.5l48.7,76.3L249.8,232.1z"/>
	
		<linearGradient id="path15335_1_" gradientUnits="userSpaceOnUse" x1="-1656.3793" y1="8.0073" x2="-1545.6207" y2="8.0073" gradientTransform="matrix(7.5001 0 0 -7.5001 12822.21 185.2222)">
		<stop  offset="0" style="stop-color:#FF0031"/>
		<stop  offset="1" style="stop-color:#9B001F"/>
	</linearGradient>
	<path id="path15335" class="st3" d="M1213.3,0.2H415.9c-9.2,0-16.7,7.5-16.7,16.7v216.6c0,9.2,7.5,16.7,16.7,16.7h797.3
		c9.2,0,16.7-7.5,16.7-16.7V16.8C1229.9,7.6,1222.5,0.2,1213.3,0.2"/>
	
		<linearGradient id="path15297-4_1_" gradientUnits="userSpaceOnUse" x1="-1901.6798" y1="721.0265" x2="-1899.4585" y2="721.0265" gradientTransform="matrix(-1.3157 -37.6778 -37.6778 1.3157 24847.2891 -72468.2031)">
		<stop  offset="0" style="stop-color:#FFFFFF"/>
		<stop  offset="0.5146" style="stop-color:#FFFFFF;stop-opacity:0.25"/>
		<stop  offset="1" style="stop-color:#FFFFFF;stop-opacity:0.25"/>
	</linearGradient>
	<path id="path15297-4" class="st4" d="M122.9,38.2v104.5c0-4.8,3.8-8.7,8.6-8.8l0,0c3.8-0.1,14.4-0.5,17.6-0.6l0,0
		c3.5-0.1,8.8-2.5,8.9-8.9l0,0v-109c-2.8-0.6-5.6-0.9-8.5-0.9l0,0C126.8,14.6,122.9,26.6,122.9,38.2 M202.9,74.6l-43.2,47.2l3.5,5.4
		c2.2,3.4,6.1,5.4,10.2,5.2l0,0c2.1-0.1,22.9-0.8,24.6-0.9l0,0c5.4-0.2,8.8,2.1,10.9,4.9l0,0l-7.7-11.6l29.7-31.5l19.9,31.3l0,0
		c2.5,3.1,6.2,4.9,10.2,4.8l0,0c1,0,27.2-0.9,28.3-1l0,0c1.8-0.1,3.9,0.9,5.5,3.2l0,0l-43.3-70.4c-4.9-1.3-9.9-2-15-2.1l0,0
		C220.7,59,212,64.7,202.9,74.6 M42.2,60.1C14.2,63.2,0,79.9,0,100h0c0,10.3,4.7,20.2,13.7,27.3l0,0c6.8,4.5,13.8,6.2,20.7,7.4l0,0
		c9.6,1.3,19.2,1.8,28.9,1.5l0,0c3.1-0.1,25.9-0.9,30.8-1.1l0,0c11.6-0.4,17.8,9.5,17.2,19.4l0,0v-0.4l0,0V154l0,0
		c0.1-1.3,0.2-2.6,0.2-3.9l0,0c0-18.5-11.4-33.6-37.9-38.5l0,0l-25.8-4.8c-8.3-1.4-13.4-3.4-13.4-8.1l0,0c0-4.4,5.5-8.1,18.6-8.1
		l0,0c13,0,24.3,1.3,31.6,1.3l0,0c9.5,0,19.4-4,19.4-22.7l0,0c0-2.4-0.3-4.8-0.8-7.2l0,0c-14.1-1.8-28.2-2.7-42.4-2.9l0,0
		C54.5,59.2,48.2,59.5,42.2,60.1 M318.5,80l-22.1,52.1l0,0c0.9-2.4,3.1-4.1,5.7-4.3l0,0c0,0,21.8-0.8,23.4-0.8l0,0
		c4.5,0,8.7-2.6,10.7-6.7l0,0l25.6-57.1c-4.6-2.1-9.5-3.2-14.5-3.4h-1.1C337.3,59.9,325.9,62.3,318.5,80"/>
	
		<linearGradient id="path15555_1_" gradientUnits="userSpaceOnUse" x1="-1874.4403" y1="730.558" x2="-1872.2188" y2="730.558" gradientTransform="matrix(-1.9565 -56.0258 -56.0258 1.9565 38078.6016 -106332.3984)">
		<stop  offset="0" style="stop-color:#FFFFFF"/>
		<stop  offset="0.5146" style="stop-color:#FFFFFF;stop-opacity:0.25"/>
		<stop  offset="1" style="stop-color:#FFFFFF;stop-opacity:0.25"/>
	</linearGradient>
	<path id="path15555" class="st5" d="M415.9,0.2c-9.2,0-16.7,7.5-16.7,16.7l0,0v120.2c0-1.8,0.7-11.7,12-12.8l0,0
		c0.5-0.1,1.1-0.1,1.6-0.1l0,0c49.3-1.7,804.7-28.2,804.7-28.2l0,0c6.9-0.1,12.5-5.7,12.4-12.6v0l0-0.1l0,0V17
		c0-9.2-7.5-16.7-16.7-16.7l0,0L415.9,0.2z"/>
	<path class="st1" d="M1175.4,110.6v74.5c-2.9,0.7-5.8,1-8.8,1c-7,0-10.1-2.5-10.1-7.4v-9.8c-11.1,11.7-24.3,18.6-41.8,18.6
		c-26.3,0-40.8-16.8-40.8-35.6c0-28.4,30.7-40.8,82.6-37.4v-3.2c0-18.1-5.9-28.9-28.9-28.9c-9.9,0.1-19.8,1.7-29.2,4.9
		c-3.6,1-6.4,1.9-8.3,1.9c-5.4,0-8.5-4.9-7.3-15.2c14.6-5.3,30-8.1,45.6-8.3C1162.7,65.8,1175.4,82.9,1175.4,110.6 M1156.3,151.5
		V129c-33.8-1.5-63,1.8-63,22.7c0,10.3,8.8,19.9,24.5,19.9C1133.8,171.6,1147.3,163.5,1156.3,151.5"/>
	<path class="st1" d="M446.4,126.5c0-34.8,25.8-60.7,59.6-60.7c14.2,0,28.1,3.3,40.8,9.6c1,10.6-2.9,15-7.8,15
		c-6.9,0-14.5-7.5-32.3-7.5c-22.5,0-40.8,16.8-40.8,43.9s18.3,44.4,40.8,44.4c17.8,0,25.5-7.5,32.3-7.5c4.9,0,8.8,4.4,7.8,15
		c-12.8,6-26.7,9.2-40.8,9.3C472.2,187.5,446.4,161.3,446.4,126.5"/>
	<path class="st1" d="M860.4,134.3h-91.1c2.9,22.7,18.9,35.8,42.4,35.8c10.1,0,17.8-2.3,25.3-4.6c4.9-1.8,7.5-2.8,9.6-2.8
		c4.9,0,8.5,4.6,7.3,15.2c-10.3,4.6-26.1,9.6-42.9,9.6c-36.4,0-61.5-24.8-61.5-61.2c0-35.1,26.1-60.6,58.3-60.6
		c35.9,0,53.7,28.7,53.7,56.6C861.4,126.3,861,130.3,860.4,134.3 M769.3,118.5h73.3c-0.8-20.1-13.7-35.9-34.8-35.9
		C789.1,82.4,772.4,95,769.3,118.5"/>
	<path class="st1" d="M567.5,40.9c-0.1-6.8,5.4-12.3,12.1-12.4c0.1,0,0.2,0,0.3,0c6.7-0.1,12.1,5.3,12.2,12v0c0,0.1,0,0.3,0,0.4
		c-0.1,6.7-5.5,12.1-12.2,12.2C573.2,52.9,567.7,47.6,567.5,40.9 M570.2,185.1V74.6c0-4.4,2.4-7.3,10.3-7.3c3,0.1,5.9,0.5,8.8,1.3
		v110.2c0,4.6-2.6,7.3-10.3,7.3C576,186.1,573.1,185.7,570.2,185.1"/>
	<path class="st1" d="M1049.8,108.2v70.5c0,4.6-2.6,7.3-10.3,7.3c-3,0-5.9-0.4-8.8-1v-74.7c0-17.3-8.3-27.6-23.8-27.6
		c-13.2,0-24.5,9.6-28.9,19.1v76.9c0,4.6-2.4,7.3-10.1,7.3c-3,0-6-0.3-9-1v-74.7c0-17.3-8-27.6-23.8-27.6
		c-13.2,0-24.5,9.6-28.9,19.1v76.9c0,4.6-2.4,7.3-10.1,7.3c-3,0-5.9-0.3-8.8-1V68.5c2.9-0.8,5.8-1.2,8.8-1.3c7.3,0,9.8,2.9,9.8,7.8
		v8.3c7.5-10.1,19.4-17.6,33.8-17.6c15.5,0,27.6,8,33.8,21.2c8-11.7,20.4-21.2,37.7-21.2C1036.4,65.8,1049.8,84.9,1049.8,108.2"/>
	<path class="st1" d="M724.3,115.7v63c0,4.6-2.4,7.3-10.1,7.3c-3,0-5.9-0.4-8.8-1v-66.7c0-24-11.9-35.4-29.4-35.4
		c-13.9,0-28.9,9.8-35.1,21.1v74.9c0,4.6-2.5,7.3-10.1,7.3c-3,0-5.9-0.3-8.8-1V68.5c2.9-0.8,5.8-1.2,8.8-1.3
		c7.5,0,10.1,2.9,10.1,7.3v10.1c8.5-10.3,21.5-18.9,39.2-18.9C704.2,65.8,724.3,81.1,724.3,115.7"/>
</g>
</svg>
