<?xml version="1.0" encoding="utf-8"?>
<!-- Generator: Adobe Illustrator 23.0.1, SVG Export Plug-In . SVG Version: 6.00 Build 0)  -->
<svg version="1.1" id="Layer_1" xmlns="http://www.w3.org/2000/svg" xmlns:xlink="http://www.w3.org/1999/xlink" x="0px" y="0px"
	 viewBox="0 0 1285.7 250" enable-background="new 0 0 1285.7 250" xml:space="preserve">
<g>
	
		<linearGradient id="Plinth_1_" gradientUnits="userSpaceOnUse" x1="842.5828" y1="2990.1426" x2="842.5828" y2="3240.1426" gradientTransform="matrix(1 0 0 1 0 -2990.1426)">
		<stop  offset="0.4" style="stop-color:#1A1A1A"/>
		<stop  offset="1" style="stop-color:#000000"/>
	</linearGradient>
	<path id="Plinth_7_" fill="url(#Plinth_1_)" d="M1269,0H416.1c-9.2,0-16.7,7.5-16.7,16.7v216.7c0,9.2,7.5,16.7,16.7,16.7H1269
		c9.2,0,16.7-7.5,16.7-16.7V16.7C1285.7,7.5,1278.2,0,1269,0z"/>
	
		<linearGradient id="p30_1_" gradientUnits="userSpaceOnUse" x1="843.8458" y1="3103.0667" x2="839.499" y2="2978.5398" gradientTransform="matrix(1 0 0 1 0 -2990.1426)">
		<stop  offset="0" style="stop-color:#FFFFFF"/>
		<stop  offset="1" style="stop-color:#FFFFFF;stop-opacity:0.25"/>
	</linearGradient>
	<path id="p30_7_" opacity="0.3" fill="url(#p30_1_)" enable-background="new    " d="M411.3,124h1.7
		c49.4-1.7,860.2-30.1,860.2-30.1c6.3-0.2,12.5-4.8,12.5-12.7V16.7c0-9.2-7.5-16.7-16.7-16.7H416.1c-9.2,0-16.7,7.5-16.7,16.7v120.4
		C399.5,135.7,399.7,125.2,411.3,124z"/>
	
		<linearGradient id="Sky_x5F_Logo_1_" gradientUnits="userSpaceOnUse" x1="180.9612" y1="3004.4954" x2="180.9612" y2="3225.8455" gradientTransform="matrix(1 0 0 1 0 -2990.1426)">
		<stop  offset="0.4" style="stop-color:#1A1A1A"/>
		<stop  offset="1" style="stop-color:#000000"/>
	</linearGradient>
	<path id="Sky_x5F_Logo_7_" fill="url(#Sky_x5F_Logo_1_)" d="M249.8,232.1c2.9,1.5,9,3.4,16.7,3.6c13.1,0.2,20.2-4.8,25.4-16.5
		l70-155.9c-2.9-1.5-9.4-3.4-14.6-3.4c-9-0.2-21.1,1.7-28.8,20l-22.7,53.4l-44.4-72.3c-2.9-0.9-10-2.1-15-2.1
		c-15.9,0-24.6,5.9-33.6,15.6l-43.4,47.1l34.8,54.6c6.5,10,14.8,15,28.6,15c9,0,16.5-2.1,20-3.8L201,124.8l29.6-31.5l48.8,76.3
		L249.8,232.1z M157.9,173.1c0,11.5-4.6,18.1-27.1,18.1c-2.9,0-5.7-0.2-8.2-0.6V38.1c0-11.7,4-23.8,26.7-23.8c2.9,0,5.9,0.2,8.6,0.9
		C157.9,15.2,157.9,173.2,157.9,173.1z M111.5,150c0,21.5-14,37.1-42.5,40.2c-20.6,2.3-50.6-0.4-64.8-2.1c-0.4-2.3-0.9-5.2-0.9-7.5
		c0-18.8,10-22.9,19.6-22.9c9.8,0,25.4,1.7,37.1,1.7c12.7,0,16.7-4.4,16.7-8.4c0-5.4-5-7.5-15-9.6l-27.1-5.2
		C12.1,132.1,0,116.5,0,100c0-20,14.2-36.9,42.1-39.8c21.1-2.3,46.9,0.2,61.1,2.1c0.4,2.3,0.9,4.8,0.9,7.3
		c0,18.8-9.8,22.7-19.4,22.7c-7.3,0-18.6-1.3-31.7-1.3s-18.6,3.6-18.6,8.1c0,4.8,5.2,6.7,13.6,8.1l25.9,4.8
		C100,116.5,111.5,131.5,111.5,150z"/>
	
		<linearGradient id="s30_1_" gradientUnits="userSpaceOnUse" x1="182.7202" y1="3121.7664" x2="179.7946" y2="3038.0183" gradientTransform="matrix(1 0 0 1 0 -2990.1426)">
		<stop  offset="0" style="stop-color:#FFFFFF"/>
		<stop  offset="1" style="stop-color:#FFFFFF;stop-opacity:0.25"/>
	</linearGradient>
	<path id="s30_6_" opacity="0.3" fill="url(#s30_1_)" enable-background="new    " d="M362,63.4l-25.6,57.1
		c-0.9,1.5-3.6,6.5-10.7,6.7c-1.7,0-23.4,0.9-23.4,0.9c-4.2,0.2-5.6,4.2-5.6,4.2L318.8,80c7.7-18.4,19.8-20.2,28.8-20
		C352.6,60,359,61.7,362,63.4z M294.9,131.5l-43.4-70.4c-2.9-0.9-10-2.1-15-2.1c-15.9,0-24.6,5.9-33.6,15.6l-43.4,47.1l3.6,5.4
		c1.5,2.1,4.4,5.4,10.2,5.2c2.1,0,22.9-0.9,24.6-0.9c5.4-0.2,8.8,2.1,10.9,4.8l-7.7-11.7l29.6-31.5l20,31.3c3.6,4.8,9,4.8,10.2,4.8
		c1.1,0,27.1-1.1,28.4-1.1C291.1,128.2,293.2,129.2,294.9,131.5z M149.4,14.4c-22.7,0-26.5,12.1-26.5,23.8v104.6
		c0-4.2,3.4-8.6,8.6-8.8c3.8-0.2,14.4-0.4,17.5-0.7c3.6-0.2,8.8-2.5,9-9V15.2C155.2,14.8,152.3,14.4,149.4,14.4z M73.6,111.7
		l-25.9-4.8c-8.4-1.5-13.6-3.4-13.6-8.2c0-4.4,5.4-8.1,18.6-8.1c12.9,0,24.4,1.3,31.7,1.3c9.6,0,19.4-4,19.4-22.7
		c0-2.5-0.2-4.8-0.9-7.3c-14.2-1.7-39.8-4.4-61.1-2.1C14.2,63.1,0,80,0,100c0,10.2,4.6,20.2,13.8,27.3c6.9,4.4,13.8,6.3,20.9,7.5
		c5.9,1.1,19,1.9,29,1.5c3.1-0.2,25.9-0.9,30.9-1.1c11.5-0.4,17.9,9.4,17.1,19.4V154c0.2-1.3,0.2-2.5,0.2-4
		C111.5,131.5,100,116.5,73.6,111.7z"/>
	<path fill="#FFFFFF" d="M615.4,69.4l-31.2,108.5c-2,6.9-7.1,8.6-14.5,8.6c-4.2,0-8.4-0.7-11.8-1.7l-29.7-95.5l-28,88.6
		c-2.2,6.9-7.6,8.6-14.2,8.6c-4.2,0-8.8-0.7-12.3-1.7L440.4,69.4c2.9-1.5,8.3-2.9,12.8-2.9c5.6,0,8.6,1.7,10.1,7.1l23.5,90.6h0.3
		l29.2-94.7c3.4-2,7.9-2.9,12.5-2.9c7.6,0,11.8,1.7,14,8.8l27,88.8h0.2l22.8-90.6c1.5-5.4,4.4-7.1,10.1-7.1
		C607.3,66.5,612.5,68,615.4,69.4"/>
	<path fill="#FFFFFF" d="M631.5,40.7c0-7.4,5.9-12.8,12.8-12.8c7.4,0,13,5.4,13,12.8c0,6.6-5.6,12.8-13,12.8
		C637.4,53.5,631.5,47.4,631.5,40.7 M634.2,185.4V74.1c0-4.7,2.7-7.6,10.8-7.6c3.4,0,7.1,0.5,9.1,1v111.4c0,4.9-2.5,7.6-10.6,7.6
		C640.1,186.4,636.2,185.9,634.2,185.4"/>
	<path fill="#FFFFFF" d="M756,179.5c-10.3,4.9-22.1,8.1-33.9,8.1c-23.3,0-37.3-13.7-37.3-36.6V49.8c0-5.1,2.9-8.6,10.8-8.6
		c3.4,0,7.4,0.7,9.3,1.2V68h45.9c0.2,1.7,0.7,5.2,0.7,8.1c0,7.1-2.9,9.6-7.4,9.6h-39.3v64c0,13.7,6.4,20.4,19.4,20.4
		c11.8,0,18.4-5.1,24-5.1C754.2,164.8,757.2,169.7,756,179.5"/>
	<path fill="#FFFFFF" d="M877.5,115.3v63.6c0,4.7-2.7,7.6-10.8,7.6c-3.4,0-7.4-0.5-9.3-1V118c0-23.6-11.5-34.8-29-34.8
		c-13.5,0-28.2,9.3-34.1,20.4v75.3c0,4.7-2.7,7.6-10.8,7.6c-3.4,0-7.4-0.5-9.3-1v-118c2-0.5,5.9-1,9.3-1c8.1,0,10.8,2.9,10.8,7.6v10
		c8.6-10.5,21.6-18.9,39-18.9C857.5,65.3,877.5,80.5,877.5,115.3"/>
	<path fill="#FFFFFF" d="M1013.5,133.6h-91.3c2.7,22.8,18.4,35.6,41.7,35.6c10.1,0,17.9-2,25.3-4.4c5.2-1.7,7.4-2.5,9.3-2.5
		c5.7,0,9.3,4.7,8.4,15.5c-10.6,4.7-26.8,9.8-43.7,9.8c-36.8,0-61.6-24.8-61.6-61.6c0-35.4,26.3-60.9,58.4-60.9
		c36.3,0,54.2,28.2,54.2,56.7C1014.2,125.3,1014,129.5,1013.5,133.6 M922.2,118h72.4c-0.7-20.1-13.7-35.8-34.6-35.8
		C941.8,82.2,925.4,94.7,922.2,118"/>
	<path fill="#FFFFFF" d="M1032.7,179.5c-1.5-10.3,1.7-15.7,7.6-15.7c5.7,0,19.4,6.1,38.5,6.1c20.1,0,27.7-7.1,27.7-16.4
		c0-6.6-2.9-12.5-21.1-17.4l-20.9-5.6c-23.1-6.1-32.1-17.7-32.1-31.9c0-17.7,14-33.4,45.6-33.4c14.2,0,31.9,3.2,42.7,7.4
		c2,10.1-1.2,15.5-7.4,15.5c-5.4,0-17.7-5.1-35.1-5.1c-18.6,0-25.5,6.4-25.5,14.7c0,5.9,2.7,11.3,19.4,16l21.3,5.9
		c23.8,6.6,33.4,17.7,33.4,33.4c0,18.4-14.2,34.9-48.6,34.9C1063.1,187.6,1044.2,183.9,1032.7,179.5"/>
	<path fill="#FFFFFF" d="M1143.4,179.5c-1.5-10.3,1.7-15.7,7.6-15.7c5.6,0,19.4,6.1,38.5,6.1c20.1,0,27.7-7.1,27.7-16.4
		c0-6.6-2.9-12.5-21.1-17.4l-20.9-5.6c-23.1-6.1-32.1-17.7-32.1-31.9c0-17.7,14-33.4,45.6-33.4c14.2,0,31.9,3.2,42.7,7.4
		c2,10.1-1.2,15.5-7.4,15.5c-5.4,0-17.7-5.1-35.1-5.1c-18.6,0-25.5,6.4-25.5,14.7c0,5.9,2.7,11.3,19.4,16l21.3,5.9
		c23.8,6.6,33.4,17.7,33.4,33.4c0,18.4-14.2,34.9-48.6,34.9C1173.8,187.6,1154.9,183.9,1143.4,179.5"/>
</g>
</svg>
