<?xml version="1.0" encoding="utf-8"?>
<!-- Generator: Adobe Illustrator 23.0.1, SVG Export Plug-In . SVG Version: 6.00 Build 0)  -->
<!DOCTYPE svg PUBLIC "-//W3C//DTD SVG 1.1//EN" "http://www.w3.org/Graphics/SVG/1.1/DTD/svg11.dtd" [
	<!ENTITY ns_extend "http://ns.adobe.com/Extensibility/1.0/">
	<!ENTITY ns_ai "http://ns.adobe.com/AdobeIllustrator/10.0/">
	<!ENTITY ns_graphs "http://ns.adobe.com/Graphs/1.0/">
	<!ENTITY ns_vars "http://ns.adobe.com/Variables/1.0/">
	<!ENTITY ns_imrep "http://ns.adobe.com/ImageReplacement/1.0/">
	<!ENTITY ns_sfw "http://ns.adobe.com/SaveForWeb/1.0/">
	<!ENTITY ns_custom "http://ns.adobe.com/GenericCustomNamespace/1.0/">
	<!ENTITY ns_adobe_xpath "http://ns.adobe.com/XPath/1.0/">
]>
<svg version="1.1" id="Livello_1" xmlns:x="&ns_extend;" xmlns:i="&ns_ai;" xmlns:graph="&ns_graphs;"
	 xmlns="http://www.w3.org/2000/svg" xmlns:xlink="http://www.w3.org/1999/xlink" x="0px" y="0px" viewBox="0 0 3108.8 500"
	 enable-background="new 0 0 3108.8 500" xml:space="preserve">
<metadata>
	<sfw  xmlns="&ns_sfw;">
		<slices></slices>
		<sliceSourceBounds  bottomLeftOrigin="true" height="500" width="3108.8" x="-0.5" y="0"></sliceSourceBounds>
	</sfw>
</metadata>
<g id="Sky_Sports_Mix_PRIMARY_RGB">
	<g>
		<path id="Path_2_" fill="#FFFFFF" d="M3075.5,500h-778.8c-18.3,0-33.3-15-33.3-33.3V33.3c0-18.3,15-33.3,33.3-33.3h778.8
			c18.3,0,33.3,15,33.3,33.3v433.3C3108.8,485,3093.8,500,3075.5,500z"/>
		<path id="Path_1_" fill="#002A91" d="M3075.5,10c12.8,0,23.3,10.4,23.3,23.3v433.3c0,12.9-10.4,23.4-23.3,23.4h-778.8
			c-12.8,0-23.3-10.4-23.3-23.3V33.3c0-12.8,10.4-23.3,23.3-23.3H3075.5 M3075.5,0h-778.8c-18.3,0-33.3,15-33.3,33.3v433.4
			c0,18.3,15,33.3,33.3,33.3h778.8c18.3,0,33.3-15,33.3-33.4V33.3C3108.8,15,3093.8,0,3075.5,0L3075.5,0z"/>
	</g>
	<g id="Group" transform="translate(126.750000, 4.550000)">
		<path fill="#002A91" d="M2585.8,217.1v117.5c0,8.3-4.6,12.5-17.9,12.5c-5.8,0-12.1-0.8-15.4-1.7V221.3c0-28.3-13.3-45-39.2-45
			c-21.7,0-39.6,15-46.7,30.4V335c0,8.3-4.6,12.5-17.9,12.5c-5.8,0-12.1-0.8-15.4-1.7V221.3c0-28.3-13.3-45-39.2-45
			c-21.7,0-39.6,15-46.7,30.4V335c0,8.3-4.6,12.5-17.9,12.5c-5.8,0-12.1-0.8-15.4-1.7V150c3.3-0.8,9.6-1.7,15.8-1.7
			c12.5,0,17.1,5,17.1,13.3V175c12.5-16.7,32.1-28.8,55.8-28.8c25.8,0,46.2,12.9,56.7,35.4c13.3-20.4,33.8-35.4,62.5-35.4
			C2563.7,146.3,2585.8,177.5,2585.8,217.1z"/>
		<path id="Shape" fill="#002A91" d="M2632.5,105.9c0-12.1,9.6-21.2,21.2-21.2c12.1,0,21.7,8.8,21.7,21.2c0,10.8-9.2,21.2-21.7,21.2
			C2642.1,126.7,2632.5,116.7,2632.5,105.9z M2637.1,345.9v-185c0-7.9,4.6-12.5,17.9-12.5c5.8,0,11.7,0.8,15,1.7v184.6
			c0,8.3-4.2,12.5-17.5,12.5C2646.7,347.5,2640,346.7,2637.1,345.9z"/>
		<path id="XMLID_262_" fill="#002A91" d="M2890.4,125c-4.6,2.1-9.6,4.6-13.3,7.9c-1.7-0.8-1.2,1.2-2.1,1.7
			c-4.6,3.3-8.3,7.9-12.9,11.2c0.8,0.4,0.4,1.2,0,1.2l-2.1,1.7l0.4,0.4c-5.8,5.4-12.1,12.5-17.9,18.8c-0.4,1.7-0.8,3.7-2.5,4.6
			l0.4,0.4c-2.1,1.7-2.9,2.5-4.2,4.6c0.4-0.4,0-0.8-0.4-0.8l-0.8,0.8l0.4,0.4h-0.4c-0.4,0-0.4,0.4-0.8,0.8c1.7,2.1-1.7,2.1-2.1,3.3
			c-0.4-0.4-0.4-0.8-0.8-0.4l-0.4,0.4c0.4,0.4,0.4,0.4,0.4,0.8l-0.4-0.4c-0.4,0.4-1.2,0.8-1.2,1.2l0.4,0.4l-0.8,0.8
			c0,1.2,0-0.4-0.4-0.4c-2.1,0.4,0.4,1.7-1.2,2.5l-0.8-0.8c-0.4,0.4-0.8,0.4-0.4,0.8l0.8,0.8c-0.4,0-1.2,0-1.2-0.4
			c-0.4,0.4-0.8,0.4-0.4,0.8c0.4,0.4,0.4,0.8,0.8,0.4c-4.2,1.7-4.6,7.1-8.8,9.6c-3.8,4.2-4.6,8.3-8.3,12.5l0.4,0.4
			c1.7-2.1,3.3-3.3,4.6-5.4c-2.1,5-7.1,8.3-8.3,14.2l0.4,0.4c-0.4,0.4-0.4,0.4-0.4,0.8l0.4,0.4c1.2-1.7,2.5-2.5,3.3-3.8
			c-1.7,6.7-7.5,10-10,16.2c0,0.8,0.4,1.7,1.2,2.5c0-0.4,0.4,0.4,0.4,0.4l3.3,4.2c-0.8-0.4-0.8,0-1.3,0c0.8,1.7,1.7,2.1,2.5,3.8
			c0.4,0.4,0.4,1.2,0.8,1.7h0.4c0,0.8,0,1.2,0.4,2.1c0,0.4,0.4,0.4,0.4,0.8c0.4,0.8,1.2,2.1,1.7,2.9l1.2,4.6
			c0.8,0.8,1.2,2.1,1.7,2.9c1.7,3.3,4.6,5.4,6.7,8.3c2.9,3.8,5,10,6.7,13.3c3.8,7.5,9.2,11.7,12.5,19.6c1.7,4.2,4.6,7.5,7.1,11.2
			c0.8,1.2,2.1,2.5,2.9,3.8c0.4,0.4,1.2,0.8,1.7,1.7c1.7,2.1,4.6,5,3.3,6.2c-0.4,0.8,2.1,3.8,3.7,6.3c0.4,0.4,0.8,0.8,0.8,1.2
			c1.2,1.7,1.2,3.3,1.2,3.3c0,0.4,0.4,0.4,0.4,0.8c1.2,0.8,3.7,5.8,4.6,8.3l0,0c0,0.4,0.4,0.8,0.4,0.8c0,0.4,0.4,0.4,0.4,0.4l0,0
			c0.8,2.5,0.8,5.4,0.8,7.9c0,1.7-0.4,3.7-0.8,5.8h-0.4c-0.4,1.7,0.4,2.9-0.8,3.8l-0.8-0.4c0.8,1.7-1.2,0.8-2.1,1.2
			c-2.1-1.2-2.1,2.1-5,1.3c-2.5,2.1-5.4-2.5-8.3-0.8c-0.4-3.8-5-4.6-5.4-7.9c-2.5-2.9-6.2-5.4-7.9-8.8c-2.5-3.8-2.9-7.9-5.4-12.1
			c-1.2-2.1-0.4,1.7-1.7-0.4l0.4,2.9l-1.2-2.1l0,0c-1.2-1.7-3.7-2.5-4.6-4.2c0-0.4-0.4-0.4-0.4-0.8c-2.9-4.2-5.8-7.5-8.3-11.7
			l0.4-0.4c1.2,0.4,2.1,2.1,2.9,2.9l0.4-0.4c-2.5-3.3-5-6.7-7.5-10c-6.2-5.8-9.2-12.9-12.9-20.4c-3.3-6.2-8.8-9.6-12.9-15.4
			c-1.7-2.1-2.9-4.2-4.2-5.8c0,0.8,1.2,2.1,0.8,2.9c0.8,1.7,3.3,3.8,3.8,5.8c-0.8-2.9-4.2-5.4-6.3-6.2l-0.4,0.4l-1.7-2.1
			c-1.2,1.2-1.7,3.8-3.3,3.8c0.8,2.1-1.7,2.1-2.5,3.7c0.4,1.7-0.8,3.3-1.7,5c-1.7,0.8-2.1,2.5-2.5,3.8l-0.4-0.4
			c-0.4,0.4-0.8,0.4-0.4,0.8c0,2.1-2.1,4.2-3.3,6.2c-6.2,8.8-10.8,18.8-16.7,27.9c-4.2,6.2-8.8,12.5-15.4,17.1
			c-2.1,3.8-6.3,7.9-10.8,7.9l-0.4-0.4c-0.4,1.2-1.2,0-1.7,0c-0.4-1.3-3.8,0-5-1.3c-2.5,0-3.3-3.3-5.8-3.7c1.7-2.1-0.8-4.2,0.8-5.8
			c0.8-0.8,2.1-2.9,3.3-3.8c0-1.2,0.4-3.3,1.3-4.6l0.4,0.4c0.4-0.4,0.8-0.4,0.4-0.8c-0.4-0.4-0.4-0.8-0.8-0.4l0.8-0.8l-0.4-0.4
			c0.4-2.1,1.7-3.8,2.5-5.4c2.9-4.2,7.1-7.5,8.8-12.5c12.9-18.7,23.3-38.7,37.5-56.7c1.2-1.7,2.1-3.8,1.7-5.4
			c-0.4,0.4-0.4,0.4-0.8,0.4c-0.4-0.4-0.4-0.4-0.4-0.8l0.4,0.4c0.8-1.7-0.8-3.8-1.7-5.8c-0.4-0.4-0.8,0-0.8,0.4l0.4,2.9
			c-2.1-4.2-6.2-7.9-7.5-11.7c-3.3-0.8-2.9-5-5.8-7.1c-3.3-7.1-7.9-12.5-11.7-19.6c-1.2,0.8,0,1.7,0.4,2.9
			c-5.4-9.2-10.8-19.6-16.7-29.2c0,0,0-0.4-0.4-0.4c-1.7-3.8-1.7-7.9,0.4-11.2c0.8-2.5,4.2-4.6,5.8-5.4c-1.2-0.8,0.4-1.7,0.8-2.5
			c2.1-2.1,2.9-5.8,6.2-6.2c-0.8-0.4,0-1.7,0.4-2.1c1.2,0,2.1-1.2,2.9-2.1c1.2,0.4,2.5,0.4,3.3,1.7c5.8,7.1,10.8,14.6,15.4,22.5
			c5.4,8.8,10.4,17.5,17.1,25.4l-0.4,0.4c0.4,0.4,1.2,1.7,1.2,1.7l0.4-0.4c3.8,6.7,8.8,12.1,13.8,18.3h0.8
			c7.9-8.3,14.2-17.5,22.1-25c1.7-2.5,3.8-5.8,6.7-6.7l0.4-0.4l-0.4-0.4c1.7-1.2,2.5-3.8,4.6-4.2l-0.4-0.4c0.8-0.8,1.7-1.7,2.5-2.5
			c21.7-22.5,42.1-45.8,70.8-58.7c1.7-1.7,3.3-2.1,5.4-2.9c0,0.8-1.2,1.2,0,1.7C2897.9,117.1,2893.3,122.1,2890.4,125"/>
	</g>
	<g>
		
			<linearGradient id="Sky_Logo_1_" gradientUnits="userSpaceOnUse" x1="361.9724" y1="275.1942" x2="361.9724" y2="-167.3197" gradientTransform="matrix(1 0 0 -1 0 304)">
			<stop  offset="0" style="stop-color:#002A91"/>
			<stop  offset="0.8" style="stop-color:#002672"/>
		</linearGradient>
		<path id="Sky_Logo" fill="url(#Sky_Logo_1_)" d="M499.7,464.2c10.5,4.6,21.8,7.1,33.2,7.1c26.1,0.6,40.4-9.4,50.9-32.8l140.1-312
			c-9.1-4.1-19-6.4-29-6.7c-18.1-0.4-42.3,3.3-57.6,40.1L592,266.8l-89-144.6c-9.8-2.6-19.9-4-30-4.2c-31.5,0-49,11.5-67.2,31.3
			l-86.5,94.4l69.5,109.4c12.9,19.9,29.8,30.1,57.3,30.1c13.7,0.2,27.3-2.3,40-7.5l-83.8-126l59.4-62.9l97.4,152.7L499.7,464.2z
			 M316,346.3c0,23-9,36.2-54,36.2c-5.4,0-10.8-0.4-16.1-1.1V76.2c0-23.2,7.9-47.4,53.2-47.4c5.7,0,11.4,0.6,16.9,1.7V346.3z
			 M223.1,300.2c0,43-28.1,74.2-85.1,80.4c-41.3,4.4-101.1-0.8-129.5-4c-1-4.9-1.6-9.9-1.7-15c0-37.4,20.2-46,39.2-46
			c19.8,0,50.9,3.5,74,3.5c25.5,0,33.2-8.6,33.2-16.9c0-10.7-10.2-15.2-30-19L69,272.8C24,264.2,0,233,0,200
			c0-40.1,28.4-73.6,84.3-79.8c42.3-4.6,93.8,0.6,122,4c1,4.7,1.5,9.5,1.5,14.4c0,37.4-19.8,45.5-38.8,45.5
			c-14.6,0-37.3-2.7-63.2-2.7c-26.3,0-37.3,7.3-37.3,16.1c0,9.4,10.4,13.2,26.9,16.1l51.7,9.6C200.2,232.9,223.1,263.2,223.1,300.2z
			"/>
		
			<linearGradient id="s25_1_" gradientUnits="userSpaceOnUse" x1="365.5015" y1="40.6988" x2="359.6508" y2="208.2287" gradientTransform="matrix(1 0 0 -1 0 304)">
			<stop  offset="0" style="stop-color:#FFFFFF"/>
			<stop  offset="0.1203" style="stop-color:#FFFFFF;stop-opacity:0.8347"/>
			<stop  offset="0.2693" style="stop-color:#FFFFFF;stop-opacity:0.6576"/>
			<stop  offset="0.4195" style="stop-color:#FFFFFF;stop-opacity:0.5107"/>
			<stop  offset="0.5684" style="stop-color:#FFFFFF;stop-opacity:0.3965"/>
			<stop  offset="0.7156" style="stop-color:#FFFFFF;stop-opacity:0.3152"/>
			<stop  offset="0.8603" style="stop-color:#FFFFFF;stop-opacity:0.2664"/>
			<stop  offset="1" style="stop-color:#FFFFFF;stop-opacity:0.25"/>
		</linearGradient>
		<path id="s25" opacity="0.25" fill="url(#s25_1_)" enable-background="new    " d="M724,126.5l-51.3,114.2
			c-4,8.2-12.3,13.4-21.4,13.4l-46.8,1.6c-5.1,0.3-9.6,3.7-11.4,8.5v-0.1l44.2-104.2c15.4-36.8,39.6-40.5,57.6-40.1
			C705,120.1,714.8,122.4,724,126.5z M589.6,263.1L503,122.2c-9.8-2.6-19.9-4-30-4.2c-31.5,0-49,11.5-67.2,31.3l-86.5,94.4l6.9,10.9
			c4.5,6.8,12.3,10.7,20.5,10.3c4.1-0.1,45.9-1.6,49.3-1.7c8.5-0.7,16.7,3,21.8,9.8l0,0l-15.5-23.3l59.4-62.9l39.9,62.5l0,0
			c4.9,6.2,12.5,9.7,20.4,9.5c2.1-0.1,54.3-1.9,56.7-2C583.1,256.9,587.3,259.3,589.6,263.1L589.6,263.1z M299.1,28.9
			c-45.3,0-53.2,24.2-53.2,47.4v209c0-9.6,7.7-17.4,17.3-17.7l35.1-1.2c9.8,0,17.8-8,17.8-17.8l0,0v-218
			C310.4,29.4,304.8,28.8,299.1,28.9z M147.2,223.1l-51.7-9.6c-16.5-2.9-26.9-6.7-26.9-16.1c0-8.8,11-16.1,37.3-16.1
			c25.9,0,48.6,2.7,63.2,2.7c19,0,38.8-8.1,38.8-45.5c0-4.8-0.5-9.7-1.5-14.4c-28.2-3.5-79.7-8.6-122-4C28.4,126.3,0,159.9,0,199.9
			c0.1,21.4,10.2,41.6,27.3,54.5c12.6,7.8,26.8,12.9,41.5,14.8c19.2,2.6,38.5,3.6,57.8,3c6.1-0.2,51.7-1.8,61.7-2.2
			c23.1-0.8,35.7,18.9,34.4,38.7c0-0.3,0-0.5,0.1-0.8v-0.2c0.2-2.6,0.3-5.2,0.3-7.8C223.1,263.2,200.2,232.9,147.2,223.1z"/>
		
			<linearGradient id="Plinth_1_" gradientUnits="userSpaceOnUse" x1="1194.0155" y1="22.2308" x2="1194.0155" y2="41.4615" gradientTransform="matrix(79.7983 0 0 26 -93714.0469 -578)">
			<stop  offset="0.4" style="stop-color:#FF0000"/>
			<stop  offset="1" style="stop-color:#D42321"/>
		</linearGradient>
		<path id="Plinth_2_" fill="url(#Plinth_1_)" d="M2300.1,0H832.3C814,0,799,15,799,33.3v433.4c0,18.3,15,33.3,33.3,33.3h1468.2
			c18.3,0,33.3-15,33.3-33.3V33.3C2333.4,15,2318.4,0,2300.1,0z"/>
		
			<linearGradient id="p40_1_" gradientUnits="userSpaceOnUse" x1="1569.3412" y1="73.9344" x2="1560.6423" y2="323.0379" gradientTransform="matrix(1 0 0 -1 0 304)">
			<stop  offset="0" style="stop-color:#FFFFFF"/>
			<stop  offset="0.1203" style="stop-color:#FFFFFF;stop-opacity:0.8347"/>
			<stop  offset="0.2693" style="stop-color:#FFFFFF;stop-opacity:0.6576"/>
			<stop  offset="0.4195" style="stop-color:#FFFFFF;stop-opacity:0.5107"/>
			<stop  offset="0.5684" style="stop-color:#FFFFFF;stop-opacity:0.3965"/>
			<stop  offset="0.7156" style="stop-color:#FFFFFF;stop-opacity:0.3152"/>
			<stop  offset="0.8603" style="stop-color:#FFFFFF;stop-opacity:0.2664"/>
			<stop  offset="1" style="stop-color:#FFFFFF;stop-opacity:0.25"/>
		</linearGradient>
		<path id="p40" opacity="0.4" fill="url(#p40_1_)" enable-background="new    " d="M823.5,248.1c0,0,1.1-0.1,3.2-0.2
			c98.6-3.5,1482.3-51.8,1482.3-51.8c13.9-0.1,25-11.5,24.9-25.3V33.3c0-18.4-14.9-33.3-33.3-33.3L832.8,0.1
			c-18.4,0-33.3,14.9-33.3,33.3v240.6C799.1,260.5,809.8,248.8,823.5,248.1z"/>
		<g transform="translate(46.366667, 4.116667)">
			<path fill="#FFFFFF" d="M848.4,355.2c-2.9-20.4,3.3-31.2,15.4-31.2c11.2,0,38.8,12.1,77.1,12.1c40.4,0,55.4-14.2,55.4-32.9
				c0-13.3-5.8-25-42.1-35L912.5,257c-46.2-12.1-64.2-35.4-64.2-63.8c0-35.4,27.9-66.7,91.2-66.7c28.3,0,63.8,6.2,85.4,14.6
				c3.8,20-2.5,30.8-14.6,30.8c-10.8,0-35.4-10.4-70-10.4c-37.5,0-51.2,12.9-51.2,29.6c0,11.7,5.4,22.5,38.8,32.1l42.5,11.7
				c47.5,13.3,66.7,35.4,66.7,66.7c0,36.7-28.3,69.6-97.1,69.6C909.2,371.4,871.3,363.9,848.4,355.2z"/>
			<path fill="#FFFFFF" d="M1320.6,248.9c0,77.1-54.2,122.5-113.3,122.5c-35.4,0-64.2-16.7-81.7-40.4v99.1c0,9.2-5.4,15.4-21.2,15.4
				c-7.9,0-15.4-0.8-19.2-2.1V130.9c3.8-0.8,11.2-2.1,19.2-2.1c15.8,0,21.2,5.8,21.2,15.4v22.5c17.1-23.8,46.2-40.4,81.7-40.4
				C1266.4,126.3,1320.6,172.1,1320.6,248.9z M1279.8,248.9c0-51.7-34.2-87.1-80.4-87.1c-31.2,0-60.4,18.3-73.8,44.6v85
				c13.3,26.7,42.1,44.6,73.8,44.6C1245.6,336,1279.8,300.6,1279.8,248.9z"/>
			<path fill="#FFFFFF" d="M1359.3,248.9c0-70,51.7-122.1,120.8-122.1c69.6,0,121.2,52.1,121.2,122.1c0,69.6-51.7,122.5-121.2,122.5
				C1411,371.4,1359.3,318.5,1359.3,248.9z M1560.6,248.9c0-54.2-36.2-87.1-80.4-87.1c-43.8,0-80,32.9-80,87.1
				c0,53.3,36.2,87.5,80,87.5C1524.3,336,1560.6,302.2,1560.6,248.9z"/>
			<path fill="#FFFFFF" d="M1796.9,148.4c0,16.2-6.7,19.6-23.8,19.6c-33.8,0-62.5,15.8-80,52.5v132.9c0,10-5.4,15.4-21.7,15.4
				c-6.7,0-14.6-0.8-18.8-2.1V130.9c3.8-0.8,11.7-2.1,18.8-2.1c16.2,0,21.7,5.8,21.7,15.4v32.9c22.9-35,57.9-52.5,101.7-46.7
				C1795.3,133.8,1796.9,141.3,1796.9,148.4z"/>
			<path fill="#FFFFFF" d="M1973.6,355.2c-20.4,10-44.2,16.2-67.9,16.2c-46.7,0-74.6-27.5-74.6-73.3V95.5c0-10.4,5.8-17.1,21.7-17.1
				c6.7,0,14.6,1.7,18.8,2.5v51.2h91.7c0.4,3.3,1.7,10.4,1.7,16.2c0,14.2-5.8,19.2-14.6,19.2h-78.3v127.9
				c0,27.5,12.9,40.8,38.8,40.8c23.8,0,36.7-10.4,47.9-10.4C1969.9,326,1976.1,335.6,1973.6,355.2z"/>
			<path fill="#FFFFFF" d="M2001.5,355.2c-2.9-20.4,3.3-31.2,15.4-31.2c11.3,0,38.8,12.1,77.1,12.1c40.4,0,55.4-14.2,55.4-32.9
				c0-13.3-5.8-25-42.1-35l-41.7-11.2c-46.2-12.1-64.2-35.4-64.2-63.8c0-35.4,27.9-66.7,91.3-66.7c28.3,0,63.7,6.2,85.4,14.6
				c3.8,20-2.5,30.8-14.6,30.8c-10.8,0-35.4-10.4-70-10.4c-37.5,0-51.2,12.9-51.2,29.6c0,11.7,5.4,22.5,38.8,32.1l42.5,11.7
				c47.5,13.3,66.7,35.4,66.7,66.7c0,36.7-28.3,69.6-97.1,69.6C2062.4,371.4,2024.4,363.9,2001.5,355.2z"/>
		</g>
	</g>
</g>
</svg>
