<svg version="1.1" id="PRIMARY" xmlns="http://www.w3.org/2000/svg" x="0" y="0" viewBox="0 0 561.6 120" xml:space="preserve"><linearGradient id="Plinth_1_" gradientUnits="userSpaceOnUse" x1="191.659" y1="60" x2="561.586" y2="60"><stop offset="0" stop-color="#2b6300"/><stop offset="1" stop-color="#3e8f00"/></linearGradient><path id="Plinth_3_" d="M553.6 0H199.7c-4.4 0-8 3.6-8 8v104c0 4.4 3.6 8 8 8h353.9c4.4 0 8-3.6 8-8V8c0-4.4-3.6-8-8-8z" fill="url(#Plinth_1_)"/><path id="Sky_x5F_Logo_3_" d="M119.9 111.4c1.4.7 4.3 1.6 8 1.7 6.3.1 9.7-2.3 12.2-7.9l33.6-74.8c-1.4-.7-4.5-1.6-7-1.6-4.3-.1-10.1.8-13.8 9.6L142 64l-21.3-34.7c-1.4-.4-4.8-1-7.2-1-7.6 0-11.8 2.8-16.1 7.5L76.6 58.4l16.7 26.2c3.1 4.8 7.1 7.2 13.7 7.2 4.3 0 7.9-1 9.6-1.8L96.5 59.9l14.2-15.1 23.4 36.6-14.2 30zM75.8 83.1c0 5.5-2.2 8.7-13 8.7-1.4 0-2.7-.1-3.9-.3V18.3c0-5.6 1.9-11.4 12.8-11.4 1.4 0 2.8.1 4.1.4v75.8zM53.5 72c0 10.3-6.7 17.8-20.4 19.3-9.9 1.1-24.3-.2-31.1-1-.2-1.1-.4-2.5-.4-3.6 0-9 4.8-11 9.4-11 4.7 0 12.2.8 17.8.8 6.1 0 8-2.1 8-4 0-2.6-2.4-3.6-7.2-4.6l-13-2.5C5.8 63.4 0 55.9 0 48c0-9.6 6.8-17.7 20.2-19.1 10.1-1.1 22.5.1 29.3 1 .2 1.1.4 2.3.4 3.5 0 9-4.7 10.9-9.3 10.9-3.5 0-8.9-.6-15.2-.6-6.3 0-8.9 1.7-8.9 3.9 0 2.3 2.5 3.2 6.5 3.9l12.4 2.3C48 55.9 53.5 63.1 53.5 72z" fill="#2b6300"/><linearGradient id="s30_1_" gradientUnits="userSpaceOnUse" x1="87.683" y1="63.167" x2="86.279" y2="22.976"><stop offset="0" stop-color="#fff"/><stop offset="1" stop-color="#fff" stop-opacity=".25"/></linearGradient><path id="s30_2_" d="M173.7 30.4l-12.3 27.4c-.4.7-1.7 3.1-5.1 3.2-.8 0-11.2.4-11.2.4-2 .1-2.7 2-2.7 2l10.6-25c3.7-8.8 9.5-9.7 13.8-9.6 2.4 0 5.5.8 6.9 1.6zm-32.2 32.7l-20.8-33.8c-1.4-.4-4.8-1-7.2-1-7.6 0-11.8 2.8-16.1 7.5L76.6 58.4l1.7 2.6c.7 1 2.1 2.6 4.9 2.5 1 0 11-.4 11.8-.4 2.6-.1 4.2 1 5.2 2.3l-3.7-5.6 14.2-15.1 9.6 15c1.7 2.3 4.3 2.3 4.9 2.3.5 0 13-.5 13.6-.5.9 0 1.9.5 2.7 1.6zM71.7 6.9C60.8 6.9 59 12.7 59 18.3v50.2c0-2 1.6-4.1 4.1-4.2 1.8-.1 6.9-.2 8.4-.3 1.7-.1 4.2-1.2 4.3-4.3V7.3c-1.3-.2-2.7-.4-4.1-.4zM35.3 53.6l-12.4-2.3c-4-.7-6.5-1.6-6.5-3.9 0-2.1 2.6-3.9 8.9-3.9 6.2 0 11.7.6 15.2.6 4.6 0 9.3-1.9 9.3-10.9 0-1.2-.1-2.3-.4-3.5-6.8-.8-19.1-2.1-29.3-1C6.8 30.3 0 38.4 0 48c0 4.9 2.2 9.7 6.6 13.1 3.3 2.1 6.6 3 10 3.6 2.8.5 9.1.9 13.9.7 1.5-.1 12.4-.4 14.8-.5 5.5-.2 8.6 4.5 8.2 9.3v-.3c.1-.6.1-1.2.1-1.9-.1-8.9-5.6-16.1-18.3-18.4z" opacity=".3" fill="url(#s30_1_)"/><g><path d="M267 55.4v30.5c0 2.2-1.3 3.7-5.2 3.7-1.6 0-3.5-.2-4.5-.5V56.7c0-11.3-5.5-16.7-13.9-16.7-6.5 0-13.5 4.5-16.4 9.8V86c0 2.2-1.3 3.7-5.2 3.7-1.6 0-3.5-.2-4.5-.5V32.4c.9-.2 2.8-.5 4.5-.5 3.9 0 5.2 1.4 5.2 3.7v4.8c4.1-5.1 10.4-9.1 18.7-9.1 11.6 0 21.3 7.3 21.3 24.1zm59.7-2.6V89c-.9.2-2.7.5-4.4.5-3.5 0-5.2-1.3-5.2-3.7v-4.9c-5.1 5.8-11.7 9.2-20 9.2-12.6 0-19.6-8.2-19.6-17.2 0-13.7 14.6-19.7 39.5-18v-2c0-9.3-2.8-13.2-13.5-13.2-4.5 0-10.5 1.3-13.7 2.1-1.9.5-3.3.9-4.5.9-2.7 0-4.5-2.4-3.5-7.3 5.8-2.1 14.1-4.1 22.1-4.1 16.6 0 22.8 7.4 22.8 21.5zM317 72.6V61.8c-16.3-1.2-29.8.9-29.8 10.7 0 4.9 4.1 9.4 11.5 9.4 7.6.1 14.2-3.7 18.3-9.3zm58.3 13.6c-4.9 2.4-10.6 3.9-16.3 3.9-11.2 0-17.9-6.6-17.9-17.6V23.9c0-2.5 1.4-4.1 5.2-4.1 1.6 0 3.5.4 4.5.6v12.3h22c.1.8.4 2.5.4 3.9 0 3.4-1.4 4.6-3.5 4.6h-18.8v30.7c0 6.6 3.1 9.8 9.3 9.8 5.7 0 8.8-2.5 11.5-2.5 2.8 0 4.2 2.3 3.6 7zm56.9-53.8V89c-.9.2-2.8.5-4.5.5-3.9 0-5.2-1.4-5.2-3.7V81c-4.1 5.1-10.4 9.1-18.7 9.1-11.5 0-21.2-7.3-21.2-24V35.6c0-2.2 1.3-3.7 5.2-3.7 1.6 0 3.5.2 4.5.5v32.4c0 11.3 5.5 16.7 13.9 16.7 6.5 0 13.5-4.5 16.4-9.8V35.6c0-2.2 1.3-3.7 5.2-3.7 1.6 0 3.5.3 4.4.5zm49.8 4.2c0 3.9-1.6 4.7-5.7 4.7-8.1 0-15 3.8-19.2 12.6v31.9c0 2.4-1.3 3.7-5.2 3.7-1.6 0-3.5-.2-4.5-.5V32.4c.9-.2 2.8-.5 4.5-.5 3.9 0 5.2 1.4 5.2 3.7v7.9c5.5-8.4 13.9-12.6 24.4-11.2.1.8.5 2.6.5 4.3zm57 27.6h-43.8c1.3 11 8.8 17.1 20 17.1 4.8 0 8.6-.9 12.1-2.1 2.5-.8 3.5-1.2 4.5-1.2 2.7 0 4.5 2.2 4 7.4-5.1 2.2-12.8 4.7-21 4.7-17.7 0-29.6-11.9-29.6-29.6 0-17 12.6-29.2 28-29.2 17.4 0 26 13.5 26 27.2.1 1.7 0 3.7-.2 5.7zm-43.8-7.5H530c-.4-9.7-6.6-17.2-16.6-17.2-8.8 0-16.7 6-18.2 17.2z" fill="#fff"/></g><linearGradient id="p30_1_" gradientUnits="userSpaceOnUse" x1="377.264" y1="55.163" x2="375.177" y2="-4.598"><stop offset="0" stop-color="#fff"/><stop offset="1" stop-color="#fff" stop-opacity=".25"/></linearGradient><path id="p30_3_" d="M197.4 59.5h.8C221.8 58.7 555.6 47 555.6 47c3-.1 6-2.3 6-6.1V8c0-4.4-3.6-8-8-8H199.7c-4.4 0-8 3.6-8 8v57.8c0-.7.1-5.7 5.7-6.3z" opacity=".3" fill="url(#p30_1_)"/></svg>