<?xml version="1.0" encoding="utf-8"?>
<!-- Generator: Adobe Illustrator 23.0.1, SVG Export Plug-In . SVG Version: 6.00 Build 0)  -->
<svg version="1.1" id="Livello_1" xmlns="http://www.w3.org/2000/svg" xmlns:xlink="http://www.w3.org/1999/xlink" x="0px" y="0px"
	 viewBox="0 0 4740.9 500" enable-background="new 0 0 4740.9 500" xml:space="preserve">
<g>
	<path fill="#E70101" d="M4707.6,0h-608c-18.4,0-33.3,14.9-33.3,33.3v433.4c0,18.4,14.8,33.3,33.3,33.3h608
		c18.4,0,33.3-14.9,33.3-33.3V33.4C4740.9,14.9,4726,0,4707.6,0 M4707.6,10c12.9,0,23.3,10.5,23.3,23.3v433.4
		c0,12.8-10.5,23.3-23.3,23.3h-608c-12.9,0-23.3-10.5-23.3-23.3V33.4c0-12.9,10.5-23.3,23.3-23.3h608"/>
	<path fill="#FFFFFF" d="M4707.6,10c12.9,0,23.3,10.5,23.3,23.3v433.4c0,12.8-10.5,23.3-23.3,23.3h-608c-12.9,0-23.3-10.5-23.3-23.3
		V33.4c0-12.9,10.5-23.3,23.3-23.3h608"/>
	<path fill="#E70101" d="M4412.5,153.8v184.7c0,8.1-4.1,12.6-16.7,12.6c-5.7,0-11-0.8-15.1-1.6v-85h-105.4v74.1
		c0,8.1-4.1,12.6-16.7,12.6c-6.1,0-12.2-0.8-15.1-1.6V164.8c0-7.8,4.1-12.6,17.1-12.6c5.7,0,11.3,0.8,14.6,1.6V236h104.9v-71.2
		c0-7.8,4.5-12.6,17.5-12.6C4403.5,152.2,4409.2,153,4412.5,153.8"/>
	<path fill="#E70101" d="M4628.6,251.5c0,55.4-38.7,97.3-99.3,97.3h-56.5c-12.2,0-16.7-4.9-16.7-12.6V167.2
		c0-7.7,4.5-12.6,16.7-12.6h56.5C4590,154.6,4628.6,196.1,4628.6,251.5 M4596.5,251.5c0-41.5-26-68.4-67.1-68.4h-41.5v137.1h41.5
		C4570.4,320.3,4596.5,293.4,4596.5,251.5"/>
</g>
<g>
	<path fill="#E70101" d="M4103.1,0L831.9,0c-18.4,0-33.3,14.9-33.3,33.3v433.3c0,18.4,14.9,33.3,33.3,33.3l3271.2,0
		c18.4,0,33.3-14.9,33.3-33.3V33.3C4136.4,14.9,4121.5,0,4103.1,0"/>
	<g>
		<path fill="#D5D5D5" d="M1127.6,52.5v317.6c-3.4,1.5-11.3,2.9-18.1,2.9c-16.2,0-21.6-6.4-21.6-18.6v-19.6
			c-17.7,24.1-46.1,40.7-81.5,40.7c-59.9,0-113.4-45.6-113.4-122.7c0-76.6,53.5-122.2,113.4-122.2c35.3,0,63.8,16.7,81.5,40.7V65.8
			c0-9.3,5.9-15.2,22.1-15.2C1116.8,50.5,1124.2,51.5,1127.6,52.5 M1087.8,295.5v-84.9c-13.3-26.5-42.2-44.7-74.1-44.7
			c-46.1,0-80,35.3-80,86.9c0,52,33.9,87.4,80,87.4C1045.6,340.1,1074.6,322,1087.8,295.5"/>
		<path fill="#D5D5D5" d="M1177.5,252.8c0-70.2,51.5-122.2,120.7-122.2c69.7,0,121.2,52,121.2,122.2c0,69.7-51.5,122.7-121.2,122.7
			C1229.1,375.5,1177.5,322.5,1177.5,252.8 M1378.7,252.8c0-54-36.3-86.9-80.5-86.9c-43.7,0-80,32.9-80,86.9
			c0,53.5,36.3,87.4,80,87.4C1342.4,340.1,1378.7,306.3,1378.7,252.8"/>
		<path fill="#D5D5D5" d="M1455.7,252.8c0-70.2,51.5-122.2,119.8-122.2c31.9,0,61.4,8.8,82,18.6c3.4,22.1-3.4,30.9-13.3,30.9
			c-17.2,0-31.9-14.2-67.2-14.2c-44.2,0-80.5,32.9-80.5,86.9c0,53.5,36.3,86.9,80.5,86.9c35.3,0,50.1-14.7,65.8-14.7
			c10.3,0,17.7,9.3,14.7,31.4c-20.6,10.3-50.1,19.1-82,19.1C1507.2,375.5,1455.7,322.5,1455.7,252.8"/>
		<path fill="#D5D5D5" d="M1905.8,135V371c-3.9,1-11.8,2-18.7,2c-16.2,0-21.6-5.9-21.6-15.2v-20.1c-17.2,21.1-43.2,37.8-78,37.8
			c-48.1,0-88.4-30.4-88.4-100.1V148.2c0-9.3,5.4-15.2,21.6-15.2c6.9,0,14.7,1,18.6,2v135c0,47.1,23.1,69.7,57.9,69.7
			c27,0,56.4-18.6,68.2-40.7V148.2c0-9.3,5.4-15.2,21.6-15.2C1894,133,1901.9,134,1905.8,135"/>
		<path fill="#D5D5D5" d="M2297.2,215.9v141.8c0,9.8-5.4,15.2-21.6,15.2c-6.9,0-14.7-1-18.6-2V220.9c0-34.4-16.2-54.5-47.1-54.5
			c-26,0-47.6,18.2-56.4,36.8v154.6c0,9.8-5.4,15.2-21.6,15.2c-6.9,0-14.7-1-18.7-2V220.9c0-34.4-16.2-54.5-47.1-54.5
			c-26,0-47.6,18.2-56.4,36.8v154.6c0,9.8-5.4,15.2-21.6,15.2c-6.9,0-14.7-1-18.6-2V135c3.9-1,11.8-2,19.1-2
			c15.2,0,20.6,5.9,20.6,16.2v16.2c15.2-20.1,38.8-34.8,67.2-34.8c31.4,0,56,15.7,68.2,42.7c16.2-24.5,40.7-42.7,75.6-42.7
			C2270.7,130.5,2297.2,168.3,2297.2,215.9"/>
		<path fill="#D5D5D5" d="M2569.8,267.5h-182.6c5.4,45.6,36.8,71.2,83.4,71.2c20.1,0,35.8-3.9,50.6-8.8c10.3-3.4,14.7-4.9,18.7-4.9
			c11.3,0,18.6,9.3,16.7,30.9c-21.1,9.3-53.5,19.6-87.4,19.6c-73.6,0-123.2-49.6-123.2-123.2c0-70.7,52.5-121.7,116.8-121.7
			c72.6,0,108.5,56.4,108.5,113.4C2571.3,250.8,2570.8,259.1,2569.8,267.5 M2387.2,236.1H2532c-1.5-40.2-27.5-71.7-69.2-71.7
			C2426.5,164.4,2393.6,189.4,2387.2,236.1"/>
		<path fill="#D5D5D5" d="M2828.3,230.7v127.1c0,9.3-5.4,15.2-21.6,15.2c-6.9,0-14.7-1-18.7-2v-135c0-47.1-23.1-69.7-57.9-69.7
			c-27,0-56.4,18.6-68.2,40.7v150.7c0,9.3-5.4,15.2-21.6,15.2c-6.9,0-14.7-1-18.6-2V135c3.9-1,11.8-2,18.6-2
			c16.2,0,21.6,5.9,21.6,15.2v20.1c17.2-21.1,43.2-37.8,78-37.8C2788,130.5,2828.3,161,2828.3,230.7"/>
		<path fill="#D5D5D5" d="M3030.3,359.3c-20.6,9.8-44.2,16.2-67.7,16.2c-46.6,0-74.6-27.5-74.6-73.1V99.6c0-10.3,5.9-17.2,21.6-17.2
			c6.9,0,14.7,1.5,18.7,2.5v51h91.8c0.5,3.4,1.5,10.3,1.5,16.2c0,14.2-5.9,19.1-14.7,19.1h-78.5v128.1c0,27.5,12.8,40.7,38.8,40.7
			c23.6,0,36.8-10.3,48.1-10.3C3026.8,329.8,3032.7,339.6,3030.3,359.3"/>
		<path fill="#D5D5D5" d="M3260.1,219.9V371c-3.9,1-11.3,2-18.2,2c-14.7,0-21.6-5.4-21.6-15.2v-20.6c-21.1,24.1-48.6,38.3-83.4,38.3
			c-52.5,0-81.5-34.3-81.5-71.6c0-56.9,60.9-82,164.4-75.1v-8.4c0-38.8-11.8-55-56.4-55c-18.6,0-43.7,5.4-56.9,8.8
			c-7.9,2-13.7,3.9-18.7,3.9c-11.3,0-18.7-9.8-14.7-30.4c24-8.8,58.9-17.2,92.3-17.2C3234.5,130.5,3260.1,161.5,3260.1,219.9
			 M3219.8,302.3v-44.7c-67.7-4.9-124.2,3.9-124.2,44.7c0,20.6,17.2,39.3,48.1,39.3C3175.2,341.6,3202.6,325.9,3219.8,302.3"/>
		<path fill="#D5D5D5" d="M3466.2,152.6c0,16.2-6.9,19.6-23.6,19.6c-33.9,0-62.3,15.7-80,52.5v133c0,9.8-5.4,15.2-21.6,15.2
			c-6.9,0-14.7-1-18.7-2V135c3.9-1,11.8-2,18.7-2c16.2,0,21.6,5.9,21.6,15.2v32.9c23.1-34.8,57.9-52.5,101.6-46.6
			C3464.7,137.9,3466.2,145.3,3466.2,152.6"/>
		<path fill="#D5D5D5" d="M3495.6,81.5c0-14.7,11.8-25.5,25.5-25.5c14.7,0,26,10.8,26,25.5c0,13.3-11.3,25.5-26,25.5
			C3507.4,107,3495.6,94.7,3495.6,81.5 M3501,371V148.2c0-9.3,5.4-15.2,21.6-15.2c6.9,0,14.2,1,18.1,2v222.8
			c0,9.8-4.9,15.2-21.1,15.2C3512.8,373,3505,372,3501,371"/>
		<path fill="#D5D5D5" d="M3813.6,267.5H3631c5.4,45.6,36.8,71.2,83.4,71.2c20.1,0,35.8-3.9,50.5-8.8c10.3-3.4,14.7-4.9,18.7-4.9
			c11.3,0,18.6,9.3,16.7,30.9c-21.1,9.3-53.5,19.6-87.4,19.6c-73.6,0-123.2-49.6-123.2-123.2c0-70.7,52.5-121.7,116.8-121.7
			c72.6,0,108.5,56.4,108.5,113.4C3815.1,250.8,3814.6,259.1,3813.6,267.5 M3631,236.1h144.8c-1.5-40.2-27.5-71.7-69.2-71.7
			C3670.3,164.4,3637.4,189.4,3631,236.1"/>
		<path fill="#D5D5D5" d="M3852,359.3c-2.9-20.6,3.4-31.4,15.2-31.4c11.3,0,38.8,12.3,77.1,12.3c40.2,0,55.5-14.2,55.5-32.9
			c0-13.3-5.9-25-42.2-34.8l-41.7-11.3c-46.1-12.3-64.3-35.3-64.3-63.8c0-35.3,28-66.8,91.3-66.8c28.5,0,63.8,6.4,85.4,14.7
			c3.9,20.1-2.5,30.9-14.7,30.9c-10.8,0-35.3-10.3-70.2-10.3c-37.3,0-51,12.8-51,29.4c0,11.8,5.4,22.6,38.8,31.9l42.7,11.8
			c47.6,13.3,66.7,35.3,66.7,66.7c0,36.8-28.5,69.7-97.2,69.7C3912.8,375.5,3875,368.1,3852,359.3"/>
	</g>
	<path fill="#E70101" d="M499.5,464c6,3.1,18.1,6.7,33.2,7.1c26.1,0.6,40.3-9.4,50.9-32.8l140.1-311.8c-5.8-3.1-18.6-6.5-29-6.7
		c-18.1-0.4-42.3,3.3-57.6,40.1l-45.3,106.8l-88.9-144.6c-5.8-1.7-19.8-4.2-30-4.2c-31.5,0-49,11.5-67.2,31.3l-86.4,94.4l69.5,109.3
		c12.9,19.9,29.8,30.1,57.3,30.1c18.1,0,33-4.2,40-7.5l-83.8-126l59.4-62.9l97.4,152.7L499.5,464z M315.8,346.1c0,23-9,36.2-54,36.2
		c-6,0-11.1-0.4-16.1-1.1V76.2c0-23.2,7.9-47.4,53.2-47.4c5.8,0,11.5,0.6,16.9,1.7V346.1z M223.1,300.1c0,43-28.1,74.2-85.1,80.4
		c-41.3,4.4-101.1-0.8-129.5-4c-1-4.6-1.7-10.4-1.7-15c0-37.4,20.2-46,39.2-46c19.8,0,50.9,3.5,74,3.5c25.6,0,33.2-8.6,33.2-16.9
		c0-10.7-10.2-15.1-30-19L69,272.6C24,264,0,232.9,0,199.9c0-40.1,28.4-73.6,84.3-79.8c42.3-4.6,93.8,0.6,122,4
		c1,4.8,1.5,9.4,1.5,14.4c0,37.4-19.8,45.5-38.8,45.5c-14.6,0-37.3-2.7-63.2-2.7c-26.3,0-37.3,7.3-37.3,16.1
		c0,9.4,10.4,13.2,26.9,16.1l51.7,9.6C200.2,232.9,223.1,263,223.1,300.1"/>
	
		<linearGradient id="s30_2_" gradientUnits="userSpaceOnUse" x1="365.3463" y1="238.1084" x2="359.4979" y2="405.5713" gradientTransform="matrix(1 0 0 -1 0 501.3284)">
		<stop  offset="0" style="stop-color:#FFFFFF"/>
		<stop  offset="1" style="stop-color:#FFFFFF;stop-opacity:0.25"/>
	</linearGradient>
	<path id="s30_1_" opacity="0.3" fill="url(#s30_2_)" d="M723.8,126.5l-51.3,114.2c-1.5,3.1-7.2,12.9-21.4,13.4
		c-3.3,0.1-46.8,1.6-46.8,1.6c-8.5,0.3-11.3,8.4-11.4,8.5v0l44.2-104.2c15.4-36.8,39.6-40.5,57.6-40.1
		C705.1,120,718,123.4,723.8,126.5z M589.5,262.9l-86.6-140.8c-5.8-1.8-19.8-4.2-30-4.2c-31.5,0-49,11.5-67.2,31.3l-86.5,94.3
		l6.9,10.8c3,4,8.9,10.7,20.5,10.3c4.1-0.1,45.9-1.6,49.3-1.7c10.8-0.4,17.7,4.2,21.8,9.8l0,0l-15.5-23.3l59.4-62.9l39.9,62.5l0,0
		c7.2,9.4,18.1,9.6,20.4,9.5c2.1-0.1,54.3-1.9,56.7-2C582.1,256.4,586.3,258.4,589.5,262.9z M298.9,28.9
		c-45.3,0-53.2,24.2-53.2,47.4v209c0-8.4,6.5-17.3,17.3-17.7c7.5-0.2,28.8-1,35.1-1.2c6.9-0.2,17.6-5,17.8-17.8V30.6
		C310.4,29.4,304.6,28.9,298.9,28.9z M147.2,223.1l-51.7-9.6c-16.5-2.9-26.9-6.7-26.9-16.1c0-8.8,11-16.1,37.3-16.1
		c25.9,0,48.6,2.7,63.2,2.7c19,0,38.8-8,38.8-45.5c0-5-0.6-9.6-1.5-14.4c-28.2-3.5-79.7-8.6-122-4C28.4,126.3,0,159.9,0,199.9
		c0,20.6,9.4,40.4,27.3,54.5c13.7,9,27.5,12.4,41.5,14.8c11.5,2,38.1,3.8,57.8,3c6.1-0.2,51.8-1.8,61.7-2.2
		c23.1-0.8,35.7,19,34.4,38.7c0-0.2,0-0.5,0.1-0.8c0-0.1,0-0.2,0-0.2c0.2-2.5,0.3-5.2,0.3-7.8C223,263.1,200.2,232.9,147.2,223.1z"
		/>
	
		<linearGradient id="p30_2_" gradientUnits="userSpaceOnUse" x1="2469.0881" y1="302.8134" x2="2460.3926" y2="551.8172" gradientTransform="matrix(1 0 0 -1 0 501.3284)">
		<stop  offset="0" style="stop-color:#FFFFFF"/>
		<stop  offset="1" style="stop-color:#FFFFFF;stop-opacity:0.25"/>
	</linearGradient>
	<path id="p30_1_" opacity="0.3" fill="url(#p30_2_)" enable-background="new    " d="M822.6,248.1c0,0,1.1-0.1,3.2-0.2
		c98.6-3.5,3285.8-114.7,3285.8-114.7c12.5-0.5,24.9-9.8,24.9-25.3V33.3c0-18.4-14.9-33.3-33.3-33.3L831.9,0
		c-18.4,0-33.3,14.9-33.3,33.3V274C798.5,271.3,799.4,250.3,822.6,248.1z"/>
</g>
</svg>
