<?xml version="1.0" encoding="utf-8"?>
<!-- Generator: Adobe Illustrator 23.0.1, SVG Export Plug-In . SVG Version: 6.00 Build 0)  -->
<!DOCTYPE svg PUBLIC "-//W3C//DTD SVG 1.1//EN" "http://www.w3.org/Graphics/SVG/1.1/DTD/svg11.dtd" [
	<!ENTITY ns_extend "http://ns.adobe.com/Extensibility/1.0/">
	<!ENTITY ns_ai "http://ns.adobe.com/AdobeIllustrator/10.0/">
	<!ENTITY ns_graphs "http://ns.adobe.com/Graphs/1.0/">
	<!ENTITY ns_vars "http://ns.adobe.com/Variables/1.0/">
	<!ENTITY ns_imrep "http://ns.adobe.com/ImageReplacement/1.0/">
	<!ENTITY ns_sfw "http://ns.adobe.com/SaveForWeb/1.0/">
	<!ENTITY ns_custom "http://ns.adobe.com/GenericCustomNamespace/1.0/">
	<!ENTITY ns_adobe_xpath "http://ns.adobe.com/XPath/1.0/">
]>
<svg version="1.1" id="Livello_1" xmlns:x="&ns_extend;" xmlns:i="&ns_ai;" xmlns:graph="&ns_graphs;"
	 xmlns="http://www.w3.org/2000/svg" xmlns:xlink="http://www.w3.org/1999/xlink" x="0px" y="0px" viewBox="0 0 2342.5 500"
	 enable-background="new 0 0 2342.5 500" xml:space="preserve">
<metadata>
	<sfw  xmlns="&ns_sfw;">
		<slices></slices>
		<sliceSourceBounds  bottomLeftOrigin="true" height="500" width="2342.5" x="100.4" y="-853.4"></sliceSourceBounds>
	</sfw>
</metadata>
<g id="Sky_Sports_NFL_PRIMARY_RGB" transform="translate(200.000000, 450.000000)">
	<g id="Sky_Sports_NFL_PRIMARY_RGB_1_" transform="translate(200.000000, 450.000000)">
		
			<linearGradient id="Sky_x5F_Logo_1_" gradientUnits="userSpaceOnUse" x1="-1151.917" y1="-775.0185" x2="-1151.917" y2="-779.8729" gradientTransform="matrix(149.68 0 0 -91.1576 172382.2188 -71520.0469)">
			<stop  offset="0" style="stop-color:#002A91"/>
			<stop  offset="0.8" style="stop-color:#002672"/>
		</linearGradient>
		<path id="Sky_x5F_Logo_2_" fill="url(#Sky_x5F_Logo_1_)" d="M101.6-435.8c5.9,2.9,18,6.7,33.5,7.1c26.4,0.4,40.6-9.6,51-32.9
			l140.6-311.7c-5.9-2.9-18.8-6.7-29.3-6.7c-18-0.4-42.2,3.3-57.7,40L194-633.3l-89.1-144.6c-5.9-1.7-20.1-4.2-30.1-4.2
			c-31.8,0-49.4,11.7-67.3,31.2l-87,94.2l69.9,109.2c13,20,29.7,30,57.3,30c18,0,33-4.2,40.2-7.5L3.7-650.4l59.4-62.9L161-560.8
			L101.6-435.8z M-82.9-553.8c0,22.9-9.2,36.2-54.4,36.2c-5.9,0-11.3-0.4-16.3-1.2v-305c0-23.3,7.9-47.5,53.5-47.5
			c5.9,0,11.7,0.4,17.2,1.7V-553.8z M-176.2-600c0,42.9-28,74.2-85.3,80.4c-41.4,4.6-101.6-0.8-130.1-4.2c-0.8-4.6-1.7-10.4-1.7-15
			c0-37.5,20.1-45.8,39.3-45.8c19.7,0,51,3.3,74.5,3.3c25.5,0,33.5-8.8,33.5-16.7c0-10.8-10-15-30.1-19.2l-54.4-10.4
			c-45.2-8.3-69.4-39.6-69.4-72.5c0-40,28.4-73.8,84.5-79.6c42.2-4.6,94.1,0.4,122.6,4.2c0.8,4.6,1.7,9.6,1.7,14.6
			c0,37.5-19.7,45.4-38.9,45.4c-14.6,0-37.2-2.5-63.6-2.5c-26.4,0-37.2,7.1-37.2,16.2c0,9.6,10.5,13.3,27.2,16.2l51.9,9.6
			C-199.2-667.1-176.2-637.1-176.2-600z"/>
		
			<linearGradient id="s25_2_" gradientUnits="userSpaceOnUse" x1="-1151.793" y1="-784.9152" x2="-1151.9689" y2="-782.9796" gradientTransform="matrix(149.68 0 0 -57.7658 172382.2188 -45995.1445)">
			<stop  offset="0" style="stop-color:#FFFFFF"/>
			<stop  offset="1" style="stop-color:#FFFFFF;stop-opacity:0.25"/>
		</linearGradient>
		<path id="s25_1_" opacity="0.25" fill="url(#s25_2_)" enable-background="new    " d="M326.6-773.3l-51.5,114.2
			c-1.7,2.9-7.1,12.9-21.3,13.3c-3.3,0-46.9,1.7-46.9,1.7c-8.4,0.4-11.3,8.3-11.3,8.3l0,0L240-740c15.5-36.7,39.7-40.4,57.7-40
			C307.8-780,320.7-776.7,326.6-773.3z M191.9-637.1l-87-140.8c-5.9-1.7-20.1-4.2-30.1-4.2c-31.8,0-49.4,11.7-67.3,31.2l-87,94.2
			l7.1,10.8c2.9,4.2,8.8,10.8,20.5,10.4c4.2,0,46-1.7,49.4-1.7c10.9-0.4,17.6,4.2,21.8,9.6l0,0L3.7-650.8l59.4-62.9l40.2,62.5l0,0
			c7.1,9.6,18,9.6,20.5,9.6c2.1,0,54.4-2.1,56.9-2.1C184.4-643.8,188.6-641.7,191.9-637.1z M-100.1-871.2
			c-45.6,0-53.1,24.2-53.1,47.5v209.2c0-8.3,6.7-17.1,17.2-17.5c7.5-0.4,28.9-0.8,35.1-1.2c7.1-0.4,17.6-5,18-17.9v-218.3
			C-88.4-870.4-94.2-871.2-100.1-871.2z M-252.3-676.7l-51.9-9.6c-16.7-2.9-27.2-6.7-27.2-16.2c0-8.8,10.9-16.2,37.2-16.2
			c25.9,0,48.9,2.5,63.6,2.5c19.2,0,38.9-7.9,38.9-45.4c0-5-0.4-9.6-1.7-14.6c-28.4-3.3-79.9-8.8-122.6-4.2
			C-371.6-773.8-400-740-400-700c0,20.4,9.2,40.4,27.6,54.6c13.8,8.8,27.6,12.5,41.8,15c11.7,2.1,38.1,3.8,58.1,2.9
			c6.3-0.4,51.9-1.7,61.9-2.1c23-0.8,36,18.7,34.3,38.7c0-0.4,0-0.4,0-0.8c0,0,0,0,0-0.4c0.4-2.5,0.4-5,0.4-7.9
			C-176.2-637.1-199.2-667.1-252.3-676.7z"/>
		
			<linearGradient id="Plinth_1_" gradientUnits="userSpaceOnUse" x1="-1152.5916" y1="-773.577" x2="-1152.5916" y2="-778.4313" gradientTransform="matrix(317.3698 0 0 -103 366969.9688 -80578.4219)">
			<stop  offset="0.4" style="stop-color:#FF0000"/>
			<stop  offset="1" style="stop-color:#D42321"/>
		</linearGradient>
		<path id="Plinth_2_" fill="url(#Plinth_1_)" d="M1908.6-900H435.4c-18.4,0-33.5,15-33.5,33.3v433.3c0,18.3,15.1,33.3,33.5,33.3
			h1473.7c18.4,0,33.5-15,33.5-33.3v-433.3C1942.1-885,1927-900,1908.6-900z"/>
		
			<linearGradient id="p40_2_" gradientUnits="userSpaceOnUse" x1="-1152.2725" y1="-785.3414" x2="-1152.7852" y2="-782.7387" gradientTransform="matrix(317.3698 0 0 -56.4783 366969.9688 -45016.8945)">
			<stop  offset="0" style="stop-color:#FFFFFF"/>
			<stop  offset="1" style="stop-color:#FFFFFF;stop-opacity:0.25"/>
		</linearGradient>
		<path id="p40_1_" opacity="0.4" fill="url(#p40_2_)" enable-background="new    " d="M425.7-652.1c0,0,1.3,0,3.3,0
			c99.1-3.3,1488.3-51.7,1488.3-51.7c12.5-0.4,25.1-9.6,25.1-25.4v-137.5c0-18.3-15.1-33.3-33.5-33.3H435.4
			c-18.4,0-33.5,15-33.5,33.3v240.8C401.9-628.8,402.3-649.6,425.7-652.1z"/>
		<g id="Group_1_" transform="translate(184.407107, 16.308333)">
			<path fill="#FFFFFF" d="M313.7-557.1c-2.9-20.4,3.3-31.2,15.5-31.2c11.3,0,38.9,12.1,77.4,12.1c40.6,0,55.6-14.2,55.6-32.9
				c0-13.3-5.9-25-42.2-35l-41.8-11.2c-46.4-12.1-64.4-35.4-64.4-63.8c0-35.4,28-66.7,91.6-66.7c28.4,0,64,6.2,85.8,14.6
				c3.8,20-2.5,30.8-14.6,30.8c-10.9,0-35.6-10.4-70.3-10.4c-37.6,0-51.5,12.9-51.5,29.6c0,11.7,5.4,22.5,38.9,32.1l42.7,11.7
				c47.7,13.3,66.9,35.4,66.9,66.7c0,36.7-28.4,69.6-97.5,69.6C374.8-540.9,336.7-548.4,313.7-557.1z"/>
			<path id="Shape_1_" fill="#FFFFFF" d="M787.6-663.4c0,77.1-54.4,122.5-113.8,122.5c-35.6,0-64.4-16.7-82-40.4v99.2
				c0,9.2-5.4,15.4-21.3,15.4c-7.9,0-15.5-0.8-19.2-2.1v-312.5c3.8-0.8,11.3-2.1,19.2-2.1c15.9,0,21.3,5.8,21.3,15.4v22.5
				c17.2-23.8,46.4-40.4,82-40.4C733.3-785.9,787.6-740.1,787.6-663.4z M746.7-663.4c0-51.7-34.3-87.1-80.7-87.1
				c-31.4,0-60.7,18.3-74,44.6v85c13.4,26.7,42.2,44.6,74,44.6C712.3-576.3,746.7-611.7,746.7-663.4z"/>
			<path fill="#FFFFFF" d="M826.5-663.4c0-70,51.9-122.1,121.3-122.1c69.9,0,121.7,52.1,121.7,122.1c0,69.6-51.9,122.5-121.7,122.5
				C878.4-540.9,826.5-593.8,826.5-663.4z M1028.6-663.4c0-54.2-36.4-87.1-80.7-87.1c-43.9,0-80.3,32.9-80.3,87.1
				c0,53.3,36.4,87.5,80.3,87.5C992.2-576.3,1028.6-610.1,1028.6-663.4z"/>
			<path fill="#FFFFFF" d="M1265.8-763.8c0,16.2-6.7,19.6-23.8,19.6c-33.9,0-62.7,15.8-80.3,52.5v132.9c0,10-5.4,15.4-21.8,15.4
				c-6.7,0-14.6-0.8-18.8-2.1v-235.8c3.8-0.8,11.7-2.1,18.8-2.1c16.3,0,21.8,5.8,21.8,15.4v32.9c23-35,58.1-52.5,102.1-46.7
				C1264.1-778.4,1265.8-770.9,1265.8-763.8z"/>
			<path fill="#FFFFFF" d="M1443.1-557.1c-20.5,10-44.3,16.2-68.2,16.2c-46.9,0-74.9-27.5-74.9-73.3v-202.5
				c0-10.4,5.9-17.1,21.8-17.1c6.7,0,14.6,1.7,18.8,2.5v51.2h92c0.4,3.3,1.7,10.4,1.7,16.2c0,14.2-5.9,19.2-14.6,19.2h-78.6v127.9
				c0,27.5,13,40.8,38.9,40.8c23.8,0,36.8-10.4,48.1-10.4S1445.6-576.7,1443.1-557.1z"/>
			<path fill="#FFFFFF" d="M1471.2-557.1c-2.9-20.4,3.3-31.2,15.5-31.2c11.3,0,38.9,12.1,77.4,12.1c40.6,0,55.6-14.2,55.6-32.9
				c0-13.3-5.9-25-42.2-35l-41.8-11.2c-46.4-12.1-64.4-35.4-64.4-63.8c0-35.4,28-66.7,91.6-66.7c28.4,0,64,6.2,85.8,14.6
				c3.8,20-2.5,30.8-14.6,30.8c-10.9,0-35.6-10.4-70.3-10.4c-37.6,0-51.5,12.9-51.5,29.6c0,11.7,5.4,22.5,38.9,32.1l42.7,11.7
				c47.7,13.3,66.9,35.4,66.9,66.7c0,36.7-28.4,69.6-97.5,69.6C1532.2-540.9,1494.2-548.4,1471.2-557.1z"/>
		</g>
	</g>
</g>
</svg>
