<svg id="Livello_1" data-name="Livello 1" xmlns="http://www.w3.org/2000/svg" xmlns:xlink="http://www.w3.org/1999/xlink" viewBox="0 0 4837.65061 500.04152"><defs><linearGradient id="Безымянный_градиент" x1="2579.58516" y1="948.41647" x2="2801.10218" y2="948.41647" gradientTransform="matrix(7.5001, 0, 0, -7.5001, -18548.70763, 7363.26001)" gradientUnits="userSpaceOnUse"><stop offset="0" stop-color="#ff0031"/><stop offset="1" stop-color="#9b001f"/></linearGradient><linearGradient id="Безымянный_градиент_2" x1="2958.12325" y1="1610.77121" x2="2962.56588" y2="1610.77121" gradientTransform="matrix(-1.3157, -37.6778, -37.6778, 1.3157, 64947.62432, 109599.01766)" gradientUnits="userSpaceOnUse"><stop offset="0" stop-color="#fff"/><stop offset="0.5" stop-color="#fff" stop-opacity="0.4"/><stop offset="1" stop-color="#fff" stop-opacity="0.25"/></linearGradient><linearGradient id="Безымянный_градиент_3" x1="2972.76381" y1="1569.38189" x2="2977.2068" y2="1569.38189" gradientTransform="matrix(-1.9565, -56.0258, -56.0258, 1.9565, 95373.81035, 163708.51591)" xlink:href="#Безымянный_градиент_2"/></defs><title>Sky_Cinema_Premiere HD_2020</title><path d="M4804.39015,0H2414.5a33.2887,33.2887,0,0,0-33.3,33.3V466.6a33.28852,33.28852,0,0,0,33.3,33.3H4804.39015a33.28847,33.28847,0,0,0,33.2998-33.3V33.3A33.22466,33.22466,0,0,0,4804.39015,0m0,10A23.32331,23.32331,0,0,1,4827.69,33.3V466.6a23.47391,23.47391,0,0,1-23.2998,23.4H2414.5a23.40914,23.40914,0,0,1-23.3-23.4V33.3A23.32336,23.32336,0,0,1,2414.5,10H4804.39015" transform="translate(-0.03934)" style="fill:#9b001f"/><path d="M4804.39015,10A23.32331,23.32331,0,0,1,4827.69,33.3V466.6a23.47391,23.47391,0,0,1-23.2998,23.4H2414.5a23.40914,23.40914,0,0,1-23.3-23.4V33.3A23.32336,23.32336,0,0,1,2414.5,10H4804.39015" transform="translate(-0.03934)" style="fill:#fff"/><path d="M2763.8999,252.3c0,63.9-44.8,101.7-94,101.7-29.3,0-53.3-13.8-67.5-33.4v82.2c0,7.7-4.5,12.6-17.5,12.6A74.8462,74.8462,0,0,1,2569,413.8V154.6a72.13842,72.13842,0,0,1,15.8999-1.7c13,0,17.5,4.9,17.5,12.6v18.7c14.2-19.6,38.2-33.4,67.5-33.4,49.2002.1,94,38,94,101.5m-33.7998,0c0-42.7-28.5-72-66.7-72-26.1001,0-50.1001,15.1-61,37v70.4c11,22,34.8999,37,61,37,38.2,0,66.7-29.3,66.7-72.4" transform="translate(-0.03934)" style="fill:#9b001f"/><path d="M2925.3999,169.3c0,13.4-5.69995,16.3-19.6001,16.3-28.10009,0-51.69995,13-66.3,43.5V339.4c0,8.1-4.39991,12.6-17.89991,12.6l-15.5-1.6V154.6l15.5-1.6c13.39991,0,17.89991,4.8,17.89991,12.6v27.3c19.19995-28.9,48-43.5,84.3-38.6.3003,2.7,1.6001,8.8,1.6001,15" transform="translate(-0.03934)" style="fill:#9b001f"/><path d="M3122.30005,264.5h-151.3999c4.5,37.8,30.5,59,69.10009,59,16.7,0,29.7-3.3,41.89991-7.3,8.5-2.9,12.2-4.1,15.5-4.1,9.3999,0,15.5,7.7,13.80005,25.7-17.5,7.7-44.30005,16.3-72.39991,16.3-61,0-102.10009-41.1-102.10009-102.1,0-58.6,43.5-100.9,96.8999-100.9,60.19995,0,89.8999,46.8,89.8999,94a174.99069,174.99069,0,0,1-1.2,19.4M2970.8999,238.4h120c-1.19995-33.4-22.8-59.4-57.3-59.4-30.2,0-57.3999,20.8-62.7,59.4" transform="translate(-0.03934)" style="fill:#9b001f"/><path d="M3437,221.7V339.3c0,8.1-4.5,12.6-17.8999,12.6l-15.5-1.6V225.8c0-28.5-13.3999-45.2-39-45.2-21.6001,0-39.3999,15.1-46.80005,30.6V339.3c0,8.1-4.5,12.6-17.8999,12.6l-15.5-1.6V225.8c0-28.5-13.39991-45.2-39-45.2-21.6001,0-39.5,15.1-46.8,30.6V339.3c0,8.1-4.3999,12.6-17.8999,12.6l-15.5-1.6V154.6a76.41084,76.41084,0,0,1,15.8999-1.6c12.6001,0,17.1001,4.8,17.1001,13.4v13.4c12.60009-16.7,32.19995-28.9,55.8-28.9,26.1001,0,46.39991,13,56.6001,35.4,13.3999-20.4,33.7-35.4,62.6001-35.4C3415.1001,150.9,3437,182.3,3437,221.7" transform="translate(-0.03934)" style="fill:#9b001f"/><path d="M3483.7,110.2A21.08136,21.08136,0,0,1,3504.8999,89c12.2,0,21.6001,9,21.6001,21.2a21.62105,21.62105,0,0,1-21.6001,21.2C3493.5,131.4,3483.7,121.3,3483.7,110.2m4.5,240.1V165.6c0-7.7,4.5-12.6,17.8999-12.6l15.1001,1.6V339.3c0,8.2-4,12.6-17.5,12.6l-15.5-1.6" transform="translate(-0.03934)" style="fill:#9b001f"/><path d="M3747.30005,264.5h-151.3999c4.5,37.8,30.5,59,69.10009,59,16.7,0,29.7-3.3,41.89991-7.3,8.5-2.9,12.2-4.1,15.5-4.1,9.3999,0,15.5,7.7,13.80005,25.7-17.5,7.7-44.30005,16.3-72.39991,16.3-61,0-102.10009-41.1-102.10009-102.1,0-58.6,43.5-100.9,96.8999-100.9,60.19995,0,89.8999,46.8,89.8999,94a174.99069,174.99069,0,0,1-1.2,19.4M3595.8999,238.4h120c-1.19995-33.4-22.8-59.4-57.3-59.4-30.09985,0-57.3999,20.8-62.7,59.4" transform="translate(-0.03934)" style="fill:#9b001f"/><path d="M3909.5,169.3c0,13.4-5.7,16.3-19.6001,16.3-28,0-51.69995,13-66.3,43.5V339.4c0,8.1-4.3999,12.6-17.8999,12.6l-15.5-1.6V154.6l15.5-1.6c13.3999,0,17.8999,4.8,17.8999,12.6v27.3c19.19995-28.9,48-43.5,84.3-38.6a95.892,95.892,0,0,1,1.6001,15" transform="translate(-0.03934)" style="fill:#9b001f"/><path d="M4106.3999,264.5H3955c4.5,37.8,30.5,59,69.1001,59,16.69995,0,29.69995-3.3,41.8999-7.3,8.5-2.9,12.2-4.1,15.5-4.1,9.3999,0,15.5,7.7,13.8,25.7-17.5,7.7-44.3,16.3-72.3999,16.3-61,0-102.1001-41.1-102.1001-102.1,0-58.6,43.5-100.9,96.8999-100.9,60.19995,0,89.90015,46.8,89.90015,94a174.93448,174.93448,0,0,1-1.2002,19.4M3955,238.4h120c-1.2-33.4-22.8-59.4-57.3-59.4-30.2,0-57.3999,20.8-62.7,59.4" transform="translate(-0.03934)" style="fill:#9b001f"/><g id="layer1"><path id="path15585" d="M223.23934,299.84151c0,43-28,74.2-85.2,80.4-41.2,4.4-101-.8-129.4-4a76.80922,76.80922,0,0,1-1.8-15c0-37.4,20.2-46,39.2-46,19.8,0,51,3.4,74,3.4,25.6,0,33.2-8.6,33.2-16.8,0-10.8-10.2-15.2-30-19l-54.2-10.4c-45-8.6-69-39.6-69-72.6,0-40,28.4-73.6,84.4-79.8,42.2-4.6,93.8.6,122,4a69.06232,69.06232,0,0,1,1.6,14.4c0,37.4-19.8,45.4-38.8,45.4-14.6,0-37.2-2.6-63.2-2.6-26.4,0-37.2,7.2-37.2,16,0,9.4,10.4,13.2,26.8,16.2l51.6,9.6c53.2,9.6,76,39.8,76,76.8m92.6,46c0,23-9,36.2-54,36.2a100.885,100.885,0,0,1-16.2-1.2v-304.8c0-23.2,7.8-47.4,53.2-47.4a79.06919,79.06919,0,0,1,17,1.8Zm183.8,118c6,3,18,6.8,33.2,7,26.2.6,40.4-9.4,51-32.8l140-311.6c-5.8-3-18.6-6.6-29-6.8-18-.4-42.2,3.2-57.6,40l-45.6,106.6-89-144.6c-5.8-1.8-19.8-4.2-30-4.2-31.6,0-49,11.6-67.2,31.2l-86.4,94.4,69.6,109.4c12.8,20,29.8,30.2,57.2,30.2,18,0,33-4.2,40-7.4l-83.8-126,59.4-63,97.4,152.6Z" transform="translate(-0.03934)" style="fill:#ff0031"/><path id="path15335" d="M2426.63929.04149H831.83937a33.45948,33.45948,0,0,0-33.4,33.4v433.2a33.45949,33.45949,0,0,0,33.4,33.4h1594.6a33.45946,33.45946,0,0,0,33.3999-33.4v-433.4a33.24574,33.24574,0,0,0-33.19995-33.2" transform="translate(-0.03934)" style="fill:url(#Безымянный_градиент)"/><path id="path15297-4" d="M245.83933,76.04149v209a17.62328,17.62328,0,0,1,17.2-17.6h0c7.6-.2,28.8-1,35.2-1.2h0c7-.2,17.6-5,17.8-17.8h0v-218a79.07,79.07,0,0,0-17-1.8h0c-45.4.2-53.2,24.2-53.2,47.4m160,72.8-86.4,94.4,7,10.8c3,4,8.8,10.8,20.4,10.4h0c4.2-.2,45.8-1.6,49.2-1.8h0c10.8-.4,17.6,4.2,21.8,9.8h0l-15.4-23.2,59.4-63,39.8,62.6h0c7.2,9.4,18,9.6,20.4,9.6h0c2,0,54.4-1.8,56.6-2h0c3.6-.2,7.8,1.8,11,6.4h0l-86.6-140.8c-5.8-1.8-19.8-4.2-30-4.2h0c-31.6-.2-49,11.2-67.2,31.00006m-321.4-29c-56,6.2-84.4,39.6-84.4,79.8h0c0,20.6,9.4,40.4,27.4,54.6h0c13.6,9,27.6,12.4,41.4,14.8h0c11.4,2,38,3.8,57.8,3h0c6.2-.2,51.8-1.8,61.6-2.2h0c23.2-.8,35.6,19,34.4,38.8h0v-.8h0v-.2h0c.2-2.6.4-5.2.4-7.8h0c0-37-22.8-67.2-75.8-77h0l-51.6-9.6c-16.6-2.8-26.8-6.8-26.8-16.2h0c0-8.8,11-16.2,37.2-16.2h0c26,0,48.6,2.6,63.2,2.6h0c19,0,38.8-8,38.8-45.4h0a69.06242,69.06242,0,0,0-1.6-14.4h0c-20.2-2.4-52.6-5.8-84.8-5.8h0c-12.6.2-25.2.8-37.2,2m552.6,39.8-44.2,104.2h0c0-.2,2.8-8.2,11.4-8.6h0s43.6-1.6,46.8-1.6h0c14.2-.6,19.8-10.2,21.4-13.4h0l51.2-114.2c-5.8-3-18.6-6.6-29-6.8h-2.2c-17.8.2-40.6,5-55.4,40.4" transform="translate(-0.03934)" style="opacity:0.30000001192092896;isolation:isolate;fill:url(#Безымянный_градиент_2)"/><path id="path15555" d="M831.83937.04149a33.45948,33.45948,0,0,0-33.4,33.4h0v240.4c0-3.6,1.4-23.4,24-25.6h0a21.51411,21.51411,0,0,1,3.2-.2h0c98.6-3.4,1609.40009-56.4,1609.40009-56.4h0c12.6001-.4,24.8-9.8,24.8-25.4h0v-132.6a33.45945,33.45945,0,0,0-33.39991-33.4h0Z" transform="translate(-0.03934)" style="opacity:0.30000001192092896;isolation:isolate;fill:url(#Безымянный_градиент_3)"/><path d="M892.63935,252.7415c0-70.2,51.5-122.2,119.7-122.2a196.53077,196.53077,0,0,1,82,18.6c3.4,22.1-3.5,30.9-13.3,30.9-17.2,0-31.9-14.2-67.2-14.2-44.2,0-80.5,32.9-80.5,86.9,0,53.5,36.3,86.9,80.5,86.9,35.3,0,50.1-14.7,65.8-14.7,10.30005,0,17.6,9.3,14.7,31.4a188.88128,188.88128,0,0,1-82,19.1c-68.2,0-119.7-53-119.7-122.7" transform="translate(-0.03934)" style="fill:#fff"/><path d="M2101.13929,215.94148v141.9c0,9.8-5.3999,15.2-21.6001,15.2a87.78647,87.78647,0,0,1-18.60009-2V220.84151c0-34.4-16.19995-54.5-47.1-54.5-26,0-47.6,18.1-56.4,36.8v154.6c0,9.8-5.4,15.2-21.6,15.2a87.78331,87.78331,0,0,1-18.6-2v-150.1c0-34.4-16.2-54.5-47.1-54.5-26,0-47.6,18.1-56.4,36.8v154.6c0,9.8-5.4,15.2-21.6,15.2a88.579,88.579,0,0,1-18.6-2v-236a89.924,89.924,0,0,1,19.1-2c15.2,0,20.6,5.9,20.6,16.2v16.2c15.19995-20.1,38.8-34.9,67.3-34.9,31.4,0,55.9,15.7,68.2,42.7,16.19995-24.5,40.69995-42.7,75.6-42.7,50.30017.1,76.80017,37.9,76.80017,85.5" transform="translate(-0.03934)" style="fill:#fff"/><path d="M1721.73939,267.44148h-182.6c5.4,45.7,36.80005,71.2,83.4,71.2,20.1,0,35.80005-4,50.6-8.8,10.30005-3.5,14.7-4.9,18.6-4.9,11.30005,0,18.6,9.3,16.69995,30.9-21.1,9.3-53.5,19.6-87.4,19.6-73.6,0-123.2-49.5-123.2-123.2,0-70.7,52.6-121.7,116.8-121.7,72.7,0,108.5,56.4,108.5,113.4a181.84228,181.84228,0,0,1-1.4,23.5m-182.6001-31.4h144.8c-1.5-40.2-27.5-71.7-69.19995-71.7-36.30005.1-69.20007,25.1-75.6001,71.7" transform="translate(-0.03934)" style="fill:#fff"/><path d="M1450.13929,230.64149v127.1c0,9.3-5.4,15.2-21.6,15.2a88.579,88.579,0,0,1-18.6-2v-135c0-47.1-23.1-69.7-57.9-69.7-27,0-56.4,18.7-68.2,40.7v150.7c0,9.3-5.4,15.2-21.6,15.2a87.78349,87.78349,0,0,1-18.6-2v-235.9a88.58,88.58,0,0,1,18.6-2c16.19995,0,21.6,5.9,21.6,15.2v20.1c17.2-21.1,43.2-37.8,78-37.8,48.1.1,88.29992,30.5,88.29992,100.2" transform="translate(-0.03934)" style="fill:#fff"/><path d="M2352.03944,219.84151v151.2a83.37555,83.37555,0,0,1-18.1001,2c-14.69995,0-21.6001-5.4-21.6001-15.2v-20.7c-21.10009,24.1-48.60009,38.3-83.5,38.3-52.5,0-81.5-34.3-81.5-71.7,0-56.9,60.89991-82,164.39991-75.1v-8.3c0-38.8-11.8-55-56.39991-55-18.60009,0-43.69995,5.4-56.8999,8.8-7.8999,2-13.8,3.9-18.6001,3.9-11.3,0-18.69995-9.8-14.8-30.4,24.1001-8.8,58.89991-17.2,92.3-17.2,69.2002.1,94.7002,31,94.7002,89.40006m-40.2002,82.5v-44.7c-67.69995-4.9-124.19995,3.9-124.19995,44.7,0,20.6,17.19995,39.2,48.1001,39.2,31.3999,0,58.8999-15.6,76.09985-39.2" transform="translate(-0.03934)" style="fill:#fff"/><path d="M1134.43934,81.4415a25.34877,25.34877,0,0,1,25.5-25.5c14.80005,0,26,10.8,26,25.5,0,13.3-11.3,25.5-26,25.5-13.69995,0-25.5-12.2-25.5-25.5m5.4,289.6v-222.8c0-9.3,5.4-15.2,21.6-15.2a82.60877,82.60877,0,0,1,18.1,2v222.8c0,9.8-4.9,15.2-21.1,15.2a89.38473,89.38473,0,0,1-18.6-2" transform="translate(-0.03934)" style="fill:#fff"/></g><path d="M2400.78906,0" transform="translate(-0.03934)" style="fill:#9b001f"/><path d="M4804.39014,0" transform="translate(-0.03934)" style="fill:#9b001f"/><path d="M4804.39014,10.1" transform="translate(-0.03934)" style="fill:#9b001f"/><path d="M2400.78931,10.1" transform="translate(-0.03934)" style="fill:#9b001f"/><path d="M4502.08984,153.81773v184.8c0,8.1-4.10009,12.6-16.70019,12.6a77.426,77.426,0,0,1-15-1.6v-85.1h-105.3999v74.1c0,8.1-4.1001,12.6-16.7002,12.6a64.76612,64.76612,0,0,1-15-1.6v-184.8c0-7.8,4.1001-12.6,17.1001-12.6a66.55719,66.55719,0,0,1,14.6001,1.6v82.2h105v-71.2c0-7.8,4.5-12.6,17.5-12.6a60.92349,60.92349,0,0,1,14.59961,1.6" transform="translate(-0.03934)" style="fill:#9b001f"/><path d="M4718.29,251.41772c0,55.3-38.7002,97.2-99.29981,97.2h-56.5c-12.20019,0-16.70019-4.9-16.70019-12.6v-168.8c0-7.7,4.5-12.6,16.70019-12.6h56.5c60.59961,0,99.29981,41.5,99.29981,96.8m-32.1001,0c0-41.5-26-68.4-67.1001-68.4h-41.5v137.1h41.5c41,.1,67.1001-26.7,67.1001-68.7" transform="translate(-0.03934)" style="fill:#9b001f"/><path d="M4218.90625,436.61766a6.7003,6.7003,0,0,1-6.7002-6.7v-359.9a6.7,6.7,0,0,1,13.39991-.051v360.051a6.68012,6.68012,0,0,1-6.7002,6.6" transform="translate(-0.03934)" style="fill:#9b001f"/><path d="M4218.90625,436.61278a6.7003,6.7003,0,0,1-6.7002-6.7v-359.9a6.7,6.7,0,0,1,13.39991-.051h0v360.051a6.68011,6.68011,0,0,1-6.7002,6.6" transform="translate(-0.03934)" style="fill:#9b001f"/><path d="M4218.90625,436.61278a6.7003,6.7003,0,0,1-6.7002-6.7v-359.9a6.7,6.7,0,0,1,13.39991-.051h0v360.051a6.68011,6.68011,0,0,1-6.7002,6.6" transform="translate(-0.03934)" style="fill:#9b001f"/></svg>