<?xml version="1.0" encoding="UTF-8" standalone="no"?>
<svg
   id="Layer_1"
   viewBox="0 0 4354.2799 499.95"
   version="1.1"
   xmlns:xlink="http://www.w3.org/1999/xlink"
   xmlns="http://www.w3.org/2000/svg"
   xmlns:svg="http://www.w3.org/2000/svg"
   xmlns:rdf="http://www.w3.org/1999/02/22-rdf-syntax-ns#"
   xmlns:cc="http://creativecommons.org/ns#"
   xmlns:dc="http://purl.org/dc/elements/1.1/">
  <defs
     id="defs30">
    <clipPath
       id="clip-path">
      <path
         d="M 831.86,0 A 33.29,33.29 0 0 0 798.5,33.29 V 466.65 A 33.33,33.33 0 0 0 831.86,499.93 H 2425.63 A 33.37,33.37 0 0 0 2459,466.65 V 33.29 A 33.32,33.32 0 0 0 2425.63,0 Z"
         fill="none"
         id="path2" />
    </clipPath>
    <linearGradient
       id="Sfumatura_senza_nome_11"
       x1="2664.7"
       y1="-3126.74"
       x2="2736.29"
       y2="-3126.74"
       gradientTransform="matrix(23.2,0,0,-23.2,-61013.05,-72279.17)"
       gradientUnits="userSpaceOnUse">
      <stop
         offset="0"
         stop-color="#ff0031"
         id="stop5" />
      <stop
         offset="0.64"
         stop-color="#cc0029"
         id="stop7" />
      <stop
         offset="1"
         stop-color="#b40026"
         id="stop9" />
    </linearGradient>
    <clipPath
       id="clip-path-2">
      <path
         d="M 831.86,0 A 33.29,33.29 0 0 0 798.5,33.29 V 273.66 C 798.5,270.15 799.86,250.18 822.5,248.04 L 825.65,247.82 2434.09,191.63 C 2446.62,191.2 2458.93,181.89 2458.93,166.36 L 2459,33.29 A 33.32,33.32 0 0 0 2425.63,0 Z"
         fill="none"
         id="path12" />
    </clipPath>
    <linearGradient
       id="Sfumatura_senza_nome_18"
       x1="2664.7"
       y1="-3121.8601"
       x2="2736.29"
       y2="-3121.8601"
       gradientTransform="matrix(23.2,0,0,-23.2,-61013.05,-72279.17)"
       gradientUnits="userSpaceOnUse">
      <stop
         offset="0"
         stop-color="#ff0031"
         id="stop15" />
      <stop
         offset="0.57"
         stop-color="#d6002a"
         id="stop17" />
      <stop
         offset="1"
         stop-color="#bc0026"
         id="stop19" />
    </linearGradient>
    <linearGradient
       id="Sfumatura_senza_nome_5"
       x1="2592.8501"
       y1="-2469.0701"
       x2="2597.29"
       y2="-2469.0701"
       gradientTransform="matrix(-1.96,-56.03,-56.03,1.96,-131627.74,150324.5)"
       gradientUnits="userSpaceOnUse">
      <stop
         offset="0"
         stop-color="#fff"
         id="stop22" />
      <stop
         offset="0.5"
         stop-color="#fff"
         stop-opacity="0.4"
         id="stop24" />
      <stop
         offset="1"
         stop-color="#fff"
         stop-opacity="0.25"
         id="stop26" />
    </linearGradient>
    <linearGradient
       id="Sfumatura_senza_nome_5-2"
       x1="2543.78"
       y1="-2429.04"
       x2="2548.22"
       y2="-2429.04"
       gradientTransform="matrix(-1.32,-37.68,-37.68,1.32,-87806.72,99301.51)"
       xlink:href="#Sfumatura_senza_nome_5" />
    <linearGradient
       xlink:href="#Sfumatura_senza_nome_5"
       id="linearGradient4708"
       gradientUnits="userSpaceOnUse"
       gradientTransform="matrix(-1.96,-56.03,-56.03,1.96,-131627.74,150324.5)"
       x1="2592.8501"
       y1="-2469.0701"
       x2="2597.29"
       y2="-2469.0701" />
  </defs>
  <title
     id="title32">Sky Cinema Animation</title>
  <path
     d="M 4321.0098,0 H 2413.88 C 2395.4866,0.01103711 2380.5879,14.936631 2380.61,33.33 V 466.68 C 2380.5879,485.07175 2395.4882,499.99449 2413.88,500 H 4321.0098 C 4339.382,499.99448 4354.2743,485.10223 4354.2798,466.73 V 33.33 C 4354.3019,14.936631 4339.4032,0.01103711 4321.0098,0 M 4321.0098,10 C 4333.8799,10.022019 4344.3078,20.449851 4344.3298,33.32 V 466.68 C 4344.3078,479.55015 4333.8799,489.97798 4321.0098,490 H 2413.88 C 2401.0287,489.95596 2390.6309,479.53134 2390.62,466.68 V 33.33 C 2390.6254,20.474754 2401.0248,10.044061 2413.88,10 H 4321.0098"
     fill="#b40026"
     id="path34" />
  <path
     d="M 4321.0098,10 C 4333.8799,10.022019 4344.3078,20.449851 4344.3298,33.32 V 466.68 C 4344.3078,479.55015 4333.8799,489.97798 4321.0098,490 H 2413.88 C 2401.0287,489.95596 2390.6309,479.53134 2390.62,466.68 V 33.33 C 2390.6254,20.474754 2401.0248,10.044061 2413.88,10 H 4321.0098"
     fill="#ffffff"
     id="path36" />
  <path
     d="M 2721.72,225 V 350.3 A 68.73,68.73 0 0 1 2706.65,351.95 C 2694.42,351.95 2688.73,347.45 2688.73,339.32 V 322.23 C 2671.27,342.13 2648.46,353.96 2619.57,353.96 2576.05,353.96 2552.05,325.47 2552.05,294.53 2552.05,247.38 2602.5,226.62 2688.33,232.3 V 225.36 C 2688.33,193.23 2678.55,179.81 2641.52,179.81 2626.11,179.81 2605.35,184.3 2594.37,187.14 2587.83,188.79 2582.94,190.39 2578.9,190.39 2569.51,190.39 2563.43,182.25 2566.67,165.19 2586.67,157.85 2615.53,150.91 2643.17,150.91 2700.56,150.91 2721.72,176.57 2721.72,224.97 M 2688.33,293.33 V 256.33 C 2632.19,252.33 2585.38,259.57 2585.38,293.33 2585.38,310.4 2599.66,325.87 2625.25,325.87 2651.3,325.87 2674.11,312.87 2688.33,293.33"
     fill="#b40026"
     id="path38" />
  <path
     d="M 2944.64,233.96 V 339.35 C 2944.64,347.09 2940.15,351.92 2926.72,351.92 A 76.84,76.84 0 0 1 2911.25,350.33 V 238.45 C 2911.25,199.38 2892.14,180.67 2863.25,180.67 2840.9,180.67 2816.49,196.14 2806.71,214.45 V 339.35 C 2806.71,347.09 2802.22,351.92 2788.8,351.92 A 76.86,76.86 0 0 1 2773.32,350.33 V 154.62 A 76.29,76.29 0 0 1 2788.8,152.97 C 2802.22,152.97 2806.71,157.86 2806.71,165.59 V 182.32 C 2820.93,164.8 2842.49,150.98 2871.38,150.98 2911.25,150.98 2944.64,176.17 2944.64,233.98"
     fill="#b40026"
     id="path40" />
  <path
     d="M 2991.29,110.33 A 21,21 0 0 1 3012.45,89.17 C 3024.65,89.17 3034.01,98.08 3034.01,110.33 A 21.65,21.65 0 0 1 3012.45,131.49 C 3001.05,131.49 2991.29,121.28 2991.29,110.33 M 2995.77,350.33 V 165.64 C 2995.77,157.93 3000.25,153.05 3013.7,153.05 A 71.59,71.59 0 0 1 3028.7,154.64 V 339.35 C 3028.7,347.51 3024.62,352 3011.23,352 A 76.27,76.27 0 0 1 2995.74,350.35"
     fill="#b40026"
     id="path2275" />
  <path
     d="M 3353.05,221.77 V 339.39 C 3353.05,347.48 3348.57,351.96 3335.14,351.96 A 74.86,74.86 0 0 1 3319.7,350.35 V 225.85 C 3319.7,197.38 3306.27,180.68 3280.61,180.68 3259.08,180.68 3241.17,195.68 3233.82,211.21 V 339.39 C 3233.82,347.48 3229.35,351.96 3215.92,351.96 A 75,75 0 0 1 3200.47,350.35 V 225.85 C 3200.47,197.38 3187.04,180.68 3161.38,180.68 3139.86,180.68 3121.95,195.68 3114.6,211.21 V 339.39 C 3114.6,347.48 3110.12,351.96 3096.69,351.96 A 75.35,75.35 0 0 1 3081.25,350.35 V 154.61 A 77.17,77.17 0 0 1 3097.09,153 C 3109.72,153 3114.2,157.88 3114.2,166.44 V 179.87 C 3126.83,163.16 3146.34,151 3169.94,151 3196,151 3216.32,164 3226.48,186.36 3239.93,166.04 3260.31,151.04 3289.18,151.04 3331.08,151.04 3353.07,182.32 3353.07,221.81"
     fill="#b40026"
     id="path2770" />
  <path
     d="M 3560.72,225.04 V 350.34 A 67,67 0 0 1 3545.72,352.01 C 3533.49,352.01 3527.81,347.53 3527.81,339.38 V 322.28 C 3510.3,342.28 3487.52,354.02 3458.64,354.02 3415.05,354.04 3391.05,325.53 3391.05,294.59 3391.05,247.4 3441.51,226.59 3527.38,232.36 V 225.42 C 3527.38,193.27 3517.62,179.84 3480.6,179.84 3465.1,179.84 3444.38,184.32 3433.41,187.19 3426.87,188.8 3421.99,190.46 3417.91,190.46 3408.56,190.46 3402.47,182.31 3405.74,165.2 3425.66,157.86 3454.54,150.97 3482.2,150.97 3539.61,150.97 3560.73,176.63 3560.73,224.97 M 3527.38,293.33 V 256.33 C 3471.24,252.25 3424.46,259.6 3424.46,293.33 3424.46,310.44 3438.69,325.88 3464.29,325.88 3490.36,325.88 3513.14,312.88 3527.38,293.33"
     fill="#b40026"
     id="path2772" />
  <path
     d="M 3729.03,340.53 C 3711.97,348.66 3692.4,353.95 3672.89,353.95 3634.22,353.95 3611.07,331.15 3611.07,293.32 V 125.32 C 3611.07,116.8 3615.9,111.05 3628.93,111.05 3634.1438,111.15532 3639.3308,111.82591 3644.4,113.05 V 155.4 H 3720.5 C 3721.1885,159.84264 3721.586,164.32552 3721.69,168.82 3721.69,180.65 3716.8,184.69 3709.52,184.69 H 3644.4 V 290.88 C 3644.4,313.68 3654.98,324.66 3676.53,324.66 3696.1,324.66 3707.08,316.13 3716.41,316.13 3726.19,316.13 3731.08,324.26 3729.03,340.53"
     fill="#b40026"
     id="path42" />
  <path
     d="M 3754.92,110.22 C 3754.8584,98.516246 3764.3764,89.020665 3776.08,89.11 3788.31,89.11 3797.64,98.04 3797.64,110.22 3797.4113,121.96455 3787.8268,131.36678 3776.08,131.37 3764.71,131.37 3754.92,121.25 3754.92,110.22 M 3759.42,350.29 V 165.56 C 3759.42,157.82 3763.91,152.99 3777.33,152.99 3782.3718,152.99393 3787.3994,153.52685 3792.33,154.58 V 339.32 C 3792.33,347.45 3788.33,351.95 3774.87,351.95 3769.67,351.93033 3764.4858,351.37405 3759.4,350.29"
     fill="#b40026"
     id="path44" />
  <path
     d="M 3832.77,252.24 C 3832.77,194.05 3875.48,150.94 3932.87,150.94 3990.66,150.94 4033.37,194.05 4033.37,252.24 4033.37,310.03 3990.66,353.94 3932.87,353.94 3875.48,353.94 3832.77,310.03 3832.77,252.24 M 3999.59,252.24 C 3999.59,207.48 3969.5,180.24 3932.87,180.24 3896.64,180.24 3866.55,207.49 3866.55,252.24 3866.55,296.6 3896.64,324.64 3932.87,324.64 3969.5,324.64 3999.59,296.64 3999.59,252.24"
     fill="#b40026"
     id="path46" />
  <path
     d="M 4246.76,233.93 V 339.32 C 4246.76,347.06 4242.27,351.89 4228.84,351.89 4223.6428,351.88453 4218.4596,351.3518 4213.37,350.3 V 238.42 C 4213.37,199.35 4194.26,180.64 4165.37,180.64 4143.02,180.64 4118.61,196.11 4108.83,214.42 V 339.32 C 4108.83,347.06 4104.34,351.89 4090.92,351.89 4085.7195,351.88507 4080.5329,351.35234 4075.44,350.3 V 154.59 C 4080.5302,153.51359 4085.7172,152.96071 4090.92,152.94 4104.34,152.94 4108.83,157.83 4108.83,165.56 V 182.29 C 4123.05,164.77 4144.61,150.95 4173.5,150.95 4213.37,150.95 4246.76,176.14 4246.76,233.95"
     fill="#b40026"
     id="path48" />
  <g
     clip-path="url(#clip-path)"
     id="g52">
    <rect
       x="798.5"
       width="1660.49"
       height="499.92999"
       fill="url(#Sfumatura_senza_nome_11)"
       id="rect50"
       y="0"
       style="fill:url(#Sfumatura_senza_nome_11)" />
  </g>
  <g
     clip-path="url(#clip-path-2)"
     id="g56">
    <rect
       x="798.5"
       width="1660.49"
       height="273.66"
       fill="url(#Sfumatura_senza_nome_18)"
       id="rect54"
       y="0"
       style="fill:url(#Sfumatura_senza_nome_18)" />
  </g>
  <path
     id="path15555"
     d="M 831.9,0 A 33.47,33.47 0 0 0 798.5,33.4 V 33.4 273.8 C 798.5,270.2 799.9,250.4 822.5,248.2 V 248.2 A 22.82,22.82 0 0 1 825.7,248 V 248 C 924.3,244.6 2434.17,191.69 2434.17,191.69 V 191.69 C 2446.77,191.29 2458.97,181.89 2458.97,166.29 V 166.29 L 2459.13,33.46 A 33.47,33.47 0 0 0 2425.73,0.06 V 0.06 Z"
     opacity="0.3"
     fill="url(#Sfumatura_senza_nome_5)"
     style="isolation:isolate;fill:url(#linearGradient4708)" />
  <path
     d="M 499.5,464 C 505.44,467 517.5,470.66 532.71,471.09 558.84,471.66 573.09,461.71 583.71,438.31 L 723.71,126.5 C 717.99,123.42 705.1,119.91 694.71,119.77 676.71,119.34 652.41,122.99 637.09,159.85 L 591.7,266.63 502.79,122 A 131.26,131.26 0 0 0 472.79,117.77 C 441.29,117.77 423.79,129.3 405.57,149.06 L 319.1,243.4 388.68,352.71 C 401.49,372.61 418.46,382.77 445.95,382.77 463.95,382.77 478.95,378.55 485.89,375.33 L 402.14,249.33 461.48,186.41 558.83,339.1 Z M 315.75,346 C 315.75,369 306.75,382.22 261.75,382.22 A 101.7,101.7 0 0 1 245.64,381.07 V 76.23 C 245.64,52.96 253.51,28.84 298.83,28.84 A 81.17,81.17 0 0 1 315.72,30.56 Z M 223.05,300 C 223.05,342.95 194.99,374.23 137.94,380.39 96.64,384.75 36.87,379.6 8.45,376.31 A 81.28,81.28 0 0 1 6.73,361.31 C 6.73,323.94 26.92,315.31 45.96,315.31 65.71,315.31 96.85,318.82 119.9,318.82 145.46,318.82 153.11,310.16 153.11,301.92 153.11,291.19 142.95,286.75 123.11,282.92 L 69,272.57 C 24,263.91 0,232.85 0,199.92 0,159.83 28.42,126.26 84.32,120.11 126.63,115.52 178.1,120.68 206.37,124.11 A 74.45,74.45 0 0 1 207.88,138.5 C 207.88,175.94 188.12,183.96 169.08,183.96 154.48,183.96 131.78,181.31 105.87,181.31 79.53,181.31 68.58,188.61 68.58,197.41 68.58,206.79 78.96,210.66 95.49,213.52 L 147.17,223.11 C 200.22,232.85 223.05,262.98 223.05,299.99"
     fill="#ff0031"
     id="path59" />
  <path
     id="path15297-4"
     d="M 245.8,76.24 V 285.24 A 17.62,17.62 0 0 1 263,267.64 V 267.64 C 270.6,267.44 291.8,266.64 298.2,266.44 V 266.44 C 305.2,266.24 315.8,261.44 316,248.64 V 248.64 30.64 A 78.92,78.92 0 0 0 299,28.84 V 28.84 C 253.6,29.04 245.8,53.04 245.8,76.24 M 405.8,149.04 319.4,243.44 326.4,254.24 C 329.4,258.24 335.2,265.04 346.8,264.64 V 264.64 C 351,264.44 392.6,263.04 396,262.84 V 262.84 C 406.8,262.44 413.6,267.04 417.8,272.64 V 272.64 L 402.4,249.44 461.8,186.44 501.6,249 V 249 C 508.8,258.4 519.6,258.6 522,258.6 V 258.6 C 524,258.6 576.4,256.8 578.6,256.6 V 256.6 C 582.2,256.4 586.4,258.4 589.6,263 V 263 L 503,122.24 C 497.2,120.44 483.2,118.04 473,118.04 V 118.04 C 441.4,117.84 424,129.24 405.8,149.04 M 84.4,120 C 28.4,126.2 0,159.6 0,199.8 V 199.8 C 0,220.4 9.4,240.2 27.4,254.4 V 254.4 C 41,263.4 55,266.8 68.8,269.2 V 269.2 C 80.2,271.2 106.8,273 126.6,272.2 V 272.2 C 132.8,272 178.4,270.4 188.2,270 V 270 C 211.4,269.2 223.8,289 222.6,308.8 V 308.8 308 308 307.8 307.8 C 222.8,305.2 223,302.6 223,300 V 300 C 223,263 200.2,232.8 147.2,223 V 223 L 95.6,213.4 C 79,210.6 68.8,206.6 68.8,197.2 V 197.2 C 68.8,188.4 79.8,181 106,181 V 181 C 132,181 154.6,183.6 169.2,183.6 V 183.6 C 188.2,183.6 208,175.6 208,138.2 V 138.2 A 69.06,69.06 0 0 0 206.4,123.8 V 123.8 C 186.2,121.4 153.8,118 121.6,118 V 118 C 109,118.2 96.4,118.8 84.4,120 M 637,159.84 592.8,264 V 264 C 592.8,263.8 595.6,255.8 604.2,255.4 V 255.4 C 604.2,255.4 647.8,253.8 651,253.8 V 253.8 C 665.2,253.2 670.8,243.6 672.4,240.4 V 240.4 L 723.6,126.2 C 717.8,123.2 705,119.6 694.6,119.4 H 692.4 C 674.6,119.6 651.8,124.4 637,159.8"
     opacity="0.3"
     fill="url(#Sfumatura_senza_nome_5-2)"
     style="isolation:isolate;fill:url(#Sfumatura_senza_nome_5-2)" />
  <path
     d="M 892.45,252.69 C 892.45,182.54 943.99,130.5 1012.2,130.5 A 196.19,196.19 0 0 1 1094.2,149.11 C 1097.63,171.23 1090.76,180.03 1080.96,180.03 1063.77,180.03 1049.03,165.79 1013.74,165.79 969.5,165.79 933.21,198.72 933.21,252.69 933.21,306.16 969.5,339.59 1013.74,339.59 1049.03,339.59 1063.74,324.84 1079.45,324.84 1089.76,324.84 1097.13,334.15 1094.2,356.27 A 188.7,188.7 0 0 1 1012.2,375.38 C 943.99,375.38 892.45,322.38 892.45,252.69"
     fill="#ffffff"
     id="path62" />
  <path
     d="M 1134.68,81.42 A 25.32,25.32 0 0 1 1160.16,55.87 C 1174.91,55.87 1186.22,66.68 1186.22,81.42 1186.22,94.66 1174.91,106.9 1160.16,106.9 1146.42,106.9 1134.68,94.66 1134.68,81.42 M 1140.05,371 V 148.14 C 1140.05,138.83 1145.42,132.96 1161.67,132.96 A 83.32,83.32 0 0 1 1179.78,134.89 V 357.73 C 1179.78,367.53 1174.91,372.9 1158.78,372.9 A 89.82,89.82 0 0 1 1140.1,370.97"
     fill="#ffffff"
     id="path64" />
  <path
     d="M 1449.78,230.61 V 357.74 C 1449.78,367.04 1444.41,372.91 1428.16,372.91 A 89.08,89.08 0 0 1 1409.55,370.98 V 236 C 1409.55,188.89 1386.55,166.35 1351.64,166.35 1324.64,166.35 1295.16,184.96 1283.42,207.08 V 357.74 C 1283.42,367.04 1277.98,372.91 1261.8,372.91 A 88.53,88.53 0 0 1 1243.19,370.98 V 134.9 A 88.53,88.53 0 0 1 1261.8,133 C 1277.98,133 1283.42,138.87 1283.42,148.17 V 168.29 C 1300.6,147.17 1326.59,130.49 1361.42,130.49 1409.52,130.49 1449.75,160.91 1449.75,230.64"
     fill="#ffffff"
     id="path66" />
  <path
     d="M 1721.64,267.43 H 1539.11 C 1544.47,313.02 1575.9,338.58 1622.5,338.58 1642.68,338.58 1658.36,334.64 1673.11,329.78 1683.41,326.34 1687.78,324.84 1691.72,324.84 1703.03,324.84 1710.4,334.14 1708.4,355.76 1687.28,365.07 1654.92,375.37 1621.07,375.37 1547.48,375.37 1497.87,325.84 1497.87,252.18 1497.87,181.53 1550.42,130.49 1614.7,130.49 1687.28,130.49 1723.14,186.9 1723.14,243.88 A 205.44,205.44 0 0 1 1721.64,267.43 M 1539.11,236 H 1683.91 C 1682.41,195.77 1656.43,164.35 1614.7,164.35 1578.33,164.35 1545.48,189.4 1539.11,236"
     fill="#ffffff"
     id="path68" />
  <path
     d="M 2101.35,215.88 V 357.68 C 2101.35,367.56 2095.98,372.93 2079.73,372.93 A 94,94 0 0 1 2061.12,371 V 220.82 C 2061.12,186.46 2044.94,166.35 2014.02,166.35 1987.96,166.35 1966.42,184.46 1957.54,203.14 V 357.68 C 1957.54,367.56 1952.17,372.93 1935.92,372.93 A 94.1,94.1 0 0 1 1917.31,371 V 220.82 C 1917.31,186.46 1901.13,166.35 1870.21,166.35 1844.15,166.35 1822.61,184.46 1813.73,203.14 V 357.68 C 1813.73,367.56 1808.36,372.93 1792.19,372.93 A 94.92,94.92 0 0 1 1773.5,371 V 134.92 A 90.34,90.34 0 0 1 1792.61,132.92 C 1807.86,132.92 1813.23,138.86 1813.23,149.17 V 165.34 C 1828.48,145.23 1852.03,130.48 1880.52,130.48 1911.94,130.48 1936.42,146.16 1948.73,173.15 1964.91,148.67 1989.46,130.48 2024.32,130.48 2074.86,130.48 2101.32,168.28 2101.32,215.88"
     fill="#ffffff"
     id="path70" />
  <path
     d="M 2351.83,219.8 V 371 A 84.38,84.38 0 0 1 2333.72,372.93 C 2318.97,372.93 2312.1,367.56 2312.1,357.76 V 337.12 C 2290.98,361.17 2263.49,375.42 2228.63,375.42 2176.16,375.42 2147.17,341.06 2147.17,303.76 2147.17,246.76 2208.02,221.76 2311.6,228.67 V 220.3 C 2311.6,181.5 2299.79,165.3 2255.19,165.3 2236.51,165.3 2211.45,170.74 2198.19,174.18 2190.32,176.11 2184.45,178.04 2179.58,178.04 2168.27,178.04 2160.9,168.24 2164.83,147.62 2188.89,138.82 2223.75,130.44 2257.1,130.44 2326.32,130.44 2351.81,161.37 2351.81,219.78 M 2311.58,302.24 V 257.59 C 2243.86,252.72 2187.38,261.53 2187.38,302.26 2187.38,322.87 2204.56,341.56 2235.49,341.56 2266.91,341.56 2294.4,325.81 2311.58,302.26"
     fill="#ffffff"
     id="path72" />
  <metadata
     id="metadata892">
    <rdf:RDF>
      <cc:Work
         rdf:about="">
        <dc:title>Sky Cinema Animation</dc:title>
      </cc:Work>
    </rdf:RDF>
  </metadata>
</svg>
