<?xml version="1.0" encoding="utf-8"?>
<!-- Generator: Adobe Illustrator 23.0.1, SVG Export Plug-In . SVG Version: 6.00 Build 0)  -->
<!DOCTYPE svg PUBLIC "-//W3C//DTD SVG 1.1//EN" "http://www.w3.org/Graphics/SVG/1.1/DTD/svg11.dtd" [
	<!ENTITY ns_extend "http://ns.adobe.com/Extensibility/1.0/">
	<!ENTITY ns_ai "http://ns.adobe.com/AdobeIllustrator/10.0/">
	<!ENTITY ns_graphs "http://ns.adobe.com/Graphs/1.0/">
	<!ENTITY ns_vars "http://ns.adobe.com/Variables/1.0/">
	<!ENTITY ns_imrep "http://ns.adobe.com/ImageReplacement/1.0/">
	<!ENTITY ns_sfw "http://ns.adobe.com/SaveForWeb/1.0/">
	<!ENTITY ns_custom "http://ns.adobe.com/GenericCustomNamespace/1.0/">
	<!ENTITY ns_adobe_xpath "http://ns.adobe.com/XPath/1.0/">
]>
<svg version="1.1" id="Livello_1" xmlns:x="&ns_extend;" xmlns:i="&ns_ai;" xmlns:graph="&ns_graphs;"
	 xmlns="http://www.w3.org/2000/svg" xmlns:xlink="http://www.w3.org/1999/xlink" x="0px" y="0px" viewBox="0 0 1854 250"
	 style="enable-background:new 0 0 1854 250;" xml:space="preserve">
<style type="text/css">
	.st0{fill:#FFFFFF;}
	.st1{fill:#9B001F;}
	.st2{fill:#FF0031;}
	.st3{fill:url(#path15335_2_);}
	.st4{opacity:0.3;fill:url(#path15297-4_2_);enable-background:new    ;}
	.st5{opacity:0.3;fill:url(#path15555_2_);enable-background:new    ;}
</style>
<metadata>
	<sfw  xmlns="&ns_sfw;">
		<slices></slices>
		<sliceSourceBounds  bottomLeftOrigin="true" height="250" width="1854" x="-1702.8" y="-646.6"></sliceSourceBounds>
	</sfw>
</metadata>
<g>
	<g>
		<path class="st0" d="M1835.2,243.7c8.6,0,12.5-4.2,12.5-12.5V18.8c0-8.1-3.9-12.5-12.5-12.5L953.5,6.2v237.4L1835.2,243.7
			L1835.2,243.7z"/>
		<path class="st1" d="M1835.2,6.4c8.6,0,12.5,4.4,12.5,12.5v212.4c0,8.2-3.9,12.5-12.5,12.5H953.5v6.2h884
			c9.2,0,16.5-7.7,16.5-16.5V16.7c0-9.1-7.5-16.7-16.7-16.7H953.5v6.2L1835.2,6.4L1835.2,6.4z"/>
	</g>
	<g>
		<path class="st1" d="M1280.3,168.3c-1-7.9,1.6-12.3,5.7-12.3c4.5,0,15.5,5,31.2,5c16.5,0,22.9-6,22.9-13.7
			c0-5.4-2.3-9.9-17.5-14.1l-17-4.7c-18.2-4.9-25.5-14.1-25.5-25.5c0-13.7,11.2-26.7,36.5-26.7c11.5,0,25.6,2.8,34.2,6
			c1,7.7-1.6,11.8-5.4,11.8c-4.2,0-14.6-4.7-28.8-4.7c-15.2,0-20.9,5.6-20.9,12.7c0,4.7,2.1,9,16.1,13.1l17.2,4.7
			c19.2,5.4,26.8,14.3,26.8,26.5c0,14.7-11.6,28-39,28C1304.5,174.9,1289.5,171.9,1280.3,168.3"/>
		<path class="st1" d="M1462.3,132.1h-73.2c2.6,18,15,28.5,33.7,28.5c7.9,0,14.2-2,20.4-3.9c3.9-1.4,6.1-2,7.8-2
			c4.2,0,7.1,3.9,6.1,12.4c-8.3,3.8-21.3,7.9-35,7.9c-29.2,0-49.6-20.4-49.6-49.8c0-28,20.4-48.6,47-48.6
			c29.2,0,43.7,22.9,43.7,45.6C1463.1,125.1,1462.9,128.5,1462.3,132.1 M1389,118.7h58.1c-0.5-16.1-10.8-28.5-27.7-28.5
			C1404.4,90.4,1391.4,100.2,1389,118.7"/>
		<path class="st1" d="M1484.5,172.6v-126c0-3.7,2.2-6.1,8.8-6.1c2.7,0,5.7,0.5,7.3,1v125.8c0,3.9-2,6.1-8.5,6.1
			C1489.4,173.3,1486.2,173,1484.5,172.6"/>
		<path class="st1" d="M1611.2,132.1H1538c2.6,18,15,28.5,33.7,28.5c7.9,0,14.2-2,20.4-3.9c3.9-1.4,6.1-2,7.8-2
			c4.2,0,7.1,3.9,6.1,12.4c-8.3,3.8-21.3,7.9-35,7.9c-29.2,0-49.6-20.4-49.6-49.8c0-28,20.4-48.6,47-48.6
			c29.2,0,43.7,22.9,43.7,45.6C1612,125.1,1611.8,128.5,1611.2,132.1 M1537.9,118.7h58.1c-0.5-16.1-10.8-28.5-27.7-28.5
			C1553.3,90.4,1540.3,100.2,1537.9,118.7"/>
		<path class="st1" d="M1630.8,125.8c0-28.4,21.1-49.5,48.5-49.5c12,0,22.6,3.4,30.8,7.2c1,9.1-2.4,12-6.2,12
			c-4.8,0-11.5-4.8-24.5-4.8c-17.3,0-32.2,13.5-32.2,35s14.9,35.6,32.2,35.6c12.9,0,19.7-4.8,24.5-4.8c4.3,0,7.2,3.4,6.2,12
			c-8.2,3.8-18.7,7.2-30.8,7.2C1651.9,175.8,1630.8,154.2,1630.8,125.8"/>
		<path class="st1" d="M1789,167.8c-8.2,3.8-17.8,6.6-27.6,6.6c-18.7,0-30.1-11.2-30.1-29.6V60.5c0-3.7,2.1-6.2,8.8-6.2
			c2.8,0,5.9,0.4,7.2,1.2v22.2h37.8c0.1,1.4,0.4,4.2,0.4,6.6c0,5.7-2.1,7.8-5.9,7.8h-32.2v51.3c0,11.2,5.4,16.3,16.1,16.3
			c9.6,0,15.2-3.9,19.7-3.9C1787.8,155.9,1790.1,159.9,1789,167.8"/>
	</g>
	<g id="layer1_1_" transform="translate(-15.060659,-164.8585)">
		<path id="path15585_1_" class="st2" d="M126.7,314.7c0,21.5-14,37.1-42.6,40.2c-20.6,2.2-50.5-0.4-64.7-2
			c-0.5-2.3-0.9-5.2-0.9-7.5c0-18.7,10.1-23,19.6-23c9.9,0,25.5,1.7,37,1.7c12.8,0,16.6-4.3,16.6-8.4c0-5.4-5.1-7.6-15-9.5L49.6,301
			c-22.5-4.3-34.5-19.8-34.5-36.3c0-20,14.2-36.8,42.2-39.9c21.1-2.3,46.9,0.3,61,2c0.5,2.4,0.8,4.7,0.8,7.2
			c0,18.7-9.9,22.7-19.4,22.7c-7.3,0-18.6-1.3-31.6-1.3c-13.2,0-18.6,3.6-18.6,8c0,4.7,5.2,6.6,13.4,8.1l25.8,4.8
			C115.3,281.2,126.7,296.2,126.7,314.7 M173,337.7c0,11.5-4.5,18.1-27,18.1c-3,0-5.6-0.2-8.1-0.6V202.9c0-11.6,3.9-23.7,26.6-23.7
			c2.9,0,5.8,0.3,8.5,0.9V337.7z M264.9,396.7c3,1.5,9,3.4,16.6,3.5c13.1,0.3,20.2-4.7,25.5-16.4l70-155.7
			c-2.9-1.5-9.3-3.3-14.5-3.4c-9-0.2-21.1,1.6-28.8,20L310.9,298l-44.5-72.3c-2.9-0.9-9.9-2.1-15-2.1c-15.8,0-24.5,5.8-33.6,15.6
			l-43.2,47.2l34.8,54.7c6.4,10,14.9,15.1,28.6,15.1c9,0,16.5-2.1,20-3.7l-41.9-63l29.7-31.5l48.7,76.3L264.9,396.7z"/>
		
			<linearGradient id="path15335_2_" gradientUnits="userSpaceOnUse" x1="226.1979" y1="95.9899" x2="336.9164" y2="95.9899" gradientTransform="matrix(7.5001 0 0 7.5001 -1282.3462 -430.0841)">
			<stop  offset="0" style="stop-color:#FF0031"/>
			<stop  offset="1" style="stop-color:#9B001F"/>
		</linearGradient>
		<path id="path15335_1_" class="st3" d="M1228,164.9H430.9c-9.2,0-16.7,7.5-16.7,16.7v216.5c0,9.2,7.5,16.7,16.7,16.7h797
			c9.2,0,16.7-7.5,16.7-16.7V181.5C1244.5,172.3,1237.2,164.9,1228,164.9"/>
		
			<linearGradient id="path15297-4_2_" gradientUnits="userSpaceOnUse" x1="233.4047" y1="-823.7017" x2="235.6252" y2="-823.7017" gradientTransform="matrix(-1.3157 -37.6778 37.6778 -1.3157 31539.998 8006.6226)">
			<stop  offset="0" style="stop-color:#FFFFFF"/>
			<stop  offset="0.5146" style="stop-color:#FFFFFF;stop-opacity:0.25"/>
			<stop  offset="1" style="stop-color:#FFFFFF;stop-opacity:0.25"/>
		</linearGradient>
		<path id="path15297-4_1_" class="st4" d="M138,202.9v104.5c0-4.2,3.2-8.6,8.6-8.8l0,0c3.8-0.1,14.4-0.5,17.6-0.6l0,0
			c3.5-0.1,8.8-2.5,8.9-8.9l0,0v-109c-2.7-0.6-5.6-0.9-8.5-0.9l0,0C141.9,179.3,138,191.3,138,202.9 M218,239.3l-43.2,47.2l3.5,5.4
			c1.5,2,4.4,5.4,10.2,5.2l0,0c2.1-0.1,22.9-0.8,24.6-0.9l0,0c5.4-0.2,8.8,2.1,10.9,4.9l0,0l0,0l-7.7-11.6L246,258l19.9,31.3l0,0
			c3.6,4.7,9,4.8,10.2,4.8l0,0c1,0,27.2-0.9,28.3-1l0,0c1.8-0.1,3.9,0.9,5.5,3.2l0,0l-43.3-70.4c-2.9-0.9-9.9-2.1-15-2.1l0,0
			C235.8,223.7,227.1,229.4,218,239.3 M57.3,224.8c-28,3.1-42.2,19.8-42.2,39.9l0,0c0,10.3,4.7,20.2,13.7,27.3l0,0
			c6.8,4.5,13.8,6.2,20.7,7.4l0,0c5.7,1,19,1.9,28.9,1.5l0,0c3.1-0.1,25.9-0.9,30.8-1.1l0,0c11.6-0.4,17.8,9.5,17.2,19.4l0,0
			c0-0.1,0-0.3,0-0.4l0,0v-0.1l0,0c0.1-1.3,0.2-2.6,0.2-3.9l0,0c0-18.5-11.4-33.6-37.9-38.5l0,0l-25.8-4.8
			c-8.3-1.4-13.4-3.4-13.4-8.1l0,0c0-4.4,5.5-8.1,18.6-8.1l0,0c13,0,24.3,1.3,31.6,1.3l0,0c9.5,0,19.4-4,19.4-22.7l0,0
			c0-2.5-0.3-4.8-0.8-7.2l0,0c-10.1-1.2-26.3-2.9-42.4-2.9l0,0C69.6,223.9,63.3,224.2,57.3,224.8 M333.5,244.7l-22.1,52.1l0,0
			c0-0.1,1.4-4.1,5.7-4.3l0,0c0,0,21.8-0.8,23.4-0.8l0,0c7.1-0.3,9.9-5.1,10.7-6.7l0,0l25.6-57.1c-2.9-1.5-9.3-3.3-14.5-3.4l0,0
			c-0.4,0-0.7,0-1.1,0l0,0C352.3,224.6,340.9,227,333.5,244.7"/>
		
			<linearGradient id="path15555_2_" gradientUnits="userSpaceOnUse" x1="269.766" y1="-814.6418" x2="271.9867" y2="-814.6418" gradientTransform="matrix(-1.9565 -56.0258 56.0258 -1.9565 46999.4062 13798.6191)">
			<stop  offset="0" style="stop-color:#FFFFFF"/>
			<stop  offset="0.5146" style="stop-color:#FFFFFF;stop-opacity:0.25"/>
			<stop  offset="1" style="stop-color:#FFFFFF;stop-opacity:0.25"/>
		</linearGradient>
		<path id="path15555_1_" class="st5" d="M430.9,164.9c-9.2,0-16.7,7.5-16.7,16.7l0,0v120.2v0.1v-0.1c0-1.8,0.7-11.7,12-12.8l0,0
			c0,0,0.6-0.1,1.6-0.1l0,0c49.3-1.7,804.4-28.2,804.4-28.2l0,0c6.3-0.2,12.4-4.9,12.4-12.7l0,0v-66.3c0-9.2-7.5-16.7-16.7-16.7l0,0
			L430.9,164.9z"/>
		<g>
			<path class="st0" d="M1190.1,275.3v74.5c-2,0.5-5.4,1-8.8,1c-7,0-10.1-2.5-10.1-7.4v-9.8c-11.1,11.7-24.3,18.6-41.8,18.6
				c-26.3,0-40.8-16.8-40.8-35.6c0-28.4,30.7-40.8,82.6-37.4V276c0-18.1-5.9-28.9-28.9-28.9c-11.9,0-22.2,2.6-29.2,4.9
				c-3.6,1-6.4,1.9-8.3,1.9c-5.4,0-8.5-4.9-7.3-15.2c11.7-4.4,29.2-8.3,45.6-8.3C1177.4,230.5,1190.1,247.6,1190.1,275.3
				 M1171,316.1v-22.5c-33.8-1.5-63,1.8-63,22.7c0,10.3,8.8,19.9,24.5,19.9C1148.5,336.2,1162,328.1,1171,316.1"/>
			<path class="st0" d="M461.4,291.1c0-34.8,25.8-60.7,59.6-60.7c16.2,0,30.7,4.4,40.8,9.6c1,10.6-2.9,15-7.8,15
				c-6.9,0-14.5-7.5-32.3-7.5c-22.5,0-40.8,16.8-40.8,43.9s18.3,44.4,40.8,44.4c17.8,0,25.5-7.5,32.3-7.5c4.9,0,8.8,4.4,7.8,15
				c-10.3,4.9-24.8,9.3-40.8,9.3C487.2,352.1,461.4,325.9,461.4,291.1"/>
			<path class="st0" d="M875.2,298.9h-91.1c2.9,22.7,18.9,35.8,42.4,35.8c10.1,0,17.8-2.3,25.3-4.6c4.9-1.8,7.5-2.8,9.6-2.8
				c4.9,0,8.5,4.6,7.3,15.2c-10.3,4.6-26.1,9.6-42.9,9.6c-36.4,0-61.5-24.8-61.5-61.2c0-35.1,26.1-60.6,58.3-60.6
				c35.9,0,53.7,28.7,53.7,56.6C876.2,290.6,875.9,294.5,875.2,298.9 M784.2,283.2h73.3c-0.8-20.1-13.7-35.9-34.8-35.9
				C803.9,247.1,787.3,259.7,784.2,283.2"/>
			<path class="st0" d="M582.4,205.6c0-7.2,5.7-12.4,12.4-12.4c6.9,0,12.2,5.4,12.2,12.4c0,6.4-5.4,12.2-12.2,12.2
				S582.4,211.9,582.4,205.6 M585.1,349.7V239.3c0-4.4,2.4-7.3,10.3-7.3c3.1,0,6.9,0.8,8.8,1.3v110.2c0,4.6-2.6,7.3-10.3,7.3
				C590.7,350.7,587,350.2,585.1,349.7"/>
			<path class="st0" d="M1064.5,272.9v70.5c0,4.6-2.6,7.3-10.3,7.3c-3.1,0-6.9-0.5-8.8-1V275c0-17.3-8.3-27.6-23.8-27.6
				c-13.2,0-24.5,9.6-28.9,19.1v76.9c0,4.6-2.4,7.3-10.1,7.3c-3.4,0-7-0.5-9-1V275c0-17.3-8-27.6-23.8-27.6
				c-13.2,0-24.5,9.6-28.9,19.1v76.9c0,4.6-2.4,7.3-10.1,7.3c-3.4,0-7.2-0.5-8.8-1V233.2c2-0.5,5.7-1.3,8.8-1.3
				c7.3,0,9.8,2.9,9.8,7.8v8.3c7.5-10.1,19.4-17.6,33.8-17.6c15.5,0,27.6,8,33.8,21.2c8-11.7,20.4-21.2,37.7-21.2
				C1051.1,230.5,1064.5,249.6,1064.5,272.9"/>
			<path class="st0" d="M739.2,280.4v63c0,4.6-2.4,7.3-10.1,7.3c-3.1,0-6.9-0.5-8.8-1V283c0-24-11.9-35.4-29.4-35.4
				c-13.9,0-28.9,9.8-35.1,21.1v74.9c0,4.6-2.5,7.3-10.1,7.3c-3.4,0-7-0.5-8.8-1V233.2c1.8-0.5,5.4-1.3,8.8-1.3
				c7.5,0,10.1,2.9,10.1,7.3v10.1c8.5-10.3,21.5-18.9,39.2-18.9C719.1,230.5,739.2,245.8,739.2,280.4"/>
		</g>
	</g>
</g>
</svg>
