<?xml version="1.0" encoding="utf-8"?>
<!-- Generator: Adobe Illustrator 23.0.1, SVG Export Plug-In . SVG Version: 6.00 Build 0)  -->
<!DOCTYPE svg PUBLIC "-//W3C//DTD SVG 1.1//EN" "http://www.w3.org/Graphics/SVG/1.1/DTD/svg11.dtd" [
	<!ENTITY ns_extend "http://ns.adobe.com/Extensibility/1.0/">
	<!ENTITY ns_ai "http://ns.adobe.com/AdobeIllustrator/10.0/">
	<!ENTITY ns_graphs "http://ns.adobe.com/Graphs/1.0/">
	<!ENTITY ns_vars "http://ns.adobe.com/Variables/1.0/">
	<!ENTITY ns_imrep "http://ns.adobe.com/ImageReplacement/1.0/">
	<!ENTITY ns_sfw "http://ns.adobe.com/SaveForWeb/1.0/">
	<!ENTITY ns_custom "http://ns.adobe.com/GenericCustomNamespace/1.0/">
	<!ENTITY ns_adobe_xpath "http://ns.adobe.com/XPath/1.0/">
]>
<svg version="1.1" id="Livello_1" xmlns:x="&ns_extend;" xmlns:i="&ns_ai;" xmlns:graph="&ns_graphs;"
	 xmlns="http://www.w3.org/2000/svg" xmlns:xlink="http://www.w3.org/1999/xlink" x="0px" y="0px" viewBox="0 0 2866.7 500"
	 enable-background="new 0 0 2866.7 500" xml:space="preserve">
<metadata>
	<sfw  xmlns="&ns_sfw;">
		<slices></slices>
		<sliceSourceBounds  bottomLeftOrigin="true" height="500" width="2866.7" x="-1359" y="-237"></sliceSourceBounds>
	</sfw>
</metadata>
<g id="Sky_Sports_Premier_League_PRIMARY_RGB">
	<g>
		<path id="Path_4_" fill="#FFFFFF" d="M2833.4,500h-536.7c-18.3,0-33.3-15-33.3-33.3V33.3c0-18.3,15-33.3,33.3-33.3h536.7
			c18.3,0,33.3,15,33.3,33.3v433.3C2866.7,485,2851.7,500,2833.4,500z"/>
		<path id="Path_1_" fill="#002A91" d="M2833.4,10c12.8,0,23.3,10.5,23.3,23.3v433.3c0,12.8-10.5,23.3-23.3,23.3h-536.7
			c-12.8,0-23.3-10.5-23.3-23.3V33.3c0-12.8,10.5-23.3,23.3-23.3H2833.4 M2833.4,0h-536.7c-18.3,0-33.3,15-33.3,33.3v433.3
			c0,18.3,15,33.3,33.3,33.3h536.7c18.3,0,33.3-15,33.3-33.3V33.3C2866.7,15,2851.7,0,2833.4,0L2833.4,0z"/>
	</g>
	<path id="XMLID_269_" fill="#37003C" d="M2503.8,80.8c17.9,8.3,29.6,18.8,31.7,20c-0.8-4.6-4.6-27.1-6.7-40.8
		c10.4,7.1,34.6,24.2,42.9,29.6c3.3-10,14.6-42.9,14.6-42.9s20.4,32.9,23.8,38.3c4.2-4.6,28.8-31.7,35-38.3
		c1.2,15.4,2.5,37.9,2.9,41.2c1.2-1.7,10.4-14.6,26.2-26.7c-6.7,13.3-10,31.7-11.7,46.7c-15.4-4.2-31.7-6.7-48.3-6.7
		c-32.1,0-62.5,8.3-88.3,23.3C2520.9,110.4,2513.4,92.5,2503.8,80.8z M2749.6,362.5l-14.2-15.8c-4.2,42.5-24.6,78.3-62.9,103.3
		l-5.8-22.9c-32.5,23.3-87.9,38.3-135.4,11.7c5.8-30.4,11.3-60.8,0-97.5c-26.2,40.8-49.6,57.1-49.6,57.1
		c-17.9-30-16.3-90-10.8-107.9l-29.6,9.2c0-20,14.6-62.9,35.4-87.1l-18.8-2.9l0,0c12.5-25.8,31.2-47.9,54.6-64.6l0,0
		c-7.1,10.8-7.1,37.9,13.3,47.9c-8.8-15-9.6-33.8-0.8-43.3c9.2-9.6,24.2-6.2,33.8,1.2c-2.9-8.3-11.3-19.2-23.8-19.6l0,0
		c23.8-12.1,50.8-19.2,79.6-19.2c5.4,0,10.8,0.4,15.8,0.8l0,0c8.3,3.3,20.4,15,26.2,22.5c0,0,0.4-8.7-4.6-19.2
		c30.8,7.5,45.8,20,52.1,26.2c1.2,13.3,5.4,21.2,10.4,34.2c-10-11.2-35.4-29.2-47.1-33.7c0,0-0.8,11.7-5,17.1
		c-23.8-17.5-35.8-21.7-35.8-21.7c-26.2,3.8-43.3,13.8-52.5,22.1l7.9,6.7c-15.8,5-26.2,18.3-26.2,18.3c0,0.4,14.2,2.1,14.2,2.1
		s-1.2,16.7,19.2,26.7c17.5,8.8,43.3-2.1,67.1,7.5c-15.8-18.3-26.7-26.2-26.7-26.2s-6.2-1.3-10.8-1.3c-5.4,0-13.7,1.3-22.9-2.5
		c-4.2-1.7-9.2-4.6-13.3-7.1c0,0,11.2-11.2,27.1-13.8c0,0,14.6,4.2,26.2,12.5c7.5-7.5,15.8-7.1,15.8-7.1s-7.9,7.5-5.4,16.2
		c11.7,10.4,24.2,25,24.2,25c12.9-7.1,40.4-5.4,46.2,1.2c-7.1-9.2-17.5-17.1-25.8-23.8c-0.8-3.3-9.6-15.8-11.2-16.7
		c0,0,8.3,2.5,15.8,9.2c2.1-2.9,6.2-6.2,11.7-7.5c5.4,4.6,6.7,12.1,6.2,13.3c-2.5,2.9-5,4.2-5,4.2l13.3,14.6l1.3-10.4
		C2754.2,246.2,2771.3,297.5,2749.6,362.5z M2690.9,266.7v-22.9c0,0-10.4-3.3-21.3-11.7c-22.1,3.3-48.7,25.4-48.7,25.4
		s9.2,17.1,18.7,35.4C2657.1,295,2682.5,273.3,2690.9,266.7z M2712.9,308.3c0,0-1.7-9.6-9.2-18.3l-17.1,0.4c0,0-23.3,20-37.1,20.4
		c0,0,7.9,14.6,11.7,22.1c7.9-1.7,21.3-7.9,27.1-14.2c0,0,3.7,11.7,2.9,25.4C2698.8,339.6,2709.2,327.5,2712.9,308.3z M2720,232.9
		c-8.8,7.1-15.8,11.2-15.8,11.2v22.9c6.2,7.1,12.5,12.5,17.1,22.9C2729.6,274.6,2727.9,251.7,2720,232.9z"/>
	<g>
		
			<linearGradient id="Sky_Logo_2_" gradientUnits="userSpaceOnUse" x1="361.9724" y1="275.1942" x2="361.9724" y2="-167.3197" gradientTransform="matrix(1 0 0 -1 0 304)">
			<stop  offset="0" style="stop-color:#002A91"/>
			<stop  offset="0.8" style="stop-color:#002672"/>
		</linearGradient>
		<path id="Sky_Logo_1_" fill="url(#Sky_Logo_2_)" d="M499.7,464.2c10.5,4.6,21.8,7.1,33.2,7.1c26.1,0.6,40.4-9.4,50.9-32.8
			l140.1-312c-9.1-4.1-19-6.4-29-6.7c-18.1-0.4-42.3,3.3-57.6,40.1L592,266.8l-89-144.6c-9.8-2.6-19.9-4-30-4.2
			c-31.5,0-49,11.5-67.2,31.3l-86.5,94.4l69.5,109.4c12.9,19.9,29.8,30.1,57.3,30.1c13.7,0.2,27.3-2.3,40-7.5l-83.8-126l59.4-62.9
			l97.4,152.7L499.7,464.2z M316,346.3c0,23-9,36.2-54,36.2c-5.4,0-10.8-0.4-16.1-1.1V76.2c0-23.2,7.9-47.4,53.2-47.4
			c5.7,0,11.4,0.6,16.9,1.7V346.3z M223.1,300.2c0,43-28.1,74.2-85.1,80.4c-41.3,4.4-101.1-0.8-129.5-4c-1-4.9-1.6-9.9-1.7-15
			c0-37.4,20.2-46,39.2-46c19.8,0,50.9,3.5,74,3.5c25.5,0,33.2-8.6,33.2-16.9c0-10.7-10.2-15.2-30-19L69,272.8C24,264.2,0,233,0,200
			c0-40.1,28.4-73.6,84.3-79.8c42.3-4.6,93.8,0.6,122,4c1,4.7,1.5,9.5,1.5,14.4c0,37.4-19.8,45.5-38.8,45.5
			c-14.6,0-37.3-2.7-63.2-2.7c-26.3,0-37.3,7.3-37.3,16.1c0,9.4,10.4,13.2,26.9,16.1l51.7,9.6C200.2,232.9,223.1,263.2,223.1,300.2z
			"/>
		
			<linearGradient id="s25_2_" gradientUnits="userSpaceOnUse" x1="365.5015" y1="40.6988" x2="359.6508" y2="208.2287" gradientTransform="matrix(1 0 0 -1 0 304)">
			<stop  offset="0" style="stop-color:#FFFFFF"/>
			<stop  offset="0.1203" style="stop-color:#FFFFFF;stop-opacity:0.8347"/>
			<stop  offset="0.2693" style="stop-color:#FFFFFF;stop-opacity:0.6576"/>
			<stop  offset="0.4195" style="stop-color:#FFFFFF;stop-opacity:0.5107"/>
			<stop  offset="0.5684" style="stop-color:#FFFFFF;stop-opacity:0.3965"/>
			<stop  offset="0.7156" style="stop-color:#FFFFFF;stop-opacity:0.3152"/>
			<stop  offset="0.8603" style="stop-color:#FFFFFF;stop-opacity:0.2664"/>
			<stop  offset="1" style="stop-color:#FFFFFF;stop-opacity:0.25"/>
		</linearGradient>
		<path id="s25_1_" opacity="0.25" fill="url(#s25_2_)" enable-background="new    " d="M724,126.5l-51.3,114.2
			c-4,8.2-12.3,13.4-21.4,13.4l-46.8,1.6c-5.1,0.3-9.6,3.7-11.4,8.5v-0.1l44.2-104.2c15.4-36.8,39.6-40.5,57.6-40.1
			C705,120.1,714.8,122.4,724,126.5z M589.6,263.1L503,122.2c-9.8-2.6-19.9-4-30-4.2c-31.5,0-49,11.5-67.2,31.3l-86.5,94.4l6.9,10.9
			c4.5,6.8,12.3,10.7,20.5,10.3c4.1-0.1,45.9-1.6,49.3-1.7c8.5-0.7,16.7,3,21.8,9.8l0,0l-15.5-23.3l59.4-62.9l39.9,62.5l0,0
			c4.9,6.2,12.5,9.7,20.4,9.5c2.1-0.1,54.3-1.9,56.7-2C583.1,256.9,587.3,259.3,589.6,263.1L589.6,263.1z M299.1,28.9
			c-45.3,0-53.2,24.2-53.2,47.4v209c0-9.6,7.7-17.4,17.3-17.7l35.1-1.2c9.8,0,17.8-8,17.8-17.8l0,0v-218
			C310.4,29.4,304.8,28.8,299.1,28.9z M147.2,223.1l-51.7-9.6c-16.5-2.9-26.9-6.7-26.9-16.1c0-8.8,11-16.1,37.3-16.1
			c25.9,0,48.6,2.7,63.2,2.7c19,0,38.8-8.1,38.8-45.5c0-4.8-0.5-9.7-1.5-14.4c-28.2-3.5-79.7-8.6-122-4C28.4,126.3,0,159.9,0,199.9
			c0.1,21.4,10.2,41.6,27.3,54.5c12.6,7.8,26.8,12.9,41.5,14.8c19.2,2.6,38.5,3.6,57.8,3c6.1-0.2,51.7-1.8,61.7-2.2
			c23.1-0.8,35.7,18.9,34.4,38.7c0-0.3,0-0.5,0.1-0.8v-0.2c0.2-2.6,0.3-5.2,0.3-7.8C223.1,263.2,200.2,232.9,147.2,223.1z"/>
		
			<linearGradient id="Plinth_1_" gradientUnits="userSpaceOnUse" x1="1075.0939" y1="22.2308" x2="1075.0939" y2="41.4615" gradientTransform="matrix(79.7983 0 0 26 -84224.2969 -578)">
			<stop  offset="0.4" style="stop-color:#FF0000"/>
			<stop  offset="1" style="stop-color:#D42321"/>
		</linearGradient>
		<path id="Plinth_2_" fill="url(#Plinth_1_)" d="M2300.1,0H832.3C814,0,799,15,799,33.3v433.4c0,18.3,15,33.3,33.3,33.3h1468.2
			c18.3,0,33.3-15,33.3-33.3V33.3C2333.4,15,2318.4,0,2300.1,0z"/>
		
			<linearGradient id="p40_2_" gradientUnits="userSpaceOnUse" x1="1568.9945" y1="74.0394" x2="1560.2958" y2="323.1429" gradientTransform="matrix(1 0 0 -1 0 304)">
			<stop  offset="0" style="stop-color:#FFFFFF"/>
			<stop  offset="0.1203" style="stop-color:#FFFFFF;stop-opacity:0.8347"/>
			<stop  offset="0.2693" style="stop-color:#FFFFFF;stop-opacity:0.6576"/>
			<stop  offset="0.4195" style="stop-color:#FFFFFF;stop-opacity:0.5107"/>
			<stop  offset="0.5684" style="stop-color:#FFFFFF;stop-opacity:0.3965"/>
			<stop  offset="0.7156" style="stop-color:#FFFFFF;stop-opacity:0.3152"/>
			<stop  offset="0.8603" style="stop-color:#FFFFFF;stop-opacity:0.2664"/>
			<stop  offset="1" style="stop-color:#FFFFFF;stop-opacity:0.25"/>
		</linearGradient>
		<path id="p40_1_" opacity="0.4" fill="url(#p40_2_)" enable-background="new    " d="M823,248c0,0,1.1-0.1,3.2-0.2
			c98.6-3.5,1482.6-51.7,1482.6-51.7c13.9-0.1,25-11.5,24.9-25.3V33.3c0-18.4-14.9-33.3-33.3-33.3L832.3,0
			C813.9,0,799,14.9,799,33.3V274C798.6,260.4,809.3,248.7,823,248z"/>
		<g transform="translate(46.366667, 4.116667)">
			<path fill="#FFFFFF" d="M848.4,355.2c-2.9-20.4,3.3-31.2,15.4-31.2c11.2,0,38.8,12.1,77.1,12.1c40.4,0,55.4-14.2,55.4-32.9
				c0-13.3-5.8-25-42.1-35L912.5,257c-46.2-12.1-64.2-35.4-64.2-63.8c0-35.4,27.9-66.7,91.2-66.7c28.3,0,63.8,6.2,85.4,14.6
				c3.8,20-2.5,30.8-14.6,30.8c-10.8,0-35.4-10.4-70-10.4c-37.5,0-51.2,12.9-51.2,29.6c0,11.7,5.4,22.5,38.8,32.1l42.5,11.7
				c47.5,13.3,66.7,35.4,66.7,66.7c0,36.7-28.3,69.6-97.1,69.6C909.2,371.4,871.3,363.9,848.4,355.2z"/>
			<path fill="#FFFFFF" d="M1320.6,248.9c0,77.1-54.2,122.5-113.3,122.5c-35.4,0-64.2-16.7-81.7-40.4v99.1c0,9.2-5.4,15.4-21.2,15.4
				c-7.9,0-15.4-0.8-19.2-2.1V130.9c3.8-0.8,11.2-2.1,19.2-2.1c15.8,0,21.2,5.8,21.2,15.4v22.5c17.1-23.8,46.2-40.4,81.7-40.4
				C1266.4,126.3,1320.6,172.1,1320.6,248.9z M1279.8,248.9c0-51.7-34.2-87.1-80.4-87.1c-31.2,0-60.4,18.3-73.8,44.6v85
				c13.3,26.7,42.1,44.6,73.8,44.6C1245.6,336,1279.8,300.6,1279.8,248.9z"/>
			<path fill="#FFFFFF" d="M1359.3,248.9c0-70,51.7-122.1,120.8-122.1c69.6,0,121.2,52.1,121.2,122.1c0,69.6-51.7,122.5-121.2,122.5
				C1411,371.4,1359.3,318.5,1359.3,248.9z M1560.6,248.9c0-54.2-36.2-87.1-80.4-87.1c-43.8,0-80,32.9-80,87.1
				c0,53.3,36.2,87.5,80,87.5C1524.3,336,1560.6,302.2,1560.6,248.9z"/>
			<path fill="#FFFFFF" d="M1796.9,148.4c0,16.2-6.7,19.6-23.8,19.6c-33.8,0-62.5,15.8-80,52.5v132.9c0,10-5.4,15.4-21.7,15.4
				c-6.7,0-14.6-0.8-18.8-2.1V130.9c3.8-0.8,11.7-2.1,18.8-2.1c16.2,0,21.7,5.8,21.7,15.4v32.9c22.9-35,57.9-52.5,101.7-46.7
				C1795.3,133.8,1796.9,141.3,1796.9,148.4z"/>
			<path fill="#FFFFFF" d="M1973.6,355.2c-20.4,10-44.2,16.2-67.9,16.2c-46.7,0-74.6-27.5-74.6-73.3V95.5c0-10.4,5.8-17.1,21.7-17.1
				c6.7,0,14.6,1.7,18.8,2.5v51.2h91.7c0.4,3.3,1.7,10.4,1.7,16.2c0,14.2-5.8,19.2-14.6,19.2h-78.3v127.9
				c0,27.5,12.9,40.8,38.8,40.8c23.8,0,36.7-10.4,47.9-10.4C1969.9,326,1976.1,335.6,1973.6,355.2z"/>
			<path fill="#FFFFFF" d="M2001.5,355.2c-2.9-20.4,3.3-31.2,15.4-31.2c11.3,0,38.8,12.1,77.1,12.1c40.4,0,55.4-14.2,55.4-32.9
				c0-13.3-5.8-25-42.1-35l-41.7-11.2c-46.2-12.1-64.2-35.4-64.2-63.8c0-35.4,27.9-66.7,91.3-66.7c28.3,0,63.7,6.2,85.4,14.6
				c3.8,20-2.5,30.8-14.6,30.8c-10.8,0-35.4-10.4-70-10.4c-37.5,0-51.2,12.9-51.2,29.6c0,11.7,5.4,22.5,38.8,32.1l42.5,11.7
				c47.5,13.3,66.7,35.4,66.7,66.7c0,36.7-28.3,69.6-97.1,69.6C2062.4,371.4,2024.4,363.9,2001.5,355.2z"/>
		</g>
	</g>
</g>
</svg>
