<?xml version="1.0" encoding="utf-8"?>
<!-- Generator: Adobe Illustrator 23.0.1, SVG Export Plug-In . SVG Version: 6.00 Build 0)  -->
<svg version="1.1" id="Livello_1" xmlns="http://www.w3.org/2000/svg" xmlns:xlink="http://www.w3.org/1999/xlink" x="0px" y="0px"
	 viewBox="0 0 2944.4 499.9" enable-background="new 0 0 2944.4 499.9" xml:space="preserve">
<g>
	<g>
		<path fill="#3E8F01" d="M2911.1,0h-607.9c-18.4,0-33.3,14.9-33.3,33.3v433.3c0,18.4,14.8,33.3,33.3,33.3h607.9
			c18.4,0,33.3-14.9,33.3-33.3V33.4C2944.4,14.9,2929.5,0,2911.1,0 M2911.1,10c12.9,0,23.3,10.5,23.3,23.3v433.3
			c0,12.8-10.5,23.3-23.3,23.3h-607.9c-12.9,0-23.3-10.5-23.3-23.3V33.4c0-12.9,10.5-23.3,23.3-23.3h607.9"/>
		<path fill="#FFFFFF" d="M2911.1,10c12.9,0,23.3,10.5,23.3,23.3v433.3c0,12.8-10.5,23.3-23.3,23.3h-607.9
			c-12.9,0-23.3-10.5-23.3-23.3V33.4c0-12.9,10.5-23.3,23.3-23.3h607.9"/>
		<path fill="#3E8F01" d="M2616.1,153.8v184.7c0,8.1-4.1,12.6-16.7,12.6c-5.7,0-11-0.8-15.1-1.6v-85h-105.4v74.1
			c0,8.1-4.1,12.6-16.7,12.6c-6.1,0-12.2-0.8-15.1-1.6V164.8c0-7.8,4.1-12.6,17.1-12.6c5.7,0,11.3,0.8,14.6,1.6V236h104.9v-71.2
			c0-7.8,4.5-12.6,17.5-12.6C2607.1,152.2,2612.8,153,2616.1,153.8"/>
		<path fill="#3E8F01" d="M2832.2,251.4c0,55.4-38.7,97.3-99.3,97.3h-56.5c-12.2,0-16.7-4.9-16.7-12.6V167.2
			c0-7.7,4.5-12.6,16.7-12.6h56.5C2793.6,154.6,2832.2,196.1,2832.2,251.4 M2800.1,251.4c0-41.5-26-68.4-67.1-68.4h-41.5v137.1h41.5
			C2774,320.2,2800.1,293.3,2800.1,251.4"/>
	</g>
	<g>
		
			<linearGradient id="SVGID_1_" gradientUnits="userSpaceOnUse" x1="1979.4735" y1="-1079.7843" x2="1993.5835" y2="-1079.7843" gradientTransform="matrix(109.235 0 0 109.235 -215429.2031 118200.1953)">
			<stop  offset="0" style="stop-color:#2B6300"/>
			<stop  offset="1" style="stop-color:#3E8F01"/>
		</linearGradient>
		<path fill="url(#SVGID_1_)" d="M2306.6,0H831.9c-18.4,0-33.3,14.9-33.3,33.3v433.3c0,18.4,14.9,33.3,33.3,33.3h1474.7
			c18.4,0,33.3-14.9,33.3-33.3V33.3C2339.9,14.9,2325,0,2306.6,0z"/>
		<g>
			<path fill="#2B6300" d="M499.6,464c6,3.1,18.1,6.7,33.2,7.1c26.1,0.6,40.3-9.4,50.9-32.8l140.1-311.8c-5.8-3.1-18.6-6.5-29-6.7
				c-18.1-0.4-42.3,3.3-57.6,40.1l-45.3,106.8l-89-144.6c-5.8-1.7-19.8-4.2-30-4.2c-31.5,0-49,11.5-67.3,31.3l-86.4,94.4l69.5,109.3
				c12.9,19.9,29.8,30.1,57.3,30.1c18.1,0,33-4.2,40-7.5l-83.8-126l59.4-62.9L559,339.3L499.6,464z M315.8,346.1
				c0,23-9,36.2-54,36.2c-6,0-11.1-0.4-16.1-1.1v-305c0-23.2,7.9-47.4,53.2-47.4c5.8,0,11.5,0.6,16.9,1.7V346.1z M223.1,300
				c0,43-28.1,74.2-85.1,80.4c-41.3,4.4-101.1-0.8-129.5-4c-1-4.6-1.7-10.3-1.7-14.9c0-37.4,20.2-46,39.2-46c19.8,0,50.9,3.4,74,3.4
				c25.6,0,33.2-8.6,33.2-16.9c0-10.7-10.2-15.2-30-19L69,272.6C24,264,0,232.9,0,199.9c0-40.1,28.4-73.6,84.3-79.8
				c42.3-4.6,93.8,0.6,122,4c1,4.8,1.5,9.4,1.5,14.4c0,37.4-19.8,45.4-38.8,45.4c-14.6,0-37.3-2.7-63.2-2.7
				c-26.3,0-37.3,7.3-37.3,16.1c0,9.4,10.4,13.2,26.9,16.1l51.7,9.6C200.2,232.9,223.1,263,223.1,300"/>
			
				<linearGradient id="s30_1_" gradientUnits="userSpaceOnUse" x1="365.4223" y1="2152.7063" x2="359.574" y2="1985.2434" gradientTransform="matrix(1 0 0 1 0 -1889.4893)">
				<stop  offset="0" style="stop-color:#FFFFFF"/>
				<stop  offset="1" style="stop-color:#FFFFFF;stop-opacity:0.25"/>
			</linearGradient>
			<path id="s30" opacity="0.3" fill="url(#s30_1_)" enable-background="new    " d="M723.8,126.5l-51.3,114.2
				c-1.5,3.1-7.2,12.9-21.4,13.4c-3.3,0.1-46.8,1.6-46.8,1.6c-8.5,0.3-11.3,8.4-11.4,8.5l0,0L637.1,160
				c15.4-36.8,39.6-40.5,57.6-40.1C705.2,120,718,123.4,723.8,126.5z M589.5,262.9l-86.6-140.8c-5.8-1.8-19.8-4.2-30-4.2
				c-31.5,0-49,11.5-67.2,31.3l-86.5,94.3l6.9,10.8c3,4,8.9,10.7,20.5,10.3c4.1-0.1,45.9-1.6,49.3-1.7c10.8-0.4,17.7,4.2,21.8,9.8
				l0,0l-15.5-23.2l59.4-62.9l39.9,62.5l0,0c7.2,9.4,18.1,9.6,20.4,9.5c2.1-0.1,54.3-1.9,56.7-2
				C582.1,256.4,586.3,258.4,589.5,262.9z M298.9,28.9c-45.3,0-53.2,24.2-53.2,47.4v209c0-8.4,6.5-17.3,17.2-17.7
				c7.5-0.2,28.8-1,35.1-1.2c6.9-0.2,17.6-5,17.8-17.8v-218C310.4,29.4,304.7,28.9,298.9,28.9z M147.2,223.1l-51.7-9.6
				c-16.5-2.9-26.9-6.7-26.9-16.1c0-8.8,11-16.1,37.3-16.1c25.9,0,48.6,2.7,63.2,2.7c19,0,38.8-8,38.8-45.5c0-5-0.6-9.6-1.5-14.4
				c-28.2-3.5-79.8-8.6-122-4c-55.9,6.2-84.3,39.7-84.3,79.8c0,20.6,9.4,40.4,27.3,54.5c13.7,9,27.5,12.4,41.5,14.8
				c11.5,2,38.1,3.8,57.8,3c6.1-0.2,51.7-1.8,61.7-2.2c23.1-0.8,35.7,19,34.4,38.7c0-0.2,0-0.5,0.1-0.8c0-0.1,0-0.2,0-0.2
				c0.2-2.5,0.3-5.2,0.3-7.8C223.1,263.1,200.2,232.9,147.2,223.1z"/>
		</g>
		<g>
			<path fill="#FFFFFF" d="M1112.4,230.7v127.1c0,9.3-5.4,15.2-21.6,15.2c-6.9,0-14.7-1-18.7-2V236c0-47.1-23.1-69.7-57.9-69.7
				c-27,0-56.4,18.7-68.2,40.7v150.7c0,9.3-5.4,15.2-21.6,15.2c-6.9,0-14.7-1-18.7-2v-236c3.9-1,11.8-2,18.7-2
				c16.2,0,21.6,5.9,21.6,15.2v20.1c17.2-21.1,43.2-37.8,78-37.8C1072.2,130.5,1112.4,160.9,1112.4,230.7"/>
			<path fill="#FFFFFF" d="M1361.1,219.9V371c-3.9,1-11.3,2-18.2,2c-14.7,0-21.6-5.4-21.6-15.2v-20.6
				c-21.1,24.1-48.6,38.3-83.4,38.3c-52.5,0-81.5-34.4-81.5-71.7c0-56.9,60.9-82,164.4-75.1v-8.3c0-38.8-11.8-55-56.4-55
				c-18.7,0-43.7,5.4-56.9,8.8c-7.9,2-13.7,3.9-18.7,3.9c-11.3,0-18.7-9.8-14.7-30.4c24.1-8.8,58.9-17.2,92.3-17.2
				C1335.6,130.5,1361.1,161.4,1361.1,219.9 M1320.9,302.3v-44.7c-67.7-4.9-124.2,3.9-124.2,44.7c0,20.6,17.2,39.3,48.1,39.3
				C1276.2,341.6,1303.7,325.9,1320.9,302.3"/>
			<path fill="#FFFFFF" d="M1563.9,359.2c-20.6,9.8-44.2,16.2-67.7,16.2c-46.6,0-74.6-27.5-74.6-73.1V99.6
				c0-10.3,5.9-17.2,21.6-17.2c6.9,0,14.7,1.5,18.7,2.5v51h91.8c0.5,3.4,1.5,10.3,1.5,16.2c0,14.2-5.9,19.1-14.7,19.1H1462v128.1
				c0,27.5,12.8,40.7,38.8,40.7c23.6,0,36.8-10.3,48.1-10.3C1560.4,329.8,1566.3,339.6,1563.9,359.2"/>
			<path fill="#FFFFFF" d="M1800.9,134.9V371c-3.9,1-11.8,2-18.7,2c-16.2,0-21.6-5.9-21.6-15.2v-20.1c-17.2,21.1-43.2,37.8-78,37.8
				c-48.1,0-88.3-30.4-88.3-100.1V148.2c0-9.3,5.4-15.2,21.6-15.2c6.9,0,14.7,1,18.6,2v135c0,47.1,23.1,69.7,57.9,69.7
				c27,0,56.4-18.7,68.2-40.7V148.2c0-9.3,5.4-15.2,21.6-15.2C1789.2,133,1797,134,1800.9,134.9"/>
			<path fill="#FFFFFF" d="M2008.2,152.6c0,16.2-6.9,19.6-23.6,19.6c-33.9,0-62.3,15.7-80,52.5v133c0,9.8-5.4,15.2-21.6,15.2
				c-6.9,0-14.7-1-18.7-2v-236c3.9-1,11.8-2,18.7-2c16.2,0,21.6,5.9,21.6,15.2V181c23.1-34.8,57.9-52.5,101.6-46.6
				C2006.8,137.9,2008.2,145.2,2008.2,152.6"/>
			<path fill="#FFFFFF" d="M2245.7,267.5h-182.6c5.4,45.6,36.8,71.2,83.4,71.2c20.1,0,35.8-3.9,50.6-8.8c10.3-3.4,14.7-4.9,18.7-4.9
				c11.3,0,18.7,9.3,16.7,30.9c-21.1,9.3-53.5,19.6-87.4,19.6c-73.6,0-123.2-49.6-123.2-123.2c0-70.7,52.5-121.7,116.8-121.7
				c72.6,0,108.5,56.4,108.5,113.4C2247.2,250.8,2246.7,259.1,2245.7,267.5 M2063.1,236h144.8c-1.5-40.2-27.5-71.7-69.2-71.7
				C2102.4,164.4,2069.5,189.4,2063.1,236"/>
		</g>
		
			<linearGradient id="p30_1_" gradientUnits="userSpaceOnUse" x1="1572.021" y1="2119.3306" x2="1563.3256" y2="1870.3267" gradientTransform="matrix(1 0 0 1 0 -1889.4893)">
			<stop  offset="0" style="stop-color:#FFFFFF"/>
			<stop  offset="1" style="stop-color:#FFFFFF;stop-opacity:0.25"/>
		</linearGradient>
		<path id="p30_2_" opacity="0.3" fill="url(#p30_1_)" enable-background="new    " d="M822.6,248.1c0,0,1.1-0.1,3.2-0.2
			c98.6-3.5,1489.4-52.5,1489.4-52.5c12.5-0.5,24.9-9.8,24.9-25.3V33.3c0-18.4-14.9-33.3-33.3-33.3H831.9
			c-18.4,0-33.3,14.9-33.3,33.3V274C798.6,271.3,799.4,250.3,822.6,248.1z"/>
	</g>
</g>
</svg>
