<?xml version="1.0" encoding="utf-8"?>
<!-- Generator: Adobe Illustrator 23.0.1, SVG Export Plug-In . SVG Version: 6.00 Build 0)  -->
<svg version="1.1" id="Livello_1" xmlns="http://www.w3.org/2000/svg" xmlns:xlink="http://www.w3.org/1999/xlink" x="0px" y="0px"
	 viewBox="0 0 1795.7 250" enable-background="new 0 0 1795.7 250" xml:space="preserve">
<g>
	<g id="Sky_Sports_Action_PRIMARY_RGB" transform="translate(-0.000000, 0.000000)">
		<path id="Path" fill="#FFFFFF" d="M1778.8,250h-626c-9.2,0-16.7-7.5-16.7-16.7V16.7c0-9.2,7.5-16.7,16.7-16.7H1779
			c9.2,0,16.7,7.5,16.7,16.7v216.7C1795.5,242.5,1788,250,1778.8,250z"/>
		<path fill="#002A91" d="M1779,0h-626.3c-9.2,0-16.6,7.5-16.6,16.6v216.7c0,9.2,7.4,16.6,16.6,16.6H1779c9.2,0,16.6-7.4,16.6-16.6
			V16.6C1795.7,7.5,1788.2,0,1779,0 M1779,5c6.4,0,11.6,5.2,11.6,11.6v216.7c0,6.4-5.2,11.6-11.6,11.6h-626.3
			c-6.4,0-11.6-5.2-11.6-11.6V16.6c0-6.4,5.2-11.6,11.6-11.6H1779"/>
		<g id="Group_2_" transform="translate(126.100000, 4.550000)">
			<g>
				<path id="Shape_2_" fill="#002A91" d="M1176.2,108v62.7c-1.7,0.4-4.6,0.8-7.5,0.8c-6,0-9-2.3-9-6.2v-8.5
					c-8.7,10-20.2,15.8-34.6,15.8c-21.7,0-33.7-14.2-33.7-29.8c0-23.5,25.2-34,68.1-31v-3.5c0-16-4.8-22.7-23.3-22.7
					c-7.7,0-18.1,2.3-23.5,3.7c-3.3,0.8-5.6,1.7-7.7,1.7c-4.6,0-7.7-4.2-6-12.7c10-3.7,24.4-7.1,38.3-7.1
					C1165.8,70.9,1176.2,83.8,1176.2,108z M1159.6,142.1v-18.5c-28.1-2.1-51.5,1.7-51.5,18.5c0,8.5,7.1,16.2,20,16.2
					C1141.2,158.4,1152.5,151.9,1159.6,142.1z"/>
				<path fill="#002A91" d="M1196.2,121.5c0-29.2,21.5-50.6,49.6-50.6c13.1,0,25.4,3.7,34,7.7c1.5,9.2-1.5,12.9-5.4,12.9
					c-7.1,0-13.1-5.8-27.9-5.8c-18.3,0-33.3,13.5-33.3,36c0,22.1,15,36,33.3,36c14.6,0,20.8-6,27.3-6c4.4,0,7.3,4,6,12.9
					c-8.5,4.4-20.8,7.9-34,7.9C1217.7,172.5,1196.2,150.4,1196.2,121.5z"/>
				<path fill="#002A91" d="M1356.9,165.7c-8.5,4.2-18.3,6.7-28.1,6.7c-19.4,0-30.8-11.5-30.8-30.4V58.2c0-4.4,2.5-7.1,9-7.1
					c2.9,0,6,0.6,7.7,1v21.2h38.1c0.2,1.5,0.6,4.4,0.6,6.7c0,5.8-2.5,7.9-6,7.9h-32.5v53.1c0,11.5,5.2,16.9,16,16.9
					c9.8,0,15.2-4.4,20-4.4C1355.6,153.6,1357.9,157.5,1356.9,165.7z"/>
				<path fill="#002A91" d="M1370,50.7c0-6,4.8-10.6,10.6-10.6c6,0,10.8,4.4,10.8,10.6c0,5.4-4.6,10.6-10.8,10.6
					C1374.8,61.1,1370,56.1,1370,50.7z M1372.1,170.7V78.2c0-4,2.3-6.2,9-6.2c2.9,0,5.8,0.4,7.5,0.8V165c0,4.2-2.1,6.2-8.7,6.2
					C1377.1,171.5,1373.7,171.1,1372.1,170.7z"/>
				<path fill="#002A91" d="M1408.7,121.5c0-29.2,21.5-50.6,50-50.6c29,0,50.2,21.7,50.2,50.6s-21.5,50.8-50.2,50.8
					C1430.2,172.5,1408.7,150.4,1408.7,121.5z M1492.3,121.5c0-22.3-15-36-33.3-36c-18.1,0-33.1,13.5-33.1,36
					c0,22.1,15,36.2,33.1,36.2S1492.3,143.8,1492.3,121.5z"/>
				<path fill="#002A91" d="M1615.8,112.3V165c0,4-2.3,6.2-9,6.2c-2.9,0-6-0.4-7.7-0.8v-55.8c0-19.6-9.6-29-24-29
					c-11.2,0-23.3,7.7-28.3,16.9V165c0,4-2.3,6.2-9,6.2c-2.9,0-6-0.4-7.7-0.8V72.5c1.7-0.4,4.8-0.8,7.7-0.8c6.7,0,9,2.5,9,6.2v8.3
					c7.1-8.7,17.9-15.6,32.3-15.6C1599.2,70.9,1615.8,83.6,1615.8,112.3z"/>
			</g>
			<g>
				<path fill="#002A91" d="M1176.2,108v62.7c-1.7,0.4-4.6,0.8-7.5,0.8c-6,0-9-2.3-9-6.2v-8.5c-8.7,10-20.2,15.8-34.6,15.8
					c-21.7,0-33.7-14.2-33.7-29.8c0-23.5,25.2-34,68.1-31v-3.5c0-16-4.8-22.7-23.3-22.7c-7.7,0-18.1,2.3-23.5,3.7
					c-3.3,0.8-5.6,1.7-7.7,1.7c-4.6,0-7.7-4.2-6-12.7c10-3.7,24.4-7.1,38.3-7.1C1165.8,70.9,1176.2,83.8,1176.2,108z M1159.6,142.1
					v-18.5c-28.1-2.1-51.5,1.7-51.5,18.5c0,8.5,7.1,16.2,20,16.2C1141.2,158.4,1152.5,151.9,1159.6,142.1z"/>
				<path fill="#002A91" d="M1196.2,121.5c0-29.2,21.5-50.6,49.6-50.6c13.1,0,25.4,3.7,34,7.7c1.5,9.2-1.5,12.9-5.4,12.9
					c-7.1,0-13.1-5.8-27.9-5.8c-18.3,0-33.3,13.5-33.3,36c0,22.1,15,36,33.3,36c14.6,0,20.8-6,27.3-6c4.4,0,7.3,4,6,12.9
					c-8.5,4.4-20.8,7.9-34,7.9C1217.7,172.5,1196.2,150.4,1196.2,121.5z"/>
				<path fill="#002A91" d="M1356.9,165.7c-8.5,4.2-18.3,6.7-28.1,6.7c-19.4,0-30.8-11.5-30.8-30.4V58.2c0-4.4,2.5-7.1,9-7.1
					c2.9,0,6,0.6,7.7,1v21.2h38.1c0.2,1.5,0.6,4.4,0.6,6.7c0,5.8-2.5,7.9-6,7.9h-32.5v53.1c0,11.5,5.2,16.9,16,16.9
					c9.8,0,15.2-4.4,20-4.4C1355.6,153.6,1357.9,157.5,1356.9,165.7z"/>
				<path fill="#002A91" d="M1370,50.7c0-6,4.8-10.6,10.6-10.6c6,0,10.8,4.4,10.8,10.6c0,5.4-4.6,10.6-10.8,10.6
					C1374.8,61.1,1370,56.1,1370,50.7z M1372.1,170.7V78.2c0-4,2.3-6.2,9-6.2c2.9,0,5.8,0.4,7.5,0.8V165c0,4.2-2.1,6.2-8.7,6.2
					C1377.1,171.5,1373.7,171.1,1372.1,170.7z"/>
				<path fill="#002A91" d="M1408.7,121.5c0-29.2,21.5-50.6,50-50.6c29,0,50.2,21.7,50.2,50.6s-21.5,50.8-50.2,50.8
					C1430.2,172.5,1408.7,150.4,1408.7,121.5z M1492.3,121.5c0-22.3-15-36-33.3-36c-18.1,0-33.1,13.5-33.1,36
					c0,22.1,15,36.2,33.1,36.2S1492.3,143.8,1492.3,121.5z"/>
				<path fill="#002A91" d="M1615.8,112.3V165c0,4-2.3,6.2-9,6.2c-2.9,0-6-0.4-7.7-0.8v-55.8c0-19.6-9.6-29-24-29
					c-11.2,0-23.3,7.7-28.3,16.9V165c0,4-2.3,6.2-9,6.2c-2.9,0-6-0.4-7.7-0.8V72.5c1.7-0.4,4.8-0.8,7.7-0.8c6.7,0,9,2.5,9,6.2v8.3
					c7.1-8.7,17.9-15.6,32.3-15.6C1599.2,70.9,1615.8,83.6,1615.8,112.3z"/>
			</g>
		</g>
	</g>
	<g>
		
			<linearGradient id="Sky_x5F_Logo_1_" gradientUnits="userSpaceOnUse" x1="-1393.5132" y1="1445.4019" x2="-1393.5132" y2="1447.8301" gradientTransform="matrix(149.68 0 0 91.1576 208762.7812 -131745.0156)">
			<stop  offset="0" style="stop-color:#002A91"/>
			<stop  offset="0.8" style="stop-color:#002672"/>
		</linearGradient>
		<path id="Sky_x5F_Logo_2_" fill="url(#Sky_x5F_Logo_1_)" d="M250.9,232.1c3,1.5,9,3.4,16.8,3.6c13.2,0.2,20.3-4.8,25.5-16.5
			l70.3-155.9c-3-1.5-9.4-3.4-14.7-3.4c-9-0.2-21.1,1.7-28.9,20l-22.9,53.4l-44.6-72.3c-3-0.9-10.1-2.1-15.1-2.1
			c-15.9,0-24.7,5.9-33.7,15.6l-43.5,47.1l35,54.6c6.5,10,14.9,15,28.7,15c9,0,16.5-2.1,20.1-3.8l-42.1-62.7l29.7-31.5l49,76.3
			L250.9,232.1z M158.6,173.1c0,11.5-4.6,18.1-27.2,18.1c-3,0-5.7-0.2-8.2-0.6V38.1c0-11.7,4-23.8,26.8-23.8c3,0,5.9,0.2,8.6,0.9
			C158.6,15.2,158.6,173.1,158.6,173.1z M111.9,150c0,21.5-14,37.1-42.7,40.2c-20.7,2.3-50.8-0.4-65.1-2.1c-0.4-2.3-0.9-5.2-0.9-7.5
			c0-18.8,10.1-22.9,19.7-22.9c9.9,0,25.5,1.7,37.3,1.7C73,159.4,77,155,77,151c0-5.4-5-7.5-15.1-9.6l-27.2-5.2
			C12.2,132.1,0,116.4,0,100c0-20,14.2-36.9,42.3-39.8c21.1-2.3,47.1,0.2,61.3,2.1c0.4,2.3,0.9,4.8,0.9,7.3
			c0,18.8-9.9,22.7-19.5,22.7c-7.3,0-18.6-1.3-31.8-1.3s-18.6,3.6-18.6,8.1c0,4.8,5.3,6.7,13.6,8.1l26,4.8
			C100.4,116.5,111.9,131.5,111.9,150z"/>
		
			<linearGradient id="s25_1_" gradientUnits="userSpaceOnUse" x1="-1393.4514" y1="1455.9523" x2="-1393.5394" y2="1454.9843" gradientTransform="matrix(149.68 0 0 57.7658 208762.7812 -83981.1641)">
			<stop  offset="0" style="stop-color:#FFFFFF"/>
			<stop  offset="1" style="stop-color:#FFFFFF;stop-opacity:0.25"/>
		</linearGradient>
		<path id="s25_2_" opacity="0.25" fill="url(#s25_1_)" enable-background="new    " d="M363.4,63.4l-25.8,57.1
			c-0.9,1.5-3.6,6.5-10.7,6.7c-1.7,0-23.5,0.9-23.5,0.9c-4.2,0.2-5.7,4.2-5.7,4.2l0,0L320.1,80c7.8-18.4,19.9-20.2,28.9-20
			C354,60,360.4,61.7,363.4,63.4z M296,131.5l-43.5-70.4c-3-0.9-10.1-2.1-15.1-2.1c-15.9,0-24.7,5.9-33.7,15.6l-43.5,47.1l3.6,5.4
			c1.5,2.1,4.4,5.4,10.3,5.2c2.1,0,23-0.9,24.7-0.9c5.5-0.2,8.8,2.1,10.9,4.8l0,0l-7.8-11.6l29.7-31.5l20.1,31.3l0,0
			c3.6,4.8,9,4.8,10.3,4.8c1.1,0,27.2-1.1,28.5-1.1C292.3,128.1,294.4,129.2,296,131.5z M150,14.4c-22.8,0-26.6,12.1-26.6,23.8
			v104.6c0-4.2,3.4-8.6,8.6-8.8c3.8-0.2,14.5-0.4,17.6-0.6c3.6-0.2,8.8-2.5,9-9V15.3C155.8,14.8,152.9,14.4,150,14.4z M73.9,111.7
			l-26-4.8c-8.4-1.5-13.6-3.4-13.6-8.1c0-4.4,5.5-8.1,18.6-8.1c13,0,24.5,1.3,31.8,1.3c9.6,0,19.5-4,19.5-22.7
			c0-2.5-0.2-4.8-0.9-7.3c-14.2-1.7-40-4.4-61.3-2.1C14.2,63.1,0,80,0,100c0,10.2,4.6,20.2,13.8,27.3c6.9,4.4,13.8,6.3,20.9,7.5
			c5.9,1.1,19.1,1.9,29.1,1.5c3.2-0.2,26-0.9,31-1.1c11.5-0.4,18,9.4,17.2,19.4c0-0.2,0-0.2,0-0.4c0,0,0,0,0-0.2
			c0.2-1.3,0.2-2.5,0.2-4C111.9,131.5,100.4,116.5,73.9,111.7z"/>
		
			<linearGradient id="Plinth_2_" gradientUnits="userSpaceOnUse" x1="-1396.3054" y1="1443.5963" x2="-1396.3054" y2="1446.0236" gradientTransform="matrix(317.3698 0 0 103 443931.4688 -148690.4219)">
			<stop  offset="0.4" style="stop-color:#FF0000"/>
			<stop  offset="1" style="stop-color:#D42321"/>
		</linearGradient>
		<path id="Plinth_1_" fill="url(#Plinth_2_)" d="M1154.5,0H417.8C408.6,0,401,7.5,401,16.7v216.7c0,9.2,7.6,16.7,16.8,16.7h737
			c9.2,0,16.8-7.5,16.8-16.7V16.7C1171.3,7.5,1163.7,0,1154.5,0z"/>
		
			<linearGradient id="p40_1_" gradientUnits="userSpaceOnUse" x1="-1396.146" y1="1456.5664" x2="-1396.4023" y2="1455.2648" gradientTransform="matrix(317.3698 0 0 56.4783 443931.4688 -82145.4375)">
			<stop  offset="0" style="stop-color:#FFFFFF"/>
			<stop  offset="1" style="stop-color:#FFFFFF;stop-opacity:0.25"/>
		</linearGradient>
		<path id="p40_2_" opacity="0.4" fill="url(#p40_1_)" enable-background="new    " d="M412.9,124c0,0,0.7,0,1.7,0
			c49.6-1.7,744.3-25.9,744.3-25.9c6.3-0.2,12.6-4.8,12.6-12.7V16.7c0-9.2-7.6-16.7-16.8-16.7H417.8C408.6,0,401,7.5,401,16.7v120.4
			C401,135.6,401.2,125.2,412.9,124z"/>
		<g id="Group_1_" transform="translate(184.407107, 16.308333)">
			<path fill="#FFFFFF" d="M264.7,163.3c-1.5-10.2,1.7-15.6,7.8-15.6c5.7,0,19.5,6.1,38.7,6.1c20.3,0,27.8-7.1,27.8-16.5
				c0-6.7-3-12.5-21.1-17.5l-20.9-5.6c-23.2-6.1-32.2-17.7-32.2-31.9c0-17.7,14-33.4,45.8-33.4c14.2,0,32,3.1,42.9,7.3
				c1.9,10-1.3,15.4-7.3,15.4c-5.5,0-17.8-5.2-35.2-5.2c-18.8,0-25.8,6.5-25.8,14.8c0,5.9,2.7,11.3,19.5,16.1l21.4,5.9
				c23.9,6.7,33.5,17.7,33.5,33.4c0,18.4-14.2,34.8-48.8,34.8C295.3,171.4,276.2,167.7,264.7,163.3z"/>
			<path id="Shape_1_" fill="#FFFFFF" d="M501.7,110.2c0,38.6-27.2,61.3-56.9,61.3c-17.8,0-32.2-8.4-41-20.2v49.6
				c0,4.6-2.7,7.7-10.7,7.7c-4,0-7.8-0.4-9.6-1.1V51.2c1.9-0.4,5.7-1.1,9.6-1.1c8,0,10.7,2.9,10.7,7.7v11.3
				c8.6-11.9,23.2-20.2,41-20.2C474.6,48.9,501.7,71.8,501.7,110.2z M481.3,110.2c0-25.9-17.2-43.6-40.4-43.6
				c-15.7,0-30.4,9.2-37,22.3v42.5c6.7,13.4,21.1,22.3,37,22.3C464.1,153.7,481.3,136,481.3,110.2z"/>
			<path fill="#FFFFFF" d="M521.2,110.2c0-35,26-61.1,60.7-61.1c35,0,60.9,26.1,60.9,61.1c0,34.8-26,61.3-60.9,61.3
				C547.1,171.4,521.2,145,521.2,110.2z M622.3,110.2c0-27.1-18.2-43.6-40.4-43.6c-22,0-40.2,16.5-40.2,43.6
				c0,26.7,18.2,43.8,40.2,43.8C604.1,153.7,622.3,136.8,622.3,110.2z"/>
			<path fill="#FFFFFF" d="M740.9,60c0,8.1-3.4,9.8-11.9,9.8c-17,0-31.4,7.9-40.2,26.3v66.5c0,5-2.7,7.7-10.9,7.7
				c-3.4,0-7.3-0.4-9.4-1.1V51.2c1.9-0.4,5.9-1.1,9.4-1.1c8.2,0,10.9,2.9,10.9,7.7v16.5c11.5-17.5,29.1-26.3,51.1-23.4
				C740,52.7,740.9,56.4,740.9,60z"/>
			<path fill="#FFFFFF" d="M829.5,163.3c-10.3,5-22.2,8.1-34.1,8.1c-23.5,0-37.5-13.8-37.5-36.7V33.5c0-5.2,3-8.6,10.9-8.6
				c3.4,0,7.3,0.9,9.4,1.3v25.6h46c0.2,1.7,0.9,5.2,0.9,8.1c0,7.1-3,9.6-7.3,9.6h-39.3v64c0,13.8,6.5,20.4,19.5,20.4
				c11.9,0,18.4-5.2,24.1-5.2C827.7,148.7,830.8,153.5,829.5,163.3z"/>
			<path fill="#FFFFFF" d="M843.6,163.3c-1.5-10.2,1.7-15.6,7.8-15.6c5.7,0,19.5,6.1,38.7,6.1c20.3,0,27.8-7.1,27.8-16.5
				c0-6.7-3-12.5-21.1-17.5l-20.9-5.6c-23.2-6.1-32.2-17.7-32.2-31.9c0-17.7,14-33.4,45.8-33.4c14.2,0,32,3.1,42.9,7.3
				c1.9,10-1.3,15.4-7.3,15.4c-5.5,0-17.8-5.2-35.2-5.2c-18.8,0-25.8,6.5-25.8,14.8c0,5.9,2.7,11.3,19.5,16.1l21.4,5.9
				c23.9,6.7,33.5,17.7,33.5,33.4c0,18.4-14.2,34.8-48.8,34.8C874.1,171.4,855.1,167.7,843.6,163.3z"/>
		</g>
	</g>
</g>
</svg>
