<?xml version="1.0" encoding="UTF-8" standalone="no"?>
<!-- Generator: Adobe Illustrator 19.1.0, SVG Export Plug-In . SVG Version: 6.00 Build 0)  -->

<svg
   version="1.1"
   id="Layer_3"
   x="0px"
   y="0px"
   viewBox="2.6 446.4 427 82.6"
   style="enable-background:new 2.6 446.4 427 82.6;"
   xml:space="preserve"
   inkscape:version="1.1 (c68e22c387, 2021-05-23)"
   sodipodi:docname="Smithsonian Channel (2014).svg"
   xmlns:inkscape="http://www.inkscape.org/namespaces/inkscape"
   xmlns:sodipodi="http://sodipodi.sourceforge.net/DTD/sodipodi-0.dtd"
   xmlns="http://www.w3.org/2000/svg"
   xmlns:svg="http://www.w3.org/2000/svg"
   xmlns:rdf="http://www.w3.org/1999/02/22-rdf-syntax-ns#"
   xmlns:cc="http://creativecommons.org/ns#"
   xmlns:dc="http://purl.org/dc/elements/1.1/"><metadata
     id="metadata57"><rdf:RDF><cc:Work
         rdf:about=""><dc:format>image/svg+xml</dc:format><dc:type
           rdf:resource="http://purl.org/dc/dcmitype/StillImage" /></cc:Work></rdf:RDF></metadata><defs
     id="defs55">
	
	
	
	
	
	
	
	
	
	
	
	
	
	
	
	
	
	
	
	
</defs><sodipodi:namedview
     pagecolor="#ffffff"
     bordercolor="#666666"
     borderopacity="1"
     objecttolerance="10"
     gridtolerance="10"
     guidetolerance="10"
     inkscape:pageopacity="0"
     inkscape:pageshadow="2"
     inkscape:window-width="1366"
     inkscape:window-height="705"
     id="namedview53"
     showgrid="false"
     inkscape:zoom="2.0534249"
     inkscape:cx="194.55302"
     inkscape:cy="49.429615"
     inkscape:window-x="-8"
     inkscape:window-y="-8"
     inkscape:window-maximized="1"
     inkscape:current-layer="Layer_3"
     inkscape:pagecheckerboard="0" /><style
     type="text/css"
     id="style3">
	.st0{fill:#E6B12E;}
	.st1{fill:#FFFFFF;}
</style><g
     id="g9" /><g
     id="g2498"><g
       id="g5"
       style="fill:#fdb714;fill-opacity:1"><path
         class="st0"
         d="m 417.7,498.2 c -3.1,-5.3 -8,-5.3 -8.6,-5.3 v 0 l 20.5,-4.2 -20.5,-4.2 v 0 c 0.2,-0.2 4.2,-3.7 10.2,-3.8 4.5,-0.1 8.4,-5.5 5.9,-9.8 0,0 -0.8,6.6 -9.2,4.4 -5.9,-1.6 -9.4,1.8 -9.8,2.3 v 0 l 11.5,-17.4 -17.5,11.4 v 0 c 0,-0.3 0.3,-5.6 4.5,-9.8 3.1,-3.2 2,-9.8 -2.8,-11.1 0,0 4.2,5.2 -3.3,9.6 -5.3,3.1 -5.3,7.9 -5.3,8.5 v 0 l -4.3,-20.4 -4.3,20.4 v 0 c -0.2,-0.2 -3.7,-4.2 -3.8,-10.1 -0.1,-4.5 -5.6,-8.4 -9.8,-5.9 0,0 6.7,0.7 4.5,9.1 -1.6,5.9 1.8,9.4 2.3,9.8 v 0 l -17.5,-11.4 v 0 0 l 9.4,14.2 2.1,3.2 v 0 c -0.2,0 -5.6,-0.3 -9.9,-4.5 -3.2,-3.1 -9.9,-2 -11.1,2.7 0,0 5.2,-4.2 9.6,3.3 3.1,5.3 8,5.3 8.6,5.3 v 0 l -20.5,4.2 20.5,4.2 v 0 c -0.1,0.1 -4.2,3.7 -10.2,3.8 -4.5,0.1 -8.4,5.6 -5.9,9.8 0,0 0.7,-6.6 9.2,-4.4 6,1.6 9.4,-1.9 9.8,-2.3 v 0 l -11.5,17.4 17.5,-11.4 c 0,0.2 -0.3,5.5 -4.5,9.8 -3.1,3.2 -2,9.8 2.8,11.1 0,0 -4.2,-5.2 3.3,-9.6 5.3,-3.1 5.3,-7.9 5.3,-8.5 v 0 l 4.1,20.4 4.3,-20.4 v 0 c 0.2,0.2 3.7,4.1 3.8,10.1 0.1,4.5 5.6,8.4 9.8,5.9 0,0 -6.7,-0.7 -4.5,-9.1 1.6,-5.9 -1.8,-9.4 -2.3,-9.8 v 0 l 17.5,11.4 -6.1,-9.2 -5.4,-8.2 v 0 c 0.2,0 5.6,0.3 9.9,4.5 3.2,3.1 9.9,2 11.1,-2.7 0.2,0 -5,4.2 -9.4,-3.3 z"
         id="path7"
         style="fill:#fdb714;fill-opacity:1" /></g><g
       id="g13"
       style="fill:#000000"><path
         class="st1"
         d="m 4.2,482.3 c 1.1,3.2 4.5,10.6 11.6,10.6 5.1,0 8.3,-3.4 8.3,-8.7 0,-5.7 -4.4,-8.1 -8.7,-10.2 -2.2,-1.1 -11.3,-4.2 -11.3,-12.3 0,-6.7 5,-12.4 13.9,-12.4 1.9,0 4.2,0.4 5.6,0.9 0.9,0.3 1.8,0.6 2.6,0.7 0.3,2.3 0.7,5 1.2,9.1 l -1.7,0.2 c -1.1,-4 -3,-8.7 -9.1,-8.7 -4.8,0 -7.3,3.5 -7.3,7.5 0,5 3.6,7.2 8.7,9.5 4.4,1.9 11.5,4.7 11.5,13 0,7.8 -6.4,13.5 -14.9,13.5 -2.4,0 -4.7,-0.5 -6.4,-1 C 6.5,493.5 5.3,492.9 4.5,492.6 4,490.8 3.2,486.1 2.6,482.4 l 1.6,-0.1"
         id="path15"
         style="fill:#000000" /><path
         class="st1"
         d="m 38.3,472.5 c 0,-4 -0.1,-4.1 -4.6,-4.6 v -1.2 c 3.1,-0.7 6.4,-1.5 9.8,-2.7 v 5 c 1.3,-0.9 2.7,-1.8 4.6,-3 2,-1.2 3.7,-2 6.1,-2 3.4,0 6.4,2 7.6,5.2 1.9,-1.4 4,-2.8 5,-3.4 2,-1.1 3.7,-1.9 5.9,-1.9 5.4,0 8.5,3.6 8.5,8.9 v 15 c 0,3.8 0.3,4.1 4.2,4.5 v 1.5 H 71.1 v -1.5 c 4.4,-0.4 4.8,-0.7 4.8,-4.5 v -12.9 c 0,-3.9 -1.3,-7.3 -6.3,-7.3 -2.3,0 -5,1.1 -7.5,3.2 0.1,0.7 0.1,1.3 0.1,1.9 V 488 c 0,3.8 0.3,4.1 4.3,4.5 V 494 H 52.2 v -1.5 c 4.4,-0.4 4.7,-0.7 4.7,-4.5 v -13.2 c 0,-3.9 -1.4,-7 -6.1,-7 -2.7,0 -5.4,1.4 -7.5,3.2 v 17 c 0,3.8 0.3,4.1 4.4,4.5 V 494 H 33.1 v -1.5 c 4.6,-0.4 5,-0.7 5,-4.5 v -15.5"
         id="path17"
         style="fill:#000000" /><path
         class="st1"
         d="m 99,488 c 0,3.8 0.3,4.1 4.8,4.5 V 494 H 89 v -1.5 c 4.4,-0.4 4.8,-0.7 4.8,-4.5 v -15.5 c 0,-4 -0.1,-4.1 -4.6,-4.6 v -1.2 c 3.1,-0.7 6.4,-1.5 9.8,-2.7 v 24 m 0.9,-36.1 c 0,2 -1.5,3.6 -3.5,3.6 -1.9,0 -3.5,-1.6 -3.5,-3.6 0,-2.1 1.6,-3.7 3.5,-3.7 1.9,0 3.5,1.7 3.5,3.7 z"
         id="path19"
         style="fill:#000000" /><path
         class="st1"
         d="m 116.2,485.2 c 0,5.2 2.5,6.2 4.3,6.2 1.2,0 2.7,-0.5 4,-1.3 l 0.7,1.5 -5.5,2.8 c -0.7,0.3 -1.5,0.5 -2,0.5 -4.3,0 -6.7,-2.8 -6.7,-8.1 v -19.3 h -5 l -0.3,-0.7 1.9,-1.9 h 3.2 v -4.2 l 4.4,-4.4 h 0.9 v 8.7 h 7.8 c 0.5,0.7 0.3,1.8 -0.5,2.6 h -7.3 l 0.1,17.6"
         id="path21"
         style="fill:#000000" /><path
         class="st1"
         d="m 136.8,468.8 c 2.3,-2.4 5.9,-4.6 9.6,-4.7 5.8,-0.1 9.3,3.7 9.3,9.7 V 488 c 0,3.8 0.3,4.1 4.4,4.4 v 1.6 h -14.2 v -1.5 c 4.2,-0.4 4.6,-0.7 4.6,-4.5 v -12.2 c 0,-4.8 -1.7,-8 -6.6,-8 -2.8,0.1 -5.2,1.1 -6.9,3.1 V 488 c 0,3.8 0.3,4.1 4.4,4.5 V 494 H 127 v -1.5 c 4.2,-0.4 4.6,-0.7 4.6,-4.5 v -33.5 c 0,-4.1 -0.1,-4 -4.8,-4.4 v -1.3 c 3.2,-0.6 7.5,-1.7 10,-2.4 v 22.4"
         id="path23"
         style="fill:#000000" /><path
         class="st1"
         d="m 165.4,484.7 c 1.1,3.9 4.1,8.2 8.1,8.2 2.4,0 4.8,-1.7 4.8,-5 0,-2.8 -1.5,-4.7 -5.2,-6.3 -4.4,-1.9 -8.1,-4.2 -8.1,-8.7 0,-4.8 4.2,-8.8 10,-8.8 2.4,0 4.3,0.5 5.6,1.1 0.7,1.5 1.3,5.3 1.5,6.5 l -1.6,0.4 c -2,-4.4 -4.2,-6 -6.7,-6 -3,0 -4.4,2.4 -4.4,4.6 0,2.8 2.9,4.6 5.8,5.9 4.9,2 8.1,4.6 8.1,9.1 0,6.2 -5.7,9.2 -10.8,9.2 -3.4,0 -6.5,-1.4 -7.8,-2.5 -0.4,-1 -0.8,-4.7 -0.8,-7.3 l 1.5,-0.4"
         id="path25"
         style="fill:#000000" /><path
         class="st1"
         d="m 187.8,480.3 c 0,-11.3 8.7,-16.2 14.9,-16.2 8.5,0 14.6,6.5 14.6,14.9 0,10.5 -7.8,15.9 -14.6,15.9 -9.5,0 -14.9,-7.6 -14.9,-14.6 m 23.4,0.2 c 0,-7.5 -3.2,-14.4 -9.3,-14.4 -4.5,0 -7.9,4.6 -7.9,11.7 0,8.5 3.7,15.1 9.6,15.1 4,0 7.6,-3.3 7.6,-12.4 z"
         id="path27"
         style="fill:#000000" /><path
         class="st1"
         d="m 231.9,469 c 1.3,-0.9 2.8,-1.9 4.5,-3 2,-1.2 3.7,-2 5.8,-2 5.5,0 8.5,3.6 8.5,8.9 v 15 c 0,3.8 0.3,4.1 4.2,4.5 v 1.5 h -14.3 v -1.5 c 4.4,-0.4 4.8,-0.7 4.8,-4.5 V 475 c 0,-3.9 -1.3,-7.3 -6.2,-7.3 -2.6,0 -5.3,1.4 -7.3,3.2 v 17 c 0,3.8 0.3,4.1 4.3,4.5 v 1.5 h -14.5 v -1.5 c 4.6,-0.4 5,-0.7 5,-4.5 v -15.5 c 0,-4 -0.1,-4.1 -4.6,-4.6 v -1.2 c 3.1,-0.7 6.4,-1.5 9.8,-2.7 v 5.1"
         id="path29"
         style="fill:#000000" /><path
         class="st1"
         d="m 268.6,488 c 0,3.8 0.3,4.1 4.8,4.5 v 1.5 h -14.9 v -1.5 c 4.4,-0.4 4.8,-0.7 4.8,-4.5 v -15.5 c 0,-4 -0.1,-4.1 -4.6,-4.6 v -1.2 c 3.1,-0.7 6.4,-1.5 9.8,-2.7 l 0.1,24 m 0.9,-36.1 c 0,2 -1.6,3.6 -3.5,3.6 -1.9,0 -3.5,-1.6 -3.5,-3.6 0,-2.1 1.6,-3.7 3.5,-3.7 1.9,0 3.5,1.7 3.5,3.7 z"
         id="path31"
         style="fill:#000000" /><path
         class="st1"
         d="m 296.5,494.9 c -2.3,-0.4 -3.3,-2.7 -3.7,-4.4 -2.8,1.8 -6.5,4.4 -7.9,4.4 -4.9,0 -8.1,-4 -8.1,-7.7 0,-3.1 1.6,-5.4 5.1,-6.8 3.3,-1.3 8.8,-3.3 10.8,-4.7 v -2.3 c 0,-4.2 -1.9,-6.4 -5.5,-6.4 -3.3,0 -4.7,2.8 -5.4,5.6 -0.2,0.8 -0.8,1.3 -1.5,1.3 -1.1,0 -2.9,-1.1 -2.9,-2.3 0,-0.9 0.8,-1.8 2.3,-2.9 1.6,-1.2 5.6,-3.8 10.4,-4.6 1.9,0 4,0.6 5.3,1.6 2.2,1.7 2.6,4.1 2.6,6.5 v 15.1 c 0,2.5 0.9,3.6 1.9,3.6 0.5,0 1.7,-0.3 2.9,-0.9 l 0.6,1.5 -6.9,3.4 m -3.7,-17.1 c -1.5,0.6 -5.5,2.4 -6.8,3.1 -2.4,1.3 -3.5,2.6 -3.5,5 0,3.6 2.4,5.2 4.4,5.2 1.5,0 4,-1.2 5.9,-2.6 z"
         id="path33"
         style="fill:#000000" /><path
         class="st1"
         d="m 315.8,469 c 1.3,-0.9 2.8,-1.9 4.5,-3 2,-1.2 3.7,-2 5.8,-2 5.5,0 8.5,3.6 8.5,8.9 v 15 c 0,3.8 0.3,4.1 4.2,4.5 v 1.5 h -14.3 v -1.5 c 4.4,-0.4 4.8,-0.7 4.8,-4.5 V 475 c 0,-3.9 -1.3,-7.3 -6.3,-7.3 -2.6,0 -5.3,1.4 -7.3,3.2 v 17 c 0,3.8 0.3,4.1 4.3,4.5 v 1.5 h -14.5 v -1.5 c 4.6,-0.4 5,-0.7 5,-4.5 v -15.5 c 0,-4 -0.1,-4.1 -4.6,-4.6 v -1.2 c 3.1,-0.7 6.4,-1.5 9.8,-2.7 v 5.1"
         id="path35"
         style="fill:#000000" /></g><g
       id="g2063"
       transform="translate(730.65483,24.793548)"
       style="fill:#000000"><g
         id="g2153"
         transform="matrix(0.3410237,0,0,0.34515083,-487.4273,363.02343)"
         style="fill:#000000"><polygon
           points="331.609,464.258 357.404,464.258 357.404,489.768 371.376,489.768 371.376,426.217 357.404,426.217 357.404,451.368 331.609,451.368 331.609,426.217 317.606,426.217 317.606,489.768 331.609,489.768 "
           id="polygon216"
           transform="translate(-473.98437,-84.165305)"
           style="fill:#000000" /><path
           d="m -50.85937,358.3817 8.467,20.629 h -16.925 z m -6.257,-16.795 -27.245,64.029 h 14.257 l 5.814,-14.27101 h 26.892 l 5.785,14.27101 h 14.632 l -27.261,-64.029 z"
           id="path218"
           style="fill:#000000" /><polygon
           points="475.294,426.217 475.294,489.768 489.109,489.768 489.109,449.34 519.892,489.768 531.782,489.768 531.782,426.217 517.969,426.217 517.969,465.338 488.184,426.217 "
           id="polygon220"
           transform="translate(-473.98437,-84.165305)"
           style="fill:#000000" /><polygon
           points="556.578,426.217 556.578,489.768 570.394,489.768 570.394,449.34 601.162,489.768 613.067,489.768 613.067,426.217 599.284,426.217 599.284,465.338 569.484,426.217 "
           id="polygon222"
           transform="translate(-473.98437,-84.165305)"
           style="fill:#000000" /><polygon
           points="681.74,451.547 651.791,451.547 651.791,438.67 685.835,438.67 685.835,426.217 637.88,426.217 637.88,489.768 686.314,489.768 686.314,477.342 651.791,477.342 651.791,463.973 681.74,463.973 "
           id="polygon224"
           transform="translate(-473.98437,-84.165305)"
           style="fill:#000000" /><polygon
           points="708.686,489.768 754.357,489.768 754.357,477.057 722.664,477.057 722.664,426.217 708.686,426.217 "
           id="polygon226"
           transform="translate(-473.98437,-84.165305)"
           style="fill:#000000" /><path
           d="m 270.74963,350.7977 h -1.51 v -7.498 h -2.816 v -1.293 h 7.105 v 1.293 h -2.779 z m 12.027,0 h -1.502 l 0.06,-5.426 0.09,-1.803 -0.428,1.488 -1.803,5.74 h -1.367 l -1.788,-5.74 -0.443,-1.441 0.12,1.756 0.029,5.426 h -1.471 v -8.791 h 2.088 l 2.2,6.926 2.142,-6.926 h 2.073 z"
           id="path228"
           style="fill:#000000" /><path
           d="m -234.47037,374.0067 v -0.166 c 0,-18.088 13.611,-32.916 33.149,-32.916 11.981,0 19.155,4.012 25.044,9.84 l -8.894,10.27699 c -4.89,-4.47899 -9.885,-7.197 -16.24,-7.197 -10.728,0 -18.449,8.89301 -18.449,19.787 v 0.209 c 0,10.893 7.557,19.967 18.449,19.967 7.256,0 11.719,-2.93 16.722,-7.465 l 8.878,8.998 c -6.528,7.002 -13.784,11.373 -26.051,11.373 -18.704,0 -32.608,-14.437 -32.608,-32.707"
           id="path230"
           style="fill:#000000" /></g></g></g></svg>
