<?xml version="1.0" encoding="UTF-8" standalone="no"?>
<!-- Created with Inkscape (http://www.inkscape.org/) -->

<svg
   xmlns:dc="http://purl.org/dc/elements/1.1/"
   xmlns:cc="http://creativecommons.org/ns#"
   xmlns:rdf="http://www.w3.org/1999/02/22-rdf-syntax-ns#"
   xmlns:svg="http://www.w3.org/2000/svg"
   xmlns="http://www.w3.org/2000/svg"
   xmlns:sodipodi="http://sodipodi.sourceforge.net/DTD/sodipodi-0.dtd"
   xmlns:inkscape="http://www.inkscape.org/namespaces/inkscape"
   width="1000"
   height="897.85742"
   id="svg5557"
   version="1.1"
   inkscape:version="0.48.5 r10040"
   sodipodi:docname="A.svg">
  <defs
     id="defs5559">
    <clipPath
       clipPathUnits="userSpaceOnUse"
       id="clipPath5305">
      <path
         inkscape:connector-curvature="0"
         d="m 319.947,231.533 40.378,0 0,23.377 -40.378,0 0,-23.377 z"
         id="path5307" />
    </clipPath>
    <clipPath
       clipPathUnits="userSpaceOnUse"
       id="clipPath5345">
      <path
         inkscape:connector-curvature="0"
         d="m 319.947,202.04 40.378,0 0,23.377 -40.378,0 0,-23.377 z"
         id="path5347" />
    </clipPath>
    <clipPath
       clipPathUnits="userSpaceOnUse"
       id="clipPath4985">
      <path
         inkscape:connector-curvature="0"
         d="m 147.434,153.742 50.709,0 0,5.549 -50.709,0 0,-5.549 z"
         id="path4987" />
    </clipPath>
    <clipPath
       clipPathUnits="userSpaceOnUse"
       id="clipPath4993">
      <path
         inkscape:connector-curvature="0"
         d="m 147.355,159.371 50.868,0 0,-5.709 -50.868,0 0,5.709 z"
         id="path4995" />
    </clipPath>
    <clipPath
       clipPathUnits="userSpaceOnUse"
       id="clipPath4997">
      <path
         inkscape:connector-curvature="0"
         d="m 147.439,159.292 50.704,0 0,-5.549 -50.704,0 0,5.549 z"
         id="path4999" />
    </clipPath>
    <clipPath
       clipPathUnits="userSpaceOnUse"
       id="clipPath4303">
      <path
         inkscape:connector-curvature="0"
         d="m 0,0 419.528,0 0,595.276 L 0,595.276 0,0 z"
         id="path4305" />
    </clipPath>
    <clipPath
       clipPathUnits="userSpaceOnUse"
       id="clipPath4311">
      <path
         inkscape:connector-curvature="0"
         d="m 167.024,454.265 19.987,0 0,-23.333 -19.987,0 0,23.333 z"
         id="path4313" />
    </clipPath>
    <clipPath
       clipPathUnits="userSpaceOnUse"
       id="clipPath4315">
      <path
         inkscape:connector-curvature="0"
         d="m 168.024,431.932 17.987,0 0,21.332 -17.987,0 0,-21.332 z"
         id="path4317" />
    </clipPath>
    <clipPath
       clipPathUnits="userSpaceOnUse"
       id="clipPath4319">
      <path
         inkscape:connector-curvature="0"
         d="m 168.024,431.932 17.987,0 0,21.332 -17.987,0 0,-21.332 z"
         id="path4321" />
    </clipPath>
    <clipPath
       clipPathUnits="userSpaceOnUse"
       id="clipPath4323">
      <path
         inkscape:connector-curvature="0"
         d="m 168.024,431.932 17.987,0 0,21.332 -17.987,0 0,-21.332 z"
         id="path4325" />
    </clipPath>
    <clipPath
       clipPathUnits="userSpaceOnUse"
       id="clipPath4327">
      <path
         inkscape:connector-curvature="0"
         d="m 168.024,431.932 17.987,0 0,21.332 -17.987,0 0,-21.332 z"
         id="path4329" />
    </clipPath>
    <clipPath
       clipPathUnits="userSpaceOnUse"
       id="clipPath4331">
      <path
         inkscape:connector-curvature="0"
         d="m 168.024,431.932 17.987,0 0,21.332 -17.987,0 0,-21.332 z"
         id="path4333" />
    </clipPath>
    <clipPath
       clipPathUnits="userSpaceOnUse"
       id="clipPath4335">
      <path
         inkscape:connector-curvature="0"
         d="m 168.024,431.932 17.987,0 0,21.332 -17.987,0 0,-21.332 z"
         id="path4337" />
    </clipPath>
    <clipPath
       clipPathUnits="userSpaceOnUse"
       id="clipPath4339">
      <path
         inkscape:connector-curvature="0"
         d="m 168.024,431.932 17.987,0 0,21.332 -17.987,0 0,-21.332 z"
         id="path4341" />
    </clipPath>
    <clipPath
       clipPathUnits="userSpaceOnUse"
       id="clipPath4343">
      <path
         inkscape:connector-curvature="0"
         d="m 168.024,431.932 17.987,0 0,21.332 -17.987,0 0,-21.332 z"
         id="path4345" />
    </clipPath>
    <clipPath
       clipPathUnits="userSpaceOnUse"
       id="clipPath4347">
      <path
         inkscape:connector-curvature="0"
         d="m 168.024,431.932 17.987,0 0,21.332 -17.987,0 0,-21.332 z"
         id="path4349" />
    </clipPath>
    <clipPath
       clipPathUnits="userSpaceOnUse"
       id="clipPath4351">
      <path
         inkscape:connector-curvature="0"
         d="m 168.024,431.932 17.987,0 0,21.332 -17.987,0 0,-21.332 z"
         id="path4353" />
    </clipPath>
    <clipPath
       clipPathUnits="userSpaceOnUse"
       id="clipPath4355">
      <path
         inkscape:connector-curvature="0"
         d="m 168.024,431.932 17.987,0 0,21.332 -17.987,0 0,-21.332 z"
         id="path4357" />
    </clipPath>
    <clipPath
       clipPathUnits="userSpaceOnUse"
       id="clipPath4359">
      <path
         inkscape:connector-curvature="0"
         d="m 168.024,431.932 17.987,0 0,21.332 -17.987,0 0,-21.332 z"
         id="path4361" />
    </clipPath>
    <clipPath
       clipPathUnits="userSpaceOnUse"
       id="clipPath4363">
      <path
         inkscape:connector-curvature="0"
         d="m 168.024,431.932 17.987,0 0,21.332 -17.987,0 0,-21.332 z"
         id="path4365" />
    </clipPath>
    <clipPath
       clipPathUnits="userSpaceOnUse"
       id="clipPath4367">
      <path
         inkscape:connector-curvature="0"
         d="m 168.024,431.932 17.987,0 0,21.332 -17.987,0 0,-21.332 z"
         id="path4369" />
    </clipPath>
    <clipPath
       clipPathUnits="userSpaceOnUse"
       id="clipPath4371">
      <path
         inkscape:connector-curvature="0"
         d="m 168.024,431.932 17.987,0 0,21.332 -17.987,0 0,-21.332 z"
         id="path4373" />
    </clipPath>
    <linearGradient
       x1="0"
       y1="0"
       x2="1"
       y2="0"
       gradientUnits="userSpaceOnUse"
       gradientTransform="matrix(47.141842,-17.158227,-17.158227,-47.141842,152.20667,421.1261)"
       spreadMethod="pad"
       id="linearGradient4617">
      <stop
         style="stop-opacity:1;stop-color:#f8b81d"
         offset="0"
         id="stop4619" />
      <stop
         style="stop-opacity:1;stop-color:#f89a22"
         offset="1"
         id="stop4621" />
    </linearGradient>
    <clipPath
       clipPathUnits="userSpaceOnUse"
       id="clipPath4641">
      <path
         inkscape:connector-curvature="0"
         d="m 162.707,363.098 26.607,0 0,20.275 -26.607,0 0,-20.275 z"
         id="path4643" />
    </clipPath>
    <clipPath
       clipPathUnits="userSpaceOnUse"
       id="clipPath5079">
      <path
         inkscape:connector-curvature="0"
         d="m 146.15,103.883 51.804,0 0,5.778 -51.804,0 0,-5.778 z"
         id="path5081" />
    </clipPath>
    <clipPath
       clipPathUnits="userSpaceOnUse"
       id="clipPath5063">
      <path
         inkscape:connector-curvature="0"
         d="m 146.155,103.883 51.799,0 0,5.778 -51.799,0 0,-5.778 z"
         id="path5065" />
    </clipPath>
    <clipPath
       clipPathUnits="userSpaceOnUse"
       id="clipPath5051">
      <path
         inkscape:connector-curvature="0"
         d="m 146.15,103.883 51.804,0 0,5.778 -51.804,0 0,-5.778 z"
         id="path5053" />
    </clipPath>
    <linearGradient
       x1="0"
       y1="0"
       x2="1"
       y2="0"
       gradientUnits="userSpaceOnUse"
       gradientTransform="matrix(27.798941,0,0,-27.798941,326.89319,406.27909)"
       spreadMethod="pad"
       id="linearGradient5167">
      <stop
         style="stop-opacity:1;stop-color:#ec008c"
         offset="0"
         id="stop5169" />
      <stop
         style="stop-opacity:1;stop-color:#8d188f"
         offset="1"
         id="stop5171" />
    </linearGradient>
    <clipPath
       clipPathUnits="userSpaceOnUse"
       id="clipPath4107">
      <path
         inkscape:connector-curvature="0"
         d="m 0,0 419.528,0 0,595.276 L 0,595.276 0,0 z"
         id="path4109" />
    </clipPath>
    <clipPath
       clipPathUnits="userSpaceOnUse"
       id="clipPath4209">
      <path
         inkscape:connector-curvature="0"
         d="m 0,0 419.528,0 0,595.276 L 0,595.276 0,0 z"
         id="path4211" />
    </clipPath>
    <clipPath
       clipPathUnits="userSpaceOnUse"
       id="clipPath4195">
      <path
         inkscape:connector-curvature="0"
         d="m 0,0 419.528,0 0,595.276 L 0,595.276 0,0 z"
         id="path4197" />
    </clipPath>
    <clipPath
       clipPathUnits="userSpaceOnUse"
       id="clipPath4031">
      <path
         inkscape:connector-curvature="0"
         d="m 314.316,163.261 48.044,0 0,7.607 -48.044,0 0,-7.607 z"
         id="path4033" />
    </clipPath>
    <clipPath
       clipPathUnits="userSpaceOnUse"
       id="clipPath5385">
      <path
         inkscape:connector-curvature="0"
         d="m 325.774,129.138 27.307,0 0,24.515 -27.307,0 0,-24.515 z"
         id="path5387" />
    </clipPath>
  </defs>
  <sodipodi:namedview
     id="base"
     pagecolor="#ffffff"
     bordercolor="#666666"
     borderopacity="1.0"
     inkscape:pageopacity="0.0"
     inkscape:pageshadow="2"
     inkscape:zoom="0.28198242"
     inkscape:cx="988.52584"
     inkscape:cy="7.322438"
     inkscape:document-units="px"
     inkscape:current-layer="layer1"
     showgrid="false"
     fit-margin-left="0.5"
     fit-margin-bottom="0.5"
     fit-margin-top="0.5"
     fit-margin-right="0.5"
     inkscape:window-width="1057"
     inkscape:window-height="1022"
     inkscape:window-x="854"
     inkscape:window-y="-4"
     inkscape:window-maximized="0" />
  <metadata
     id="metadata5562">
    <rdf:RDF>
      <cc:Work
         rdf:about="">
        <dc:format>image/svg+xml</dc:format>
        <dc:type
           rdf:resource="http://purl.org/dc/dcmitype/StillImage" />
        <dc:title></dc:title>
      </cc:Work>
    </rdf:RDF>
  </metadata>
  <g
     inkscape:label="Layer 1"
     inkscape:groupmode="layer"
     id="layer1"
     transform="translate(-2732.8605,2128.0762)">
    <g
       id="g5381"
       transform="matrix(36.584026,0,0,-36.584026,-9184.764,3493.6691)">
      <g
         id="g5383"
         clip-path="url(#clipPath5385)">
        <g
           id="g5389"
           transform="translate(344.1182,139.5926)">
          <path
             d="m 0,0 c 0,0 -0.001,0 -0.001,0 0,0 0,0 0,0 -0.08,-0.043 -1.069,0.628 -1.238,0.829 l -2.818,0 0,0.941 c 0.975,0.222 1.65,1.123 1.65,2.109 l 0,0.101 -0.375,0 0,-0.101 c 0,-0.966 -0.769,-1.774 -1.735,-1.774 l -0.05,0 c -0.966,0 -1.741,0.808 -1.741,1.774 l 0,0.101 -0.24,0 -0.135,0 0,-0.101 c 0,-0.986 0.675,-1.89 1.65,-2.112 l 0,-0.938 -2.599,0 C -7.801,0.628 -8.79,-0.043 -8.87,0 c 0,0 -0.001,0 -0.001,0 0,0 0,0 0,0 -10e-4,0 -10e-4,0.001 -10e-4,0.002 -0.076,0.052 0.04,0.711 0.091,0.827 l -0.242,0 c -0.637,0 -1.261,0.611 -1.261,1.258 l 0,5.52 c 0,0.529 0.495,1.099 1.261,1.099 l 9.221,0 c 0.633,0 1.071,-0.462 1.071,-1.099 l 0,-5.52 c 0,-0.613 -0.395,-1.14 -0.907,-1.239 0,0.001 0.005,0.003 0.004,0.004 L 0.304,0.836 C 0.268,0.832 0.235,0.829 0.198,0.829 l -0.288,0 C -0.039,0.713 0.076,0.054 0,0.002 0,0.001 0,0 0,0 m 0.198,9.306 -4.701,0 2.984,4.591 -0.252,0.164 -2.953,-4.546 -1.9,1.93 -0.214,-0.211 1.899,-1.928 -4.084,0 c -1.014,0 -1.861,-0.762 -1.861,-1.699 l 0,-5.52 c 0,-0.865 0.705,-1.661 1.536,-1.826 -0.013,-0.298 0.047,-0.582 0.276,-0.686 0.039,-0.018 0.087,-0.027 0.139,-0.027 0.263,0 0.697,0.229 1.287,0.681 l 6.42,0 c 0.591,-0.452 1.022,-0.681 1.285,-0.681 0.052,0 0.098,0.009 0.136,0.027 0.227,0.103 0.273,0.383 0.261,0.678 0.806,0.141 1.413,0.91 1.413,1.834 l 0,5.52 c 0,0.969 -0.706,1.699 -1.671,1.699"
             style="fill:#bc9e52;fill-opacity:1;fill-rule:nonzero;stroke:none"
             id="path5391"
             inkscape:connector-curvature="0" />
        </g>
        <g
           id="g5393"
           transform="translate(326.7086,135.9178)">
          <path
             d="m 0,0 -0.397,0 c -0.053,0 -0.07,-0.01 -0.07,-0.063 l 0,-0.171 -0.468,0 0,0.432 c 0,0.178 0.081,0.223 0.262,0.223 l 1.871,0 c 0.181,0 0.251,-0.045 0.251,-0.223 l 0,-0.432 -0.421,0 0,0.171 C 1.028,-0.01 0.975,0 0.922,0 l -0.408,0 0,-2.244 L 0,-2.244 0,0 z"
             style="fill:#0d0906;fill-opacity:1;fill-rule:nonzero;stroke:none"
             id="path5395"
             inkscape:connector-curvature="0" />
        </g>
        <g
           id="g5397"
           transform="translate(328.9298,134.0029)">
          <path
             d="m 0,0 c 0.257,0 0.444,0.272 0.444,0.507 l 0,0.052 -0.094,0 C 0.101,0.559 -0.294,0.522 -0.294,0.253 -0.294,0.125 -0.197,0 0,0 m 0.365,0.886 0.079,0 0,0.01 c 0,0.276 -0.108,0.378 -0.353,0.378 -0.087,0 -0.255,-0.023 -0.255,-0.129 l 0,-0.118 -0.468,0 0,0.22 c 0,0.36 0.509,0.397 0.709,0.397 0.643,0 0.834,-0.336 0.834,-0.767 l 0,-0.718 c 0,-0.053 0.025,-0.067 0.078,-0.067 l 0.156,0 0,-0.421 -0.436,0 c -0.177,0 -0.245,0.091 -0.245,0.205 0,0.049 0.003,0.075 0.003,0.075 l -0.007,0 c 0,0 -0.148,-0.332 -0.582,-0.332 -0.344,0 -0.658,0.221 -0.658,0.607 0,0.605 0.832,0.66 1.145,0.66"
             style="fill:#0d0906;fill-opacity:1;fill-rule:nonzero;stroke:none"
             id="path5399"
             inkscape:connector-curvature="0" />
        </g>
        <g
           id="g5401"
           transform="translate(330.4018,135.8664)">
          <path
             d="m 0,0 c 0,0.057 -0.035,0.098 -0.087,0.098 l -0.147,0 0,0.374 0.453,0 c 0.177,0 0.248,-0.06 0.248,-0.238 l 0,-1.939 c 0,-0.053 0.039,-0.067 0.092,-0.067 l 0.142,0 0,-0.421 -0.448,0 C 0.071,-2.193 0,-2.117 0,-1.935 L 0,0 z"
             style="fill:#0d0906;fill-opacity:1;fill-rule:nonzero;stroke:none"
             id="path5403"
             inkscape:connector-curvature="0" />
        </g>
        <g
           id="g5405"
           transform="translate(331.477,135.8664)">
          <path
             d="m 0,0 c 0,0.057 -0.014,0.098 -0.067,0.098 l -0.167,0 0,0.374 0.474,0 c 0.177,0 0.274,-0.022 0.274,-0.2 l 0,-1.202 0.126,0 c 0.061,0 0.14,-0.002 0.182,0.059 l 0.393,0.595 0.533,0 -0.485,-0.72 C 1.18,-1.117 1.122,-1.142 1.122,-1.142 l 0,-0.007 c 0,0 0.065,-0.027 0.133,-0.151 l 0.218,-0.408 c 0.03,-0.057 0.067,-0.064 0.158,-0.064 l 0.145,0 0,-0.421 -0.372,0 c -0.163,0 -0.227,0.027 -0.303,0.167 L 0.78,-1.422 c -0.038,0.068 -0.117,0.071 -0.178,0.071 l -0.088,0 0,-0.842 L 0,-2.193 0,0 z"
             style="fill:#0d0906;fill-opacity:1;fill-rule:nonzero;stroke:none"
             id="path5407"
             inkscape:connector-curvature="0" />
        </g>
        <path
           d="m 333.674,136.339 0.421,0 0,-0.421 -0.421,0 0,0.421 z m 0,-1.229 c 0,0.057 -0.043,0.107 -0.096,0.107 l -0.138,0 0,0.374 0.444,0 c 0.177,0 0.258,-0.069 0.258,-0.246 l 0,-1.183 c 0,-0.053 0.025,-0.067 0.078,-0.067 l 0.155,0 0,-0.421 -0.461,0 c -0.178,0 -0.24,0.076 -0.24,0.257 l 0,1.179 z"
           style="fill:#0d0906;fill-opacity:1;fill-rule:nonzero;stroke:none"
           id="path5409"
           inkscape:connector-curvature="0" />
        <g
           id="g5411"
           transform="translate(334.7494,135.1104)">
          <path
             d="m 0,0 c 0,0.057 -0.051,0.106 -0.104,0.106 l -0.13,0 0,0.374 0.421,0 c 0.171,0 0.234,-0.068 0.234,-0.204 l 0,-0.057 c 0,-0.041 0.012,-0.066 0.012,-0.066 l 0.008,0 c 0.083,0.14 0.282,0.392 0.671,0.392 0.428,0 0.664,-0.231 0.664,-0.742 l 0,-0.752 c 0,-0.053 0.048,-0.067 0.101,-0.067 l 0.133,0 0,-0.421 -0.439,0 c -0.181,0 -0.262,0.076 -0.262,0.258 l 0,0.884 c 0,0.235 -0.058,0.393 -0.3,0.393 -0.257,0 -0.443,-0.162 -0.511,-0.393 C 0.472,-0.374 0.467,-0.461 0.467,-0.552 l 0,-0.885 L 0,-1.437 0,0 z"
             style="fill:#0d0906;fill-opacity:1;fill-rule:nonzero;stroke:none"
             id="path5413"
             inkscape:connector-curvature="0" />
        </g>
        <g
           id="g5415"
           transform="translate(338.3841,134.6833)">
          <path
             d="m 0,0 c 0,0.438 -0.219,0.556 -0.48,0.556 -0.291,0 -0.45,-0.212 -0.45,-0.537 0,-0.337 0.17,-0.586 0.48,-0.586 C -0.219,-0.567 0,-0.435 0,0 m -0.563,0.955 c 0.446,0 0.593,-0.281 0.593,-0.281 l 0.028,0 0,0.067 c 0,0.087 0.04,0.166 0.191,0.166 l 0.464,0 0,-0.374 -0.165,0 C 0.499,0.533 0.479,0.484 0.479,0.435 l 0,-1.327 c 0,-0.662 -0.521,-0.911 -1.024,-0.911 -0.242,0 -0.502,0.068 -0.687,0.166 l 0.145,0.378 c 0,0 0.249,-0.128 0.544,-0.128 0.291,0 0.555,0.125 0.555,0.472 l 0,0.091 c 0,0.045 -0.02,0.095 -0.02,0.095 l -0.007,0 c -0.114,-0.14 -0.28,-0.246 -0.537,-0.246 -0.552,0 -0.865,0.443 -0.865,0.972 0,0.53 0.298,0.958 0.854,0.958"
             style="fill:#0d0906;fill-opacity:1;fill-rule:nonzero;stroke:none"
             id="path5417"
             inkscape:connector-curvature="0" />
        </g>
        <g
           id="g5419"
           transform="translate(340.7843,134.9361)">
          <path
             d="m 0,0 c 0.352,0 0.582,0.227 0.582,0.59 0,0.359 -0.23,0.579 -0.578,0.579 l -0.569,0 L -0.565,0 0,0 z m -0.846,1.169 -0.233,0 0,0.233 1.113,0 c 0.473,0 0.82,-0.321 0.82,-0.812 0,-0.495 -0.347,-0.824 -0.82,-0.824 l -0.599,0 0,-1.028 -0.281,0 0,2.431 z"
             style="fill:#0d0906;fill-opacity:1;fill-rule:nonzero;stroke:none"
             id="path5421"
             inkscape:connector-curvature="0" />
        </g>
        <path
           d="m 342.042,136.339 0.281,0 0,-0.327 -0.281,0 0,0.327 z m 0.047,-1.07 c 0,0.053 -0.046,0.088 -0.099,0.088 l -0.182,0 0,0.234 0.292,0 c 0.162,0 0.223,-0.084 0.223,-0.246 l 0,-1.365 c 0,-0.056 0.037,-0.072 0.09,-0.072 l 0.143,0 0,-0.234 -0.252,0 c -0.163,0 -0.215,0.068 -0.215,0.231 l 0,1.364 z"
           style="fill:#0d0906;fill-opacity:1;fill-rule:nonzero;stroke:none"
           id="path5423"
           inkscape:connector-curvature="0" />
        <g
           id="g5425"
           transform="translate(343.8351,135.6207)">
          <path
             d="m 0,0 c 0.215,0 0.685,-0.091 0.685,-0.404 l 0,-0.187 -0.281,0 0,0.126 c 0,0.159 -0.265,0.234 -0.423,0.234 -0.409,0 -0.732,-0.306 -0.732,-0.767 0,-0.469 0.347,-0.76 0.748,-0.76 0.389,0 0.613,0.269 0.613,0.269 l 0.122,-0.193 c 0,0 -0.257,-0.31 -0.744,-0.31 -0.567,0 -0.994,0.404 -0.994,0.994 C -1.006,-0.416 -0.567,0 0,0"
             style="fill:#0d0906;fill-opacity:1;fill-rule:nonzero;stroke:none"
             id="path5427"
             inkscape:connector-curvature="0" />
        </g>
        <g
           id="g5429"
           transform="translate(345.0341,135.3568)">
          <path
             d="m 0,0 -0.28,0 0,0.234 0.28,0 0,0.514 0.234,0 0,-0.514 0.467,0 0,-0.234 -0.467,0 0,-0.965 c 0,-0.446 0.283,-0.502 0.427,-0.502 0.053,0 0.087,0.007 0.087,0.007 l 0,-0.23 c 0,0 -0.034,-0.008 -0.098,-0.008 C 0.431,-1.698 0,-1.626 0,-0.991 L 0,0 z"
             style="fill:#0d0906;fill-opacity:1;fill-rule:nonzero;stroke:none"
             id="path5431"
             inkscape:connector-curvature="0" />
        </g>
        <g
           id="g5433"
           transform="translate(346.2496,135.2692)">
          <path
             d="m 0,0 c 0,0.053 -0.023,0.088 -0.076,0.088 l -0.158,0 0,0.233 0.268,0 c 0.163,0 0.246,-0.083 0.246,-0.238 l 0,-0.918 c 0,-0.299 0.053,-0.564 0.42,-0.564 0.431,0 0.702,0.382 0.702,0.794 l 0,0.926 0.234,0 0,-1.61 c 0,-0.057 0.031,-0.073 0.084,-0.073 l 0.15,0 0,-0.233 -0.252,0 c -0.159,0 -0.216,0.068 -0.216,0.212 l 0,0.087 c 0,0.075 -0.007,0.121 -0.007,0.121 l -0.008,0 C 1.312,-1.362 1.058,-1.648 0.643,-1.648 0.193,-1.648 0,-1.399 0,-0.903 L 0,0 z"
             style="fill:#0d0906;fill-opacity:1;fill-rule:nonzero;stroke:none"
             id="path5435"
             inkscape:connector-curvature="0" />
        </g>
        <g
           id="g5437"
           transform="translate(348.5403,135.2692)">
          <path
             d="m 0,0 c 0,0.053 -0.027,0.088 -0.079,0.088 l -0.155,0 0,0.233 0.26,0 c 0.159,0 0.208,-0.079 0.208,-0.23 l 0,-0.129 c 0,-0.079 0.015,-0.155 0.015,-0.155 l 0.008,0 c 0.091,0.281 0.313,0.512 0.612,0.512 0.053,0 0.113,-0.005 0.113,-0.005 l 0,-0.254 c 0,0 -0.056,0.008 -0.106,0.008 -0.268,0 -0.464,-0.212 -0.547,-0.491 C 0.291,-0.544 0.28,-0.673 0.28,-0.794 l 0,-0.801 -0.28,0 L 0,0 z"
             style="fill:#0d0906;fill-opacity:1;fill-rule:nonzero;stroke:none"
             id="path5439"
             inkscape:connector-curvature="0" />
        </g>
        <g
           id="g5441"
           transform="translate(351.1295,134.8426)">
          <path
             d="M 0,0 C -0.015,0.374 -0.257,0.586 -0.537,0.586 -0.851,0.586 -1.126,0.374 -1.191,0 L 0,0 z m -0.533,0.778 c 0.525,0 0.798,-0.408 0.798,-0.88 0,-0.045 -0.008,-0.132 -0.008,-0.132 l -1.459,0 c 0.008,-0.467 0.344,-0.752 0.737,-0.752 0.348,0 0.571,0.235 0.571,0.235 l 0.125,-0.191 c 0,0 -0.276,-0.272 -0.707,-0.272 -0.564,0 -0.994,0.408 -0.994,0.994 0,0.624 0.427,0.998 0.937,0.998"
             style="fill:#0d0906;fill-opacity:1;fill-rule:nonzero;stroke:none"
             id="path5443"
             inkscape:connector-curvature="0" />
        </g>
        <g
           id="g5445"
           transform="translate(351.8362,134.139)">
          <path
             d="m 0,0 c 0,0 0.212,-0.287 0.586,-0.287 0.212,0 0.401,0.102 0.401,0.302 0,0.416 -1.066,0.34 -1.066,0.953 0,0.344 0.303,0.514 0.684,0.514 0.193,0 0.587,-0.076 0.587,-0.344 l 0,-0.154 -0.281,0 0,0.082 c 0,0.14 -0.193,0.193 -0.317,0.193 -0.265,0 -0.418,-0.091 -0.418,-0.276 0,-0.427 1.069,-0.329 1.069,-0.96 0,-0.318 -0.286,-0.533 -0.664,-0.533 -0.495,0 -0.729,0.332 -0.729,0.332 L 0,0 z"
             style="fill:#0d0906;fill-opacity:1;fill-rule:nonzero;stroke:none"
             id="path5447"
             inkscape:connector-curvature="0" />
        </g>
        <g
           id="g5449"
           transform="translate(337.9192,131.4819)">
          <path
             d="m 0,0 -0.915,0 0,0.325 2.204,0 0,-0.325 -0.915,0 0,-2.344 L 0,-2.344 0,0 z"
             style="fill:#bc9e52;fill-opacity:1;fill-rule:nonzero;stroke:none"
             id="path5451"
             inkscape:connector-curvature="0" />
        </g>
        <g
           id="g5453"
           transform="translate(339.6276,131.807)">
          <path
             d="M 0,0 0.404,0 1.066,-1.886 C 1.115,-2.03 1.168,-2.253 1.168,-2.253 l 0.008,0 c 0,0 0.052,0.223 0.102,0.367 L 1.947,0 2.344,0 1.361,-2.669 0.987,-2.669 0,0 z"
             style="fill:#bc9e52;fill-opacity:1;fill-rule:nonzero;stroke:none"
             id="path5455"
             inkscape:connector-curvature="0" />
        </g>
        <g
           id="g5457"
           transform="translate(339.5762,147.1575)">
          <path
             d="m 0,0 c -0.772,0 -1.4,-0.581 -1.43,-1.376 l 2.86,0 C 1.4,-0.581 0.772,0 0,0"
             style="fill:#0d0906;fill-opacity:1;fill-rule:nonzero;stroke:none"
             id="path5459"
             inkscape:connector-curvature="0" />
        </g>
        <g
           id="g5461"
           transform="translate(339.5762,142.1154)">
          <path
             d="m 0,0 c 0.772,0 1.4,0.534 1.43,1.376 l -2.86,0 C -1.4,0.534 -0.772,0 0,0"
             style="fill:#0d0906;fill-opacity:1;fill-rule:nonzero;stroke:none"
             id="path5463"
             inkscape:connector-curvature="0" />
        </g>
        <path
           d="m 338.143,143.725 2.863,0 0,0.795 -2.863,0 0,-0.795 z"
           style="fill:#0d0906;fill-opacity:1;fill-rule:nonzero;stroke:none"
           id="path5465"
           inkscape:connector-curvature="0" />
        <path
           d="m 338.143,144.753 2.863,0 0,0.795 -2.863,0 0,-0.795 z"
           style="fill:#0d0906;fill-opacity:1;fill-rule:nonzero;stroke:none"
           id="path5467"
           inkscape:connector-curvature="0" />
      </g>
    </g>
  </g>
</svg>
