<?xml version="1.0" encoding="utf-8"?>
<!-- Generator: Adobe Illustrator 23.1.0, SVG Export Plug-In . SVG Version: 6.00 Build 0)  -->
<svg version="1.1" id="Layer_2" xmlns="http://www.w3.org/2000/svg" xmlns:xlink="http://www.w3.org/1999/xlink" x="0px" y="0px"
	 width="1000px" height="251.8443604px" viewBox="0 0 1000 251.8443604" enable-background="new 0 0 1000 251.8443604"
	 xml:space="preserve">
<polygon fill="#282828" points="77.3047256,28.8574352 0,28.8574352 22.0869255,6.0581083 77.3047256,6.0581083 "/>
<polygon fill="#282828" points="91.198288,6.0581083 147.128006,6.0581083 147.128006,145.7056427 74.4551163,145.7056427 
	90.8418427,129.3179321 90.8418427,6.0581083 "/>
<polygon fill="#282828" points="184.88974,28.8574352 184.88974,129.3179321 201.276947,145.7056427 161.0215607,145.7056427 
	161.0215607,6.0581083 276.088501,6.0581083 254.0010986,28.8574352 "/>
<polygon fill="#282828" points="562.151123,42.7514839 586.0193481,67.3320618 586.0193481,145.7056427 545.7634277,145.7056427 
	562.151123,129.3179321 "/>
<polygon fill="#282828" points="623.4246216,6.0581083 701.0858154,85.8559952 663.3240356,127.8921509 546.4763184,6.0566435 "/>
<polygon fill="#282828" points="740.9842529,6.0581083 796.914917,6.0581083 796.914917,145.7056427 740.9842529,145.7056427 
	740.9842529,41.3266792 710.3475342,75.5254288 643.3738403,6.0581083 676.1472778,6.0581083 709.633667,40.612812 "/>
<polygon fill="#282828" points="834.6766968,128.9624634 851.0634155,145.3491974 810.8084717,145.3491974 810.8084717,6.0581083 
	851.4198608,6.0581083 835.0331421,22.4448357 835.0331421,128.9624634 "/>
<path fill="#282828" d="M342.3561096,64.1250305c0,31.7050934,24.5805969,65.5483704,75.1680298,65.5483704
	c49.5170898,0,74.811554-24.9370193,80.5102844-29.5688629l12.824707,16.3872147
	c-8.1933594,6.05616-37.4057617,34.1982651-102.9536438,34.1982651c-50.5874329,0-127.8921814-17.8115387-127.8921814-75.5234756
	c0-46.3120346,59.8491516-72.3169327,103.3101196-74.4556046c-17.4555664,5.3437524-40.9673157,25.2929821-40.9673157,63.4111633
	V64.1250305z"/>
<path fill="#282828" d="M429.6354675,21.3750095c-33.4863586,0-54.5049133,15.6748142-54.5049133,47.736351
	c0,19.9502106,9.262207,37.7617416,18.8798828,45.9555893c-18.5239258-3.206543-37.7617188-28.5000076-37.7617188-50.9433823
	C356.2487183,19.94874,391.8737183,0,424.6476746,0c22.0874023,0,40.2553711,6.412601,62.698761,17.099617L503.376709,2.8496108
	v53.7925072c-17.8115234-19.9502029-46.667511-35.2685699-73.7427063-35.2685699L429.6354675,21.3750095z"/>
<path fill="#282828" d="M342.5035706,184.0874939c-19.0795898,0-34.546875,15.1679688-34.546875,33.8789215
	c0.0004883,18.7099762,15.4672852,33.8779449,34.546875,33.8779449c19.0796204,0,34.5464172-15.1679688,34.5464172-33.8779449
	S361.5831909,184.0884705,342.5035706,184.0874939z M342.5035706,197.3697205
	c11.2114563,0,20.3003235,9.2216949,20.3003235,20.5966949c-0.0004883,11.375-9.0888672,20.5957184-20.3003235,20.5957184
	c-11.2114258,0-20.2998047-9.2207184-20.300293-20.5957184c0-11.375,9.0888672-20.5966949,20.2998047-20.5966949H342.5035706z"/>
<path fill="#282828" d="M655.9910278,189.7486267c4.6953125-4.0576172,11.1005859-5.390625,17.1552734-5.4609375
	c4.8544922-0.0488281,9.8564453,0.7041016,14.1699219,3.0517578c3.3711548,1.8115234,6.1621704,4.7128906,7.7520142,8.2080078
	c1.4042969,3.0029297,1.9267578,6.3457031,1.9716797,9.6406403h-13.8740845
	c-0.1103516-1.9443359-0.6503906-3.949234-2.0683594-5.3574371c-2.3876953-2.4277344-6.0332031-3.0566406-9.2978516-2.7597656
	c-2.28125,0.2304688-4.6728516,0.921875-6.2988281,2.6318359c-1.6738281,1.7177734-1.8466797,4.7480621-0.1767578,6.5332184
	c1.6123047,1.7324219,3.9599609,2.4765625,6.1611328,3.1630859c5.5898438,1.5986328,11.3974609,2.578125,16.7041626,5.0498047
	c3.1669922,1.4570313,6.1435547,3.5693359,8.0800781,6.5283203c2.1660156,3.2470703,2.84375,7.2734375,2.6484375,11.1230469
	c-0.1728516,4.6464996-1.9091797,9.3066559-5.2050781,12.6464996c-4.7568359,4.8681641-11.7510376,6.7998047-18.3916626,6.9365234
	c-7.0117188,0.2128906-14.4716797-1.5234375-19.7158203-6.4228516c-4.3857422-4.0087891-6.4853516-10.0371094-6.4228516-15.8935699
	h14.1386719c0.0449219,2.5742188,1.0546875,5.2050934,3.1279297,6.8173981
	c3.1933594,2.5117188,7.6367188,2.9638672,11.4951172,1.9980469c2.2587891-0.5976563,4.5048828-1.7988281,5.7890625-3.8271637
	c1.2802734-2.0019531,1.3378906-4.9033203-0.3144531-6.7197266c-1.5810547-1.7236328-3.8710938-2.515625-6.0419922-3.1933594
	c-5.7275391-1.6484375-11.7119141-2.5429688-17.1513672-5.0771484c-3.0917969-1.4169922-5.9755859-3.5166016-7.7783203-6.4443359
	c-2.2724609-3.6328125-2.6884766-8.1240234-2.1533203-12.2920074
	C650.8123169,196.4771423,652.7879028,192.4771423,655.9910278,189.7486267z"/>
<polygon fill="#282828" points="193.2583923,250.3482666 207.5753021,250.3482666 213.9742279,208.1461029 233.3023529,250.3482666 
	236.7618408,250.3482666 256.0889893,208.1461029 262.4888916,250.3482666 276.8057861,250.3482666 266.6436768,185.5152283 
	252.6422119,185.5152283 235.0318604,225.1031342 217.4219818,185.5152283 203.420517,185.5152283 "/>
<polygon fill="#282828" points="405.3971558,185.5152283 430.7697449,250.3482666 443.1867371,250.3482666 468.5592957,185.5152283 
	453.2507019,185.5152283 436.9787292,231.2789154 420.7062683,185.5152283 "/>
<rect x="508.1745605" y="185.5142517" fill="#282828" width="14.0312567" height="64.8310852"/>
<polygon fill="#282828" points="568.9490356,185.5142517 607.9011841,185.5142517 607.9011841,198.4908142 582.9949341,198.4908142 
	582.9949341,211.2877045 605.4627075,211.2877045 605.4627075,224.0425873 582.9949341,224.0425873 582.9949341,237.3121338 
	608.9177856,237.3121338 608.9177856,250.3482666 568.9490356,250.3482666 "/>
<polygon fill="#282828" points="15.5019608,211.0689545 2.1391611,224.8619232 134.8057251,224.8619232 148.1685333,211.0689545 "/>
<polygon fill="#282828" points="875.743103,211.0689545 889.1054077,224.8619232 756.4393311,224.8619232 743.0760498,211.0689545 
	"/>
<path fill="#282828" d="M925.3173218,7.9746132c0-1.8671885-0.9960938-2.8627944-2.8632813-2.8627944h-9.2109375
	c-1.8671875,0-2.8632813,0.9956059-2.8632813,2.8627944v31.4917145h-29.5V7.9746132
	c0-1.8671885-0.9951172-2.8627944-2.8623047-2.8627944h-9.2109375c-1.8671875,0-2.8632813,0.9956059-2.8632813,2.8627944v76.9238586
	c0,1.8671951,0.9960938,2.8628006,2.8632813,2.8628006h9.2109375c1.8671875,0,2.8623047-0.9956055,2.8623047-2.8628006V52.4116478
	h29.5v32.4868279c0,1.8671951,0.9960938,2.8628006,2.8632813,2.8628006h9.2109375
	c1.8671875,0,2.8623047-0.9956055,2.8623047-2.8628006L925.3173218,7.9746132z"/>
<path fill="#282828" d="M944.734375,5.1118188c-1.8671875,0-2.8623047,0.9960942-2.8623047,2.8627944v76.9243469
	c0,1.8667068,0.9951172,2.8628006,2.8623047,2.8628006h24.8945313C989.9179688,87.7617645,1000,78.1772842,1000,59.0083313
	V33.7407379c0-19.0444412-10.0820313-28.6284313-30.3710938-28.6284313L944.734375,5.1118188z M985.0634766,57.6391869
	c0,11.8251991-5.1035156,17.1772575-16.1816406,17.1772575h-12.0732422V18.0571384h12.0732422
	c11.078125,0,16.1816406,5.4770527,16.1816406,17.0527401V57.6391869z"/>
</svg>
