<?xml version="1.0" encoding="utf-8"?>
<!-- Generator: Adobe Illustrator 23.1.0, SVG Export Plug-In . SVG Version: 6.00 Build 0)  -->
<svg version="1.1" id="Layer_2" xmlns="http://www.w3.org/2000/svg" xmlns:xlink="http://www.w3.org/1999/xlink" x="0px" y="0px"
	 width="1000px" height="283.2558594px" viewBox="0 0 1000 283.2558594" enable-background="new 0 0 1000 283.2558594"
	 xml:space="preserve">
<polygon fill="#282828" points="86.9467773,32.456543 0,32.456543 24.8422852,6.8134766 86.9467773,6.8134766 "/>
<polygon fill="#282828" points="102.5732422,6.8134766 165.4790039,6.8134766 165.4790039,163.8779297 83.7416992,163.8779297 
	102.1723633,145.4472656 102.1723633,6.8134766 "/>
<polygon fill="#282828" points="207.9506836,32.456543 207.9506836,145.4472656 226.3818359,163.8779297 181.1054688,163.8779297 
	181.1054688,6.8134766 310.5239258,6.8134766 285.6821289,32.456543 "/>
<polygon fill="#282828" points="632.265625,48.0834961 659.1103516,75.7294922 659.1103516,163.8779297 613.8349609,163.8779297 
	632.265625,145.4472656 "/>
<polygon fill="#282828" points="701.1816406,6.8134766 788.5292969,96.5639648 746.0576172,143.8427734 614.6357422,6.8115234 "/>
<polygon fill="#282828" points="833.4042969,6.8134766 896.3105469,6.8134766 896.3105469,163.8779297 833.4042969,163.8779297 
	833.4042969,46.480957 798.9462891,84.9453125 723.6191406,6.8134766 760.4804688,6.8134766 798.1435547,45.6782227 "/>
<polygon fill="#282828" points="938.7822266,145.046875 957.2128906,163.4775391 911.9375,163.4775391 911.9375,6.8134766 
	957.6142578,6.8134766 939.1826172,25.2441406 939.1826172,145.046875 "/>
<path fill="#282828" d="M385.0571289,72.1225586c0,35.6601563,27.6464844,73.7241211,84.5429688,73.7241211
	c55.6938477,0,84.1430664-28.0473633,90.5522461-33.2568359l14.4248047,18.4311523
	c-9.2158203,6.8115234-42.0712891,38.4643555-115.7954102,38.4643555c-56.8964844,0-143.8432617-20.0332031-143.8432617-84.9438477
	c0-52.0878906,67.3139648-81.3369141,116.1953125-83.7421875c-19.6323242,6.0102539-46.0771484,28.4477539-46.0771484,71.3203125
	L385.0571289,72.1225586z"/>
<path fill="#282828" d="M483.222168,24.0405273c-37.6625977,0-61.3032227,17.6298828-61.3032227,53.6904297
	c0,22.4384766,10.4174805,42.472168,21.2353516,51.6875c-20.8344727-3.605957-42.472168-32.0546875-42.472168-57.2973633
	C400.6821289,22.4365234,440.7504883,0,477.6123047,0c24.8417969,0,45.2763672,7.2119141,70.5185547,19.2319336
	l18.0302734-16.0273438v60.5024414c-20.0332031-22.4389648-52.4882813-39.6679688-82.9404297-39.6679688L483.222168,24.0405273z"/>
<path fill="#282828" d="M385.2231445,207.0478516c-21.4594727,0-38.855957,17.0595703-38.855957,38.1044922
	c0.0004883,21.0439453,17.3964844,38.1035156,38.855957,38.1035156
	c21.4589844-0.0009766,38.8544922-17.0595703,38.8549805-38.1035156
	C424.078125,224.1083984,406.6821289,207.0488281,385.2231445,207.0478516z M385.2231445,221.9873047
	c12.609375,0,22.831543,10.3710938,22.831543,23.1650391c0,12.7929688-10.222168,23.1640625-22.831543,23.1640625
	c-12.6098633,0.0009766-22.8325195-10.3701172-22.8325195-23.1640625s10.222168-23.1650391,22.8320313-23.1650391H385.2231445z"/>
<path fill="#282828" d="M737.8095703,213.4150391c5.28125-4.5634766,12.4853516-6.0625,19.2958984-6.1425781
	c5.4599609-0.0546875,11.0849609,0.7919922,15.9375,3.4326172c3.7910156,2.0380859,6.9296875,5.3007813,8.71875,9.2314453
	c1.5791016,3.3779297,2.1669922,7.1367188,2.2167969,10.84375H768.375c-0.125-2.1875-0.7324219-4.4414063-2.3271484-6.0253906
	c-2.6855469-2.7304688-6.7851563-3.4384766-10.4570313-3.1044922c-2.5654297,0.2597656-5.2558594,1.0361328-7.0849609,2.9599609
	c-1.8828125,1.9326172-2.0771484,5.3408203-0.1992188,7.3486328c1.8134766,1.9472656,4.4541016,2.7841797,6.9306641,3.5566406
	c6.2871094,1.7988281,12.8183594,2.8994141,18.7871094,5.6796875c3.5625,1.6396484,6.9101563,4.015625,9.0869141,7.34375
	c2.4365234,3.6513672,3.1992188,8.1806641,2.9794922,12.5097656c-0.1943359,5.2265625-2.1474609,10.4677734-5.8535156,14.2236328
	c-5.3505859,5.4755859-13.2177734,7.6474609-20.6855469,7.8027344c-7.8867188,0.2382813-16.2763672-1.7138672-22.1757813-7.2246094
	c-4.9316406-4.5087891-7.2939453-11.2890625-7.2236328-17.8759766h15.9023438
	c0.0498047,2.8945313,1.1865234,5.8544922,3.5175781,7.6679688c3.5917969,2.8242188,8.5888672,3.3330078,12.9287109,2.2470703
	c2.5410156-0.6728516,5.0664063-2.0234375,6.5117188-4.3046875c1.4394531-2.2519531,1.5039063-5.515625-0.3535156-7.5576172
	c-1.7792969-1.9384766-4.3544922-2.8300781-6.7958984-3.5927734c-6.4423828-1.8525391-13.1728516-2.859375-19.2910156-5.7089844
	c-3.4775391-1.5947266-6.7207031-3.9560547-8.7480469-7.2490234c-2.5556641-4.0849609-3.0244141-9.1367188-2.421875-13.8251953
	C731.9853516,220.9833984,734.2080078,216.484375,737.8095703,213.4150391z"/>
<polygon fill="#282828" points="217.362793,281.5722656 233.465332,281.5722656 240.6625977,234.1074219 262.4013672,281.5722656 
	266.2924805,281.5722656 288.0302734,234.1074219 295.2285156,281.5722656 311.3305664,281.5722656 299.9013672,208.6533203 
	284.1533203,208.6533203 264.3466797,253.1787109 244.5405273,208.6533203 228.7924805,208.6533203 "/>
<polygon fill="#282828" points="455.9609375,208.6533203 484.4980469,281.5722656 498.4633789,281.5722656 527.0009766,208.6533203 
	509.7832031,208.6533203 491.480957,260.125 473.1796875,208.6533203 "/>
<rect x="571.5576172" y="208.6523438" fill="#282828" width="15.78125" height="72.9179688"/>
<polygon fill="#282828" points="639.9121094,208.6523438 683.7216797,208.6523438 683.7216797,223.2470703 655.7099609,223.2470703 
	655.7099609,237.640625 680.9794922,237.640625 680.9794922,251.9863281 655.7099609,251.9863281 655.7099609,266.9101563 
	684.8652344,266.9101563 684.8652344,281.5722656 639.9121094,281.5722656 "/>
<polygon fill="#282828" points="17.4360352,237.3935547 2.40625,252.9082031 151.6196289,252.9082031 166.6489258,237.3935547 "/>
<polygon fill="#282828" points="984.9707031,237.3935547 1000,252.9082031 850.7871094,252.9082031 835.7578125,237.3935547 "/>
</svg>
